<svg width="192" height="192" viewBox="0 0 192 192" fill="none" xmlns="http://www.w3.org/2000/svg">
<path d="M3.78356 121V111.199L22.5037 95.7131C23.7452 94.6839 24.807 93.7202 25.6891 92.8217C26.5875 91.907 27.2736 90.9677 27.7473 90.0039C28.2374 89.0401 28.4824 87.9702 28.4824 86.794C28.4824 85.5036 28.2047 84.4009 27.6493 83.4861C27.1103 82.5714 26.3588 81.869 25.3951 81.3789C24.4313 80.8725 23.3205 80.6193 22.0627 80.6193C20.8049 80.6193 19.6941 80.8725 18.7303 81.3789C17.7828 81.8853 17.0478 82.6285 16.525 83.6087C16.0023 84.5888 15.7409 85.7812 15.7409 87.1861H2.80344C2.80344 83.6577 3.5957 80.6193 5.18022 78.071C6.76474 75.5227 9.00266 73.5625 11.894 72.1903C14.7853 70.8182 18.1749 70.1321 22.0627 70.1321C26.0811 70.1321 29.5605 70.7773 32.5009 72.0678C35.4576 73.342 37.7363 75.1388 39.3372 77.4585C40.9544 79.7781 41.763 82.4979 41.763 85.6179C41.763 87.5455 41.3628 89.4648 40.5623 91.3761C39.7619 93.271 38.3244 95.37 36.2498 97.6733C34.1752 99.9766 31.2267 102.721 27.4043 105.906L22.6998 109.827V110.121H42.302V121H3.78356ZM70.2475 122.372C65.69 122.356 61.7532 121.302 58.4371 119.211C55.1211 117.12 52.5646 114.107 50.7678 110.17C48.9709 106.233 48.0806 101.512 48.0969 96.0071C48.1133 90.4858 49.0117 85.7976 50.7923 81.9425C52.5891 78.0874 55.1374 75.1552 58.4371 73.146C61.7532 71.1367 65.69 70.1321 70.2475 70.1321C74.805 70.1321 78.7418 71.1449 82.0579 73.1705C85.3739 75.1797 87.9304 78.1119 89.7273 81.967C91.5241 85.8221 92.4144 90.5021 92.3981 96.0071C92.3981 101.545 91.4996 106.282 89.7028 110.219C87.9059 114.156 85.3494 117.169 82.0334 119.26C78.7337 121.335 74.805 122.372 70.2475 122.372ZM70.2475 111.297C72.5998 111.297 74.5273 110.072 76.0302 107.621C77.5494 105.155 78.3008 101.283 78.2844 96.0071C78.2844 92.5604 77.9414 89.7425 77.2553 87.5536C76.5692 85.3647 75.6218 83.7475 74.413 82.7021C73.2042 81.6403 71.8157 81.1094 70.2475 81.1094C67.8952 81.1094 65.9759 82.3018 64.4893 84.6868C63.0028 87.0717 62.2433 90.8452 62.2106 96.0071C62.1942 99.5192 62.5291 102.411 63.2152 104.681C63.9013 106.935 64.8487 108.602 66.0575 109.68C67.2827 110.758 68.6793 111.297 70.2475 111.297ZM98.3033 113.159V102.574L118.494 70.8182H128.099V84.9318H122.61L111.731 102.182V102.574H141.526V113.159H98.3033ZM122.708 121V109.925L123.002 105.318V70.8182H135.744V121H122.708ZM167.726 121.686C163.675 121.686 160.057 121.057 156.871 119.799C153.702 118.542 151.203 116.835 149.373 114.678C147.56 112.522 146.653 110.088 146.653 107.376C146.653 105.302 147.168 103.407 148.197 101.692C149.243 99.9766 150.647 98.5554 152.412 97.4283C154.176 96.2848 156.144 95.5497 158.317 95.223V94.831C155.458 94.3409 153.106 93.0749 151.26 91.033C149.43 88.9748 148.516 86.549 148.516 83.7557C148.516 81.1257 149.349 78.7898 151.015 76.7479C152.681 74.6896 154.96 73.0724 157.851 71.8963C160.743 70.7202 164.034 70.1321 167.726 70.1321C171.418 70.1321 174.709 70.7283 177.601 71.9208C180.492 73.0969 182.771 74.7141 184.437 76.7724C186.103 78.8143 186.936 81.142 186.936 83.7557C186.936 86.5653 186.005 88.9911 184.143 91.033C182.281 93.0749 179.945 94.3409 177.135 94.831V95.223C179.291 95.5497 181.252 96.2848 183.016 97.4283C184.78 98.5554 186.185 99.9766 187.23 101.692C188.276 103.407 188.798 105.302 188.798 107.376C188.798 110.088 187.884 112.522 186.054 114.678C184.241 116.835 181.742 118.542 178.556 119.799C175.387 121.057 171.777 121.686 167.726 121.686ZM167.726 112.277C169.016 112.277 170.16 112.016 171.156 111.493C172.153 110.97 172.937 110.251 173.509 109.337C174.097 108.406 174.391 107.36 174.391 106.2C174.391 105.04 174.097 104.011 173.509 103.113C172.937 102.214 172.153 101.512 171.156 101.006C170.16 100.483 169.016 100.222 167.726 100.222C166.452 100.222 165.308 100.483 164.296 101.006C163.299 101.512 162.507 102.214 161.919 103.113C161.347 104.011 161.061 105.04 161.061 106.2C161.061 107.36 161.347 108.397 161.919 109.312C162.507 110.227 163.299 110.954 164.296 111.493C165.308 112.016 166.452 112.277 167.726 112.277ZM167.726 90.8125C168.869 90.8125 169.882 90.5756 170.764 90.1019C171.646 89.6282 172.341 88.9748 172.847 88.1417C173.353 87.3086 173.607 86.3693 173.607 85.3239C173.607 84.2784 173.353 83.3555 172.847 82.555C172.341 81.7383 171.646 81.1012 170.764 80.6438C169.882 80.1701 168.869 79.9332 167.726 79.9332C166.599 79.9332 165.586 80.1701 164.688 80.6438C163.805 81.1012 163.111 81.7383 162.605 82.555C162.098 83.3555 161.845 84.2784 161.845 85.3239C161.845 86.3693 162.098 87.3086 162.605 88.1417C163.111 88.9585 163.805 89.6119 164.688 90.1019C165.586 90.5756 166.599 90.8125 167.726 90.8125Z" fill="black"/>
</svg>
