<svg width="192" height="192" viewBox="0 0 192 192" fill="none" xmlns="http://www.w3.org/2000/svg">
<path d="M78 153C78 157.509 75.4714 161.833 70.9706 165.021C66.4697 168.209 60.3652 170 54 170C47.6348 170 41.5303 168.209 37.0294 165.021C32.5286 161.833 30 157.509 30 153C30 148.491 32.5286 144.167 37.0294 140.979C41.5303 137.791 47.6348 136 54 136C60.3652 136 66.4697 137.791 70.9706 140.979C75.4714 144.167 78 148.491 78 153ZM158 126C158 130.509 155.471 134.833 150.971 138.021C146.47 141.209 140.365 143 134 143C127.635 143 121.53 141.209 117.029 138.021C112.529 134.833 110 130.509 110 126C110 121.491 112.529 117.167 117.029 113.979C121.53 110.791 127.635 109 134 109C140.365 109 146.47 110.791 150.971 113.979C155.471 117.167 158 121.491 158 126Z" stroke="black" stroke-width="12"/>
<path d="M78 153V31L158 11V125" stroke="black" stroke-width="12" stroke-linejoin="round"/>
<path d="M49.5 139L34 145L34.5 152.5L36.5 160.5L45 165L59.5 166.5L72.5 160.5L75 152L71 141L49.5 139Z" fill="black"/>
<path d="M133.5 112.5L120 114L112 130L120 141L139 142L150.5 137L158.5 126.5L152.5 115L133.5 112.5Z" fill="black"/>
<path d="M78 81L158 61" stroke="black" stroke-width="24"/>
</svg>
