<svg width="192" height="192" viewBox="0 0 192 192" fill="none" xmlns="http://www.w3.org/2000/svg">
<path d="M175.181 118.087L175.111 118.134C169.959 112.785 159.83 109.876 145.983 109.876C138.607 109.876 130.115 110.597 120.882 112.287C115.763 107.197 110.652 101.275 105.786 94.3746L105.781 94.3677C102.309 89.5338 99.2521 84.4126 96.4387 79.3402C101.855 62.2889 104.513 48.2942 104.513 38.1233C104.513 32.3669 103.477 26.3928 100.87 21.8203C98.2323 17.1935 93.9717 14 87.6937 14C83.6867 14 79.7867 16.4106 77.6979 19.913L77.6899 19.9265L77.6823 19.9402C74.8862 24.9809 74.1879 32.8468 75.2689 41.9087C76.3427 50.9117 79.192 61.2578 83.6927 71.5378C80.3286 81.6758 76.7788 91.396 72.3493 102.3C68.4991 111.471 64.0618 120.928 59.5354 129.621C46.4498 134.973 35.6231 140.773 27.8359 146.489C23.9088 149.372 20.7314 152.25 18.4258 155.059C16.1303 157.856 14.6542 160.64 14.2173 163.334C13.4391 167.392 14.7929 171.092 17.5649 174.011L17.6065 174.055L17.653 174.093C17.6771 174.113 17.703 174.134 17.7306 174.157C18.7747 175.024 22.3591 178 28.299 178C32.952 178 37.5843 176.078 42.0158 173.024C46.4521 169.966 50.7565 165.727 54.7752 160.974C62.7072 151.594 69.626 140.091 74.3372 131.361C81.2449 129.029 88.1771 126.886 95.0963 124.746L95.4983 124.622C103.184 122.511 110.894 120.778 117.934 119.569C136.468 136.415 152.846 139.134 161.214 139.134C166.394 139.134 170.015 138.061 172.528 136.461C175.037 134.862 176.366 132.785 177.042 130.906C179.096 126.098 177.556 120.846 175.181 118.087ZM164.146 125.959L164.033 126.569C163.16 129.283 160.221 131.252 155.804 131.252C154.793 131.252 153.919 131.112 152.884 130.945C152.575 130.895 152.25 130.843 151.904 130.792C143.501 128.75 135.57 124.611 127.652 118.128C135.097 117.012 141.391 116.793 145.481 116.793C150.47 116.793 154.692 117.035 157.458 117.743L157.477 117.747L157.495 117.751C159.084 118.094 161.036 118.784 162.435 120.062C163.772 121.284 164.675 123.1 164.146 125.959ZM94.1392 118.274C89.3497 119.605 84.3741 121.057 79.3696 122.735C82.0288 117.371 84.3338 112.166 86.4528 107.222L86.4554 107.216C88.6431 102.017 90.5368 96.6891 92.3554 91.5723C92.716 90.5578 93.0737 89.5515 93.4301 88.5562C95.5116 92.1112 97.7705 95.6343 100.035 98.831L100.04 98.8379L100.045 98.8447C103.994 104.222 108.104 109.373 112.254 113.965C106.542 115.175 100.454 116.572 94.1466 118.272L94.1392 118.274ZM83.7512 23.7273L84.1959 22.9633C85.0566 21.8286 86.3457 21.2627 87.4554 21.2627C88.5072 21.2627 89.2924 21.5633 89.9043 22.0416C90.5306 22.5312 91.0332 23.2534 91.4225 24.1761C92.2105 26.0439 92.4486 28.5254 92.4486 30.8439C92.4486 38.0428 90.41 48.8064 86.8526 61.2523C83.9543 52.8952 82.3785 45.2494 81.8765 38.9192C81.3135 31.8183 82.1147 26.5384 83.7512 23.7273ZM31.4129 152.707C37.0222 148.532 44.6794 144.138 53.9745 139.899C48.4593 148.91 43.0969 156.233 38.2735 161.419C35.6217 164.27 33.1553 166.451 30.9378 167.913C28.7054 169.384 26.8146 170.067 25.2922 170.067C24.1688 170.067 23.1805 169.674 22.3898 169.094C21.1424 167.795 20.6441 166.432 21.011 164.923L21.0163 164.901L21.0206 164.879C21.3371 163.268 22.3477 161.393 24.112 159.308C25.8676 157.233 28.3178 155.011 31.4129 152.707Z" fill="black" stroke="black" stroke-width="2"/>
<path d="M95.9261 156.631C95.8314 155.589 95.41 154.779 94.6619 154.202C93.9233 153.615 92.8674 153.321 91.4943 153.321C90.5852 153.321 89.8277 153.439 89.2216 153.676C88.6155 153.913 88.161 154.24 87.858 154.656C87.5549 155.063 87.3987 155.532 87.3892 156.062C87.3703 156.498 87.4555 156.882 87.6449 157.213C87.8438 157.545 88.1278 157.838 88.4972 158.094C88.8759 158.34 89.3305 158.558 89.8608 158.747C90.3911 158.937 90.9877 159.102 91.6506 159.244L94.1506 159.812C95.59 160.125 96.8589 160.542 97.9574 161.062C99.0653 161.583 99.9934 162.204 100.741 162.923C101.499 163.643 102.072 164.472 102.46 165.409C102.848 166.347 103.047 167.398 103.057 168.562C103.047 170.4 102.583 171.976 101.665 173.293C100.746 174.609 99.4252 175.617 97.7017 176.318C95.9877 177.019 93.9186 177.369 91.4943 177.369C89.0606 177.369 86.9394 177.005 85.1307 176.276C83.322 175.546 81.9157 174.438 80.9119 172.952C79.9081 171.465 79.392 169.585 79.3636 167.312H86.0966C86.1534 168.25 86.4044 169.031 86.8494 169.656C87.2945 170.281 87.9053 170.755 88.6818 171.077C89.4678 171.399 90.3769 171.56 91.4091 171.56C92.3561 171.56 93.161 171.432 93.8239 171.176C94.4962 170.92 95.0123 170.565 95.3722 170.111C95.732 169.656 95.9167 169.135 95.9261 168.548C95.9167 167.999 95.7462 167.53 95.4148 167.142C95.0833 166.744 94.572 166.403 93.8807 166.119C93.1989 165.826 92.3277 165.556 91.267 165.31L88.2273 164.599C85.7083 164.022 83.7244 163.089 82.2756 161.801C80.8267 160.504 80.107 158.752 80.1165 156.545C80.107 154.746 80.59 153.17 81.5653 151.815C82.5407 150.461 83.8902 149.405 85.6136 148.648C87.3371 147.89 89.3021 147.511 91.5085 147.511C93.7623 147.511 95.7178 147.895 97.375 148.662C99.0417 149.42 100.334 150.485 101.253 151.858C102.171 153.231 102.64 154.822 102.659 156.631H95.9261ZM116.793 177.412C114.491 177.412 112.517 176.938 110.869 175.991C109.231 175.045 107.972 173.728 107.091 172.043C106.21 170.348 105.77 168.387 105.77 166.162C105.77 163.927 106.21 161.967 107.091 160.281C107.981 158.586 109.245 157.265 110.884 156.318C112.531 155.371 114.496 154.898 116.778 154.898C118.795 154.898 120.552 155.262 122.048 155.991C123.554 156.721 124.728 157.753 125.571 159.088C126.423 160.414 126.873 161.972 126.92 163.761H120.429C120.296 162.644 119.918 161.768 119.293 161.134C118.677 160.499 117.872 160.182 116.878 160.182C116.073 160.182 115.367 160.409 114.761 160.864C114.155 161.309 113.682 161.972 113.341 162.852C113.009 163.723 112.844 164.803 112.844 166.091C112.844 167.379 113.009 168.468 113.341 169.358C113.682 170.239 114.155 170.906 114.761 171.361C115.367 171.806 116.073 172.028 116.878 172.028C117.522 172.028 118.09 171.891 118.582 171.616C119.084 171.342 119.496 170.939 119.818 170.409C120.14 169.869 120.344 169.216 120.429 168.449H126.92C126.854 170.248 126.404 171.82 125.571 173.165C124.747 174.509 123.587 175.556 122.091 176.304C120.604 177.043 118.838 177.412 116.793 177.412ZM136.626 177.369C135.234 177.369 133.998 177.137 132.918 176.673C131.848 176.2 131.001 175.49 130.376 174.543C129.76 173.586 129.452 172.388 129.452 170.949C129.452 169.737 129.665 168.714 130.092 167.881C130.518 167.047 131.105 166.37 131.853 165.849C132.601 165.329 133.463 164.936 134.438 164.67C135.414 164.396 136.455 164.211 137.563 164.116C138.804 164.003 139.803 163.884 140.56 163.761C141.318 163.629 141.867 163.444 142.208 163.207C142.558 162.961 142.734 162.616 142.734 162.17V162.099C142.734 161.37 142.483 160.807 141.981 160.409C141.479 160.011 140.802 159.812 139.95 159.812C139.031 159.812 138.292 160.011 137.734 160.409C137.175 160.807 136.82 161.356 136.668 162.057L130.262 161.83C130.451 160.504 130.939 159.32 131.725 158.278C132.521 157.227 133.61 156.403 134.992 155.807C136.384 155.201 138.056 154.898 140.006 154.898C141.398 154.898 142.682 155.063 143.856 155.395C145.03 155.717 146.053 156.19 146.924 156.815C147.795 157.431 148.468 158.188 148.941 159.088C149.424 159.988 149.665 161.015 149.665 162.17V177H143.131V173.96H142.961C142.573 174.699 142.076 175.324 141.469 175.835C140.873 176.347 140.167 176.73 139.353 176.986C138.548 177.241 137.639 177.369 136.626 177.369ZM138.771 172.824C139.519 172.824 140.191 172.672 140.788 172.369C141.394 172.066 141.877 171.65 142.237 171.119C142.596 170.58 142.776 169.955 142.776 169.244V167.17C142.577 167.275 142.336 167.369 142.052 167.455C141.777 167.54 141.474 167.62 141.143 167.696C140.811 167.772 140.47 167.838 140.12 167.895C139.77 167.952 139.433 168.004 139.112 168.051C138.458 168.155 137.899 168.316 137.435 168.534C136.981 168.752 136.63 169.036 136.384 169.386C136.147 169.727 136.029 170.134 136.029 170.608C136.029 171.328 136.285 171.877 136.796 172.256C137.317 172.634 137.975 172.824 138.771 172.824ZM160.859 164.557V177H153.913V155.182H160.518V159.188H160.759C161.242 157.852 162.066 156.806 163.231 156.048C164.396 155.281 165.783 154.898 167.393 154.898C168.927 154.898 170.257 155.243 171.384 155.935C172.521 156.616 173.401 157.573 174.026 158.804C174.661 160.026 174.973 161.455 174.964 163.094V177H168.018V164.457C168.027 163.245 167.719 162.298 167.094 161.616C166.479 160.935 165.622 160.594 164.523 160.594C163.794 160.594 163.15 160.755 162.592 161.077C162.042 161.389 161.616 161.839 161.313 162.426C161.02 163.013 160.868 163.723 160.859 164.557Z" fill="black"/>
</svg>
