<svg width="192" height="192" viewBox="0 0 192 192" fill="none" xmlns="http://www.w3.org/2000/svg">
<path d="M146 30H46C37.1634 30 30 37.1634 30 46V146C30 154.837 37.1634 162 46 162H146C154.837 162 162 154.837 162 146V46C162 37.1634 154.837 30 146 30Z" stroke="black" stroke-width="12"/>
<path d="M76 30V68L96 52L116 68V30" stroke="black" stroke-width="12" stroke-linecap="round" stroke-linejoin="round"/>
<path d="M138 102L131 121M54 102C54 102 72 114 96 114C120 114 138 102 138 102H54ZM138 102L121 95L138 102Z" stroke="black" stroke-width="12" stroke-linecap="round" stroke-linejoin="round"/>
<path d="M49.5064 44.5888C49.5064 46.7721 49.5064 48.9554 49.5064 51.1387C49.5064 52.0921 49.1538 52.7355 48.6283 53.5284C48.1051 54.3178 47.9331 55.2313 47.2464 55.918C46.1795 56.9849 44.5354 53.4677 44.3529 52.7942C43.9879 51.4481 43.3704 49.5485 43.8706 48.1589C44.0012 47.7961 44.1382 47.4104 44.4032 47.1224C44.7034 46.7961 45.0844 46.6017 45.2022 46.1435C45.413 45.3237 44.691 44.7916 44.2161 44.2217C43.9204 43.8668 44.1058 42.8757 43.7698 42.7246C42.9515 42.3563 41.631 43.0442 40.9843 43.5523C40.3125 44.0802 40.0777 45.3347 39.9982 46.1291C39.9797 46.3141 40.3604 46.0309 40.5237 45.942C41.4091 45.4595 42.2943 44.9791 43.1868 44.5096C45.7255 43.1743 47.9897 41.5493 50.4134 40.0398C51.3778 39.4391 52.2526 38.7586 53.386 38.7586C53.7715 38.7586 54.1514 38.8931 54.5305 38.9529C55.9313 39.1741 57.3182 39.3215 58.7052 39.6367C60.4489 40.033 62.0791 40.5067 63.866 40.5796C65.0099 40.6263 66.1459 40.702 67.2921 40.702C68.2958 40.702 67.9006 44.2371 67.9039 44.9487C67.9095 46.1649 68.1471 47.7474 67.8463 48.9506C67.4149 50.6764 67.5733 52.4646 67.0114 54.1906C66.5782 55.5211 66.5296 57.2679 66.4787 58.6532C66.4562 59.2666 66.2229 59.7405 66.1189 60.3231C65.989 61.0501 66.0901 61.872 66.0901 62.6048C66.0901 65.1528 66.0901 67.7008 66.0901 70.2488C66.0901 70.6998 66.0901 71.1509 66.0901 71.6019C66.0901 72.3543 65.741 71.5594 65.5718 71.2492C64.8205 69.8719 64.0845 68.5039 63.2685 67.1609C62.2915 65.5528 61.6163 64.0821 60.9869 62.324C60.464 60.8635 60.1884 59.3121 59.7129 57.8326C59.3493 56.7016 58.8347 55.6229 58.8347 54.4209C58.8347 53.3974 59.1055 52.3461 58.9355 51.3259C58.8559 50.8481 58.5729 50.969 58.2445 51.1963C57.6869 51.5824 57.4545 52.1113 57.3304 52.751C56.9274 54.8279 56.6042 56.8792 56.3659 58.9843C55.9405 62.7419 55.1507 66.4649 54.9048 70.2416C54.6978 73.4206 54.9142 76.637 54.696 79.8002C54.5402 82.059 53.9299 84.2302 53.7099 86.4797C53.6251 87.3475 53.4196 88.1472 53.2925 88.9989C53.1714 89.8103 53.2434 90.6477 53.1341 91.4677C52.9635 92.7472 53.0046 94.038 53.0046 95.3257C53.0046 95.4382 52.9399 96.6716 53.1845 96.427C53.6187 95.9927 53.8915 95.2836 54.1706 94.7571C54.6728 93.8098 55.1782 92.8663 55.7109 91.9356C57.0163 89.6549 58.3764 87.4061 59.6841 85.1265C59.9526 84.6584 60.2165 84.1453 60.5478 83.7158C61.1357 82.9537 61.9462 85.7043 62.0449 85.9399C63.0433 88.3207 64.1424 90.6619 65.068 93.0728C65.4575 94.0875 65.5013 95.0181 65.6726 96.0671C65.8108 96.9135 65.9017 97.6346 66.1548 98.4783C66.2942 98.9429 66.5019 99.1275 66.9682 98.8022C68.5139 97.7239 69.2051 95.3109 69.6026 93.5911C69.8848 92.3696 69.8473 91.1988 69.8473 89.9562C69.8473 88.7275 66.5054 89.0277 65.7446 89.0277C63.7212 89.0277 61.6697 88.9631 59.6553 89.186C58.5577 89.3075 57.9085 89.762 57.0353 90.3665C56.2974 90.8773 55.4116 91.1434 54.6816 91.6909C54.1627 92.0801 53.7581 92.5903 53.3069 93.0512C52.2864 94.0934 50.9873 94.8708 49.7224 95.5776C48.271 96.3887 46.9579 97.4771 45.5549 98.3632C45.1287 98.6324 44.6314 99.1849 44.1945 99.3637C42.3907 100.102 41.759 96.7753 41.5026 95.664C40.803 92.6327 40.5756 89.5452 40.3725 86.4581C40.1094 82.4586 40.1782 78.4528 40.1782 74.445C40.1782 72.8447 40.5668 71.3308 40.5668 69.7377C40.5668 68.2567 40.6046 66.7692 40.5381 65.2895C40.4728 63.8397 40.1782 62.378 40.1782 60.9277C40.1782 60.2163 40.1805 59.2898 39.991 58.61C39.6921 57.5372 39.2905 56.8632 40.8835 56.609C41.7308 56.4738 43.2065 56.252 43.993 56.7458C44.4704 57.0456 44.7566 57.6007 45.0151 58.0774C45.6934 59.3285 46.2762 60.6432 46.7281 61.9929C47.5929 64.5757 48.2355 67.2528 49.3265 69.7521C50.7373 72.984 52.3718 75.8504 54.6456 78.5478C56.5533 80.8107 58.9433 83.3853 62.1385 83.579C64.8534 83.7435 67.2822 82.4634 69.9337 82.1898C70.6085 82.1202 71.4362 82.1532 71.8123 81.542C72.6134 80.2402 73.633 78.9342 74.569 77.7272C75.0943 77.0499 75.9449 76.4437 76.7715 76.2157C77.325 76.063 77.9091 76.086 78.463 75.9278C79.5191 75.626 80.5719 75.3382 81.6372 75.0641C82.5678 74.8246 84.0445 74.5723 84.6459 73.7397C85.102 73.1081 85.4867 72.3662 86.0422 71.8107C86.7457 71.1072 87.5518 70.365 88.3455 69.7521C89.0111 69.2382 89.7649 68.8063 90.4904 68.3845C91.0362 68.0672 91.8529 67.9786 92.3259 67.5784C93.6062 66.495 95.1181 66.0873 96.8173 66.3908C97.7923 66.5649 98.6434 67.245 99.5452 67.6288C100.401 67.9931 101.276 68.2728 102.151 68.5861C103.394 69.0313 104.665 69.7164 105.757 70.4575C107.295 71.5011 109.075 72.2434 110.882 72.7032C111.832 72.9451 112.783 73.0361 113.674 73.4734C114.077 73.6711 114.938 73.7248 115.222 74.0564C115.903 74.8513 116.461 75.7123 117.014 76.5972C117.697 77.6897 118.702 78.8105 119.181 80.0161C120.24 82.6836 119.728 86.0337 119.728 88.8405C119.728 90.2249 119.728 91.6093 119.728 92.9936C119.728 93.8535 120.171 95.68 119.137 95.9231C118.449 96.0852 117.739 96.0239 117.021 96.0239C111.882 96.0239 106.743 96.0239 101.604 96.0239C94.478 96.0239 87.3522 96.0239 80.2264 96.0239C78.3502 96.0239 76.5128 96.3504 74.6266 96.283C73.6109 96.2467 74.2882 94.9094 74.497 94.354C75.3474 92.0927 76.2632 89.7883 77.3114 87.6097C78.1704 85.8243 79.4888 83.9072 81.3925 83.0967C82.5853 82.5889 84.0725 82.6083 85.3368 82.3914C87.7748 81.9731 90.2134 82.0315 92.6786 82.0315C94.7851 82.0315 96.8916 82.0315 98.9982 82.0315C100.361 82.0315 101.401 82.1203 102.208 83.4422C102.898 84.5711 103.384 85.3135 104.598 85.9758C105.231 86.3211 105.88 86.482 106.599 86.5373C107.124 86.5777 108.292 86.804 108.73 86.4149C109.368 85.8474 109.676 84.9436 110.061 84.2052C110.226 83.8893 110.512 82.9962 110.918 82.8376C111.447 82.6305 112.419 82.7955 112.962 82.8088C115.823 82.8793 118.553 83.7985 121.318 84.4427C122.08 84.6202 122.817 84.6227 123.593 84.6227C123.962 84.6227 124.497 84.5006 124.737 84.8386C125.608 86.0628 126.694 87.1522 127.436 88.4663C127.725 88.9775 127.98 89.5226 128.257 90.0426C128.347 90.2107 128.402 90.4284 128.408 90.0786C128.425 89.1535 128.408 88.2253 128.408 87.3002C128.408 83.6874 128.723 79.9354 128.379 76.3309C128.298 75.4747 127.89 74.677 127.89 73.8116C127.89 73.3234 127.806 72.7985 127.732 72.3145C127.408 70.2084 127.113 68.2328 127.113 66.0957C127.113 64.4419 127.355 62.6123 127.084 60.9853C126.524 57.6251 125.624 54.1709 125.558 50.7501C125.527 49.1197 125.558 47.486 125.558 45.8556C125.558 44.7171 125.469 43.665 125.889 42.6022C126.006 42.307 126.058 42.2814 126.378 42.2279C127.49 42.0427 128.692 41.7358 129.754 41.3642C131.516 40.7475 133.654 40.7895 135.491 40.4717C138.114 40.0178 140.906 39.536 143.567 39.536C144.397 39.536 145.227 39.536 146.057 39.536C147.174 39.536 148.44 39.3163 149.462 39.7879C150.143 40.1025 150.453 41.0579 150.692 41.7385C150.952 42.4764 151.271 43.1506 151.535 43.8834C152.214 45.77 152.247 47.6131 152.247 49.6272C152.247 51.1708 152.051 52.8541 152.262 54.3777C152.744 57.8785 152.506 61.5227 152.506 65.0736C152.506 71.2063 152.765 77.308 152.765 83.435C152.765 85.6208 152.765 87.8065 152.765 89.9922C152.765 90.8525 152.698 91.6641 152.535 92.5114C152.442 92.997 152.427 93.7041 152.182 94.1453C151.81 94.8164 151.658 95.7464 151.412 96.4702C151.208 97.0711 151.13 98.2554 150.692 98.7447C149.721 99.8302 148.798 100.476 147.36 100.99C146.106 101.439 144.46 101.87 143.164 101.336C142.317 100.987 141.6 100.348 140.831 99.8675C137.801 97.9723 134.506 96.5014 131.244 95.0594C129.154 94.1356 126.79 93.4607 124.809 92.2955C124.407 92.0589 124.773 91.8807 125.083 91.8204C125.842 91.6728 126.66 91.7484 127.429 91.7484C128.755 91.7484 130.075 91.6239 131.402 91.6189C133.663 91.6104 135.845 91.3598 138.132 91.3598C138.626 91.3598 138.929 91.3317 139.032 90.7911C139.351 89.1171 139.578 87.4333 139.809 85.7455C140.068 83.8577 140.546 82.029 140.731 80.1385C140.808 79.3512 141.071 78.6143 141.098 77.8136C141.143 76.4822 141.105 75.1437 141.105 73.8116C141.105 71.5444 141.364 69.326 141.364 67.0674C141.364 63.7396 141.364 60.4118 141.364 57.0841C141.364 56.0089 141.378 54.9941 141.033 53.9603C140.752 53.1185 140.482 51.9222 139.867 51.2539C139.692 51.0643 139.495 50.6457 139.234 50.5773C138.504 50.3861 137.493 50.5141 136.743 50.5557C135.846 50.6055 136.28 53.2665 136.369 53.9315C137.228 60.3515 138.049 66.7748 138.953 73.1926C139.558 77.4905 139.969 81.8101 140.587 86.1054C140.95 88.6257 141.983 91.0195 142.141 93.5623C142.279 95.7678 143.261 97.8848 143.308 100.069C143.361 102.574 144.441 104.881 145.323 107.173C145.798 108.409 146.083 109.727 146.647 110.923C146.873 111.401 146.863 112.268 147.079 111.348C147.354 110.181 147.443 109.001 148.749 108.721C150.254 108.398 150.182 110.126 150.318 111.247C150.353 111.531 150.563 111.763 150.563 112.039C150.563 112.544 150.478 113.064 150.376 113.558C150.05 115.137 149.526 116.736 149.526 118.366C149.526 119.057 148.784 118.877 148.216 119.273C147.004 120.117 145.885 121.046 144.416 121.187C141.008 121.515 137.592 122.392 134.238 123.037C133.654 123.149 133.056 123.2 132.468 123.296C132.027 123.368 131.584 123.422 131.143 123.491C130.898 123.528 130.298 123.398 130.409 123.62C130.487 123.776 130.752 123.681 130.92 123.728C131.761 123.962 132.588 124.257 133.418 124.527C134.775 124.968 136.237 125.692 137.65 125.938C140.918 126.506 144.42 126.842 147.684 126.089C148.713 125.851 149.554 125.693 150.62 125.693C150.82 125.693 151.243 125.623 151.441 125.722C152.027 126.015 150.64 126.903 150.462 126.974C146.842 128.422 142.779 126.979 139.09 127.953C136.16 128.727 133.202 129.688 130.136 129.709C124.887 129.746 119.636 129.709 114.387 129.709C111.665 129.709 108.887 129.223 106.218 129.911C104.982 130.229 103.702 130.339 102.446 130.559C100.975 130.816 99.4811 131.134 98.0049 131.336C96.6019 131.528 95.1132 131.394 93.7006 131.394C92.2179 131.394 90.7352 131.394 89.2524 131.394C85.1416 131.394 81.1556 131.185 77.0738 130.566C73.8546 130.078 70.6139 129.474 67.3569 129.45C66.0216 129.441 64.6906 129.327 63.3549 129.321C60.9089 129.309 58.5731 128.902 56.1428 128.709C51.1811 128.315 46.0643 128.089 41.1643 128.997C40.0761 129.198 39.7863 128.102 39.5304 127.161C38.8433 124.636 38.6235 122.197 38.6235 119.597C38.6235 117.396 38.6235 115.196 38.6235 112.996C38.6235 112.205 38.6096 111.376 38.825 110.607C39.1176 109.562 39.3513 108.548 39.9478 107.612C40.3019 107.057 41.0973 106.003 41.8049 106.453C43.0528 107.248 44.1587 108.22 45.4541 108.951C46.7319 109.672 47.972 110.434 49.2329 111.182C50.8279 112.129 52.3028 112.969 53.7747 114.097C54.2275 114.445 54.6004 114.873 55.0775 115.192C55.7742 115.656 55.8964 115.857 54.9839 116.17C54.3202 116.398 53.7089 116.659 53.0693 116.933C52.8443 117.03 52.5801 117.017 52.3424 117.041C51.4968 117.127 50.6692 117.303 49.8375 117.473C49.5739 117.527 46.5553 117.732 46.6273 118.236C46.6698 118.534 53.5948 118.308 53.7675 118.308C57.6989 118.308 61.6283 118.272 65.5574 118.409C66.6654 118.448 67.7758 118.397 68.8828 118.438C69.7556 118.47 70.6237 118.886 71.4956 119.014C73.2471 119.269 75.1074 119.085 76.8723 119.085C79.8907 119.085 82.8262 119.474 85.8263 119.474C87.7097 119.474 89.6013 119.425 91.4837 119.503C96.008 119.69 100.558 119.386 105.073 119.733C109.534 120.076 114.006 119.733 118.468 119.733C119.175 119.733 120.189 119.802 120.635 119.186C120.986 118.701 121.523 118.357 121.988 117.991C122.298 117.748 122.61 117.512 122.938 117.293C123.105 117.182 123.566 117.016 123.399 116.905C123.25 116.805 123.056 117.011 122.88 117.041C121.392 117.297 119.858 117.363 118.36 117.524C112.897 118.109 107.46 118.961 102.007 119.633C99.889 119.893 98.0968 120.207 95.9751 119.704C91.9122 118.742 87.8954 117.272 83.6742 117.272C82.9346 117.272 83.3215 120.121 83.3215 120.799C83.3215 121.265 83.2347 121.364 82.7888 121.576C82.2654 121.824 81.7346 122.05 81.2197 122.317C79.8055 123.052 80.137 125.044 80.0969 126.391C80.0656 127.442 80.0676 130.511 79.7082 129.522C79.5541 129.098 79.6949 130.424 79.6938 130.875C79.6915 131.806 79.6869 133.609 79.665 134.546C79.6565 134.912 79.793 135.926 79.5643 135.64C79.1281 135.095 79.7102 134.399 78.9165 134.222C77.2014 133.841 75.6384 132.756 74.1228 131.926C72.1755 130.86 69.9042 129.624 67.6592 129.349C64.2901 128.937 60.9418 128.345 57.5391 128.219C54.7841 128.117 52.0253 128.155 49.2689 128.155C47.6498 128.155 46.1221 128.216 44.54 128.601C43.7907 128.783 42.3903 129.024 41.7905 129.58C41.4121 129.93 41.0785 130.882 40.9123 131.365C40.4602 132.68 39.6766 133.837 38.8826 134.978C38.1113 136.086 37.7831 137.273 38.4867 138.548C39.0203 139.515 39.6928 140.395 40.0486 141.442C40.555 142.931 40.9558 144.352 41.1858 145.904C41.2891 146.601 41.4102 146.719 41.7977 147.279C42.4576 148.232 42.1654 149.768 43.2588 150.424C44.036 150.891 44.9014 151.487 45.7924 151.706C46.6219 151.909 47.6079 151.802 48.4556 151.893C49.8271 152.039 51.1645 152.184 52.5367 152.26C54.8824 152.39 57.1976 153.043 59.5401 153.26C60.8538 153.382 62.1526 153.613 63.4701 153.721C66.4754 153.968 69.4909 153.937 72.5033 153.937C74.0508 153.937 75.5983 153.937 77.1458 153.937C77.663 153.937 78.2607 154.269 78.7725 154.354C82.8942 155.044 87.2877 155.161 91.4693 154.966C95.1165 154.797 98.5148 153.363 102.136 152.98C109.343 152.217 116.836 153.98 123.895 151.936C124.993 151.618 126.085 151.023 127.249 151.108C130.58 151.352 133.853 152.251 137.175 152.627C139.513 152.891 141.755 153.254 144.114 153.484C145.717 153.64 147.971 154.134 149.138 152.613C149.975 151.52 150.359 150.101 150.815 148.819C151.389 147.204 151.446 145.245 151.628 143.543C151.713 142.749 151.823 141.97 151.959 141.183C152.167 139.978 152.09 138.671 152.499 137.512C152.764 136.762 152.636 135.884 152.636 135.093C152.636 134.813 152.047 135.229 151.923 135.28C151.15 135.604 150.885 136.13 150.534 136.864C149.905 138.178 148.648 139.046 147.425 139.786C146.157 140.553 144.807 141.095 143.279 141.111C141.459 141.129 139.732 141.451 137.938 141.694C137.208 141.792 136.487 141.742 135.771 141.953C135.312 142.088 134.917 142.243 134.44 142.305C129.764 142.915 124.981 143.19 120.26 142.824C118.825 142.712 117.399 142.462 115.956 142.413C111.64 142.267 107.324 141.176 103.043 140.693C100.723 140.432 98.2238 140.162 95.9031 140.578C94.312 140.863 92.7579 141.253 91.1526 141.478C87.4346 141.999 83.67 142.144 79.9241 142.327C75.0168 142.567 70.0691 142.64 65.1544 142.665C63.1387 142.676 61.0646 142.784 59.0507 142.644C57.6821 142.548 56.3324 142.259 54.9623 142.147C54.4297 142.104 54.0974 141.793 53.6236 141.6C52.5298 141.156 52.0722 140.2 51.457 139.239C51.1072 138.693 51.3921 138.289 51.5218 137.677C51.91 135.847 51.9371 133.99 52.3568 132.171" stroke="black" stroke-opacity="0.25" stroke-width="16" stroke-linecap="round"/>
</svg>
