<svg width="192" height="192" viewBox="0 0 192 192" fill="none" xmlns="http://www.w3.org/2000/svg">
<path d="M56 146H26.0742C22.963 146 21.0428 142.604 22.6466 139.938L92.5724 23.6978C94.1269 21.1137 97.8731 21.1137 99.4276 23.6978L169.353 139.938C170.957 142.604 169.037 146 165.926 146H136" stroke="black" stroke-width="12" stroke-linejoin="round"/>
<path d="M42 170L96 78L150 170L96 146L42 170Z" stroke="black" stroke-width="12" stroke-linejoin="round"/>
<path d="M29.4036 137.775C30.1826 139.551 30.4786 140.018 32.5092 140.254C34.7387 140.514 36.909 140.124 39.125 140.124C41.7597 140.124 44.7298 140.501 47.2936 139.732C49.7816 138.986 51.9209 136.944 53.7006 135.113C56.1593 132.584 57.5741 128.904 59.5205 126.005C62.4268 121.676 65.6112 117.521 68.2371 113.008C70.9477 108.35 72.9771 103.344 75.1661 98.4325C77.4689 93.2654 79.574 87.8677 82.604 83.074C84.3651 80.2877 85.9917 77.4657 87.6017 74.5922C90.4225 69.5576 93.2672 64.7969 94.5698 59.09C95.9108 53.2154 96.6177 47.2097 97.1013 41.213C97.2296 39.6224 97.284 38.0588 97.284 36.4632C97.284 34.7289 95.4586 35.0956 94.074 35.2627C90.6836 35.6719 90.3496 39.2434 89.4808 42.1134C88.5345 45.2388 88.1851 48.4931 87.3668 51.6522C86.8359 53.7018 86.2609 55.7268 85.5922 57.733C84.7378 60.296 83.4122 62.3169 81.9254 64.5836C77.8724 70.7629 74.564 77.4509 70.4554 83.5959C66.1057 90.1015 62.7917 97.1542 58.6723 103.796C55.4446 108.999 51.2407 113.211 47.2545 117.81C44.8062 120.635 42.2782 123.411 40.0254 126.396C39.4549 127.152 35.3708 132.169 35.9541 132.869C36.5149 133.542 45.3653 123.953 46.0931 123.212C48.3359 120.931 50.7337 118.761 52.8655 116.375C58.2537 110.343 63.4791 104.387 68.1327 97.7409C71.6694 92.6901 75.3262 87.741 79.133 82.8913C81.5107 79.8622 83.9587 76.9686 85.54 73.4178C86.5971 71.044 87.67 68.985 89.2459 66.8933C92.8844 62.064 96.0702 56.6202 100.311 52.3046C101.238 51.3614 102.103 50.4421 102.921 49.4078C104.144 47.8611 103.604 49.8218 103.365 50.8823C102.848 53.1722 101.889 55.3677 101.277 57.6416C100.624 60.0661 100.58 62.5974 100.337 65.0926C100.264 65.8481 99.3434 69.5596 101.016 68.1721C102.956 66.5629 104.789 64.2965 106.105 62.1435C106.773 61.0498 107.503 59.9562 108.206 58.8813C108.451 58.5071 108.759 58.1348 109.106 57.8504C109.295 57.6961 109.229 57.8298 109.172 58.0983C108.806 59.8162 108.242 61.523 107.697 63.1874C106.76 66.0502 105.624 68.833 104.618 71.6692C104.529 71.9182 103.008 76.4658 104.174 76.2102C104.912 76.0484 106.5 73.957 106.679 73.7309C107.29 72.9603 108.761 70.9 109.393 70.025C110.288 68.7858 111.198 67.3299 112.499 66.4627C114.3 65.2622 114.229 68.7846 114.482 69.9206C115.21 73.1789 116.508 76.3865 118.084 79.3289C122.475 87.525 129.002 94.3069 133.351 102.504C136.808 109.018 140.737 114.956 144.913 120.994C148.26 125.835 150.642 131.247 153.982 136.105C154.624 137.039 155.342 137.899 156.004 138.819C156.32 139.258 157.465 139.889 156.396 139.889C153.233 139.889 150.205 139.438 147.183 138.532C146.318 138.272 145.507 138.028 144.599 138.01C143.728 137.992 142.089 138.348 141.428 137.605C140.235 136.263 139.554 134.049 138.793 132.464C137.252 129.257 135.76 126.025 134.082 122.886C131.252 117.592 128.745 111.98 125.548 106.901C119.982 98.0588 114.577 89.0073 109.733 79.7595" stroke="black" stroke-opacity="0.25" stroke-width="15" stroke-linecap="round"/>
<path d="M57.3544 156.565C61.5532 152.035 65.6093 147.089 68.4981 141.611C71.4939 135.931 74.1939 129.817 77.9456 124.583C79.9099 121.842 81.7188 119.029 83.4522 116.14C85.0028 113.556 86.3411 110.768 87.9932 108.258C89.4051 106.113 90.5069 103.85 92.0123 101.76C92.8325 100.621 93.6231 99.2313 94.1001 97.9367C94.2691 97.478 94.1597 97.0285 94.2436 96.5665C94.3099 96.202 94.7469 95.9484 94.9222 95.627C95.0571 95.3797 95.307 95.1076 95.405 95.5487C95.7161 96.9485 96.3174 98.2815 96.7621 99.6461C97.6713 102.436 99.0169 104.849 100.481 107.397C101.836 109.756 102.986 112.212 104.357 114.561C105.204 116.014 105.956 117.522 106.81 118.972C107.811 120.671 109.169 122.138 110.255 123.787C114.639 130.445 120.2 136.419 123.473 143.764C124.379 145.798 125.27 147.837 126.174 149.871C127.04 151.82 128.146 153.324 129.358 155.052C129.727 155.577 129.933 156.777 130.494 157.113C131.117 157.488 129.987 155.75 129.711 155.078C129.407 154.338 129.178 153.572 128.875 152.833C128.254 151.314 127.417 149.887 126.279 148.684C125.309 147.659 123.782 146.969 122.573 146.283C120.45 145.077 118.108 145.046 115.944 143.999C112.1 142.139 107.91 140.416 103.861 139.054C98.5903 137.281 93.1575 135.656 87.7844 137.775C83.9782 139.276 80.229 141.461 77.2018 144.221C75.7297 145.563 74.17 146.83 72.8565 148.332C71.474 149.912 76.4498 146.151 78.1543 144.926C83.9109 140.787 90.4023 136.553 94.4916 130.598C96.54 127.615 96.7703 124.332 96.475 120.838C96.3068 118.847 95.9517 116.711 95.405 114.783C95.2425 114.21 94.9397 114.025 94.3741 114.065C89.6557 114.402 88.1927 121.531 87.68 125.248C87.4915 126.615 86.4996 130.807 88.7501 130.729C91.8614 130.62 95.1457 128.581 97.9365 127.414C99.0953 126.93 102.078 124.761 102.817 126.683C103.308 127.961 103.904 129.175 104.448 130.428C105.047 131.808 105.327 133.251 106.209 134.487" stroke="black" stroke-opacity="0.5" stroke-width="15" stroke-linecap="round"/>
</svg>
