<svg width="192" height="192" viewBox="0 0 192 192" fill="none" xmlns="http://www.w3.org/2000/svg">
<path d="M63.15 39.7353V45.1176C64.8733 45.1176 66.4961 44.32 67.53 42.9647L63.15 39.7353ZM74.1 25.3824V20C72.3767 20 70.754 20.7977 69.72 22.1529L74.1 25.3824ZM128.85 39.7353L124.47 42.9647C125.504 44.32 127.126 45.1176 128.85 45.1176V39.7353ZM117.9 25.3824L122.28 22.1529C121.246 20.7977 119.624 20 117.9 20V25.3824ZM158.05 54.0882V122.265H169V54.0882H158.05ZM148.925 131.235H43.075V142H148.925V131.235ZM33.95 122.265V54.0882H23V122.265H33.95ZM43.075 45.1176H63.15V34.3529H43.075V45.1176ZM67.53 42.9647L78.48 28.6118L69.72 22.1529L58.77 36.5059L67.53 42.9647ZM128.85 45.1176H148.925V34.3529H128.85V45.1176ZM133.23 36.5059L122.28 22.1529L113.52 28.6118L124.47 42.9647L133.23 36.5059ZM117.9 20H74.1V30.7647H117.9V20ZM43.075 131.235C38.0354 131.235 33.95 127.219 33.95 122.265H23C23 133.164 31.9879 142 43.075 142V131.235ZM158.05 122.265C158.05 127.219 153.965 131.235 148.925 131.235V142C160.012 142 169 133.164 169 122.265H158.05ZM169 54.0882C169 43.1887 160.012 34.3529 148.925 34.3529V45.1176C153.965 45.1176 158.05 49.134 158.05 54.0882H169ZM33.95 54.0882C33.95 49.134 38.0354 45.1176 43.075 45.1176V34.3529C31.9879 34.3529 23 43.1887 23 54.0882H33.95Z" fill="black"/>
<path d="M96 112C110.359 112 122 100.583 122 86.5C122 72.4167 110.359 61 96 61C81.6406 61 70 72.4167 70 86.5C70 100.583 81.6406 112 96 112Z" stroke="black" stroke-width="12"/>
<path d="M35.4062 171V149.182H44.8665C46.5284 149.182 47.924 149.406 49.0533 149.853C50.1896 150.3 51.0455 150.933 51.6207 151.749C52.2031 152.566 52.4943 153.528 52.4943 154.636C52.4943 155.439 52.3168 156.17 51.9616 156.831C51.6136 157.491 51.1236 158.045 50.4915 158.493C49.8594 158.933 49.1207 159.239 48.2756 159.409V159.622C49.2131 159.658 50.0653 159.896 50.8324 160.336C51.5994 160.769 52.2102 161.369 52.6648 162.136C53.1193 162.896 53.3466 163.791 53.3466 164.821C53.3466 166.014 53.0341 167.076 52.4091 168.006C51.7912 168.937 50.9105 169.668 49.767 170.201C48.6236 170.734 47.2599 171 45.6761 171H35.4062ZM41.3295 166.27H44.0994C45.0938 166.27 45.8395 166.085 46.3366 165.716C46.8338 165.339 47.0824 164.786 47.0824 164.054C47.0824 163.543 46.9652 163.109 46.7308 162.754C46.4964 162.399 46.1626 162.129 45.7294 161.945C45.3033 161.76 44.7884 161.668 44.1847 161.668H41.3295V166.27ZM41.3295 158.003H43.7585C44.277 158.003 44.7351 157.921 45.1328 157.758C45.5305 157.594 45.8395 157.36 46.0597 157.055C46.2869 156.742 46.4006 156.362 46.4006 155.915C46.4006 155.24 46.1591 154.725 45.6761 154.37C45.1932 154.008 44.5824 153.827 43.8438 153.827H41.3295V158.003ZM66.1413 163.841V154.636H72.022V171H66.4396V167.889H66.2692C65.9141 168.933 65.2926 169.75 64.4048 170.339C63.517 170.922 62.4624 171.213 61.2408 171.213C60.0973 171.213 59.0959 170.95 58.2365 170.425C57.3842 169.899 56.7202 169.175 56.2443 168.251C55.7756 167.328 55.5376 166.27 55.5305 165.077V154.636H61.4112V163.841C61.4183 164.651 61.6243 165.286 62.0291 165.748C62.4411 166.21 63.0163 166.44 63.755 166.44C64.245 166.44 64.6676 166.337 65.0227 166.131C65.3849 165.918 65.6619 165.62 65.8537 165.237C66.0526 164.846 66.1484 164.381 66.1413 163.841ZM75.013 171V154.636H80.7232V157.747H80.8936C81.1919 156.597 81.6642 155.755 82.3105 155.222C82.964 154.69 83.7275 154.423 84.601 154.423C84.8567 154.423 85.1088 154.445 85.3574 154.487C85.6131 154.523 85.8581 154.576 86.0925 154.647V159.665C85.8013 159.565 85.4426 159.491 85.0165 159.441C84.5904 159.391 84.2246 159.366 83.9192 159.366C83.3439 159.366 82.8255 159.498 82.3638 159.761C81.9093 160.016 81.5506 160.379 81.2878 160.847C81.025 161.309 80.8936 161.852 80.8936 162.477V171H75.013ZM88.0208 171V154.636H93.9015V171H88.0208ZM90.9611 152.932C90.1657 152.932 89.4838 152.669 88.9157 152.143C88.3475 151.618 88.0634 150.986 88.0634 150.247C88.0634 149.509 88.3475 148.876 88.9157 148.351C89.4838 147.825 90.1657 147.562 90.9611 147.562C91.7637 147.562 92.4455 147.825 93.0066 148.351C93.5748 148.876 93.8588 149.509 93.8588 150.247C93.8588 150.986 93.5748 151.618 93.0066 152.143C92.4455 152.669 91.7637 152.932 90.9611 152.932ZM101.457 171.256C100.413 171.256 99.4901 171.085 98.6875 170.744C97.892 170.396 97.267 169.871 96.8125 169.168C96.358 168.464 96.1307 167.57 96.1307 166.483C96.1307 165.588 96.2834 164.825 96.5888 164.192C96.8942 163.553 97.3203 163.031 97.8672 162.626C98.4141 162.222 99.0497 161.913 99.7741 161.7C100.506 161.487 101.294 161.348 102.139 161.284C103.055 161.213 103.79 161.128 104.344 161.028C104.906 160.922 105.31 160.776 105.559 160.592C105.808 160.4 105.932 160.148 105.932 159.835V159.793C105.932 159.366 105.768 159.04 105.442 158.812C105.115 158.585 104.696 158.472 104.185 158.472C103.624 158.472 103.165 158.596 102.81 158.844C102.462 159.086 102.253 159.459 102.182 159.963H96.7699C96.8409 158.969 97.157 158.053 97.718 157.214C98.2862 156.369 99.1136 155.695 100.2 155.19C101.287 154.679 102.643 154.423 104.27 154.423C105.442 154.423 106.493 154.562 107.423 154.839C108.354 155.109 109.146 155.489 109.799 155.979C110.452 156.462 110.95 157.03 111.29 157.683C111.638 158.33 111.812 159.033 111.812 159.793V171H106.315V168.699H106.188C105.861 169.31 105.463 169.803 104.994 170.18C104.533 170.556 104.004 170.83 103.407 171C102.817 171.17 102.168 171.256 101.457 171.256ZM103.375 167.548C103.822 167.548 104.241 167.456 104.632 167.271C105.03 167.087 105.353 166.82 105.602 166.472C105.85 166.124 105.974 165.702 105.974 165.205V163.841C105.818 163.905 105.651 163.965 105.474 164.022C105.303 164.079 105.119 164.132 104.92 164.182C104.728 164.232 104.522 164.278 104.302 164.32C104.089 164.363 103.865 164.402 103.631 164.438C103.176 164.509 102.803 164.626 102.512 164.789C102.228 164.945 102.015 165.141 101.873 165.375C101.738 165.602 101.67 165.858 101.67 166.142C101.67 166.597 101.83 166.945 102.15 167.186C102.469 167.428 102.878 167.548 103.375 167.548ZM120.503 149.182V171H114.622V149.182H120.503ZM131.979 171.298C130.261 171.298 128.734 171.004 127.398 170.414C126.07 169.817 125.026 168.997 124.266 167.953C123.506 166.909 123.123 165.709 123.116 164.352H129.082C129.089 164.771 129.217 165.148 129.465 165.482C129.721 165.808 130.069 166.064 130.509 166.249C130.95 166.433 131.454 166.526 132.022 166.526C132.569 166.526 133.052 166.43 133.471 166.238C133.89 166.039 134.217 165.766 134.451 165.418C134.685 165.07 134.799 164.672 134.792 164.224C134.799 163.784 134.664 163.393 134.387 163.053C134.117 162.712 133.737 162.445 133.247 162.254C132.757 162.062 132.192 161.966 131.553 161.966H129.337V157.875H131.553C132.143 157.875 132.661 157.779 133.109 157.587C133.563 157.396 133.915 157.129 134.163 156.788C134.419 156.447 134.543 156.057 134.536 155.616C134.543 155.19 134.44 154.814 134.227 154.487C134.014 154.161 133.716 153.905 133.332 153.72C132.956 153.536 132.519 153.443 132.022 153.443C131.482 153.443 130.999 153.539 130.573 153.731C130.154 153.923 129.824 154.189 129.582 154.53C129.341 154.871 129.217 155.261 129.21 155.702H123.542C123.549 154.366 123.915 153.187 124.639 152.165C125.371 151.142 126.372 150.339 127.643 149.757C128.915 149.175 130.374 148.884 132.022 148.884C133.634 148.884 135.058 149.157 136.294 149.704C137.537 150.251 138.506 151.004 139.202 151.962C139.906 152.914 140.254 154.004 140.246 155.233C140.261 156.455 139.842 157.456 138.989 158.237C138.144 159.018 137.072 159.48 135.772 159.622V159.793C137.533 159.984 138.858 160.524 139.746 161.412C140.634 162.293 141.07 163.401 141.056 164.736C141.063 166.014 140.68 167.147 139.906 168.134C139.138 169.121 138.07 169.896 136.699 170.457C135.335 171.018 133.762 171.298 131.979 171.298ZM154.397 149.182V171H148.474V154.636H148.346L143.573 157.491V152.463L148.942 149.182H154.397Z" fill="black"/>
<path d="M116.925 64.4874C119.655 62.0002 123.709 61.2317 126.749 58.9519C128.872 57.3596 130.832 55.7554 132.44 53.6112C133.595 52.0723 133.667 51.857 131.583 51.857C129.431 51.857 127.516 52.2182 125.423 52.6367C124.228 52.8757 122.859 52.7052 121.72 53.085C120.845 53.3765 119.841 54.1551 119.011 54.2934C118.29 54.4136 117.531 54.1221 116.925 54.6638C115.36 56.0639 119.376 54.7534 119.79 54.6053C122.572 53.612 125.337 52.3675 127.373 50.1808C128.284 49.2024 124.605 48.1706 123.942 47.9977C121.837 47.4486 119.768 47.137 118.173 45.5418C116.42 43.7893 116.184 40.3889 114.976 38.1936C114.174 36.7354 111.632 36.9386 110.181 36.5758C108.832 36.2385 107.369 36.4815 105.991 36.4004C102.454 36.1924 98.9124 36.0344 95.3873 35.6987C92.4973 35.4235 89.6508 35.3674 86.7137 35.3674C82.9143 35.3674 78.8003 34.9854 75.0189 35.4453C72.7364 35.7229 72.0002 40.8161 71.0427 42.5012C69.7533 44.7705 68.8326 48.004 68.5283 50.5901C68.3407 52.185 68.5088 53.9229 68.5088 55.5214C68.5088 56.3834 68.3614 60.3247 68.9376 60.901C69.2499 61.2132 74.4026 59.8058 75.1749 59.4196C77.1092 58.4525 79.1229 58.4566 81.2172 57.6654C88.4627 54.9282 96.9685 58.0058 104.295 55.7163C104.876 55.5347 109.753 55.1633 109.499 53.7672C109.075 51.433 106.131 50.0025 104.295 49.1282C100.397 47.2719 94.361 48.3486 90.0857 48.3486C88.3561 48.3486 86.2928 48.908 84.5307 49.1282C82.9588 49.3247 81.4351 49.3115 79.8528 49.4206C77.7552 49.5653 75.3835 49.6282 73.7715 51.1553C71.8933 52.9347 71.0148 57.5923 70.5359 60.0823C69.9705 63.0225 68.8391 65.478 67.3004 67.9958C64.0277 73.3511 61.0112 78.7616 57.7106 84.1346C56.3163 86.4044 55.8785 89.4736 55.8785 92.1261C55.8785 94.4602 54.5421 95.6093 56.2293 97.7785C57.6051 99.5474 59.855 100.391 61.492 102.028C62.4936 103.029 62.2931 101.717 62.4665 100.741C62.6988 99.4345 62.5445 97.9693 62.5445 96.648C62.5445 95.0314 63.0533 92.5008 62.3691 90.9956C61.9009 89.9657 60.409 90.7525 59.7377 91.2295C57.8417 92.5766 57.205 93.7462 56.3852 95.9074C54.7311 100.268 55.5276 105.58 55.5276 110.175C55.5276 111.621 54.9036 112.851 54.6505 114.268C54.3977 115.684 54.2918 117.664 53.4031 118.849C52.3121 120.303 51.4222 121.902 50.4404 123.429C49.6936 124.591 45.3245 127.047 43.8718 126.509C42.4239 125.972 41.1812 124.169 40.1295 123.117C38.8827 121.87 39.1491 120.939 38.6871 119.297C37.7081 115.816 36.5821 112.546 36.5821 108.85C36.5821 102.825 36.7351 96.8709 35.9194 90.9566C34.8224 83.0037 34.956 74.7659 35.1787 66.7484C35.229 64.9373 36.5155 62.8814 36.855 61.0569C37.2204 59.0924 37.8845 57.1352 38.3168 55.19C38.5409 54.1817 39.3203 53.7315 39.6617 52.8316C40.1062 51.6598 40.2332 51.0127 41.143 50.1028C42.5441 48.7017 44.9744 48.0674 46.9125 47.6664C49.4162 47.1484 51.835 46.2927 54.2997 45.6978C55.0971 45.5053 56.3032 44.713 56.931 45.6198C57.7431 46.7928 57.6327 48.1231 57.6327 49.4791C57.6327 51.0203 58.015 53.2585 57.5547 54.7417C56.7551 57.3183 54.4261 59.9754 52.5455 61.8561C51.8304 62.5711 51.2854 63.5123 50.6938 64.3315C50.5003 64.5993 48.9043 67.3183 48.9006 67.3136C48.2361 66.483 49.2672 62.7165 49.4853 61.6806C49.7241 60.5462 49.6935 59.7617 50.265 58.679C50.9833 57.3179 52.3568 56.2484 53.598 55.3849C55.1109 54.3325 55.1768 55.551 55.1768 56.8468C55.1768 60.4397 55.1768 64.0326 55.1768 67.6255C55.1768 74.1199 51.6646 80.6441 49.0175 86.4346C47.5924 89.552 47.8091 94.0321 47.8091 97.3497C47.8091 101.196 47.8091 105.042 47.8091 108.889C47.8091 110.805 47.305 109.163 47.1074 108.109C46.3826 104.244 45.8169 100.374 45.5286 96.4531C45.1297 91.0278 45.6641 85.6565 44.1057 80.4313C43.4982 78.3942 43.9498 75.7463 43.9498 73.6288C43.9498 69.4849 43.9498 73.7989 43.9498 75.5974C43.9498 83.7998 46.0579 91.836 47.0294 99.9616C47.2767 102.03 47.8284 104.023 48.3158 106.043C48.828 108.165 48.6124 110.47 49.0175 112.631C49.2183 113.701 49.6756 114.713 49.8362 115.789C49.9813 116.761 49.6755 117.996 50.0895 118.907C50.6493 120.139 50.265 116.206 50.265 114.853C50.265 109.265 50.265 103.678 50.265 98.0904C50.265 89.2803 50.265 80.4703 50.265 71.6602C50.265 71.2968 50.5088 69.7668 50.187 69.4772C49.07 68.4718 45.1039 70.0552 44.1447 70.6466C42.5325 71.6408 43.5989 78.6246 43.5989 80.0999C43.5989 84.9045 44.3825 89.4504 45.0023 94.1921C45.7977 100.277 48.1468 106.932 51.1226 112.358C52.8737 115.551 53.7968 119.928 57.5937 121.149C59.9806 121.916 62.2603 122.727 64.8055 122.727C69.3402 122.727 71.2927 116.033 72.4851 112.455C72.595 112.126 73.3375 109.781 72.9918 109.473C72.3199 108.876 72.3681 111.893 72.3681 112.046C72.3681 113.864 71.5807 116.061 73.7715 116.061C75.5082 116.061 79.5742 116.184 80.9833 117.465C81.8814 118.281 84.135 118.049 85.2714 118.244C87.2211 118.58 88.8554 119.717 90.8849 119.901C92.8912 120.084 96.0893 119.434 97.6288 120.973C99.0955 122.44 96.3409 124.75 95.4458 125.612C93.6569 127.335 91.8539 127.949 89.6374 128.77C87.4419 129.583 84.6907 130.041 82.2697 130.095C80.0375 130.145 77.8329 130.355 75.6427 130.816C72.9301 131.387 70.3426 131.26 67.6317 131.518C65.7324 131.699 63.8332 132.158 61.9208 132.2C61.6082 132.207 59.6278 132.369 60.7513 131.83C62.7924 130.85 65.306 130.578 67.4563 129.822C69.2079 129.207 71.121 129.006 72.9529 128.77C76.7627 128.278 80.8812 128.692 84.7061 128.692C91.2877 128.692 97.8692 128.692 104.451 128.692C111.143 128.692 117.835 128.692 124.527 128.692C128.975 128.692 133.682 129.101 138.093 128.341C139.718 128.061 141.158 127.639 142.829 127.639C144.902 127.639 146.974 127.639 149.047 127.639C149.939 127.639 151.643 128.038 152.01 126.977C152.915 124.355 153.556 121.346 153.842 118.595C154.31 114.089 155.377 109.686 155.791 105.185C156.063 102.229 155.869 99.1895 155.869 96.2192C155.869 88.678 154.115 81.3982 154.115 73.8432C154.115 68.6276 153.561 63.3398 153.043 58.1527C152.876 56.4826 152.648 54.9007 151.834 53.4358C151.213 52.3176 149.131 52.0918 147.975 52.7341C146.792 53.391 145.223 53.467 144.408 52.5782C143.639 51.7389 141.791 52.2397 140.783 51.5062C140.159 51.0526 138.614 51.8614 137.976 52.2079C135.429 53.5903 136.222 57.6909 136.222 60.0044C136.222 63.4154 136.222 66.8263 136.222 70.2373C136.222 73.8209 137.979 77.2741 138.327 80.8406C138.623 83.8802 139.007 86.8808 139.028 89.943C139.051 93.1741 138.758 96.4946 139.301 99.6887C139.902 103.217 139.379 107.13 139.379 110.721C139.379 111.732 140.769 116.62 140.939 116.412C142.461 114.552 142.182 110.979 142.361 108.752C142.581 106.03 142.537 103.315 142.537 100.585C142.537 91.4005 142.186 82.2174 142.186 73.0246C142.186 70.6603 142.034 68.1925 142.439 65.8518C142.558 65.1694 144.219 62.5267 142.966 62.6162C140.861 62.7665 137.823 63.29 136.397 65.0331C134.826 66.9536 133.602 68.3289 131.583 69.75C127.717 72.4705 128.854 80.1659 128.854 84.2711C128.854 95.7255 128.854 130.089 128.854 118.634C128.854 115.789 129.105 112.81 128.815 109.98C128.592 107.807 126.954 109.19 126.047 110.097C123.783 112.361 121.607 114.762 119.245 116.919C117.446 118.561 115.167 119.488 113.066 120.7C111.769 121.448 111.002 122.026 109.558 122.026C108.799 122.026 108.182 122.331 107.452 122.377C106.034 122.465 110.205 121.665 111.585 121.324C114.564 120.589 117.539 120.412 120.512 119.843C122.892 119.387 125.057 118.11 127.451 117.679C129.849 117.247 137.197 117.465 134.76 117.465C133.125 117.465 131.625 117.671 130.023 117.991C127.342 118.527 124.562 118.526 121.915 119.219C119.694 119.801 117.77 120.782 115.463 121.012C113.622 121.196 112.098 121.675 110.22 121.675C107.232 121.675 104.487 121.69 101.566 122.299C98.5545 122.926 95.6036 123.741 92.5806 124.345C91.4908 124.563 90.3156 125.664 89.2086 125.534C88.3067 125.428 89.7289 122.597 90.1247 122.201C91.1413 121.185 92.5211 120.792 93.7501 120.116C95.6357 119.078 98.106 119.17 99.9288 118.011C101.785 116.829 105.243 116.827 107.375 116.763C108.955 116.716 110.435 116.061 112.013 116.061" stroke="black" stroke-opacity="0.2" stroke-width="17" stroke-linecap="round"/>
</svg>
