<svg width="192" height="192" viewBox="0 0 192 192" fill="none" xmlns="http://www.w3.org/2000/svg">
<path fill-rule="evenodd" clip-rule="evenodd" d="M91 136C91 155.33 75.33 171 56 171C36.67 171 21 155.33 21 136C21 116.67 36.67 101 56 101C75.33 101 91 116.67 91 136ZM56.5 159.5C53.1863 159.5 50.5 156.814 50.5 153.5V142H39C35.6863 142 33 139.314 33 136C33 132.686 35.6863 130 39 130H50.5V118.5C50.5 115.186 53.1863 112.5 56.5 112.5C59.8137 112.5 62.5 115.186 62.5 118.5V130H74C77.3137 130 80 132.686 80 136C80 139.314 77.3137 142 74 142H62.5V153.5C62.5 156.814 59.8137 159.5 56.5 159.5Z" fill="black"/>
<path fill-rule="evenodd" clip-rule="evenodd" d="M171 54C171 73.33 155.33 89 136 89C116.67 89 101 73.33 101 54C101 34.67 116.67 19 136 19C155.33 19 171 34.67 171 54ZM153.117 39.8831C155.46 42.2262 155.46 46.0252 153.117 48.3683L144.985 56.5001L153.117 64.6318C155.46 66.9749 155.46 70.7739 153.117 73.1171C150.774 75.4602 146.975 75.4602 144.632 73.1171L136.5 64.9854L128.368 73.1171C126.025 75.4602 122.226 75.4602 119.883 73.1171C117.54 70.7739 117.54 66.9749 119.883 64.6318L128.015 56.5001L119.883 48.3683C117.54 46.0252 117.54 42.2262 119.883 39.8831C122.226 37.5399 126.025 37.5399 128.368 39.8831L136.5 48.0148L144.632 39.8831C146.975 37.5399 150.774 37.5399 153.117 39.8831Z" fill="black"/>
<path fill-rule="evenodd" clip-rule="evenodd" d="M56 89C75.33 89 91 73.33 91 54C91 34.67 75.33 19 56 19C36.67 19 21 34.67 21 54C21 73.33 36.67 89 56 89ZM39 50C35.6863 50 33 52.6863 33 56C33 59.3137 35.6863 62 39 62H74C77.3137 62 80 59.3137 80 56C80 52.6863 77.3137 50 74 50H39Z" fill="black"/>
<path fill-rule="evenodd" clip-rule="evenodd" d="M171 136C171 155.33 155.33 171 136 171C116.67 171 101 155.33 101 136C101 116.67 116.67 101 136 101C155.33 101 171 116.67 171 136ZM113 126C113 122.686 115.686 120 119 120H154C157.314 120 160 122.686 160 126C160 129.314 157.314 132 154 132H119C115.686 132 113 129.314 113 126ZM119 141C115.686 141 113 143.686 113 147C113 150.314 115.686 153 119 153H154C157.314 153 160 150.314 160 147C160 143.686 157.314 141 154 141H119Z" fill="black"/>
<path d="M37.6222 53.9857C38.7464 54.399 40.0545 54.5109 41.1282 54.971C41.8674 55.2878 40.8457 55.773 40.5095 56.048C39.6093 56.7846 38.7207 56.8912 37.6681 57.274C36.8497 57.5716 37.2098 54.7673 37.2098 54.2378C37.2098 53.8392 37.0445 53.2915 37.4618 53.1149C39.2705 52.3497 36.1292 53.1211 35.5943 53.4128C34.6803 53.9113 33.9812 54.6819 33.1309 55.2689C32.5206 55.6903 32.2191 56.1296 32.9476 55.3835C34.3322 53.9655 35.5879 52.1809 36.6713 50.5141C37.2998 49.5472 36.2687 50.9959 36.1442 51.3849C34.6614 56.0186 34.2173 61.2829 34.1163 66.1306C34.1132 66.2797 33.9189 67.5718 34.3913 67.5055C35.6339 67.3311 36.6045 65.4917 37.1181 64.5724C39.7295 59.8985 41.059 53.9562 41.5865 48.6809C41.6516 48.0299 41.9166 46.8257 40.8876 47.2373C40.1874 47.5174 39.6113 48.0252 39.1919 48.6465C38.1252 50.2269 38.2205 52.2786 38.241 54.1003C38.2536 55.227 38.4338 56.107 39.295 54.7075C40.5654 52.6432 40.764 50.3005 40.7158 47.9362C40.6938 46.8593 38.696 51.0526 38.5388 51.4421C37.56 53.8685 36.8896 56.3552 36.8088 58.9811C36.8077 59.0164 36.7095 60.8508 37.0723 60.356C38.1824 58.8422 38.6338 56.4691 39.1805 54.7304C39.9542 52.2696 40.7498 49.8001 41.3688 47.2946C41.7763 45.6452 41.7829 46.2721 41.4719 47.5695C39.7046 54.9438 37.4294 62.2228 36.3619 69.7511C36.2631 70.4484 35.9487 72.5073 36.2244 71.8593C37.2537 69.4406 38.5726 67.1768 39.7419 64.8244C42.0922 60.0962 44.2541 55.1537 46.1008 50.2047C47.9547 45.236 41.9802 59.9784 39.9596 64.8817C39.681 65.5577 39.347 67.5178 39.0201 66.8639C38.6345 66.0927 39.295 65.1602 39.4898 64.3203C40.3088 60.7894 41.239 57.2868 42.4229 53.8597C43.1969 51.6193 43.9194 49.4223 44.2561 47.0654C44.3838 46.1713 44.4843 43.4601 44.428 44.3614C44.2886 46.5907 44.0243 48.8555 43.7749 51.0755C43.6043 52.5939 43.2111 54.0741 43.0302 55.5897C43.0174 55.697 42.9591 57.3349 43.1218 57.0792C45.1839 53.8388 46.4457 50.122 48.461 46.8592C49.0095 45.971 48.5038 47.6051 48.4839 47.6841C47.4468 51.8136 46.2209 55.8937 45.1842 60.0238C44.3925 63.1776 43.7817 66.3873 42.7896 69.4876C42.6085 70.0534 41.8374 73.4296 41.1741 73.7612C40.9823 73.8571 41.1264 73.334 41.1282 73.1196C41.1319 72.6949 41.1643 71.6777 41.2199 71.2864C41.6905 67.9748 43.4172 64.7553 44.5998 61.6622C46.1015 57.7348 47.251 53.6824 48.736 49.7579C48.8355 49.4948 49.5772 47.3702 49.2286 49.2079C48.0045 55.6627 45.7901 61.9298 43.8551 68.1929C43.049 70.8019 42.2804 73.4218 41.4719 76.0298C41.3961 76.2745 41.3393 77.0421 41.3345 76.786C41.2014 69.732 41.1282 62.6792 41.1282 55.6241C41.1282 55.1327 41.2036 54.1859 41.0939 55.4293C40.9474 57.089 40.6007 58.7212 40.4408 60.3789C40.3871 60.9352 40.1159 67.171 40.6699 66.9555C41.8464 66.498 42.8346 65.3673 43.6489 64.4578C45.6197 62.2566 47.2233 59.736 48.713 57.1938C49.8488 55.2557 50.8063 53.2469 51.7034 51.1901C52.258 49.9186 52.7504 48.3278 51.4628 50.5255C49.5512 53.7885 47.9879 57.2165 46.0091 60.4477C45.8218 60.7535 45.2866 62.0199 45.2529 60.9289C45.2061 59.417 45.2609 57.8879 45.3675 56.3803C45.4288 55.5128 46.1887 52.1369 45.0008 54.5127C44.7556 55.0033 42.2074 60.4326 43.0302 60.4935C43.8556 60.5547 44.2003 60.0882 43.8093 61.3643C43.6504 61.8825 43.3791 62.3482 43.0302 62.7621C42.946 62.862 42.0816 63.4469 42.6635 63.1975C43.5115 62.8341 44.1316 62.1121 44.8404 61.5476C45.8042 60.7802 46.807 60.4094 48.0027 60.1727C48.2675 60.1203 50.159 59.9203 49.7098 59.9894C48.8766 60.1176 48.1538 60.5266 47.4069 60.8945C47.2554 60.9692 45.604 61.7753 45.7685 61.7997C49.2154 62.3103 52.8157 61.053 56.2291 60.7914C60.2866 60.4805 64.3651 60.5852 68.4313 60.5852C70.3114 60.5852 71.8648 59.7796 73.759 59.7602C75.0375 59.7472 76.7926 60.1345 77.8379 59.1415C78.361 58.6446 78.5078 58.2531 78.617 57.5375C78.7838 56.4437 79.0659 55.5322 77.9295 56.8959C76.4984 58.6132 75.5108 60.9431 73.3122 61.8226C72.3066 62.2248 72.7017 62.5197 73.633 62.3153C74.4878 62.1276 76.1521 61.779 76.6005 60.906C77.7351 58.6965 78.3513 56.4894 78.7086 54.0774C78.854 53.0959 79.3057 50.916 78.342 50.2735C76.8815 49.2999 74.7805 49.6548 73.0945 49.6548C69.9053 49.6548 66.4878 49.2864 63.3327 49.6892C62.8072 49.7562 62.2915 49.9627 61.912 50.3422C61.7221 50.5322 63.4305 50.4797 63.5619 50.4797C66.0151 50.4797 68.4795 50.3838 70.9176 50.7089C72.8659 50.9687 74.8937 51.0529 76.44 52.29C76.646 52.4547 77.3191 52.1632 77.3337 52.5879C77.3803 53.9389 76.4472 55.282 75.9016 56.4376C75.4687 57.3541 75.1148 58.4816 74.9048 59.4853C74.6338 60.7799 74.3701 60.9481 74.3204 59.3821C74.2382 56.7933 74.1548 54.2158 74.1256 51.6255C74.1179 50.9377 74.0355 51.0374 73.7819 51.6255C72.9869 53.4693 72.3966 55.417 71.88 57.3542C71.5684 58.5227 71.4405 59.6882 71.1925 60.8602C71.1841 60.9 70.9013 61.4879 70.8374 61.4559C70.7109 61.3927 70.8259 61.1734 70.8259 61.032C70.8259 60.3751 70.8259 59.7182 70.8259 59.0613C70.8259 56.0289 70.8259 52.9965 70.8259 49.9641C70.8259 48.3332 70.896 46.6794 70.8144 45.0489C70.7678 44.1153 70.0761 46.7698 69.7947 47.6612C68.2085 52.6868 66.4744 57.6084 65.0972 62.6933C64.2603 65.7834 65.451 56.2426 66.3575 53.1722C66.6575 52.156 66.8574 51.2006 67.0106 50.1589C67.0177 50.1102 67.0794 49.5984 67.1022 50.0214C67.1781 51.4243 67.1137 52.8588 67.1137 54.2607C67.1137 56.3994 67.1137 58.5381 67.1137 60.6768C67.1137 60.956 66.9632 61.8914 67.2512 62.0746C68.2209 62.6917 69.5355 57.2265 69.577 57.0792C69.9572 55.7295 70.3343 54.3783 70.5968 53.0004C70.7283 52.31 70.6197 54.4058 70.6197 55.1085C70.6197 57.3489 70.9546 60.1754 70.0239 62.2694C69.758 62.8677 69.9269 60.9636 69.8864 60.3102C69.7301 57.788 69.3762 55.3861 68.9011 52.9087C68.8749 52.7723 68.597 49.961 68.3053 49.9527C67.5892 49.9322 66.1453 54.5889 65.968 54.9939C64.9754 57.2608 63.7656 59.4128 62.6911 61.6393C62.368 62.3088 61.8761 64.402 61.7631 63.6672C61.5974 62.5901 61.7516 61.3292 61.7516 60.2529C61.7516 57.6217 61.7378 54.99 61.7516 52.3587C61.7553 51.6582 61.6155 50.5617 61.912 49.8839C62.4925 48.5571 61.705 52.7791 61.4423 54.2034C61.3648 54.6231 60.377 59.073 61.2017 56.8615C61.7869 55.2921 62.6659 53.8376 63.4817 52.3817C63.7544 51.895 64.4575 50.6565 64.7535 50.1016C64.9722 49.6915 65.2292 48.4509 65.418 48.8757C65.9296 50.0267 65.4031 52.6408 65.3263 53.7795C65.1825 55.9146 64.9225 58.0303 64.6389 60.1498C64.5392 60.8952 64.4494 61.6429 64.4327 62.3955C64.4171 63.0942 64.4327 60.9976 64.4327 60.2987C64.4327 56.6782 64.4327 53.0576 64.4327 49.4371C64.4327 46.6932 62.474 51.8543 62.3932 52.0838C61.5333 54.5273 60.7067 56.9799 59.8268 59.4165C59.3285 60.7964 59.2768 61.4645 59.2768 59.4051C59.2768 56.6324 59.2768 53.8597 59.2768 51.087C59.2768 49.731 59.4519 47.9824 58.6352 50.2964C57.26 54.1928 56.1795 58.142 55.0834 62.1205C54.8087 63.1176 54.9459 61.9775 54.9459 61.6622C54.9459 59.3711 54.9224 57.0786 54.9574 54.7877C54.9762 53.5564 55.0498 52.3369 55.1407 51.1099C55.1772 50.6164 54.992 52.0882 54.9115 52.5764C54.5947 54.4972 54.1923 56.4033 53.8345 58.3166C53.6443 59.3338 53.3453 62.3547 53.1356 61.3414C52.8846 60.1282 53.5404 58.2647 53.8002 57.125C54.2238 55.2658 54.8233 53.4559 55.2667 51.6025C55.2713 51.5834 55.6927 49.5281 55.8854 49.6319C56.2717 49.8399 54.8182 54.1237 54.7282 54.4555C54.1081 56.7399 53.5018 59.0302 52.9408 61.3299C52.8825 61.569 52.1313 64.8771 53.021 62.9225C53.7279 61.3697 54.3325 59.7832 55.0834 58.2479C55.3334 57.7368 57.1769 54.4631 57.1801 54.4784C57.404 55.5605 57.2145 56.8648 57.2145 57.9614C57.2145 58.3053 57.2091 59.2901 57.2259 59.703C57.2324 59.8624 57.1808 60.2548 57.3176 60.1727C57.5886 60.0101 57.5426 57.9396 57.5582 57.7896C57.7523 55.9194 58.2273 54.0898 58.406 52.2213C58.5154 51.078 58.4519 49.9088 58.4519 48.7611C58.4519 47.1001 57.3444 48.5779 56.676 49.2881C53.9222 52.2141 51.2776 55.2661 49.0453 58.6145C49.0405 58.6218 48.3618 59.7862 48.4037 59.0957C48.524 57.1108 49.6593 54.9764 50.3629 53.1608C50.4384 52.966 51.9023 48.7731 52.4482 49.059C53.2543 49.4813 51.8503 55.448 51.7264 56.2314C51.408 58.2432 50.8762 60.1956 50.4775 62.1892C50.2427 63.3631 50.6172 61.9267 50.6608 61.7538C51.1455 59.8338 51.5446 57.9438 51.8066 55.9793C52.1664 53.2808 50.6352 61.302 49.8473 63.9078C49.7634 64.1855 49.5069 65.0166 49.6067 64.7442C49.7544 64.3415 50.3835 62.4825 50.3858 62.4757C51.4038 59.4216 52.4319 56.3343 53.2044 53.2066C53.3511 52.6127 53.3488 51.6733 53.7085 51.1443C53.7531 51.0787 53.9147 54.4461 53.9147 54.5586C53.9147 56.9494 53.9147 59.3401 53.9147 61.7309C53.9147 62.0078 53.7063 63.6362 54.0522 63.9193C54.3825 64.1896 57.9775 56.5448 58.2915 55.796C58.7361 54.7354 59.3139 53.6484 59.6434 52.5421C59.6978 52.3595 59.6893 51.6879 59.6893 52.4275C59.6893 55.1467 59.6893 57.8659 59.6893 60.5852" stroke="black" stroke-opacity="0.2" stroke-width="3" stroke-linecap="round"/>
<path d="M52.5831 117.282C53.9951 116.945 55.397 116.566 56.7875 116.15C57.1134 116.052 57.3971 115.97 57.6743 115.785C57.7941 115.706 57.6516 115.693 57.5556 115.682C57.0111 115.621 56.4408 115.67 55.9007 115.738C54.3956 115.928 52.939 116.365 51.4588 116.68C51.2833 116.717 50.5974 116.871 51.1975 116.91C53.2128 117.041 55.2681 116.926 57.2864 116.926C58.1361 116.926 59.295 116.732 60.1368 116.981C60.3086 117.032 60.494 116.969 60.6673 117.028C60.9806 117.137 61.3401 117.445 61.3482 117.797C61.3678 118.639 60.2861 118.682 59.6301 118.858C57.0678 119.543 54.4761 120.19 51.9418 120.972C50.5247 121.409 48.5546 122.288 47.8522 123.715C47.6855 124.054 47.6889 124.608 47.7532 124.978C47.85 125.535 48.2632 125.553 48.7548 125.58C50.7558 125.688 52.795 125.664 54.7962 125.596C57.8172 125.492 60.7611 124.822 63.7672 124.582C65.7277 124.426 67.8789 124.266 69.666 125.224C70.0922 125.452 70.0757 125.864 70.0382 126.296C70.0102 126.618 69.6125 126.613 69.3651 126.661C67.6678 126.985 65.951 127.194 64.2422 127.448C61.7867 127.814 59.3299 128.166 56.8707 128.505C55.0787 128.753 53.2832 128.92 51.5023 129.246C49.0207 129.699 46.7022 130.663 44.4554 131.803C43.0763 132.503 41.669 133.199 40.1837 133.648C39.5973 133.826 38.8974 134.066 38.2913 134.155C38.0742 134.187 37.9251 132.584 37.832 132.31C37.6626 131.812 35.8253 134.246 35.6942 134.472C34.8992 135.838 34.4115 137.488 34.4115 139.072C34.4115 141.273 34.2656 134.662 34.4432 132.468C34.4815 131.994 34.475 131.67 34.9578 131.574C36.378 131.29 37.7889 131.068 39.2335 130.932C42.193 130.655 45.1478 130.608 48.1174 130.608C48.2925 130.608 49.9705 130.438 50.0731 130.687C50.2727 131.17 50.0692 132.178 49.9623 132.635C49.6624 133.916 48.9865 135.121 48.0937 136.079C47.2753 136.957 46.4081 137.808 45.4966 138.589C44.6805 139.288 43.7474 139.96 43.1331 140.857C42.8702 141.242 42.6544 141.683 42.4403 142.097C42.2456 142.473 41.8896 141.988 41.696 141.812C40.4267 140.655 39.0774 139.564 37.5906 138.696C37.2631 138.505 36.4346 137.958 35.9991 138.031C35.9522 138.039 36.6199 139.152 36.6602 139.207C37.3278 140.111 38.1985 140.742 39.2771 141.051C42.8453 142.074 46.8772 142.179 50.2038 143.926C51.0356 144.362 51.8782 145.053 52.5514 145.703C53.2174 146.347 53.8726 146.99 54.5507 147.623C55.2927 148.316 55.5377 148.898 55.7384 149.908C55.952 150.982 56.3158 153.204 54.8635 153.696C54.1058 153.953 53.3133 153.561 52.5594 153.641C51.7625 153.725 51.807 154.947 51.7992 155.517C51.7919 156.058 51.7838 156.95 52.4643 157.117C53.644 157.405 54.9026 157.502 56.1145 157.386C58.0714 157.199 58.6851 154.36 59.3371 152.928C59.6471 152.248 60.0212 151.605 60.3031 150.909C60.7991 149.684 61.1736 148.406 61.4908 147.124C61.9898 145.108 61.9464 143.111 61.9144 141.043C61.8872 139.291 61.2888 137.635 60.6356 136.028C60.4628 135.602 60.1488 134.452 59.5944 134.385C58.6949 134.276 57.6914 134.157 56.7915 134.254C56.0337 134.335 55.5422 135.107 55.1089 135.647C54.3279 136.622 53.6891 137.634 53.3155 138.834C52.9274 140.082 52.8001 141.521 53.2641 142.766C53.5318 143.484 54.1432 144.211 54.9941 143.961C57.1463 143.33 57.2021 140.337 57.0369 138.565C56.6804 134.742 54.2272 131.645 53.1215 128.062C52.8836 127.291 52.7969 126.535 52.7969 125.734C52.7969 124.794 53.6888 124.267 54.4597 123.901C55.6021 123.358 56.8119 123.218 58.0623 123.284C59.1917 123.343 60.035 123.672 60.6198 124.669C61.1973 125.654 61.3412 126.8 61.4591 127.916C61.6201 129.439 61.7145 130.972 61.9025 132.492C62.1697 134.653 62.4307 136.878 62.9952 138.985C63.4014 140.501 63.8437 142.124 64.5788 143.522C64.9566 144.24 65.0555 144.135 65.8377 144.092C67.437 144.004 69.1366 143.974 70.7468 144.092C71.0696 144.116 71.7856 144.37 72.0849 144.226C72.3498 144.099 71.1494 141.769 71.0952 141.637C69.9786 138.92 68.8792 136.169 68.0785 133.339C67.9008 132.712 67.6905 132.091 67.6905 131.435C67.6905 131.018 67.6905 132.269 67.6905 132.686C67.6905 134.477 67.7473 136.256 68.1418 138.011C68.1469 138.033 68.2409 138.725 68.4823 138.629C68.8343 138.488 69.1213 137.785 69.2622 137.508C69.9503 136.158 70.3803 134.714 70.6597 133.229C70.7104 132.959 70.8875 132.502 70.5687 132.35C70.159 132.154 69.981 131.867 69.7967 131.451C69.5755 130.952 69.3873 130.441 69.2305 129.919C69.1303 129.585 69.187 129.931 69.187 130.105C69.187 130.575 69.187 131.044 69.187 131.514C69.187 131.767 75.5938 131.723 76.321 131.795C76.8248 131.845 76.7407 131.838 76.7407 132.183C76.7407 132.414 76.7407 132.645 76.7407 132.876C76.7407 133.276 76.7407 133.676 76.7407 134.076C76.7407 136.269 76.7407 138.462 76.7407 140.656" stroke="black" stroke-opacity="0.2" stroke-width="8" stroke-linecap="round"/>
<path d="M120.042 121.976C118.172 122.21 115.864 124.483 115.503 126.34C115.318 127.289 115.078 128.175 115.267 129.142C115.304 129.331 115.912 131.561 116.372 131.21C117.614 130.26 118.417 128.504 119.308 127.263C120.767 125.231 122.089 123.113 123.585 121.107C123.82 120.792 125.293 118.953 125.834 120.036C126.023 120.415 125.861 121.239 125.753 121.612C125.359 122.976 124.523 123.834 123.733 124.98C123.123 125.865 122.381 126.621 121.766 127.499C121.21 128.294 120.943 129.128 120.621 130.031C120.524 130.305 120.139 131.156 120.796 130.866C121.729 130.455 122.572 129.349 123.221 128.617C124.697 126.951 126.159 125.209 128.043 123.976C128.892 123.422 129.714 123.018 130.643 122.616C131.716 122.151 132.965 121.933 133.997 121.417C134.314 121.259 134.588 121.021 134.886 120.831C135.286 120.577 136.165 120.764 136.59 120.764C139.276 120.764 141.966 120.727 144.652 120.764C145.343 120.773 145.92 121.062 146.591 121.154C147.393 121.264 148.19 121.331 148.989 121.464C149.758 121.592 150.52 121.809 151.292 121.949C152.178 122.11 153.135 121.925 154.033 121.983C154.41 122.007 154.91 122.055 155.252 122.219C155.533 122.352 155.847 122.267 156.108 122.407C156.726 122.74 157.174 123.103 157.677 123.606C158.212 124.141 158.143 124.894 158.223 125.613C158.693 129.845 152.083 129.783 149.46 130.22C146.073 130.784 142.761 130.947 139.318 130.947C137.231 130.947 135.193 130.705 133.121 130.705C131.021 130.705 128.937 130.681 126.858 130.334C125.888 130.172 127.179 129.934 127.451 129.883C129.171 129.56 130.85 129.06 132.569 128.724C133.773 128.489 134.959 128.507 136.166 128.374C137.054 128.277 137.863 127.829 138.752 127.701C141.961 127.237 145.275 126.583 148.531 126.583" stroke="black" stroke-opacity="0.2" stroke-width="8" stroke-linecap="round"/>
<path d="M115.92 143.555C118.7 143.486 121.247 142.811 123.948 142.558C124.786 142.48 125.626 142.352 126.467 142.343C127.217 142.334 128.013 142.437 128.737 142.215C129.938 141.845 131.372 141.869 132.623 141.858C133.864 141.846 135.106 141.858 136.347 141.858C138.127 141.858 139.909 141.828 141.688 141.858C143.704 141.891 145.693 142.567 147.689 142.767C149.185 142.916 150.634 143.159 152.114 143.339C152.959 143.442 153.792 143.63 154.646 143.669C155.214 143.696 155.948 143.723 156.451 144.04C157.064 144.426 157.594 144.728 157.798 145.488C157.919 145.935 158.075 147.268 157.839 147.677C157.597 148.094 156.803 148.205 156.384 148.256C155.143 148.407 153.901 148.404 152.653 148.404C151.274 148.404 149.93 148.631 148.571 148.774C146.945 148.946 145.357 149.021 143.763 149.347C142.884 149.526 141.512 149.005 140.739 149.434C140.608 149.507 141.034 149.495 141.183 149.495C141.964 149.495 142.746 149.495 143.527 149.495C146.299 149.495 149.072 149.495 151.845 149.495C152.315 149.495 152.789 149.467 153.252 149.556C153.675 149.637 153.982 149.846 154.417 149.859C157.024 149.935 149.226 150.465 146.618 150.465C145.352 150.465 144.103 150.693 142.833 150.707C139.393 150.747 135.949 150.707 132.509 150.707C131.052 150.707 129.595 150.707 128.138 150.707C127.684 150.707 127.231 150.707 126.777 150.707C126.463 150.707 125.556 150.826 125.834 150.68C126.318 150.427 127.016 150.302 127.531 150.142C129.403 149.559 131.312 149.37 133.256 149.172C137.465 148.742 141.624 148.283 145.857 148.283C152.693 148.283 132.185 148.283 125.349 148.283C123.158 148.283 120.967 148.283 118.776 148.283C118.295 148.283 116.921 148.266 118.21 147.757C119.496 147.25 121.276 147.093 122.655 147.07C122.985 147.065 123.465 146.99 123.787 147.097C124.186 147.231 122.962 147.298 122.541 147.306C120.442 147.345 118.318 147.189 116.223 147.32C115.654 147.355 115.92 148.879 115.92 149.28C115.92 149.786 115.909 150.295 115.92 150.802C115.94 151.699 116.771 151.435 117.463 151.435C120.79 151.435 124.117 151.435 127.444 151.435C131.191 151.435 134.938 151.435 138.685 151.435C140.062 151.435 141.348 150.702 142.725 150.613C144.202 150.517 145.698 150.586 147.177 150.586C147.413 150.586 147.817 150.681 147.925 150.465" stroke="black" stroke-opacity="0.2" stroke-width="8" stroke-linecap="round"/>
<path d="M133.862 52.5118C133.182 54.445 131.923 56.147 131.923 58.2769C131.923 58.8976 131.976 59.2906 132.65 59.3007C133.151 59.3081 133.658 59.3148 134.159 59.3007C135.558 59.2613 136.669 58.1443 137.108 56.8761C137.42 55.9763 137.257 54.8628 137.257 53.9262C137.257 53.2693 137.392 52.8838 136.637 52.8755C136.057 52.8692 135.304 52.6828 135.061 53.3739C134.672 54.4823 134.954 56.2012 135.169 57.3071C135.271 57.8337 136.124 59.3702 136.799 59.2737C138.041 59.0963 138.198 56.1612 138.253 55.2866C138.27 55.0251 138.638 52.3049 137.822 52.4445C136.925 52.5981 136.331 54.0173 136.004 54.694C135.517 55.7016 135.092 56.791 134.98 57.9133C134.87 59.0253 135.015 59.9398 136.044 60.5534C137.169 61.224 137.795 60.9229 138.415 59.8731C139.379 58.2424 139.377 56.4784 139.304 54.6266C139.263 53.5904 138.998 51.8107 137.492 52.2896C136.466 52.6161 135.975 54.0144 135.647 54.9027C135.034 56.5633 134.698 58.3685 134.778 60.1425C134.845 61.613 135.397 62.7998 136.152 64.0353C136.505 64.6125 136.939 65.5273 137.681 65.6921C139.568 66.1114 140.544 63.1463 140.745 61.8532C141.076 59.7291 141.066 57.4491 140.422 55.3809C139.898 53.6986 138.447 50.7021 136.253 50.781C134.178 50.8555 132.77 54.0258 132.064 55.5628C131.264 57.3068 130.872 58.7265 132.232 60.257C133.554 61.7434 135.362 63.0104 137.243 63.6716C138.327 64.0527 139.804 64.3133 140.678 63.3551C141.747 62.1826 142.309 60.2699 142.692 58.7686C142.854 58.1338 143.062 57.2728 142.88 56.6067C142.63 55.688 141.232 55.8284 140.53 55.8052C137.847 55.7165 135.104 57.1407 134.307 59.8597C134.151 60.3907 133.986 61.236 134.179 61.7926C134.309 62.169 135.066 61.6716 135.182 61.6107C138.314 59.9687 141.405 57.4201 141.978 53.7309C142.212 52.2226 141.803 48.5333 139.641 48.4372C138.969 48.4073 138.26 49.2459 137.876 49.6562C136.559 51.0638 135.294 52.6471 134.313 54.3101C133.963 54.9048 133.674 55.5834 133.754 56.2901C133.834 56.9832 135.172 56.7283 135.573 56.701C137.048 56.6003 138.778 56.4771 140.058 55.6503C140.593 55.3052 141.312 54.4468 140.907 53.7511C140.264 52.6473 137.544 52.6765 136.664 52.5792C132.524 52.1215 128.35 51.7836 124.191 51.5555C123.527 51.5191 121.533 51.5346 122.197 51.542C123.292 51.5542 124.391 51.5514 125.484 51.4881C126.417 51.4341 129.166 50.9642 128.232 50.9359C127.4 50.9107 128.351 50.4398 128.703 50.0334C129.373 49.2607 129.939 48.3518 130.67 47.6357C130.987 47.3251 131.366 47.0595 131.734 46.8141C131.923 46.6878 132.611 46.4271 132.69 46.181C132.823 45.7695 130.455 44.7111 130.185 44.5646C128.23 43.5039 126.672 41.9189 124.406 41.5069C123.679 41.3747 122.821 41.3322 122.076 41.3588C120.791 41.4047 119.571 43.4804 119.261 44.5781C118.926 45.7671 118.856 47.2716 119.557 48.3227C119.926 48.8755 120.733 49.6023 121.443 49.6023C122.696 49.6023 123.486 47.5827 124.198 46.7871C124.748 46.1722 125.693 46.2554 126.467 46.3292C126.934 46.3736 127.31 46.9691 127.558 47.299C128.254 48.2222 128.875 49.205 129.969 49.6966C131.295 50.2919 132.726 50.2172 134.145 50.2085C135.58 50.1997 136.93 50.0388 138.24 49.4138C139.373 48.8732 139.962 47.9633 140.503 46.8814C140.803 46.2808 140.942 45.7203 141.136 45.0899C141.357 44.3707 141.944 43.7668 142.409 43.1907C143.285 42.1065 145.113 41.7435 146.342 41.2375C147.368 40.8151 148.439 40.6685 149.487 40.3351C150.371 40.0538 150.924 40.7409 151.38 41.4329C152.109 42.5395 152.91 43.6274 153.192 44.9552C153.53 46.5511 153.232 47.8738 151.939 48.9154C151.425 49.329 150.862 49.6792 150.343 50.0873C149.754 50.55 149.041 50.7416 148.47 51.2389C147.767 51.852 146.708 52.6042 145.824 52.9227C144.86 53.2695 145.769 48.4646 145.918 47.9051C146.077 47.3077 146.423 46.3292 147.157 46.3292C147.661 46.3292 148.046 46.2621 148.289 46.8141C148.886 48.1765 148.652 49.9042 148.652 51.3534C148.652 52.6422 148.628 53.8072 148.315 55.0576C148.128 55.8072 147.82 56.5698 147.709 57.3341C147.593 58.1365 147.194 59.3176 147.561 60.0954C148.124 61.2867 149.426 62.3385 150.43 63.1396C151.708 64.1589 152.333 64.9833 152.989 66.4801C153.554 67.7659 153.744 69.0184 153.744 70.3999C153.744 71.5871 152.848 72.4014 151.676 72.6359C150.71 72.8291 149.797 73.1502 148.8 72.9322C148.051 72.7683 147.438 71.8697 146.901 71.3832C146.338 70.8724 146.033 70.668 145.743 69.9621C145.501 69.3743 145.48 68.7911 145.507 68.1638C145.516 67.9488 145.851 66.1893 145.911 66.2983C146.188 66.7959 144.193 68.5719 143.83 68.9047C143.434 69.2676 142.97 69.5899 142.53 69.8947C142.063 70.2182 140.848 69.2317 140.523 68.9788C139.388 68.0956 138.244 67.1712 136.9 66.6148C135.581 66.0693 134.553 67.913 133.62 68.4804C132.02 69.453 130.443 70.455 128.804 71.3562C128.513 71.5162 128.314 72.021 128.05 72.2587C127.553 72.7064 126.965 73.0596 126.386 73.3902C124.596 74.4133 123.303 73.799 121.712 72.7571C120.871 72.2055 119.846 71.958 119.8 70.7905C119.71 68.5492 122.086 66.3958 123.416 64.8435C124.659 63.3942 126.609 62.6584 127.733 61.1191C127.963 60.8051 128.264 60.3278 128.723 60.3985C129.394 60.5016 129.134 61.858 129.134 62.3112C129.134 62.8072 129.243 63.4065 129.006 63.8602C128.822 64.2131 128.503 64.6225 128.407 65.0052C128.1 66.2338 127.45 67.5735 126.467 68.3928" stroke="black" stroke-opacity="0.2" stroke-width="8" stroke-linecap="round"/>
</svg>
