<svg width="192" height="192" viewBox="0 0 192 192" fill="none" xmlns="http://www.w3.org/2000/svg">
<path d="M60 50V56C61.8885 56 63.6669 55.1108 64.8 53.6L60 50ZM72 34V28C70.1115 28 68.3331 28.8892 67.2 30.4L72 34ZM132 50L127.2 53.6C128.333 55.1108 130.111 56 132 56V50ZM120 34L124.8 30.4C123.667 28.8892 121.889 28 120 28V34ZM164 66V142H176V66H164ZM154 152H38V164H154V152ZM28 142V66H16V142H28ZM38 56H60V44H38V56ZM64.8 53.6L76.8 37.6L67.2 30.4L55.2 46.4L64.8 53.6ZM132 56H154V44H132V56ZM136.8 46.4L124.8 30.4L115.2 37.6L127.2 53.6L136.8 46.4ZM120 28H72V40H120V28ZM38 152C32.4772 152 28 147.523 28 142H16C16 154.15 25.8497 164 38 164V152ZM164 142C164 147.523 159.523 152 154 152V164C166.15 164 176 154.15 176 142H164ZM176 66C176 53.8497 166.15 44 154 44V56C159.523 56 164 60.4772 164 66H176ZM28 66C28 60.4772 32.4772 56 38 56V44C25.8497 44 16 53.8497 16 66H28Z" fill="black"/>
<path d="M96 130C111.464 130 124 117.464 124 102C124 86.536 111.464 74 96 74C80.536 74 68 86.536 68 102C68 117.464 80.536 130 96 130Z" stroke="black" stroke-width="12"/>
<path d="M51.3375 57.6808C49.9024 57.2195 48.2866 57.2512 46.7965 57.2241C44.5353 57.183 42.1274 56.997 39.8806 57.3154C36.4396 57.8031 33.7874 60.2469 33.2648 63.6441C32.4631 68.8549 33.0168 74.4767 33.0168 79.7334C33.0168 84.262 32.8347 88.7292 32.26 93.226C31.7127 97.5079 31.1533 101.665 31.1378 105.988C31.1193 111.135 31.0673 116.291 31.1378 121.438C31.1983 125.856 33.1489 129.963 33.2387 134.408C33.2982 137.356 33.2517 140.307 33.2517 143.256C33.2517 143.97 33.0367 144.994 33.2778 145.657C33.6634 146.717 35.5154 147.062 36.4226 147.405C38.2583 148.1 40.3379 148.11 42.2816 148.11C44.6549 148.11 47.0426 148.272 49.3932 148.593C56.6968 149.588 63.8112 150.693 71.1979 150.693C81.9985 150.693 92.9609 150.129 103.742 150.811C107.857 151.071 111.991 150.874 116.112 150.928C118.854 150.964 121.51 151.442 124.229 151.711C127.971 152.082 131.799 151.868 135.555 151.868C139.573 151.868 143.056 150.425 146.947 149.741C149.775 149.244 152.599 149.073 155.468 149.049C156.132 149.044 158.031 149.423 158.626 148.762C160.268 146.937 160.087 143.903 160.087 141.664C160.087 140.839 160.515 138.917 159.369 138.741C158.642 138.629 157.863 138.827 157.164 139.002C154.797 139.593 152.581 140.198 150.118 140.306C140.602 140.725 130.99 140.359 121.462 140.359C114.181 140.359 106.9 140.359 99.6185 140.359C95.5735 140.359 91.5279 140.382 87.483 140.359C84.8198 140.344 80.8108 140.594 78.4792 139.067C73.7299 135.955 68.3934 134.272 64.8301 129.554C60.6719 124.048 59.8442 117.886 59.7932 111.155C59.7575 106.449 58.8537 101.856 58.8537 97.1407C58.8537 94.5004 58.9513 91.9173 59.206 89.2852C59.4935 86.3141 60.263 83.6693 60.263 80.673C60.263 76.8032 60.4952 72.8438 59.6888 69.0333C59.2769 67.087 58.6324 65.0981 57.4313 63.4875C56.9233 62.8063 55.3827 61.7722 55.3827 60.8256C55.3827 59.5161 56.7563 58.477 57.9141 58.2027C59.7523 57.7674 61.2127 58.567 62.3769 59.9252C64.1811 62.0301 66.7715 65.1402 66.8396 68.0677C66.9162 71.3605 66.8469 74.6551 64.9606 77.5934C64.0791 78.9665 62.6464 79.7718 61.62 81.0383C58.9404 84.3451 57.4255 88.2159 56.3091 92.2995C55.5199 95.1865 55.0311 98.1053 55.1478 101.108C55.2929 104.841 56.7128 108.15 57.7837 111.677C58.914 115.4 60.0754 119.088 61.5548 122.69C62.8259 125.785 64.7229 128.793 65.7435 131.968C66.3149 133.746 67.2606 136.477 66.7613 138.349C66.1451 140.66 63.342 141.482 61.2677 141.703C57.0214 142.154 52.6236 141.528 48.5972 140.254C46.9269 139.726 44.9583 139.135 43.1819 139.223C42.897 139.238 41.348 139.853 41.8248 139.615C43.3479 138.853 45.1629 138.679 46.7704 138.14C48.6166 137.522 50.3762 136.664 52.0421 135.661C52.7801 135.217 53.5746 134.855 53.6602 133.913C53.7949 132.431 53.7429 131.181 52.016 132.19C50.9013 132.841 42.3075 139.655 40.8853 137.41C39.7373 135.597 40.1763 132.202 40.1154 130.181C39.988 125.948 40.0632 121.705 40.0632 117.471C40.0632 113.165 40.0632 108.859 40.0632 104.552C40.0632 99.9369 40.5338 95.4006 40.7418 90.7989C40.9861 85.3931 41.2518 80.0208 42.1902 74.6835C42.5134 72.8452 42.6066 70.6451 43.3777 68.9289C44.3473 66.7708 46.2282 67.5228 47.736 68.7202C49.6151 70.2124 50.0797 72.7556 50.1892 75.0228C50.2973 77.263 49.9309 79.4345 49.5889 81.6386C49.0281 85.2538 48.5736 88.8396 48.3493 92.4953C47.997 98.2381 48.0492 103.995 48.0492 109.746C48.0492 113.665 47.9409 117.573 48.4667 121.464C48.7182 123.325 48.5254 125.513 49.6411 127.101C50.9823 129.01 51.8764 129.471 54.1561 130.272C57.2767 131.368 60.4756 131.965 63.7862 132.138C66.5388 132.281 69.2436 133.38 71.9678 133.756C75.4674 134.239 79.0533 134.487 82.5766 134.487C83.945 134.487 85.0234 134.822 86.3086 135.009C88.5608 135.336 90.8223 135.426 93.094 135.426C98.7961 135.426 104.352 134.819 110.005 134.487C113.989 134.252 117.628 131.596 120.862 129.554C123.198 128.08 125.859 126.665 127.36 124.282C129.016 121.655 129.603 118.98 130.127 115.931C130.746 112.327 131.345 108.721 132.006 105.127C132.895 100.288 133.076 95.6384 133.076 90.7206C133.076 82.887 132.716 74.9572 133.833 67.1804C134.15 64.9689 134.521 63.5807 136.638 62.6002C139.906 61.0866 143.571 60.261 147.156 60.0818C151.322 59.8735 154.467 61.1786 157.686 63.8399C159.845 65.6245 160.683 67.5043 161.157 70.1816C161.949 74.6552 161.731 79.3282 161.731 83.8569C161.731 86.427 161.651 89.0194 161.888 91.5819C162.132 94.2253 162.718 96.8536 163.062 99.4895C164.076 107.263 166.84 116.128 164.028 123.826C162.698 127.466 160.087 131.095 156.851 133.286C154.439 134.92 151.555 135.542 148.735 136.026C145.804 136.529 142.708 136.928 139.731 136.575C138.524 136.431 134.852 135.836 134.355 134.343C133.929 133.066 134.253 130.584 135.242 129.606C136.872 127.994 140.156 127.706 142.275 127.258C143.959 126.901 145.951 126.862 147.469 125.979C150.782 124.051 151.881 118.208 152.049 114.861C152.29 110.057 152.101 105.199 152.101 100.39C152.101 96.2604 151.346 92.2501 150.809 88.163C150.231 83.7555 149.05 79.7593 147.456 75.6361C146.925 74.2623 145.446 73.0092 145.303 71.5779C145.135 69.9047 148.54 69.8876 148.526 70.1555C148.5 70.6345 147.612 71.4779 147.482 71.6431C145.156 74.5906 143.813 77.6006 142.863 81.2602C141.736 85.5977 141.624 89.6204 141.897 94.0089C142.281 100.183 141.765 106.36 141.519 112.525C141.454 114.144 141.425 115.814 141.192 117.419C141.19 117.435 140.909 119.383 140.853 118.11C140.726 115.22 140.805 112.298 140.827 109.407C140.832 108.778 140.763 106.939 140.984 107.528C141.66 109.332 142.043 111.384 142.589 113.23C143.133 115.075 143.642 116.933 144.194 118.776C144.28 119.063 144.229 118.172 144.181 117.875C143.496 113.665 141.344 109.902 140.475 105.753C139.926 103.134 139.252 100.501 138.922 97.8453C138.101 91.2491 138.51 84.6068 137.486 78.011C136.81 73.652 136.275 69.1176 135.007 64.8838C134.112 61.8932 132.981 58.2025 130.257 56.3498C128.541 55.182 126.017 55.3305 124.477 54.0271C123.648 53.3261 122.607 52.9946 121.789 52.2785C120.952 51.5464 120.003 51.0026 119.192 50.2168C117.97 49.0328 116.996 47.6453 115.812 46.4326C114.382 44.968 112.879 44.7689 110.867 44.6319C105.796 44.2867 100.656 44.229 95.5733 44.0838C93.2593 44.0177 90.9553 44.0338 88.6574 44.3448C83.5448 45.0367 78.7976 46.6136 73.9382 48.2334C71.0617 49.1922 70.0326 53.187 69.9061 55.9061C69.8235 57.6828 69.8931 59.4776 69.8931 61.2562C69.8931 62.1483 69.7317 63.2171 70.141 64.0356C70.533 64.8197 71.3369 69.8946 72.2941 69.8946C73.2104 69.8946 74.2419 68.985 75.0474 68.6158C76.3667 68.0111 77.7899 67.4516 79.1578 66.9716C83.0337 65.6116 86.9085 65.6667 91.0062 65.6667C93.9777 65.6667 96.9707 65.4318 99.9577 65.4318C102.397 65.4318 104.725 66.0267 107.004 66.8933C111.627 68.6512 114.633 72.091 118.461 75.0097C120.431 76.5121 122.27 78.0265 123.889 79.9161C124.382 80.4906 125.02 82.4612 125.207 80.6991C125.571 77.2825 125.343 73.8143 124.881 70.4687C124.439 67.2651 122.077 65.142 119.74 62.9003C116.773 60.0541 113.205 58.4491 109.275 57.3676C103.824 55.868 97.9939 54.8124 92.3633 54.3142C89.0604 54.0219 85.5673 53.9852 82.3417 54.8883C80.9617 55.2747 79.5784 56.0366 78.1139 56.0366" stroke="black" stroke-opacity="0.25" stroke-width="15" stroke-linecap="round"/>
</svg>
