<svg width="163" height="139" viewBox="0 0 163 139" fill="none" xmlns="http://www.w3.org/2000/svg">
<path fill-rule="evenodd" clip-rule="evenodd" d="M15.0407 2.04111C17.0131 0.561449 19.68 0.425965 21.7909 1.69834L42.0099 13.8858C43.8369 14.9871 44.9548 16.9707 44.9548 19.1112V69.8925V120.674C44.9548 122.815 43.8369 124.798 42.0099 125.899L21.7909 138.087C19.68 139.359 17.0131 139.223 15.0407 137.743L2.9093 128.642C1.37598 127.493 0.4729 125.683 0.4729 123.76V69.8925V16.0248C0.4729 14.1024 1.37598 12.2925 2.9093 11.1422L15.0407 2.04111ZM19.0389 14.2525L12.6043 19.0796V69.8925V120.705L19.0389 125.532L32.8234 117.224V69.8925V22.5614L19.0389 14.2525ZM106.578 25.996C108.48 27.0776 109.656 29.1033 109.656 31.2987V88.1737C109.656 90.3147 108.538 92.2982 106.711 93.3991L84.47 106.805C82.549 107.963 80.1493 107.963 78.2283 106.805L55.9874 93.3991C54.1604 92.2982 53.0425 90.3147 53.0425 88.1737V31.2987C53.0425 29.1034 54.218 27.0776 56.1196 25.996C58.0213 24.9143 60.3551 24.9439 62.229 26.0733L81.3491 37.5984L100.469 26.0733C102.344 24.9438 104.677 24.9142 106.578 25.996ZM97.5244 42.0615L84.47 49.9304C82.549 51.0882 80.1493 51.0882 78.2283 49.9304L65.1739 42.0615V84.7236L81.3491 94.4737L97.5244 84.7236V42.0615ZM140.907 1.69834C143.018 0.425965 145.685 0.561449 147.658 2.04111L159.789 11.1422C161.323 12.2925 162.225 14.1024 162.225 16.0248V69.8925V123.76C162.225 125.683 161.323 127.493 159.789 128.642L147.658 137.743C145.685 139.223 143.018 139.359 140.907 138.087L120.688 125.899C118.862 124.798 117.743 122.815 117.743 120.674V69.8925V19.1112C117.743 16.9707 118.862 14.9871 120.688 13.8858L140.907 1.69834ZM150.094 19.0796L143.659 14.2525L129.875 22.5614V69.8925V117.224L143.659 125.532L150.094 120.705V69.8925V19.0796Z" fill="black"/>
<path d="M78 42.5L65.5 38L59.5 77L64.5 90L84.5 99.5L100.5 90.5V34L78 42.5Z" fill="black" fill-opacity="0.5" stroke="black"/>
<path d="M19 9L12.5 13.5L7.5 15.5V110L10 124.5L21 130.5L35 120L37.5 26.5L34 18L19 9Z" fill="black" fill-opacity="0.5"/>
<path d="M140.5 11.5L128.5 20L125 120L143.5 132L155 124.5L153 15.5L145 10L140.5 11.5Z" fill="black" fill-opacity="0.5"/>
<path d="M19 9L12.5 13.5L7.5 15.5V110L10 124.5L21 130.5L35 120L37.5 26.5L34 18L19 9Z" stroke="black"/>
<path d="M140.5 11.5L128.5 20L125 120L143.5 132L155 124.5L153 15.5L145 10L140.5 11.5Z" stroke="black"/>
</svg>
