<svg width="192" height="192" viewBox="0 0 192 192" fill="none" xmlns="http://www.w3.org/2000/svg">
<path d="M96 78C109.255 78 120 67.2548 120 54C120 40.7452 109.255 30 96 30C82.7452 30 72 40.7452 72 54C72 67.2548 82.7452 78 96 78Z" stroke="black" stroke-width="12"/>
<path fill-rule="evenodd" clip-rule="evenodd" d="M36.9073 118.675C44.7187 111.604 62.6231 100 96 100C129.377 100 147.281 111.604 155.093 118.675C158.606 121.854 160 126.528 160 131.267V152C160 160.837 152.837 168 144 168H96H48C39.1634 168 32 160.837 32 152V131.267C32 126.528 33.3944 121.854 36.9073 118.675ZM96 156H144C146.209 156 148 154.209 148 152V131.267C148 128.646 147.23 127.743 147.04 127.572C141.347 122.419 126.284 112 96 112C65.7157 112 50.6528 122.419 44.9602 127.572C44.7705 127.743 44 128.646 44 131.267V152C44 154.209 45.7909 156 48 156H96Z" fill="black"/>
<path d="M95.4553 40.6679C93.7685 41.672 91.9573 42.8202 90.1391 43.5552C87.8892 44.4647 86.3538 45.3938 85.3499 47.7601C83.4184 52.3129 83.6812 57.9961 86.3352 62.2079C87.909 64.7054 92.3008 64.4132 94.7106 63.3422C96.0274 62.7569 97.2245 62.1069 98.6405 61.7496C99.9682 61.4146 101.158 61.2103 102.341 60.4664C105.183 58.6804 105.263 55.6979 105.103 52.6295C105.005 50.7653 104.639 48.9323 104.553 47.0726C104.529 46.5709 104.951 44.4546 104.415 44.1624C103.192 43.4953 101.866 42.9452 100.611 42.3178" stroke="black" stroke-opacity="0.2" stroke-width="20" stroke-linecap="round"/>
<path d="M49.0527 138.423C47.1344 137.3 47.1966 133.926 47.1966 131.926C47.1966 128.952 50.3481 127.977 52.6046 126.782C56.2165 124.87 60.1962 123.623 63.6954 121.523C65.2155 120.611 66.6887 120.065 68.3814 119.587C71.4152 118.729 74.3244 117.415 77.3984 116.688C81.1296 115.806 84.7405 114.747 88.5809 114.454C90.417 114.314 92.1461 114.018 93.9544 113.698C97.3037 113.104 100.911 113.468 104.301 113.468C105.298 113.468 106.362 113.378 107.348 113.56C108.802 113.829 110.152 114.505 111.542 114.981C113.141 115.528 114.808 115.879 116.377 116.516C120.425 118.161 124.292 120.358 128.43 121.809C132.342 123.182 136.762 124.459 139.75 127.447C141.746 129.443 142.845 131.14 143.588 133.943C144.314 136.678 144.846 139.347 144.94 142.227C144.985 143.584 144.952 144.947 144.952 146.305C144.952 146.848 145.063 147.534 144.86 148.047C144.296 149.472 140.713 148.728 139.635 148.746C137.408 148.782 135.205 149.051 132.99 149.147C132.075 149.187 131.291 149.686 130.401 149.88C127.664 150.478 124.944 150.864 122.174 151.301C119.72 151.689 117.23 151.833 114.796 152.332C112.674 152.767 110.541 152.6 108.391 152.756C103.801 153.089 99.2436 152.669 94.6763 152.24C85.6888 151.396 76.6949 151.622 67.6711 151.622C64.1922 151.622 60.7073 151.507 57.2334 151.507C55.1711 151.507 53.1057 152.034 51.0234 152.034C50.6033 152.034 49.6463 152.258 49.4194 151.759C48.6269 150.016 49.0843 146.877 50.0152 145.274C52.2584 141.413 56.7621 140.316 60.8768 140.118C63.9356 139.972 66.935 139.952 69.9511 139.362C73.1157 138.744 76.4876 138.417 79.7014 138.136C83.7353 137.784 87.86 138.01 91.9036 138.01C96.8226 138.01 101.742 138.01 106.661 138.01C113.822 138.01 121.318 138.639 128.315 136.773C129.135 136.554 127.684 135.496 127.49 135.375C125.289 134.002 122.652 133.344 120.181 132.671C115.07 131.281 109.796 130.786 104.53 130.196C98.3689 129.506 92.1034 130.173 85.9228 130.173C82.4363 130.173 78.8763 129.901 75.4507 130.586" stroke="black" stroke-opacity="0.2" stroke-width="20" stroke-linecap="round"/>
</svg>
