<svg width="192" height="192" viewBox="0 0 192 192" fill="none" xmlns="http://www.w3.org/2000/svg">
<g clip-path="url(#clip0_27_63)">
<path d="M34.8281 68.94C34.8281 73.4133 33.2331 77.245 30.0431 80.435C26.8531 83.625 23.0214 85.22 18.5481 85.22C17.0447 85.22 15.2847 85.1467 13.2681 85H8.64807C8.46473 85 8.0614 85.0183 7.43807 85.055C6.81473 85.0917 6.33807 85.11 6.00807 85.11H5.56807L5.84307 83.79H6.22807C7.03473 83.7167 7.58473 83.515 7.87807 83.185C8.1714 82.855 8.31807 82.1767 8.31807 81.15V56.73C8.31807 55.7033 8.1714 55.025 7.87807 54.695C7.58473 54.365 7.03473 54.1633 6.22807 54.09H5.84307L5.56807 52.77H6.00807C6.33807 52.77 6.81473 52.7883 7.43807 52.825C8.0614 52.8617 8.46473 52.88 8.64807 52.88H12.3881C15.0281 52.7333 17.0814 52.66 18.5481 52.66C23.0214 52.66 26.8531 54.255 30.0431 57.445C33.2331 60.635 34.8281 64.4667 34.8281 68.94ZM27.5681 68.94C27.5681 66.2633 26.6147 63.9717 24.7081 62.065C22.8381 60.1583 20.5647 59.205 17.8881 59.205H16.0181V78.675H17.8881C20.5647 78.675 22.8381 77.7217 24.7081 75.815C26.6147 73.9083 27.5681 71.6167 27.5681 68.94ZM53.9629 85.11H53.5229C53.2296 85.11 52.7712 85.0917 52.1479 85.055C51.5246 85.0183 51.1029 85 50.8829 85H43.8429C43.6596 85 43.2562 85.0183 42.6329 85.055C42.0096 85.0917 41.5329 85.11 41.2029 85.11H40.7629L41.0379 83.79H41.4229C42.2296 83.7167 42.7796 83.515 43.0729 83.185C43.3662 82.855 43.5129 82.1767 43.5129 81.15V56.73C43.5129 55.7033 43.3662 55.025 43.0729 54.695C42.7796 54.365 42.2296 54.1633 41.4229 54.09H41.0379L40.7629 52.77H41.2029C41.5329 52.77 42.0096 52.7883 42.6329 52.825C43.2562 52.8617 43.6596 52.88 43.8429 52.88H50.8829C51.1029 52.88 51.5246 52.8617 52.1479 52.825C52.7712 52.7883 53.2296 52.77 53.5229 52.77H53.9629L53.6879 54.09H53.3029C52.4962 54.1633 51.9462 54.365 51.6529 54.695C51.3596 55.025 51.2129 55.7033 51.2129 56.73V81.15C51.2129 82.1767 51.3596 82.855 51.6529 83.185C51.9462 83.515 52.4962 83.7167 53.3029 83.79H53.6879L53.9629 85.11ZM96.3782 82.8L95.9382 83.02C95.3516 83.2767 94.5632 83.6433 93.5732 84.12L87.3582 87.42C86.8816 87.75 86.1299 88.2083 85.1032 88.795L84.6632 89.015L84.3332 87.695L84.6632 87.53C85.4332 87.0167 85.8182 86.485 85.8182 85.935C85.8182 85.5317 85.6349 84.945 85.2682 84.175L83.7832 81.15H68.8782L67.3932 84.175C67.0266 84.945 66.8432 85.5317 66.8432 85.935C66.8432 86.485 67.2099 87.0167 67.9432 87.53C68.0532 87.5667 68.1816 87.6217 68.3282 87.695L67.9432 89.015L67.5032 88.795C66.9532 88.4283 66.2199 87.97 65.3032 87.42L59.0882 84.12C58.5382 83.8633 57.7499 83.4967 56.7232 83.02L56.2832 82.8L57.1632 81.755C57.2366 81.7917 57.3466 81.865 57.4932 81.975C58.0066 82.1583 58.4099 82.25 58.7032 82.25C59.3632 82.25 59.9866 81.6817 60.5732 80.545L76.3032 51.01L92.0882 80.545C92.7116 81.6817 93.3349 82.25 93.9582 82.25C94.2149 82.25 94.6182 82.1583 95.1682 81.975C95.2416 81.9017 95.3516 81.8283 95.4982 81.755L96.3782 82.8ZM80.4282 74.33L76.3032 66.025L72.2332 74.33H80.4282ZM120.923 75.65C120.923 78.29 119.988 80.5267 118.118 82.36C116.285 84.1933 114.066 85.11 111.463 85.11C111.133 85.11 110.528 85.0917 109.648 85.055C108.805 85.0183 108.255 85 107.998 85H100.958C100.775 85 100.371 85.0183 99.7478 85.055C99.1245 85.0917 98.6478 85.11 98.3178 85.11H97.8778L98.1528 83.79H98.5378C99.3445 83.7167 99.8945 83.515 100.188 83.185C100.481 82.855 100.628 82.1767 100.628 81.15V56.73C100.628 55.7033 100.481 55.025 100.188 54.695C99.8945 54.365 99.3445 54.1633 98.5378 54.09H98.1528L97.8778 52.77H98.3178C98.6478 52.77 99.1245 52.7883 99.7478 52.825C100.371 52.8617 100.775 52.88 100.958 52.88H107.998C108.255 52.88 108.786 52.8617 109.593 52.825C110.4 52.7883 110.95 52.77 111.243 52.77C113.333 52.77 115.111 53.5033 116.578 54.97C118.045 56.4367 118.778 58.215 118.778 60.305C118.778 63.165 117.531 65.3467 115.038 66.85C116.798 67.5833 118.21 68.7567 119.273 70.37C120.373 71.9467 120.923 73.7067 120.923 75.65ZM112.508 61.24C112.508 60.3233 112.178 59.5533 111.518 58.93C110.895 58.27 110.125 57.94 109.208 57.94H108.328V64.485H109.208C110.125 64.485 110.895 64.1733 111.518 63.55C112.178 62.9267 112.508 62.1567 112.508 61.24ZM113.168 74.99C113.168 73.89 112.765 72.955 111.958 72.185C111.188 71.3783 110.235 70.975 109.098 70.975H108.328V79.06H109.098C110.235 79.06 111.188 78.675 111.958 77.905C112.765 77.0983 113.168 76.1267 113.168 74.99ZM147.609 87.75L146.289 87.475V87.09C146.216 86.2833 145.996 85.7333 145.629 85.44C145.299 85.1467 144.621 85 143.594 85H133.529L127.369 90.555V56.73C127.369 55.7033 127.223 55.025 126.929 54.695C126.636 54.365 126.086 54.1633 125.279 54.09H124.894L124.619 52.77H125.059C125.389 52.77 125.866 52.7883 126.489 52.825C127.113 52.8617 127.516 52.88 127.699 52.88H134.739C134.959 52.88 135.381 52.8617 136.004 52.825C136.628 52.7883 137.086 52.77 137.379 52.77H137.819L137.544 54.09H137.159C136.353 54.1633 135.803 54.365 135.509 54.695C135.216 55.025 135.069 55.7033 135.069 56.73V77.3H143.594C144.621 77.3 145.299 77.1533 145.629 76.86C145.996 76.5667 146.216 76.0167 146.289 75.21V74.825L147.609 74.55V74.99C147.609 75.2833 147.591 75.7417 147.554 76.365C147.518 76.9883 147.499 77.41 147.499 77.63V84.67C147.499 84.8533 147.518 85.2567 147.554 85.88C147.591 86.54 147.609 87.0167 147.609 87.31V87.75ZM184.328 68.94C184.328 73.5967 182.678 77.575 179.378 80.875C176.115 84.175 172.136 85.825 167.443 85.825C162.786 85.825 158.808 84.175 155.508 80.875C152.208 77.575 150.558 73.5967 150.558 68.94C150.558 64.2833 152.208 60.305 155.508 57.005C158.808 53.705 162.786 52.055 167.443 52.055C172.136 52.055 176.115 53.705 179.378 57.005C182.678 60.2683 184.328 64.2467 184.328 68.94ZM177.288 66.465C176.811 64.6683 175.913 63.11 174.593 61.79C173.273 60.47 171.715 59.59 169.918 59.15V66.465H177.288ZM164.968 66.465V59.15C163.171 59.59 161.613 60.47 160.293 61.79C158.973 63.11 158.093 64.6683 157.653 66.465H164.968ZM177.288 71.415H169.918V78.73C171.715 78.29 173.273 77.41 174.593 76.09C175.95 74.77 176.848 73.2117 177.288 71.415ZM164.968 78.73V71.415H157.653C158.13 73.2117 159.01 74.77 160.293 76.09C161.613 77.41 163.171 78.29 164.968 78.73Z" fill="black"/>
<path d="M23.2025 119.052H22.9945C22.8559 119.052 22.6392 119.043 22.3445 119.026C22.0499 119.009 21.8505 119 21.7465 119H18.4185C18.3319 119 18.1412 119.009 17.8465 119.026C17.5519 119.043 17.3265 119.052 17.1705 119.052H16.9625L17.0925 118.428H17.2745C17.6559 118.393 17.9159 118.298 18.0545 118.142C18.1932 117.986 18.2625 117.665 18.2625 117.18V105.636C18.2625 105.151 18.1932 104.83 18.0545 104.674C17.9159 104.518 17.6559 104.423 17.2745 104.388H17.0925L16.9625 103.764H17.1705C17.3265 103.764 17.5519 103.773 17.8465 103.79C18.1412 103.807 18.3319 103.816 18.4185 103.816H21.7465C21.8505 103.816 22.0499 103.807 22.3445 103.79C22.6392 103.773 22.8559 103.764 22.9945 103.764H23.2025L23.0725 104.388H22.8905C22.5092 104.423 22.2492 104.518 22.1105 104.674C21.9719 104.83 21.9025 105.151 21.9025 105.636V117.18C21.9025 117.665 21.9719 117.986 22.1105 118.142C22.2492 118.298 22.5092 118.393 22.8905 118.428H23.0725L23.2025 119.052ZM49.3114 119.052H49.0774C48.9387 119.052 48.7221 119.043 48.4274 119.026C48.1327 119.009 47.9334 119 47.8294 119H44.5794C44.4927 119 44.3021 119.009 44.0074 119.026C43.7127 119.043 43.4874 119.052 43.3314 119.052H43.0974L43.2534 118.428H43.4354C43.8167 118.393 44.0767 118.298 44.2154 118.142C44.3541 117.986 44.4234 117.665 44.4234 117.18V107.378H41.0954V117.18C41.0954 117.665 41.1647 117.986 41.3034 118.142C41.4421 118.298 41.7021 118.393 42.0834 118.428H42.2654L42.4214 119.052H42.1874C42.0487 119.052 41.8321 119.043 41.5374 119.026C41.2427 119.009 41.0434 119 40.9394 119H37.6894C37.6027 119 37.4121 119.009 37.1174 119.026C36.8227 119.043 36.5974 119.052 36.4414 119.052H36.2074L36.3634 118.428H36.5454C36.9267 118.393 37.1867 118.298 37.3254 118.142C37.4641 117.986 37.5334 117.665 37.5334 117.18V107.378H34.2314V117.18C34.2314 117.665 34.2921 117.986 34.4134 118.142C34.5521 118.298 34.8121 118.393 35.1934 118.428H35.3754L35.5314 119.052H35.2974C35.1587 119.052 34.9421 119.043 34.6474 119.026C34.3527 119.009 34.1534 119 34.0494 119H30.7994C30.7127 119 30.5221 119.009 30.2274 119.026C29.9327 119.043 29.7074 119.052 29.5514 119.052H29.3434L29.4734 118.428H29.6554C30.0367 118.393 30.2967 118.298 30.4354 118.142C30.5741 117.986 30.6434 117.665 30.6434 117.18V105.636C30.6434 105.151 30.5741 104.83 30.4354 104.674C30.2967 104.518 30.0367 104.423 29.6554 104.388H29.4734L29.3434 103.764H29.5514C29.7074 103.764 29.9327 103.773 30.2274 103.79C30.5221 103.807 30.7127 103.816 30.7994 103.816H47.8294C47.9334 103.816 48.1327 103.807 48.4274 103.79C48.7221 103.773 48.9387 103.764 49.0774 103.764H49.3114L49.1554 104.388H48.9734C48.5921 104.423 48.3321 104.518 48.1934 104.674C48.0547 104.83 47.9854 105.151 47.9854 105.636V117.18C47.9854 117.665 48.0547 117.986 48.1934 118.142C48.3321 118.298 48.5921 118.393 48.9734 118.428H49.1554L49.3114 119.052ZM74.9813 119.052H74.7473C74.6087 119.052 74.392 119.043 74.0973 119.026C73.8027 119.009 73.6033 119 73.4993 119H70.2493C70.1627 119 69.972 119.009 69.6773 119.026C69.3827 119.043 69.1573 119.052 69.0013 119.052H68.7673L68.9233 118.428H69.1053C69.4867 118.393 69.7467 118.298 69.8853 118.142C70.024 117.986 70.0933 117.665 70.0933 117.18V107.378H66.7653V117.18C66.7653 117.665 66.8347 117.986 66.9733 118.142C67.112 118.298 67.372 118.393 67.7533 118.428H67.9353L68.0913 119.052H67.8573C67.7187 119.052 67.502 119.043 67.2073 119.026C66.9127 119.009 66.7133 119 66.6093 119H63.3593C63.2727 119 63.082 119.009 62.7873 119.026C62.4927 119.043 62.2673 119.052 62.1113 119.052H61.8773L62.0333 118.428H62.2153C62.5967 118.393 62.8567 118.298 62.9953 118.142C63.134 117.986 63.2033 117.665 63.2033 117.18V107.378H59.9013V117.18C59.9013 117.665 59.962 117.986 60.0833 118.142C60.222 118.298 60.482 118.393 60.8633 118.428H61.0453L61.2013 119.052H60.9673C60.8287 119.052 60.612 119.043 60.3173 119.026C60.0227 119.009 59.8233 119 59.7193 119H56.4693C56.3827 119 56.192 119.009 55.8973 119.026C55.6027 119.043 55.3773 119.052 55.2213 119.052H55.0133L55.1433 118.428H55.3253C55.7067 118.393 55.9667 118.298 56.1053 118.142C56.244 117.986 56.3133 117.665 56.3133 117.18V105.636C56.3133 105.151 56.244 104.83 56.1053 104.674C55.9667 104.518 55.7067 104.423 55.3253 104.388H55.1433L55.0133 103.764H55.2213C55.3773 103.764 55.6027 103.773 55.8973 103.79C56.192 103.807 56.3827 103.816 56.4693 103.816H73.4993C73.6033 103.816 73.8027 103.807 74.0973 103.79C74.392 103.773 74.6087 103.764 74.7473 103.764H74.9813L74.8253 104.388H74.6433C74.262 104.423 74.002 104.518 73.8633 104.674C73.7247 104.83 73.6553 105.151 73.6553 105.636V117.18C73.6553 117.665 73.7247 117.986 73.8633 118.142C74.002 118.298 74.262 118.393 74.6433 118.428H74.8253L74.9813 119.052ZM96.6992 111.408C96.6992 113.609 95.9192 115.49 94.3592 117.05C92.8166 118.61 90.9359 119.39 88.7172 119.39C86.5159 119.39 84.6352 118.61 83.0752 117.05C81.5152 115.49 80.7352 113.609 80.7352 111.408C80.7352 109.207 81.5152 107.326 83.0752 105.766C84.6352 104.206 86.5159 103.426 88.7172 103.426C90.9359 103.426 92.8166 104.206 94.3592 105.766C95.9192 107.309 96.6992 109.189 96.6992 111.408ZM93.3712 110.238C93.1459 109.389 92.7212 108.652 92.0972 108.028C91.4732 107.404 90.7366 106.988 89.8872 106.78V110.238H93.3712ZM87.5472 110.238V106.78C86.6979 106.988 85.9612 107.404 85.3372 108.028C84.7132 108.652 84.2972 109.389 84.0892 110.238H87.5472ZM93.3712 112.578H89.8872V116.036C90.7366 115.828 91.4732 115.412 92.0972 114.788C92.7386 114.164 93.1632 113.427 93.3712 112.578ZM87.5472 116.036V112.578H84.0892C84.3146 113.427 84.7306 114.164 85.3372 114.788C85.9612 115.412 86.6979 115.828 87.5472 116.036ZM118.796 119.052H118.562C118.424 119.052 118.207 119.043 117.912 119.026C117.618 119.009 117.418 119 117.314 119H113.752L107.72 112.968H107.408V117.18C107.408 117.665 107.478 117.986 107.616 118.142C107.755 118.298 108.015 118.393 108.396 118.428H108.578L108.708 119.052H108.5C108.362 119.052 108.145 119.043 107.85 119.026C107.556 119.009 107.356 119 107.252 119H103.924C103.838 119 103.647 119.009 103.352 119.026C103.058 119.043 102.832 119.052 102.676 119.052H102.468L102.598 118.428H102.78C103.162 118.393 103.422 118.298 103.56 118.142C103.699 117.986 103.768 117.665 103.768 117.18V105.636C103.768 105.151 103.699 104.83 103.56 104.674C103.422 104.518 103.162 104.423 102.78 104.388H102.598L102.468 103.764H102.676C102.832 103.764 103.058 103.773 103.352 103.79C103.647 103.807 103.838 103.816 103.924 103.816H107.252C107.356 103.816 107.616 103.807 108.032 103.79C108.466 103.773 108.743 103.764 108.864 103.764C110.13 103.764 111.213 104.215 112.114 105.116C113.016 106 113.466 107.075 113.466 108.34C113.466 109.883 112.851 111.113 111.62 112.032L116.742 117.18C117.522 117.977 118.094 118.393 118.458 118.428C118.51 118.445 118.571 118.445 118.64 118.428L118.796 119.052ZM110.268 108.34C110.268 107.803 110.069 107.343 109.67 106.962C109.289 106.563 108.83 106.364 108.292 106.364H107.408V110.316H108.292C108.83 110.316 109.289 110.125 109.67 109.744C110.069 109.345 110.268 108.877 110.268 108.34ZM136.396 114.528L135.772 114.372V114.19C135.737 113.809 135.642 113.557 135.486 113.436C135.33 113.297 135.001 113.228 134.498 113.228H130.546V117.18C130.546 117.665 130.615 117.986 130.754 118.142C130.893 118.298 131.153 118.393 131.534 118.428H131.716L131.872 119.052H131.638C131.499 119.052 131.283 119.043 130.988 119.026C130.693 119.009 130.494 119 130.39 119H127.088C127.001 119 126.811 119.009 126.516 119.026C126.221 119.043 125.996 119.052 125.84 119.052H125.606L125.762 118.428H125.944C126.325 118.393 126.577 118.298 126.698 118.142C126.837 117.986 126.906 117.665 126.906 117.18V113.228H122.954C122.469 113.228 122.148 113.297 121.992 113.436C121.836 113.557 121.741 113.809 121.706 114.19V114.372L121.082 114.528V114.294C121.082 114.138 121.091 113.913 121.108 113.618C121.125 113.323 121.134 113.133 121.134 113.046V109.77C121.134 109.666 121.125 109.467 121.108 109.172C121.091 108.877 121.082 108.661 121.082 108.522V108.288L121.706 108.444V108.626C121.741 109.007 121.836 109.267 121.992 109.406C122.148 109.527 122.469 109.588 122.954 109.588H126.906V105.636C126.906 105.151 126.837 104.83 126.698 104.674C126.577 104.518 126.325 104.423 125.944 104.388H125.762L125.606 103.764H125.84C125.996 103.764 126.221 103.773 126.516 103.79C126.811 103.807 127.001 103.816 127.088 103.816H130.39C130.494 103.816 130.693 103.807 130.988 103.79C131.283 103.773 131.499 103.764 131.638 103.764H131.872L131.716 104.388H131.534C131.153 104.423 130.893 104.518 130.754 104.674C130.615 104.83 130.546 105.151 130.546 105.636V109.588H134.498C135.001 109.588 135.33 109.527 135.486 109.406C135.642 109.267 135.737 109.007 135.772 108.626V108.444L136.396 108.288V108.522C136.396 108.661 136.387 108.877 136.37 109.172C136.353 109.467 136.344 109.666 136.344 109.77V113.046C136.344 113.133 136.353 113.323 136.37 113.618C136.387 113.913 136.396 114.138 136.396 114.294V114.528ZM159.495 117.96L159.287 118.064C159.009 118.185 158.637 118.359 158.169 118.584L155.231 120.144C155.005 120.3 154.65 120.517 154.165 120.794L153.957 120.898L153.801 120.274L153.957 120.196C154.321 119.953 154.503 119.702 154.503 119.442C154.503 119.251 154.416 118.974 154.243 118.61L153.541 117.18H146.495L145.793 118.61C145.619 118.974 145.533 119.251 145.533 119.442C145.533 119.702 145.706 119.953 146.053 120.196C146.105 120.213 146.165 120.239 146.235 120.274L146.053 120.898L145.845 120.794C145.585 120.621 145.238 120.404 144.805 120.144L141.867 118.584C141.607 118.463 141.234 118.289 140.749 118.064L140.541 117.96L140.957 117.466C140.991 117.483 141.043 117.518 141.113 117.57C141.355 117.657 141.546 117.7 141.685 117.7C141.997 117.7 142.291 117.431 142.569 116.894L150.005 102.932L157.467 116.894C157.761 117.431 158.056 117.7 158.351 117.7C158.472 117.7 158.663 117.657 158.923 117.57C158.957 117.535 159.009 117.501 159.079 117.466L159.495 117.96ZM151.955 113.956L150.005 110.03L148.081 113.956H151.955ZM174.452 120.3L173.828 120.17V119.988C173.793 119.607 173.689 119.347 173.516 119.208C173.36 119.069 173.039 119 172.554 119H167.796L164.884 121.626V105.636C164.884 105.151 164.814 104.83 164.676 104.674C164.537 104.518 164.277 104.423 163.896 104.388H163.714L163.584 103.764H163.792C163.948 103.764 164.173 103.773 164.468 103.79C164.762 103.807 164.953 103.816 165.04 103.816H168.368C168.472 103.816 168.671 103.807 168.966 103.79C169.26 103.773 169.477 103.764 169.616 103.764H169.824L169.694 104.388H169.512C169.13 104.423 168.87 104.518 168.732 104.674C168.593 104.83 168.524 105.151 168.524 105.636V115.36H172.554C173.039 115.36 173.36 115.291 173.516 115.152C173.689 115.013 173.793 114.753 173.828 114.372V114.19L174.452 114.06V114.268C174.452 114.407 174.443 114.623 174.426 114.918C174.408 115.213 174.4 115.412 174.4 115.516V118.844C174.4 118.931 174.408 119.121 174.426 119.416C174.443 119.728 174.452 119.953 174.452 120.092V120.3Z" fill="black"/>
</g>
<defs>
<clipPath id="clip0_27_63">
<rect width="192" height="192" fill="white"/>
</clipPath>
</defs>
</svg>
