<svg width="192" height="192" viewBox="0 0 192 192" fill="none" xmlns="http://www.w3.org/2000/svg">
<path d="M68 138L60 154C49.8095 149.754 39.2584 145.508 28.0405 138.2C24.128 135.651 21.7564 131.32 21.6615 126.652C21.1739 102.688 26.796 78.5956 41.031 53.1237C42.8943 49.7896 45.9982 47.346 49.5976 46.0684C58.1857 43.0201 64.0163 40.664 74 39L80 50C80 50 86 48 96 48C106 48 112 50 112 50L118 39C127.984 40.664 133.814 43.0201 142.402 46.0684C146.002 47.346 149.106 49.7896 150.969 53.1237C165.204 78.5956 170.826 102.688 170.339 126.652C170.244 131.32 167.872 135.651 163.96 138.2C152.742 145.508 142.191 149.754 132 154L124 138M56 130C56 130 76 140 96 140C116 140 136 130 136 130" stroke="black" stroke-width="12" stroke-linecap="round" stroke-linejoin="round"/>
<path d="M71 116C78.1797 116 84 109.284 84 101C84 92.7157 78.1797 86 71 86C63.8203 86 58 92.7157 58 101C58 109.284 63.8203 116 71 116Z" fill="black"/>
<path d="M121 116C128.18 116 134 109.284 134 101C134 92.7157 128.18 86 121 86C113.82 86 108 92.7157 108 101C108 109.284 113.82 116 121 116Z" fill="black"/>
<path d="M67.7938 88.7746C71.9924 86.2489 75.8954 83.4199 79.8699 80.5611C82.7541 78.4865 86.2239 75.2398 89.6151 73.9681C90.2339 73.736 87.3358 82.133 86.8181 83.5135C84.9742 88.4306 85.5942 96.5411 89.4153 100.362C98.0588 109.006 99.5217 90.9255 100.182 85.7556C100.682 81.8361 100.91 78.5752 100.16 74.634C99.6328 71.8686 97.9596 69.0228 97.1849 66.2429C96.6192 64.213 96.7586 61.4912 94.1881 60.8486C91.9588 60.2913 98.1907 57.8213 99.4714 57.8518C103.814 57.9552 108.026 58.8063 112.391 58.8063C115.693 58.8063 115.164 58.1128 116.542 55.4543C117.419 53.7642 118.091 52.6896 119.517 51.4142C122.279 48.9429 123.609 48.9543 127.198 50.726C131.884 53.0395 135.093 56.6715 139.718 58.9839C146.681 62.4655 149.12 68.9623 150.906 76.2101C152.044 80.8295 153.619 85.3225 155.212 89.7957C156.189 92.5384 156.369 95.7445 157.965 98.2313C159.752 101.016 161.232 104.631 161.606 107.954C162.214 113.367 161.694 119.108 161.694 124.559C161.694 128.15 162.877 133.272 158.72 134.504C151.193 136.734 142.84 135.857 135.677 139.698C135.253 139.926 132.303 141.814 132.303 140.742C132.303 138.053 133.846 135.427 134.346 132.817C134.769 130.604 133.589 128.4 132.481 126.579C130.738 123.716 128.89 121.068 127.42 118.033C126.532 116.201 125.103 113.942 124.711 111.906C124.649 111.581 132.459 116.692 132.969 117.078C136.263 119.567 139.193 122.214 142.093 125.114C143.395 126.416 145.505 126.369 147.088 125.713C150.862 124.148 151.217 119.233 151.217 115.591C151.217 111.737 149.722 107.951 149.085 104.181C148.343 99.7802 148.063 95.2652 146.688 90.9945C145.011 85.7868 142.85 80.2596 140.051 75.5442C137.055 70.4984 130.44 66.769 125 64.8222C120.408 63.1789 114.173 61.0216 110.771 65.7323C106.074 72.2352 107.301 82.0691 107.951 89.5072C108.266 93.1097 109.749 96.2302 109.749 99.8296C109.749 101.307 109.148 105.143 110.438 106.334C112.205 107.966 117.721 106.427 119.739 105.956C122.115 105.402 125.05 104.02 127.42 105.313C131.092 107.316 132.796 111.157 135.167 114.37C135.362 114.634 137.943 117.727 138.031 117.5C138.629 115.944 136.757 112.391 136.343 110.951C135.036 106.401 134.662 101.976 133.902 97.3433C133.339 93.9147 132.974 90.0569 131.282 86.9543C129.354 83.4195 125.824 81.4281 122.758 79.0072C120.409 77.1528 116.03 73.5345 115.166 78.5632C114.426 82.8656 113.818 88.3909 114.766 92.726C114.949 93.5614 115.269 94.0987 115.743 94.7682C116.577 95.9456 116.132 98.319 116.165 99.6298C116.277 104.135 117.178 107.823 118.34 112.061C118.981 114.396 120.138 116.689 120.138 119.12C120.138 121.451 120.924 124.311 120.516 126.557C120.262 127.951 117.434 128.11 116.342 128.555C113.918 129.542 112.427 129.736 109.816 129.953C106.055 130.267 102.388 130.73 98.5612 130.73C93.9217 130.73 89.2822 130.73 84.6426 130.73C81.0368 130.73 78.4829 129.354 75.0306 128.577C71.496 127.782 67.6785 127.624 64.242 126.557C61.4674 125.695 58.6213 125.469 55.8065 124.825C53.5684 124.314 53.9153 122.052 54.9629 120.075C57.2979 115.669 61.1746 111.032 64.5084 107.333C65.7919 105.908 67.2479 104.66 68.8149 103.559C71.4079 101.737 71.49 102.658 71.9672 105.557C73.1888 112.978 76.9998 115.563 84.3096 116.39C87.8824 116.794 91.4163 116.715 94.965 117.322C99.0225 118.016 102.993 118.343 107.108 118.343C108.92 118.343 110.287 118.909 110.46 116.789C110.577 115.342 111.121 112.379 110.482 110.996C109.966 109.877 105.706 110.296 104.954 110.263C98.4019 109.978 92.3074 108.801 85.8636 107.954C81.5933 107.393 76.0182 106.758 71.7452 107.555C70.0415 107.872 68.9571 111.936 68.1934 113.215C66.2247 116.513 62.6886 117.629 59.1807 118.698C56.3817 119.551 49.9567 121.021 49.4133 124.825C49.1328 126.789 49.369 129.05 49.4133 131.041C49.4568 133.001 51.2155 133.551 52.1215 135.037C52.7421 136.054 52.475 137.14 53.3202 138.056C53.7395 138.51 54.0449 139.086 54.186 139.721C54.6501 141.809 49.991 139.708 49.2579 139.543C46.0668 138.824 42.9296 138.018 39.7346 137.301C37.7959 136.866 37.755 136.107 37.4038 134.526C37.067 133.011 34.2096 130.769 33.0528 129.709C30.8136 127.656 33.7794 119.776 34.4291 117.611C37.1559 108.522 39.7948 99.3159 43.464 90.5505C45.8885 84.7586 48.3512 79.39 50.1902 73.4131C50.8322 71.3266 50.9663 69.0647 51.6553 66.9977C52.3059 65.0461 53.1559 63.4906 53.4312 61.4258C53.5862 60.2637 54.2473 58.7797 53.7198 57.6076C52.9038 55.7943 49.5821 60.9003 49.3245 61.2926C45.9191 66.4792 42.3662 71.7752 40.9334 77.8972C39.1931 85.3327 36.1177 92.8368 35.2061 100.451C34.3351 107.727 35.3731 114.812 38.6247 121.362C38.895 121.907 39.9314 124.75 40.9778 124.204C42.6801 123.316 44.4648 121.86 45.6395 120.341C47.3802 118.09 47.5117 115 48.6141 112.438C49.9747 109.277 50.7363 106.014 51.8107 102.76C53.9009 96.4295 56.6595 89.6135 61.001 84.468C62.6603 82.5014 63.5676 82.8931 66.0179 82.2926C70.9396 81.0863 75.6968 79.7107 80.4915 78.0748C84.4948 76.709 88.2334 74.0223 88.5718 69.2841C88.7561 66.7033 88.7118 64.002 87.6838 61.6034C87.2048 60.4855 87.3214 59.7417 86.2631 58.8951C85.093 57.959 81.1102 59.2059 79.5591 59.2059C75.9781 59.2059 72.3162 57.4281 69.8805 54.7218C69.5269 54.3289 69.8219 52.9189 69.7029 52.4131C69.2051 50.2974 66.2848 50.6585 64.686 51.3032C61.286 52.6741 58.204 56.0211 58.204 59.7831C58.204 63.2316 57.9693 66.7793 58.2928 70.2165C58.5737 73.2017 60.7053 72.525 63.0877 71.504C65.7868 70.3472 68.1446 68.207 70.6796 66.7091C73.3194 65.1492 74.28 68.0473 75.6077 70.0389C77.2438 72.493 82.9696 71.1932 85.5084 71.1932C87.2496 71.1932 89.4048 71.5759 90.9693 70.7936" stroke="black" stroke-opacity="0.25" stroke-width="15" stroke-linecap="round"/>
</svg>
