<svg width="192" height="192" viewBox="0 0 192 192" fill="none" xmlns="http://www.w3.org/2000/svg">
<path d="M22 46H34C61.6142 46 84 68.3858 84 96C84 123.614 61.6142 146 34 146H22V46Z" stroke="black" stroke-width="12" stroke-linejoin="round"/>
<path d="M170 46H158C130.386 46 108 68.3858 108 96C108 123.614 130.386 146 158 146H170V46Z" stroke="black" stroke-width="12" stroke-linejoin="round"/>
<path d="M27.7418 52.7966C33.9531 53.9849 40.3503 54.9188 46.449 56.6486C47.9048 57.0616 48.84 57.6019 50.0305 58.4305C50.8665 59.0125 51.7298 59.5571 52.5592 60.1478C53.8632 61.0764 55.1307 62.057 56.4289 62.9941C58.3086 64.3511 60.2254 65.6218 61.6335 67.493C65.5692 72.7234 69.8655 78.1382 70.6136 84.8711C70.8177 86.7079 71.3609 88.5022 71.7898 90.2933C72.2976 92.4141 72.5458 94.5212 72.519 96.7035C72.473 100.454 72.0434 104.396 70.8724 107.971C70.1642 110.134 69.1459 112.879 67.3732 114.411C66.2437 115.387 65.0254 116.261 63.8506 117.181C63.1856 117.701 61.9799 118.42 61.4806 119.169C61.3529 119.36 61.9461 119.286 62.1686 119.227C62.1726 119.226 62.6552 119 62.6744 119.063C62.9914 120.093 62.7863 121.01 61.9922 121.844C61.1724 122.706 60.1571 123.508 59.1811 124.179C58.5542 124.61 57.7929 124.843 57.0875 125.108C55.802 125.592 54.719 126.208 53.6413 127.061C51.6529 128.634 49.5018 129.834 47.0782 130.642C45.3251 131.227 43.448 131.231 41.7149 131.871C40.1347 132.455 38.4316 132.737 36.7631 132.906C35.7585 133.008 34.7529 133.255 33.7756 133.506C33.3963 133.604 31.6721 134.453 31.5174 133.877C31.265 132.936 31.4468 131.751 31.4468 130.789C31.4468 128.304 31.4468 125.818 31.4468 123.332C31.4468 118.172 31.6445 112.993 31.0469 107.86C29.7152 96.4207 30.1765 84.8244 30.1765 73.3269C30.1765 71.4467 30.2149 69.5686 30.0707 67.693C29.9695 66.3777 29.7531 65.0059 29.7531 63.6881C29.7531 63.233 29.9649 62.7281 30.0707 62.2884C30.2065 61.7234 30.5681 61.7244 31.1292 61.7121C33.468 61.6607 35.6746 63.0728 37.6806 64.0997C40.8115 65.7026 43.5705 67.6369 46.3255 69.8042C48.2944 71.3531 50.3081 72.7471 51.9829 74.6383C53.8567 76.7541 55.0363 79.1476 56.2995 81.6425C57.5072 84.0276 58.6328 86.4462 59.9574 88.7642C60.8857 90.3887 61.3151 91.9311 61.6511 93.8101C62.0376 95.9716 62.2592 98.1645 62.251 100.373C62.2312 105.68 58.9381 111.084 55.1233 114.552C52.0976 117.303 48.1057 119.483 44.0907 120.345C43.5316 120.465 42.9536 120.347 42.397 120.28C41.985 120.231 41.2997 120.252 40.8915 120.098C40.17 119.824 40.2137 117.257 40.1799 116.675C39.934 112.44 40.0212 108.183 40.0212 103.943C40.0212 99.2617 40.0212 94.5805 40.0212 89.8993C40.0212 86.555 40.0212 83.2107 40.0212 79.8664C40.0212 78.8323 39.948 77.9561 39.8094 76.9554C39.7067 76.2135 40.1159 76.53 40.5093 76.9201C41.8868 78.2862 43.0851 79.9174 44.1966 81.4954C47.2462 85.825 50.4778 90.6861 50.9126 96.1213C51.2045 99.7701 50.0007 103.186 48.9484 106.613C48.5211 108.004 48.0161 109.457 47.8545 110.912" stroke="black" stroke-opacity="0.25" stroke-width="15" stroke-linecap="round"/>
<path d="M161.411 140.078C160.763 131.493 159.202 123.039 159.202 114.405C159.202 98.5477 159.202 82.6904 159.202 66.833C159.202 63.6446 159.202 60.4563 159.202 57.2679C159.202 56.267 159.447 54.9114 159.171 53.939C159.006 53.3564 156.86 54.3428 156.61 54.4375C153.51 55.6096 150.645 57.0318 147.835 58.779C143.842 61.2609 140.09 64.2023 136.198 66.8483C132.329 69.4794 128.438 72.0412 124.509 74.5801C121.921 76.2522 120.208 78.4122 118.932 81.2151C115.571 88.5996 116.539 96.9776 116.539 104.878C116.539 106.881 116.401 108.951 116.631 110.946C116.879 113.096 117.67 115.285 118.694 117.182C119.933 119.475 121.64 121.735 123.642 123.418C125.306 124.817 127.282 125.877 129.126 127.015C133.846 129.93 139.021 131.932 144.03 134.287C145.508 134.982 147.096 135.39 148.563 136.074C148.828 136.198 150.141 136.894 150.166 136.335C150.254 134.442 149.706 132.517 149.43 130.659C148.912 127.17 148.316 123.656 147.942 120.15C147.388 114.952 147.723 109.589 147.742 104.364C147.751 102.072 147.85 99.7867 148.111 97.5071C148.368 95.2489 148.895 93.0255 149.062 90.7571C149.18 89.1559 149.073 87.5501 149.146 85.9477C149.24 83.8748 149.604 81.8021 149.844 79.7423C150.21 76.6016 150.504 73.5438 150.504 70.3844C150.504 69.6199 150.504 68.8554 150.504 68.0909C150.504 67.1414 150.388 67.0454 149.66 67.8992C146.201 71.9542 143.981 77.0451 139.489 80.1259C136.249 82.3482 132.725 84.1437 129.425 86.2776C128.516 86.8659 127.535 87.4588 126.748 88.2105C125.801 89.1154 125.956 91.1665 125.851 92.3372C125.673 94.3213 125.652 96.2993 125.652 98.2895C125.652 100.71 125.524 103.18 125.774 105.592C126.105 108.773 127.283 111.865 128.896 114.612C130.172 116.785 131.982 118.512 133.828 120.196C135.044 121.306 136.327 122.333 137.564 123.418C137.746 123.578 137.982 123.801 138.185 123.947C138.751 124.354 138.596 122.785 138.599 122.712C138.824 117.193 139.284 111.71 139.627 106.198C139.968 100.722 140.011 95.2438 140.011 89.76C140.011 89.7521 140.011 87.574 140.011 87.5662C140.011 87.4382 140.142 86.186 139.965 85.9938C139.645 85.6474 138.255 88.9121 138.216 88.9929" stroke="black" stroke-opacity="0.25" stroke-width="15" stroke-linecap="round"/>
</svg>
