<svg width="192" height="192" viewBox="0 0 192 192" fill="none" xmlns="http://www.w3.org/2000/svg">
<path d="M96 38L91.7574 33.7574C92.8826 32.6321 94.4087 32 96 32V38ZM30 148H162V160H30V148ZM164 146V46H176V146H164ZM162 44H96V32H162V44ZM100.243 42.2426L84.2426 58.2426L75.7574 49.7574L91.7574 33.7574L100.243 42.2426ZM80 60H30V48H80V60ZM28 62V112H16V62H28ZM28 112V146H16V112H28ZM84.2426 58.2426L26.2426 116.243L17.7574 107.757L75.7574 49.7574L84.2426 58.2426ZM22 106H88V118H22V106ZM90 104V38H102V104H90ZM88 106C89.1046 106 90 105.105 90 104H102C102 111.732 95.732 118 88 118V106ZM162 148C163.105 148 164 147.105 164 146H176C176 153.732 169.732 160 162 160V148ZM30 160C22.268 160 16 153.732 16 146H28C28 147.105 28.8954 148 30 148V160ZM30 60C28.8954 60 28 60.8954 28 62H16C16 54.268 22.268 48 30 48V60ZM164 46C164 44.8954 163.105 44 162 44V32C169.732 32 176 38.268 176 46H164Z" fill="black"/>
<path d="M28.8463 61.6452C29.1575 62.5787 34.9902 62.0054 35.8295 62.0054C39.1871 62.0054 42.5085 61.6646 45.854 61.3751C48.7138 61.1276 51.5437 60.517 54.4179 60.3947C56.2589 60.3163 58.1675 60.5975 59.9605 60.0645C60.5008 59.9038 61.2527 59.5313 61.8213 59.7043C62.3266 59.8581 60.1603 62.0202 59.9405 62.2455C58.454 63.7691 57.1088 64.9553 55.1883 65.9872C54.0642 66.5912 52.9565 67.3114 51.7667 67.778C50.9088 68.1145 49.8464 68.4224 49.1556 69.0686C47.8017 70.3351 46.6722 71.8053 45.4139 73.1605C43.8253 74.8712 42.3327 76.41 40.5616 77.9426C38.721 79.5355 37.3549 81.263 35.9696 83.235C34.9338 84.7094 33.9533 86.2552 33.0282 87.7971C32.4725 88.7232 31.2077 89.8511 31.0173 90.8985C30.9716 91.1501 30.7164 91.243 30.6771 91.4588C30.6248 91.7467 30.8272 92.1655 30.8272 92.4792C30.8272 95.1071 30.6346 87.2132 30.8672 84.5957C31.2454 80.341 31.6461 75.7018 33.3484 71.7298" stroke="black" stroke-opacity="0.5" stroke-width="15" stroke-linecap="round"/>
<path d="M38.3906 106.125C42.122 106.125 45.838 106.155 49.5657 106.296C50.525 106.332 51.3884 106.269 52.337 106.125C54.8853 105.741 57.5103 105.765 60.0805 105.765C63.3862 105.765 66.6816 105.585 69.985 105.585C74.9617 105.585 79.8666 105.045 84.8518 105.045C85.5669 105.045 86.8538 105.199 87.3629 104.605C88.1789 103.653 87.9132 102.188 87.9132 100.963C87.9132 98.3953 87.9132 95.8274 87.9132 93.2596C87.9132 89.1887 88.155 85.04 87.653 80.994C87.2249 77.5428 86.4725 74.0163 86.4725 70.5293C86.4725 68.575 86.4725 66.6208 86.4725 64.6666C86.4725 62.7126 86.4074 60.7465 86.4825 58.7939C86.5088 58.1094 87.2943 54.8499 86.9727 54.582C86.5517 54.2311 86.7729 55.6604 86.6426 56.1927C86.3876 57.234 86.1723 58.3104 86.1223 59.3842C86.068 60.5529 85.6433 61.2275 85.392 62.2955C84.7261 65.1255 82.3705 67.043 80.6098 69.2287C79.2628 70.9008 78.0844 72.6564 76.488 74.1109C75.1105 75.3659 73.7215 76.4683 72.236 77.5825C69.4476 79.6738 67.1625 81.8947 64.9527 84.5957C64.1153 85.6192 62.6964 86.494 61.6412 87.2769C60.4355 88.1714 59.2274 89.104 58.0296 90.0181C56.5511 91.1464 54.8365 91.9204 53.4175 93.1195C52.4386 93.9467 51.3343 94.6504 50.246 95.3305C49.2445 95.9565 48.0962 96.247 47.7549 97.4415C47.5671 98.0989 47.8733 97.8557 48.4452 97.7216C51.8988 96.9122 55.4455 96.856 58.96 96.4911C62.3808 96.1359 65.6602 96.0409 69.1046 96.0409C71.2443 96.0409 73.475 96.2163 75.6076 96.0309C76.0237 95.9947 76.8631 96.0286 77.2083 95.7807C77.5648 95.5248 77.5463 94.4518 77.5684 94.2C77.7402 92.2478 77.8338 90.2894 78.0086 88.3374C78.0377 88.0127 79.0509 82.1999 78.829 82.1145C78.2085 81.8759 77.7949 82.9521 77.3083 83.4051C76.4238 84.2287 75.4968 84.9838 74.5871 85.7762" stroke="black" stroke-opacity="0.4" stroke-width="15" stroke-linecap="round"/>
<path d="M102.86 46.8785C104.722 46.9349 106.522 47.5027 108.373 47.5888C110.862 47.7046 113.375 47.5819 115.866 47.5988C117.93 47.6129 119.97 47.7673 122.029 47.8789C125.942 48.0912 129.887 47.959 133.804 47.959C138.151 47.959 142.484 48.5007 146.78 47.8789C149.151 47.5358 151.554 47.5988 153.943 47.5988C155.722 47.5988 157.6 47.4111 159.366 47.6188C161.28 47.8441 161.796 49.2407 162.107 50.9203C163.331 57.5278 163.429 64.8865 162.427 71.5097C161.543 77.3547 160.481 83.1897 159.696 89.0477C159.363 91.533 159.226 93.9756 159.226 96.4811C159.226 100.2 160.244 103.836 161.046 107.446C162.866 115.635 162.467 123.965 162.467 132.327C162.467 134.255 162.387 136 162.107 137.89C161.994 138.65 161.698 139.386 161.567 140.161C161.41 141.08 161.39 142.371 160.926 143.182C160.557 143.829 159.926 143.467 159.116 143.392C156.855 143.184 154.693 142.935 152.403 143.062C150.581 143.163 148.813 143.763 146.98 143.903C144.045 144.127 141.21 144.303 138.256 144.303C132.795 144.303 127.303 144.452 121.849 144.703C119.386 144.816 117.313 144.504 114.865 144.143C110.625 143.517 106.406 143.042 102.12 143.042C90.421 143.042 78.7223 143.042 67.0237 143.042C59.958 143.042 52.8068 142.693 45.754 143.162C41.508 143.445 37.2768 144.391 33.0282 144.473C32.3026 144.487 31.494 144.398 30.7772 144.563C30.535 144.619 30.6448 143.946 30.6471 143.803C30.6726 142.227 30.9931 140.662 31.0073 139.08C31.035 136.008 31.0415 133.022 30.6471 129.976C30.4212 128.231 29.9026 125.998 30.297 124.224C30.4821 123.391 35.3408 123.349 35.9295 123.313C38.846 123.139 41.7824 123.233 44.7035 123.233C46.6451 123.233 48.5759 123.053 50.4962 122.753C52.9939 122.363 55.2735 122.153 57.7995 122.153C69.9684 122.153 82.1313 122.052 94.2961 121.973C98.0623 121.948 103.177 122.351 105.141 118.451C106.224 116.301 106.219 113.457 106.552 111.128C106.974 108.169 107.365 105.213 107.792 102.254C107.94 101.232 107.973 100.136 108.262 99.1423C108.81 97.2657 108.569 103.057 108.403 105.005C108.058 109.028 106.254 112.596 103.24 115.25C103.063 115.405 102.526 115.955 102.68 115.31C103.082 113.621 103.762 111.918 104.421 110.317C105.52 107.647 106.65 104.874 106.982 101.974C107.489 97.5342 107.362 93.057 107.362 88.5975C107.362 84.8886 106.47 81.2034 106.001 77.5324C105.569 74.1439 104.968 70.8239 104.801 67.4078C104.682 64.97 104.794 62.5168 104.651 60.0845C104.543 58.247 103.456 56.5218 103.42 54.682C103.41 54.1345 107.516 52.9478 108.262 52.7612C108.91 52.5993 110.006 53.8402 110.604 54.0818C119.245 57.5773 128.911 58.2237 138.156 58.2237C140.216 58.2237 142.279 58.2496 144.339 58.2237C146.937 58.191 149.454 57.5002 152.042 57.3333C152.643 57.2945 153.261 57.3093 153.863 57.3232C155.028 57.3503 154.724 58.9004 154.724 59.7243C154.724 63.7763 154.904 67.8184 154.904 71.8699C154.904 73.2964 154.711 74.6991 154.453 76.1018C154.162 77.6906 153.504 78.1643 151.922 78.753C147.068 80.5592 141.289 80.6114 136.195 80.934C131.01 81.2624 125.782 81.0941 120.588 81.0941C118.937 81.0941 117.287 81.0941 115.636 81.0941C113.514 81.0941 112.752 76.192 112.434 74.8512C112.006 73.0405 111.757 71.2107 111.514 69.3687C111.418 68.6397 111.027 67.1701 111.364 66.4474C111.772 65.572 118.682 68.1548 119.608 68.4583C122.35 69.3573 125.273 69.4253 128.111 69.7889C132.095 70.2991 136.068 70.2891 140.077 70.2891C141.133 70.2891 142.183 70.3003 143.238 70.3692C144.234 70.4342 145.866 70.2825 146.8 70.7494C148.322 71.5102 148.865 74.1921 149.331 75.5715C150.311 78.4702 151.61 81.5362 151.662 84.6357C151.704 87.0803 152.383 89.4309 152.383 91.879C152.383 93.9955 152.653 96.3071 152.363 98.4119C152.216 99.4724 150.39 99.3668 149.641 99.4624C147.177 99.7773 144.703 100.264 142.228 100.443C139.765 100.621 137.283 100.543 134.815 100.543C130.433 100.543 126.117 100.903 121.749 100.903C118.86 100.903 114.73 100.916 114.245 97.2214C114.057 95.7891 114.112 94.0964 114.245 92.6593C114.434 90.6221 115.269 90.7529 117.237 90.8585C121.274 91.0753 125.162 91.899 129.212 91.899C131.724 91.899 134.276 92.0511 136.775 91.7589C139.683 91.419 142.548 91.3111 145.499 91.3587C146.469 91.3744 146.72 93.4083 146.9 94.11C147.557 96.6675 148.302 99.1464 148.771 101.753C149.284 104.606 149.882 107.519 150.282 110.387C150.672 113.194 150.582 116.067 150.582 118.891C150.582 121.944 150.575 124.938 150.942 127.975C151.173 129.889 151.406 131.8 151.472 133.728C151.477 133.883 151.606 134.788 151.442 134.939C150.897 135.438 149.354 135.461 148.701 135.499C145.964 135.656 143.174 134.894 140.447 134.708C133.448 134.232 126.338 134.578 119.327 134.578C117.612 134.578 115.89 134.619 114.175 134.568C112.715 134.525 112.787 132.759 112.664 131.617C112.351 128.699 112.404 125.744 112.404 122.813C112.404 119.85 112.287 116.857 112.644 113.909C112.815 112.502 112.973 110.375 113.805 109.127C114.037 108.778 115.656 108.939 115.866 108.937C117.902 108.918 119.857 109.25 121.859 109.587C125.994 110.283 130.158 111.002 134.334 111.408C135.758 111.546 137.188 111.536 138.616 111.528C139.322 111.524 142.106 111.004 142.528 111.718C142.734 112.066 142.658 113.262 142.658 113.469C142.658 114.896 142.658 116.323 142.658 117.751C142.658 119.61 142.709 121.475 142.468 123.323C142.273 124.821 141.836 124.762 140.407 124.524C137.471 124.035 134.551 123.44 131.593 123.093C128.17 122.691 124.67 122.873 121.228 122.873C120.537 122.873 120.44 122.876 119.928 123.393C118.486 124.849 117.036 126.053 115.146 126.895C112.799 127.94 110.215 128.316 107.762 129.036C104.762 129.916 101.854 130.961 98.7581 131.477C89.3164 133.051 79.4949 132.417 69.965 132.417C66.3634 132.417 62.7618 132.417 59.1601 132.417C56.4038 132.417 53.8445 132.195 51.1165 131.777C48.3464 131.353 45.6362 130.617 42.8227 130.617C41.4197 130.617 40.7112 130.841 39.4712 131.337" stroke="black" stroke-opacity="0.25" stroke-width="15" stroke-linecap="round"/>
</svg>
