<svg width="192" height="192" viewBox="0 0 192 192" fill="none" xmlns="http://www.w3.org/2000/svg">
<path fill-rule="evenodd" clip-rule="evenodd" d="M96.0001 22C79.1093 22 62.218 28.4366 49.3306 41.3097C23.5565 67.056 23.5565 108.799 49.3306 134.545C56.4435 141.65 62.6661 145.45 69.3206 149.513L69.3223 149.514L69.3237 149.515C76.9735 154.187 85.1956 159.208 96.0001 170C106.804 159.208 115.027 154.187 122.676 149.515H122.678C129.333 145.45 135.556 141.65 142.67 134.545C168.443 108.798 168.443 67.056 142.67 41.3097C129.782 28.4366 112.891 22 96.0001 22Z" stroke="black" stroke-width="12" stroke-linejoin="round"/>
<path d="M74 118V58C74 55.7909 75.7909 54 78 54H114C116.209 54 118 55.7909 118 58V118C118 120.209 116.209 122 114 122H78C75.7909 122 74 120.209 74 118Z" stroke="black" stroke-width="12" stroke-linecap="round"/>
<path d="M68.5792 54.2057C68.4456 51.6242 68.084 48.8846 68.4391 46.3021C68.5329 45.6198 68.7443 44.9974 68.7593 44.3012C68.7845 43.126 68.5095 41.7159 68.7793 40.5695C69.0671 39.3463 69.3776 38.1049 70.34 37.2179C71.2345 36.3935 72.4337 36.3135 73.5814 36.1574C76.1386 35.8098 78.7016 35.4915 81.2549 35.117C84.234 34.68 87.1397 33.9814 90.0489 33.2261C96.4819 31.556 102.878 32.2125 109.278 33.9965C114.339 35.4073 119.272 37.6732 123.664 40.5594C127.096 42.8148 129.546 46.0998 131.868 49.4235C134.689 53.4617 136.737 57.7498 138.651 62.2693C140.977 67.761 143.898 73.0185 144.694 78.9969C145.83 87.5319 145.654 96.1025 145.654 104.689C145.654 106.267 145.627 107.852 145.984 109.401C146.024 109.572 147.23 113.067 147.455 112.872C147.812 112.563 147.793 111.988 147.915 111.532C148.277 110.177 148.665 108.454 148.916 107.11C149.616 103.358 150.025 99.5392 150.136 95.7245C150.253 91.7348 150.156 87.7301 150.156 83.7391C150.156 80.5382 149.13 77.6663 148.245 74.6149C147.634 72.5079 146.855 70.5441 145.944 68.5522C145.334 67.2166 144.614 65.8499 144.354 64.3903C144.034 62.6025 143.517 60.7454 142.873 59.0479C142.527 58.1345 141.982 57.3164 141.672 56.3866C141.443 55.6988 141.31 55.0894 140.962 54.4458C139.249 51.2757 136.37 49.5235 132.788 49.5235C131.431 49.5235 129.524 49.1635 128.446 50.1638C127.766 50.7952 126.898 51.6451 126.496 52.4949C126.102 53.326 126.376 54.7892 126.425 55.6463C126.761 61.4511 127.898 67.1965 128.707 72.9442C129.929 81.6346 129.627 90.4672 129.627 99.2161C129.627 102.746 129.922 106.277 130.227 109.791C130.635 114.483 131.064 119.179 132.208 123.757C132.376 124.427 132.341 124.271 132.748 123.837C133.704 122.819 134.883 122.358 136.21 122.027C137.065 121.813 137.924 121.556 138.811 121.556C139.004 121.556 139.426 121.631 139.591 121.516C140.085 121.174 139.636 118.546 139.611 118.115C139.161 110.133 136.508 102.549 136.15 94.584C135.876 88.4824 135.624 82.4211 135.57 76.3157C135.53 71.8061 134.105 67.0971 132.758 62.8396C132.141 60.8894 131.361 59.2245 130.167 57.5872C128.874 55.8134 128.202 53.6479 127.316 51.6545C126.035 48.772 121.944 48.3824 119.222 47.8228C117.815 47.5334 116.462 46.9709 115.06 46.6522C112.021 45.9614 108.884 45.61 105.796 45.2016C97.8696 44.1531 89.7076 44.6613 81.7251 44.5913C78.533 44.5633 76.2221 45.7585 73.4614 47.2825C71.5074 48.3612 69.536 49.611 67.3986 50.3039C66.1539 50.7074 64.44 51.3602 63.1267 51.2743C61.4167 51.1625 59.1725 50.2955 58.0244 48.9833C57.2901 48.1442 57.3645 46.7866 57.4441 45.7518C57.5154 44.8249 57.7356 43.9151 58.2145 43.1106C58.2935 42.9779 58.5794 42.6171 58.4646 42.7204C57.3927 43.6851 56.3907 44.7415 55.3331 45.7218C51.5608 49.2187 47.7477 52.1879 44.9984 56.5867C44.8695 56.793 44.5236 57.4285 44.5983 57.197C44.7912 56.5988 45.4795 55.1239 45.5987 54.876C47.7626 50.375 50.4445 45.6614 54.4728 42.5604C56.6231 40.9049 59.2121 39.8263 61.8561 39.2789C62.1961 39.2085 63.0473 39.0938 63.4768 39.0788C63.6063 39.0743 63.8494 39.0295 63.857 39.1588C63.9156 40.1546 61.7847 42.1236 61.2758 42.6804C59.3235 44.8166 57.1027 46.684 55.1531 48.8232C53.1278 51.0454 51.4906 53.5679 49.9907 56.1665C48.7096 58.3862 47.0776 60.3325 45.4386 62.2993C45.2973 62.4689 41.1693 67.2549 41.827 67.4917C42.3739 67.6886 43.5552 67.252 44.068 67.1716C45.648 66.9237 47.2125 66.8114 48.8102 66.8114C50.3709 66.8114 51.9316 66.8114 53.4923 66.8114C55.9401 66.8114 58.3879 66.8114 60.8356 66.8114C61.9325 66.8114 63.064 67.0159 64.1371 66.9915C65.8031 66.9536 64.6454 62.6901 64.4973 61.9692C64.1817 60.4327 63.6449 58.9995 62.9766 57.5872C62.8287 57.2746 62.6365 56.9895 62.6365 56.6368C62.6365 56.4823 62.6553 56.3531 62.4464 56.4367C61.0644 56.9895 60.0803 58.4203 59.435 59.6882C58.7732 60.9886 58.3145 62.4197 58.3145 63.8901C58.3145 65.4218 59.0818 66.3682 59.7251 67.6718C60.7474 69.7431 60.7665 72.1766 61.2959 74.3948C61.7809 76.4276 62.329 78.4667 62.8966 80.4776C64.5261 86.2509 65.0405 92.3464 65.2977 98.3257C65.5174 103.434 65.3377 108.58 65.3377 113.693C65.3377 117.029 65.4288 120.382 65.3277 123.717C65.2556 126.098 64.7891 126.852 62.3363 127.059C59.6568 127.284 56.8219 127.251 54.1826 126.689C53.2258 126.485 52.5148 125.876 51.7715 125.268C50.4457 124.183 49.1496 123.072 47.7997 122.017C46.5346 121.027 45.4898 120.106 44.8384 118.605C43.9279 116.507 43.5246 114.231 42.9475 112.032C41.7169 107.342 39.8507 102.769 39.0457 97.9756C38.4252 94.2803 38.145 90.6183 38.0053 86.8805C37.8945 83.9174 36.9099 78.1348 40.7165 76.866C42.9606 76.1179 48.4167 75.8383 49.9507 78.1966C50.5402 79.1029 50.719 80.4735 50.9311 81.4981C51.4356 83.9348 51.8685 86.4223 51.9816 88.9114C52.144 92.4847 51.8152 96.0799 52.1517 99.6463C52.6345 104.765 53.6576 109.889 54.7329 114.913C55.3451 117.774 56.3559 120.665 57.8043 123.217C58.8397 125.041 59.6078 127.026 60.7556 128.78C61.1578 129.394 61.668 129.95 62.0562 130.56C62.6399 131.478 63.9329 131.655 64.8975 132.001C66.8638 132.707 69.4427 133.262 71.5405 133.262C73.2019 133.262 75.0516 133.304 76.7029 133.552C80.903 134.182 85.0783 134.342 89.3486 134.342C92.7054 134.342 96.0397 134.464 99.3532 134.022C102.133 133.651 105.15 133.946 107.777 132.941C109.334 132.346 111.313 132.07 112.959 131.821C114.104 131.648 115.141 131.236 116.291 131.101C117.786 130.925 118.448 130.575 119.532 129.49C121.44 127.582 123.925 126.599 126.586 126.599C128.452 126.599 130.41 126.569 131.288 128.519C131.506 129.004 132.128 129.71 132.148 130.24C132.191 131.357 135.954 129.468 135.249 130.4C134.086 131.94 132.611 132.79 131.068 133.842C129.709 134.768 127.857 134.884 126.315 135.423C123.823 136.293 121.8 137.741 119.682 139.244C116.87 141.242 113.615 142.604 110.498 144.027C109.291 144.578 108.305 145.164 107.217 145.947C106.028 146.804 104.572 147.612 103.715 148.819C102.631 150.346 101.015 150.962 99.8034 152.38C99.5021 152.733 96.759 156.707 96.2718 156.272C94.926 155.071 93.6935 153.798 92.1199 152.881C90.7522 152.083 89.2936 151.455 87.888 150.73C86.419 149.971 85.1337 149.011 83.7261 148.168C82.5969 147.493 81.3924 147.28 80.1244 147.008C77.3228 146.406 74.5397 145.613 71.7906 144.807C71.3611 144.681 66.3175 143.475 68.7392 142.246C69.5034 141.858 70.9538 141.777 71.6406 141.725C72.9656 141.627 76.7064 141.487 77.9634 141.485C82.7673 141.478 87.4091 142.473 92.1199 143.286C94.8445 143.756 97.505 144.247 100.274 144.247" stroke="black" stroke-opacity="0.25" stroke-width="15" stroke-linecap="round"/>
<path d="M96 62.0828V56" stroke="black" stroke-width="5" stroke-linecap="round"/>
<path d="M81.5616 63.0954C81.8879 62.2796 84.904 62.6812 85.5349 62.6812C88.1299 62.6812 90.6986 62.6381 93.2897 62.4817C96.3038 62.2998 99.345 62.405 102.364 62.405C102.926 62.405 103.489 62.405 104.051 62.405C104.912 62.405 106.04 62.1978 106.874 62.4204C107.264 62.5243 107.102 63.1998 107.135 63.6016C107.332 65.9742 107.358 68.3561 107.38 70.7351C107.42 75.0439 107.735 79.3433 107.787 83.6522C107.829 87.1747 107.795 90.6994 107.795 94.222C107.795 98.6954 107.543 103.255 107.856 107.722C107.957 109.162 108.274 110.573 108.408 112.01C108.438 112.325 108.607 112.999 108.431 113.314C107.887 114.285 105.621 114.224 104.818 114.273C97.8543 114.695 90.8093 114.499 83.832 114.457C83.4731 114.455 82.544 114.614 82.2826 114.234C82.0693 113.925 82.124 112.938 82.1215 112.746C82.1108 111.918 82.1139 110.507 82.1139 109.716C82.1139 105.348 82.2431 100.983 82.2519 96.6152C82.2606 92.3453 81.928 88.1813 81.5923 83.9283C81.371 81.126 81.4235 78.3146 81.4235 75.5061C81.4235 73.5108 84.5684 73.5103 86.0411 73.3277C88.3553 73.0409 90.7241 73.1743 93.0519 73.1743C93.8059 73.1743 94.5866 73.1137 95.3377 73.182C96.1431 73.2552 95.9207 76.8776 95.9207 77.4468C95.9207 82.3073 95.9207 87.1678 95.9207 92.0283C95.9207 94.3883 95.756 96.8156 96.0281 99.1618C96.147 100.187 96.0587 101.265 96.0587 102.299C96.0587 104.312 94.4554 104.296 92.7451 104.378" stroke="black" stroke-opacity="0.45" stroke-width="15" stroke-linecap="round"/>
</svg>
