<svg width="435" height="422" viewBox="0 0 435 422" fill="none" xmlns="http://www.w3.org/2000/svg">
<rect width="435" height="422" fill="white"/>
<path d="M163.5 136L104 118L84 136L62 205.5L53.5 240L109 321.5L141 346L210 366.5L264 361.5L325 331.5L360 286L375.5 230.5L366.5 180.5L331 132L290.5 82.5L266 62.5L237.5 93.5L226 132L266 146L290.5 174L281.5 190.5V212.5L277 250L260 275.5L219.5 286L189 280.5L161 250L169.5 221.5L193 187L163.5 136Z" fill="#E5E5E5" stroke="black"/>
<path d="M117.591 94.8245L131.131 93.6554C130.688 88.8233 127.545 84.6174 122.95 82.705C118.354 80.7926 113.047 81.4821 109.132 84.5007L117.591 94.8245ZM121.854 141.295L108.314 142.464C108.755 147.273 111.87 151.464 116.434 153.389C120.998 155.314 126.282 154.665 130.208 151.698L121.854 141.295ZM160.982 111.723H174.576C174.576 106.684 171.616 102.086 166.949 99.8738C162.283 97.662 156.725 98.2229 152.627 101.32L160.982 111.723ZM217.5 191.989V205.177C223.907 205.177 229.444 200.837 230.79 194.761C232.136 188.685 228.928 182.521 223.086 179.967L217.5 191.989ZM159.155 242.685H145.561C145.561 243.956 145.751 245.222 146.124 246.439L159.155 242.685ZM269.671 48.3542L281.832 42.4642C279.977 38.8568 276.522 36.2711 272.453 35.4458C268.384 34.6205 264.151 35.6463 260.959 38.2301L269.671 48.3542ZM217.5 141.295H203.906C203.906 148.578 209.992 154.482 217.5 154.482V141.295ZM292.818 183.54L290.668 196.562C295.848 197.366 301.04 195.209 304.015 191.018C306.99 186.828 307.212 181.351 304.591 176.945L292.818 183.54ZM252.28 177.243L254.43 164.222C248.172 163.25 242.055 166.6 239.678 172.299C237.302 177.998 239.3 184.533 244.495 188.054L252.28 177.243ZM364.766 217.337C364.766 296.4 298.811 360.458 217.5 360.458V386.833C313.868 386.833 391.953 310.926 391.953 217.337H364.766ZM217.5 360.458C136.189 360.458 70.2344 296.4 70.2344 217.337H43.0469C43.0469 310.926 121.131 386.833 217.5 386.833V360.458ZM70.2344 217.337C70.2344 171.88 92.0233 131.384 126.049 105.148L109.132 84.5007C68.8888 115.531 43.0469 163.509 43.0469 217.337H70.2344ZM104.05 95.9936L108.314 142.464L135.394 140.126L131.131 93.6554L104.05 95.9936ZM130.208 151.698L169.336 122.126L152.627 101.32L113.5 130.891L130.208 151.698ZM147.388 111.723C147.388 135.852 150.693 154.537 161.853 169.788C172.808 184.756 189.917 194.393 211.914 204.012L223.086 179.967C201.608 170.575 190.458 163.314 184.022 154.519C177.792 146.006 174.576 134.064 174.576 111.723H147.388ZM264.772 225.785C264.772 251.187 243.586 271.742 217.5 271.742V298.117C258.644 298.117 291.96 265.713 291.96 225.785H264.772ZM217.5 271.742C196.121 271.742 178.005 257.93 172.185 238.929L146.124 246.439C155.269 276.3 183.734 298.117 217.5 298.117V271.742ZM217.5 178.802C210.322 178.802 202.428 181.25 195.42 184.341C188.103 187.569 180.419 192.093 173.384 197.48C166.376 202.847 159.631 209.362 154.54 216.719C149.482 224.027 145.561 232.902 145.561 242.685H172.748C172.748 239.793 173.947 235.995 177.112 231.421C180.243 226.895 184.824 222.321 190.229 218.183C195.606 214.065 201.421 210.668 206.674 208.351C212.236 205.897 215.983 205.177 217.5 205.177V178.802ZM257.509 54.2442C276.03 90.2419 305.522 115.265 327.05 137.982C349.056 161.201 364.766 183.44 364.766 217.337H391.953C391.953 173.537 370.708 145.081 347.064 120.131C322.944 94.6792 298.091 74.0595 281.832 42.4642L257.509 54.2442ZM269.671 48.3542C260.959 38.2301 260.957 38.2328 260.952 38.2354C260.952 38.2354 260.948 38.2396 260.946 38.2418C260.939 38.2464 260.934 38.2517 260.925 38.2574C260.912 38.2693 260.894 38.2835 260.873 38.3005C260.832 38.3343 260.778 38.3785 260.712 38.433C260.581 38.5422 260.4 38.6921 260.173 38.8825C259.722 39.2625 259.088 39.8034 258.299 40.4966C256.725 41.8822 254.52 43.8821 251.899 46.4299C246.67 51.5113 239.699 58.8481 232.705 67.9097C218.967 85.7071 203.906 111.754 203.906 141.295H231.094C231.094 120.141 242.118 99.7173 254.466 83.718C260.515 75.8813 266.587 69.4883 271.139 65.0645C273.409 62.8598 275.28 61.163 276.558 60.0403C277.195 59.4792 277.684 59.0631 277.997 58.7996C278.153 58.6679 278.264 58.5747 278.33 58.5206C278.364 58.4938 278.384 58.4767 278.393 58.4694C278.398 58.4659 278.398 58.4648 278.395 58.4664C278.395 58.4664 278.393 58.4683 278.391 58.4703C278.391 58.4703 278.389 58.4734 278.386 58.4738C278.384 58.476 278.382 58.4782 269.671 48.3542ZM217.5 154.482C244.624 154.482 268.338 168.786 281.046 190.135L304.591 176.945C287.231 147.785 254.745 128.107 217.5 128.107V154.482ZM244.495 188.054C256.775 196.377 264.772 210.171 264.772 225.785H291.96C291.96 201.205 279.322 179.485 260.067 166.433L244.495 188.054ZM294.969 170.519L254.43 164.222L250.132 190.265L290.668 196.562L294.969 170.519Z" fill="black"/>
</svg>
