<svg width="195" height="195" viewBox="0 0 195 195" fill="none" xmlns="http://www.w3.org/2000/svg">
<path d="M73.2931 62.8436L46.6207 54.526L37.6552 62.8436L27.7931 94.9585L23.9828 110.9L48.8621 148.56L63.2069 159.882L94.138 169.354L118.345 167.044L145.69 153.181L161.379 132.156L168.328 106.511L164.293 83.4064L148.379 60.9952L130.224 38.122L119.241 28.8803L106.466 43.205L101.31 60.9952L119.241 67.4644L130.224 80.4028L126.19 88.0272V98.1931L124.172 115.521L116.552 127.304L98.3966 132.156L84.7242 129.615L72.1724 115.521L75.9828 102.352L86.5173 86.4099L73.2931 62.8436Z" fill="black" fill-opacity="0.2" stroke="black"/>
<path d="M52.7132 43.817L58.7828 43.2768C58.5843 41.044 57.1753 39.1005 55.1155 38.2168C53.0552 37.3331 50.6762 37.6517 48.9212 39.0465L52.7132 43.817ZM54.6242 65.2904L48.5545 65.8305C48.7522 68.0527 50.1486 69.9893 52.1945 70.8788C54.2405 71.7683 56.6092 71.4684 58.3691 70.0974L54.6242 65.2904ZM72.1643 51.6256H78.2582C78.2582 49.2971 76.9313 47.1725 74.8392 46.1502C72.7475 45.1282 70.256 45.3874 68.419 46.8185L72.1643 51.6256ZM97.5 88.7153V94.8093C100.372 94.8093 102.854 92.8038 103.458 89.9962C104.061 87.1886 102.623 84.3403 100.004 83.1601L97.5 88.7153ZM71.3453 112.141H65.2515C65.2515 112.728 65.3366 113.313 65.5038 113.876L71.3453 112.141ZM120.887 22.3438L126.338 19.6221C125.507 17.9552 123.958 16.7604 122.134 16.379C120.31 15.9976 118.413 16.4716 116.982 17.6656L120.887 22.3438ZM97.5 65.2904H91.4061C91.4061 68.6557 94.1343 71.3839 97.5 71.3839V65.2904ZM131.263 84.8111L130.299 90.8284C132.622 91.1999 134.949 90.2032 136.283 88.2666C137.616 86.3305 137.716 83.7997 136.541 81.7637L131.263 84.8111ZM113.091 81.9014L114.055 75.8846C111.25 75.4354 108.507 76.9834 107.442 79.6168C106.377 82.2503 107.272 85.27 109.601 86.897L113.091 81.9014ZM163.516 100.428C163.516 136.962 133.95 166.562 97.5 166.562V178.75C140.699 178.75 175.703 143.674 175.703 100.428H163.516ZM97.5 166.562C61.0502 166.562 31.4844 136.962 31.4844 100.428H19.2969C19.2969 143.674 54.3001 178.75 97.5 178.75V166.562ZM31.4844 100.428C31.4844 79.4232 41.2518 60.7106 56.5047 48.5874L48.9212 39.0465C30.8812 53.3852 19.2969 75.5551 19.2969 100.428H31.4844ZM46.6431 44.3572L48.5545 65.8305L60.6939 64.7502L58.7828 43.2768L46.6431 44.3572ZM58.3691 70.0974L75.9092 56.4326L68.419 46.8185L50.8793 60.4828L58.3691 70.0974ZM66.0705 51.6256C66.0705 62.7752 67.552 71.4093 72.5548 78.4566C77.4656 85.373 85.1352 89.8262 94.9959 94.271L100.004 83.1601C90.376 78.8202 85.3777 75.465 82.4926 71.401C79.6999 67.4672 78.2582 61.949 78.2582 51.6256H66.0705ZM118.691 104.332C118.691 116.07 109.194 125.568 97.5 125.568V137.756C115.944 137.756 130.879 122.782 130.879 104.332H118.691ZM97.5 125.568C87.9163 125.568 79.7953 119.186 77.1864 110.406L65.5038 113.876C69.6033 127.674 82.3635 137.756 97.5 137.756V125.568ZM97.5 82.6218C94.2823 82.6218 90.7436 83.753 87.6021 85.1813C84.322 86.6729 80.8775 88.7634 77.7239 91.2526C74.5823 93.7326 71.5587 96.7431 69.2765 100.143C67.0092 103.52 65.2515 107.621 65.2515 112.141H77.4387C77.4387 110.805 77.9762 109.05 79.395 106.936C80.7986 104.845 82.8521 102.731 85.2751 100.819C87.6854 98.9163 90.2922 97.3466 92.647 96.2759C95.1403 95.142 96.82 94.8093 97.5 94.8093V82.6218ZM115.435 25.0655C123.738 41.6995 136.958 53.2623 146.609 63.7595C156.473 74.4886 163.516 84.7649 163.516 100.428H175.703C175.703 80.1889 166.179 67.0398 155.58 55.5108C144.768 43.7499 133.627 34.2218 126.338 19.6221L115.435 25.0655ZM120.887 22.3438C116.982 17.6656 116.981 17.6668 116.978 17.668C116.978 17.668 116.977 17.67 116.976 17.671C116.973 17.6731 116.97 17.6756 116.966 17.6782C116.961 17.6837 116.952 17.6903 116.943 17.6981C116.925 17.7137 116.9 17.7342 116.871 17.7593C116.812 17.8098 116.731 17.8791 116.629 17.967C116.427 18.1426 116.143 18.3926 115.789 18.7129C115.084 19.3532 114.095 20.2773 112.92 21.4546C110.576 23.8026 107.451 27.1929 104.316 31.3801C98.1576 39.604 91.4061 51.6399 91.4061 65.2904H103.594C103.594 55.5154 108.536 46.0779 114.071 38.6849C116.783 35.0637 119.505 32.1095 121.545 30.0654C122.563 29.0466 123.401 28.2625 123.974 27.7438C124.26 27.4845 124.479 27.2922 124.619 27.1704C124.689 27.1096 124.739 27.0665 124.769 27.0415C124.784 27.0291 124.793 27.0212 124.797 27.0179C124.799 27.0162 124.799 27.0157 124.798 27.0165C124.798 27.0165 124.797 27.0174 124.796 27.0183C124.796 27.0183 124.795 27.0197 124.794 27.0199C124.793 27.0209 124.792 27.0219 120.887 22.3438ZM97.5 71.3839C109.659 71.3839 120.289 77.9935 125.986 87.8586L136.541 81.7637C128.759 68.2893 114.196 59.1964 97.5 59.1964V71.3839ZM109.601 86.897C115.106 90.7429 118.691 97.1169 118.691 104.332H130.879C130.879 92.9739 125.213 82.9374 116.582 76.9063L109.601 86.897ZM132.227 78.7943L114.055 75.8846L112.128 87.9187L130.299 90.8284L132.227 78.7943Z" fill="black"/>
</svg>
