<svg width="192" height="192" viewBox="0 0 192 192" fill="none" xmlns="http://www.w3.org/2000/svg">
<path d="M167.567 50.6917H154.217L58.372 23.9387C55.5346 23.1253 52.5725 24.8029 51.78 27.6522C50.9807 30.4993 52.6472 33.4479 55.4928 34.2435L114.427 50.6924H24.4351C10.9645 50.6917 0 61.6524 0 75.1267V143.831C0 157.303 10.9615 168.267 24.4351 168.267H167.567C181.036 168.267 192 157.306 192 143.831V75.1267C192 61.6562 181.04 50.6917 167.567 50.6917ZM10.6996 143.83V75.1259C10.6996 67.5541 16.8625 61.3912 24.4351 61.3912H87.296V157.563H24.4351C16.8632 157.563 10.6996 151.406 10.6996 143.83ZM181.301 143.83C181.301 151.406 175.14 157.567 167.568 157.567H97.9963V61.3912H152.765L154.238 61.8017C154.72 61.9375 155.203 62.0024 155.677 62.0024C156.509 62.0024 157.286 61.748 158.011 61.3912H167.569C175.141 61.3912 181.306 67.5541 181.306 75.1259V143.83H181.301Z" fill="black"/>
<path d="M38.0101 90.4099H56.9331C59.8869 90.4099 62.2833 88.0136 62.2833 85.0598C62.2833 82.106 59.8869 79.7104 56.9331 79.7104H38.0101C35.0563 79.7104 32.6607 82.1067 32.6607 85.0598C32.66 88.0136 35.0563 90.4099 38.0101 90.4099Z" fill="black"/>
<path d="M68.8402 96.8026H26.1038C23.1522 96.8026 20.7537 99.1989 20.7537 102.152C20.7537 105.106 23.1522 107.502 26.1038 107.502H68.835C71.7888 107.502 74.1852 105.106 74.1852 102.152C74.1844 99.1989 71.7918 96.8026 68.8402 96.8026Z" fill="black"/>
<path d="M56.9331 129.765H38.0101C35.0563 129.765 32.6607 132.162 32.6607 135.116C32.6607 138.069 35.057 140.465 38.0101 140.465H56.9331C59.8869 140.465 62.2833 138.069 62.2833 135.116C62.2833 132.162 59.8869 129.765 56.9331 129.765Z" fill="black"/>
<path d="M68.8402 112.671H26.1038C23.1522 112.671 20.7537 115.067 20.7537 118.021C20.7537 120.975 23.1522 123.371 26.1038 123.371H68.835C71.7888 123.371 74.1852 120.975 74.1852 118.021C74.1852 115.067 71.7918 112.671 68.8402 112.671Z" fill="black"/>
<path d="M103.473 105.065H128.055H173.387V71.1646H103.472V105.065H103.473ZM114.173 81.8642H162.688V94.3645H133.604L133.706 91.6689C133.81 88.7151 131.512 86.2374 128.558 86.1217C125.684 86.0404 123.125 88.3196 123.013 91.2681L122.898 94.3608H114.174V81.8642H114.173Z" fill="black"/>
<path d="M119.046 119.084C111.638 119.084 105.605 125.112 105.605 132.521C105.605 139.933 111.634 145.962 119.046 145.962C126.458 145.962 132.487 139.933 132.487 132.521C132.486 125.112 126.454 119.084 119.046 119.084ZM119.046 135.259C117.538 135.259 116.305 134.03 116.305 132.517C116.305 131.009 117.537 129.78 119.046 129.78C120.555 129.78 121.787 131.009 121.787 132.517C121.787 134.029 120.554 135.259 119.046 135.259Z" fill="black"/>
<path d="M155.67 119.084C148.264 119.084 142.232 125.112 142.232 132.521C142.232 139.933 148.258 145.962 155.67 145.962C163.082 145.962 169.11 139.933 169.11 132.521C169.11 125.112 163.081 119.084 155.67 119.084ZM155.67 135.259C154.165 135.259 152.932 134.03 152.932 132.517C152.932 131.009 154.165 129.78 155.67 129.78C157.181 129.78 158.411 131.009 158.411 132.517C158.411 134.029 157.181 135.259 155.67 135.259Z" fill="black"/>
<path d="M44.149 151.947C40.5835 152.035 32.8062 152.258 28.9142 152.247C28.7614 152.247 24.008 152.249 23.0062 151.827C20.7108 150.861 21.2502 145.497 21.2068 143.67C21.1069 139.461 20.6047 135.381 19.9173 131.224C18.3629 121.826 18.7777 112.348 18.7777 102.854C18.7777 93.0546 19.0476 83.2504 19.0476 73.4643C19.0476 72.916 19.4815 70.3004 18.5677 70.0755C17.0766 69.7084 16.7316 71.1911 16.6184 72.2947C16.067 77.671 16.2696 83.1026 15.6887 88.4891C14.0101 104.055 15.2206 119.899 14.789 135.543C14.6591 140.252 14.6671 144.987 14.7291 149.698C14.748 151.135 14.5116 153.738 16.0186 154.646C18.3679 156.063 22.5761 155.604 25.1955 155.876C33.9095 156.78 42.5746 158.037 51.3165 158.725C56.0209 159.095 60.6515 158.81 65.3517 158.635C70.8672 158.43 76.5277 158.205 81.756 156.266C82.6595 155.931 84.4181 155.857 85.1149 155.186C85.8023 154.524 85.8222 152.797 85.9246 151.977C86.1576 150.113 86.1685 148.235 86.3745 146.369C86.6486 143.886 87.0411 141.414 87.3341 138.932C88.0109 133.199 88.4138 127.684 88.4138 121.898C88.4138 116.248 88.5508 110.663 89.4334 105.073C90.3216 99.4484 89.9353 93.2102 89.4334 87.5595C89.0333 83.0542 88.311 78.434 86.9143 74.1241C86.2697 72.1351 85.9368 70.0209 85.3848 68.0062C84.623 65.2257 77.9906 65.8034 75.8181 65.9069C72.3871 66.0703 69.4174 65.9582 66.0114 65.3671C60.9905 64.4957 56.1149 64.1269 51.0166 64.2874C45.6881 64.4553 40.3905 64.7117 35.1221 65.577C31.7734 66.127 28.4719 66.2827 25.0755 65.9969C24.6148 65.9581 18.6652 65.3689 20.0672 64.6473C20.5402 64.4039 22.2741 63.4105 22.7963 63.5977C23.4004 63.8142 23.2798 64.7959 23.3961 65.427C23.8456 67.866 24.2302 70.3185 24.6706 72.7595C25.6062 77.9443 25.7196 82.9481 25.8252 88.2042C25.8608 89.9722 25.8953 92.112 26.1401 93.8873C26.2212 94.4748 26.2011 95.1235 26.515 95.6267C26.6303 95.8114 27.0395 95.7032 27.1598 95.5217C28.0458 94.1844 29.0793 89.6333 29.2891 88.789C30.4171 84.2481 30.3389 84.0721 31.3284 79.8371C31.7212 78.1558 31.8156 75.6218 34.0124 75.6685C38.3217 75.7602 42.6867 76.7618 46.953 77.288C52.978 78.0311 59.025 78.5325 65.0968 78.5325C68.4506 78.5325 71.8045 78.5325 75.1583 78.5325C77.3379 78.5325 77.0352 83.0956 77.0627 84.4705C77.136 88.1366 77.222 91.8577 77.0627 95.5217C76.8706 99.9381 76.9387 104.366 76.7778 108.792C76.6568 112.117 76.0646 115.473 75.5782 118.764C74.8001 124.027 74.2803 129.176 73.119 134.388C72.9754 135.033 69.8722 148.563 70.36 148.589C71.1405 148.63 73.0266 146.734 73.6738 146.309C74.7336 145.613 75.811 144.82 76.9877 144.33C78.3807 143.75 78.2878 145.738 77.9923 146.624C77.4233 148.331 73.1423 147.899 71.8444 147.899C66.0842 147.899 60.2438 148.246 54.5404 147.329C50.8166 146.73 47.0505 146.118 43.2942 145.754C39.2043 145.359 35.4685 144.927 31.6582 143.205C26.6611 140.947 27.58 132.788 27.7296 128.225C27.9727 120.809 28.918 113.423 29.6789 106.048C30.3283 99.7542 33.5132 93.2874 37.4313 88.3992C38.3164 87.2949 40.2031 84.4378 40.7451 85.7451C41.7039 88.0575 41.3694 91.5097 41.4199 93.9323C41.6066 102.893 40.8561 111.625 39.7255 120.503C39.334 123.577 38.9508 126.656 38.6458 129.74C38.5799 130.407 38.0227 132.428 39.3206 131.539C49.4468 124.604 49.0795 112.208 51.8113 101.58C52.8413 97.5723 54.5261 93.6461 57.0145 90.3185C57.7581 89.3242 58.8509 87.9266 60.2084 87.7394C61.5983 87.5477 62.8591 88.925 63.5073 89.9586C65.5723 93.2514 65.4622 97.4252 65.4266 101.16C65.3269 111.638 63.5664 122.455 61.3031 132.664C61.1356 133.419 60.2532 139.048 58.7989 139.217C56.9455 139.432 55.9341 132.836 55.755 131.869C55.3131 129.486 55.2152 127.099 55.2152 124.687" stroke="black" stroke-opacity="0.25" stroke-width="15" stroke-linecap="round"/>
<path d="M99.48 62.0682C99.48 62.7015 98.8667 68.1099 99.6299 68.546C100.145 68.8403 100.02 69.3472 100.02 69.8805C100.02 70.6131 100.02 70.7052 100.605 70.1204C101.649 69.0762 103.009 68.571 104.053 67.6013C105.281 66.4614 105.824 65.8469 107.547 65.8469C112.961 65.8469 118.358 66.1168 123.772 66.1168C127.808 66.1168 131.686 66.9265 135.708 66.9265C139.319 66.9265 142.923 67.1348 146.489 67.7362C149.91 68.3133 153.281 68.276 156.745 68.276C162.333 68.276 167.324 68.2516 172.745 69.4756C174.371 69.8428 174.482 70.4585 174.994 71.9948C175.283 72.8607 175.294 73.6726 175.384 74.5739C175.649 77.2249 176.12 79.7864 176.134 82.4612C176.167 88.8455 176.22 95.2408 176.134 101.625C176.072 106.192 175.123 110.696 175.384 115.27C175.639 119.728 176.765 124.077 177.093 128.525C177.61 135.534 177.561 142.738 175.759 149.533C175.447 150.71 174.208 153.297 172.76 153.297C170.331 153.297 167.901 153.297 165.472 153.297C164.422 153.297 163.635 153.581 162.668 153.957C161.08 154.574 163.148 151.916 163.358 151.662C164.322 150.497 165.868 149.383 166.417 147.929C166.861 146.751 167.386 145.533 168.036 144.45C170.514 140.321 171.777 136.713 171.815 131.824C171.848 127.597 172.56 122.407 171.425 118.269C170.696 115.609 169.771 112.724 168.186 110.442C167.156 108.958 165.75 108.894 164.123 109.437C162.048 110.128 159.714 109.842 157.555 109.842C153.656 109.842 149.679 110.58 145.799 110.921C139.834 111.447 133.953 111.537 127.97 111.326C119.657 111.034 110.747 111.56 102.584 109.842C100.765 109.459 101.56 106.647 101.159 105.313C100.215 102.165 100.29 98.4912 100.29 95.2068C100.29 93.3931 100.117 91.487 100.5 89.7187C101.004 87.3844 100.431 84.9484 100.979 82.5811C101.415 80.7048 101.099 81.529 101.099 83.1509C101.099 85.4701 101.099 87.7893 101.099 90.1086C101.099 90.8183 101.099 92.9476 101.099 92.2378C101.099 90.3089 101.017 88.3775 100.964 86.4498C100.865 82.7971 100.829 71.8345 100.829 75.4886C100.829 84.5993 100.521 93.7601 101.654 102.824C101.97 105.351 102.449 107.941 102.449 110.502C102.449 118.442 102.179 126.365 102.179 134.283C102.179 136.44 102.234 138.605 102.179 140.761C102.16 141.5 101.83 142.002 101.579 142.651C100.695 144.935 101.081 147.788 101.099 150.178C101.115 152.178 101.743 153.714 104.008 153.837C106.322 153.962 108.621 153.982 110.936 154.167C117.26 154.67 123.413 155.684 129.83 155.726C135.541 155.763 141.214 155.341 146.819 156.371C149.348 156.835 151.835 156.994 154.346 157.585C155.082 157.758 154.048 156.906 153.896 156.536C153.509 155.59 153.731 154.277 153.731 153.282C153.731 152.485 153.571 151.52 153.746 150.733C153.936 149.877 152.061 150.234 151.197 150.088C148.136 149.57 145.211 148.724 142.275 147.734C140.19 147.03 138.799 146.509 137.957 144.45C137.188 142.57 137.331 141.57 137.597 139.532C137.837 137.692 138.302 135.998 138.706 134.193C139.162 132.163 139.244 130.095 139.816 128.076C140.383 126.076 141.577 120.672 144.075 119.948C146.631 119.207 149.83 119.558 152.457 119.558C154.621 119.558 156.484 119.296 158.59 119.049C159.057 118.994 161.463 118.892 161.379 118.854C158.454 117.537 154.731 117.715 151.617 117.654C147.71 117.577 143.76 117.113 139.861 116.829C137.757 116.676 136.251 116.189 134.193 116.859C132.159 117.522 133.065 120.07 133.338 121.748C133.513 122.818 134.047 122.966 133.533 122.332C131.096 119.322 128.294 118.97 124.701 118.269C123.191 117.974 121.541 117.669 119.993 117.669C118.563 117.669 116.781 117.897 115.404 118.329C114.442 118.631 113.644 118.971 112.615 119.019C111.995 119.047 111.599 119.522 110.966 119.558C109.56 119.639 110.534 119.485 111.521 119.169C111.745 119.097 113.19 118.754 113.11 118.764C112.49 118.841 111.869 118.92 111.251 119.019C109.517 119.296 107.836 120.16 106.528 121.328C103.631 123.914 104.574 128.236 103.259 131.524C102.521 133.368 102.179 134.534 102.179 136.533C102.179 141.346 105.221 143.882 108.987 146.489C111.094 147.948 113.036 149.077 115.644 149.338C118.154 149.589 121.478 150.141 123.742 148.918C126.596 147.377 128.054 145.448 129.979 143.04" stroke="black" stroke-opacity="0.25" stroke-width="15" stroke-linecap="round"/>
<path d="M114.865 82.5812C115.322 85.5832 115.802 88.5641 116.154 91.5781C116.206 92.02 116.164 92.9588 116.844 92.2978C118.489 90.6988 119.247 88.3682 120.428 86.4498C120.809 85.8299 121.338 85.7974 122.032 85.6701C123.977 85.3135 125.938 84.9611 127.91 84.8004C128.762 84.731 129.97 84.4414 130.819 84.5905C131.794 84.7616 132.03 87.2249 132.244 87.9643C132.461 88.7169 133.688 91.2061 134.613 90.8883C136.945 90.0865 137.42 86.3222 139.726 85.1903C141.303 84.4161 143.206 89 143.58 90.0786C144.14 91.6977 146.377 89.1263 147.134 88.3692C148.358 87.1452 148.239 86.1664 150.238 85.7001C153.529 84.932 152.488 89.6061 153.371 91.5331C153.646 92.133 154.627 94.6524 155.471 93.3025C156.16 92.1994 156.875 90.6658 157.18 89.3888C157.59 87.6761 158.59 85.6467 158.59 83.9307" stroke="black" stroke-opacity="0.45" stroke-width="15" stroke-linecap="round"/>
<path d="M156.43 131.974C154.961 131.51 155.065 133.05 155.081 134.043C155.102 135.386 155.797 132.888 155.891 132.514" stroke="black" stroke-opacity="0.5" stroke-width="15" stroke-linecap="round"/>
<path d="M119.453 130.085C119.893 130.579 119.723 131.352 119.723 131.974" stroke="black" stroke-opacity="0.5" stroke-width="15" stroke-linecap="round"/>
</svg>
