<svg width="192" height="192" viewBox="0 0 192 192" fill="none" xmlns="http://www.w3.org/2000/svg">
<path d="M170 160C173.314 160 176 157.314 176 154C176 150.686 173.314 148 170 148V160ZM22 154H16C16 155.591 16.6321 157.117 17.7574 158.243C18.8826 159.368 20.4087 160 22 160V154ZM22.0001 86V80C18.6863 80 16.0001 82.6863 16.0001 86H22.0001ZM176 38C176 34.6863 173.314 32 170 32C166.686 32 164 34.6863 164 38H176ZM164 130C164 133.314 166.686 136 170 136C173.314 136 176 133.314 176 130H164ZM22.0001 38V32C18.6864 32 16.0001 34.6863 16.0001 38H22.0001ZM146 44C149.314 44 152 41.3137 152 38C152 34.6863 149.314 32 146 32V44ZM16.0001 62C16 65.3137 18.6863 68 22 68C25.3137 68 28 65.3137 28.0001 62H16.0001ZM170 148H22V160H170V148ZM28 154L28.0001 86H16.0001L16 154H28ZM164 38V130H176V38H164ZM22.0001 44H146V32H22.0001V44ZM16.0001 38V62H28.0001V38H16.0001ZM22.0001 92C56.2417 92 84 119.758 84 154H96C96 113.131 62.8691 80 22.0001 80V92Z" fill="black"/>
<path d="M132 90C139.732 90 146 83.732 146 76C146 68.268 139.732 62 132 62C124.268 62 118 68.268 118 76C118 83.732 124.268 90 132 90Z" stroke="black" stroke-width="12"/>
<line x1="22" y1="47" x2="22" y2="90" stroke="black" stroke-width="12"/>
<line x1="170" y1="112" x2="170" y2="155" stroke="black" stroke-width="12"/>
<line x1="169.5" y1="38" x2="126.5" y2="38" stroke="black" stroke-width="12"/>
<path d="M29.7374 95.5363C30.2491 96.3757 30.6278 96.7324 31.4024 97.2836C32.4188 98.0068 32.9384 99.4003 33.4374 100.49C34.1629 102.075 34.5344 103.774 35.863 104.982C37.4096 106.388 40.1418 106.716 42.1018 107.12C43.0261 107.31 44.0488 107.192 44.9899 107.192C46.5684 107.192 46.3343 106.556 45.8327 105.157C45.6759 104.719 44.4349 103.559 44.4349 103.163C44.4349 102.999 47.0193 103.693 47.1072 103.718C49.0314 104.248 51.0007 104.641 52.9039 105.239C53.9314 105.562 54.9742 106.528 55.7407 107.294C56.5368 108.09 57.1476 108.889 57.8168 109.782C58.3774 110.529 58.9284 111.037 59.6052 111.714C61.1752 113.284 62.5531 115.026 64.3022 116.411C65.9467 117.713 67.4115 119.234 68.6909 120.902C69.2935 121.688 69.845 122.506 70.4382 123.297C71.085 124.16 71.3957 125.253 72.1032 126.062C73.2134 127.331 73.6522 129.07 74.2411 130.605C74.5054 131.294 74.5411 131.948 74.8372 132.619C75.4161 133.933 75.7912 135.363 76.3583 136.7C76.6691 137.432 77.2833 138.477 77.2833 139.29C77.2833 140.377 76.8765 140.013 75.9061 140.307C70.6121 141.914 64.8533 141.332 59.451 142.25C56.2834 142.788 53.2137 142.712 49.9953 142.712C46.2644 142.712 42.5335 142.712 38.8025 142.712C37.2608 142.712 35.7191 142.712 34.1774 142.712C33.4222 142.712 32.4812 142.774 31.9574 142.116C30.0526 139.723 31.0944 135.862 30.6521 133.061C30.1331 129.775 29.1197 126.397 28.9871 123.081C28.9007 120.923 28.2573 118.859 28.2573 116.668C28.2573 115.472 28.3693 113.874 29.8607 113.626C31.8628 113.292 33.2241 113.743 34.8969 114.951C39.4697 118.254 44.4889 121.203 48.4844 125.199C49.6344 126.349 51.4615 128.195 53.1506 128.282C53.9131 128.321 54.6016 128.285 55.3501 128.508C55.8584 128.659 56.418 128.747 56.5218 129.351C56.6894 130.325 57.0209 131.882 56.7685 132.845C56.4674 133.995 55.1098 134.344 54.1167 134.377C51.8029 134.454 49.4618 134.426 47.1483 134.377C44.8658 134.329 43.0252 133.457 40.8376 133.092" stroke="black" stroke-opacity="0.5" stroke-width="20" stroke-linecap="round"/>
<path d="M27.5173 45.5853C31.3105 45.5853 35.6068 45.056 39.3165 45.9553C40.4211 46.2231 41.54 46.1088 42.6671 46.1506C44.2339 46.2086 45.6942 46.6953 47.2819 46.6953C59.8531 46.6953 72.4393 47.0653 85.0124 47.0653C93.413 47.0653 101.813 47.0653 110.214 47.0653C113.777 47.0653 117.34 47.0653 120.903 47.0653C123.223 47.0653 125.566 47.1666 127.882 47.0447C129.42 46.9638 130.899 46.5595 132.456 46.5206C139.456 46.3456 146.678 46.1368 153.659 46.6953C154.352 46.7507 157.216 46.7214 157.349 47.5175C157.722 49.7554 155.63 50.4667 153.998 51.5671C152.222 52.7647 150.146 53.7533 148.016 54.1366C147.287 54.2678 146.555 54.2805 145.817 54.2805C144.873 54.2805 148.199 55.5494 148.458 55.6577C150.578 56.5409 152.45 57.2775 154.245 58.7617C154.929 59.3275 156.131 59.7752 156.29 60.6528C156.638 62.5676 158.276 64.029 158.49 65.9562C158.771 68.4886 158.685 71.0522 158.685 73.6134C158.685 78.9716 158.685 84.3299 158.685 89.6881C158.685 106.585 158.87 123.562 158.87 140.492C158.87 140.697 158.994 141.396 158.829 141.561C158.518 141.872 156.719 141.602 156.465 141.602C152.748 141.602 149.031 141.602 145.313 141.602C138.379 141.602 131.445 141.602 124.511 141.602C120.109 141.602 115.695 141.417 111.273 141.417C109.371 141.417 107.47 141.417 105.568 141.417C105.215 141.417 104.807 141.356 104.479 141.52C104.147 141.686 103.978 142.031 103.564 141.962C103.275 141.914 103.108 137.303 103.04 136.689C102.855 135.026 102.814 133.379 102.814 131.705C102.814 130.139 102.814 128.573 102.814 127.008C102.814 126.168 102.814 125.329 102.814 124.489C102.814 123.433 103.023 123.482 104.027 123.184C107.055 122.284 110.421 122.856 113.503 123.246C117.342 123.732 121.166 124.591 125.045 124.849C128.081 125.052 131.024 125.077 133.977 125.733C135.8 126.138 137.593 126.644 139.404 127.162C140.457 127.463 141.25 127.923 141.767 126.658C142.274 125.421 142.535 123.708 142.754 122.393C143.04 120.679 142.651 118.806 143.001 117.1C143.278 115.749 143.521 114.386 143.792 113.029C144.051 111.734 144.255 110.178 144.255 108.857C144.255 107.597 144.72 106.499 144.799 105.259C144.92 103.391 144.81 101.476 144.81 99.6064C144.81 99.2116 145.173 95.7223 144.81 95.4952C144.393 95.2347 141.381 98.1794 140.74 98.5889C139.923 99.1107 139.021 99.5381 138.119 99.8942C136.267 100.625 134.467 101.459 132.641 102.238C130.979 102.946 129.611 103.861 128.067 104.776C126.873 105.484 125.734 106.211 124.603 107.007C123.997 107.433 123.478 108.143 123.092 108.764C122.785 109.258 122.162 111.017 122.743 111.508C123.191 111.888 124.498 111.612 125.055 111.714C126.24 111.931 127.354 112.537 128.571 112.557C128.674 112.558 129.984 112.666 129.855 112.752C128.875 113.405 127.202 113.561 126.073 113.646C121.518 113.99 116.895 113.323 112.342 113.698C110.978 113.81 108.957 114.16 107.912 115.147C107.379 115.65 107.641 115.517 108.405 115.517C112.292 115.517 116.184 115.458 120.071 115.537C123.691 115.612 127.214 116.293 130.811 116.586C132.592 116.731 134.463 116.407 136.197 116.956C137.034 117.22 135.537 117.675 135.251 117.726C133.075 118.122 130.764 117.922 128.571 117.922C122.28 117.922 115.99 117.922 109.7 117.922C108.48 117.922 107.261 117.922 106.041 117.922C105.613 117.922 104.392 117.693 104.088 118.035C103.181 119.056 102.947 120.12 102.67 121.437C102.357 122.924 102.481 124.2 101.714 125.589C101.663 125.682 101.276 126.703 101.005 126.391C100.223 125.489 99.7645 123.97 99.2372 122.896C98.7174 121.838 98.9342 120.643 98.4766 119.597C98.2819 119.152 98.1269 118.671 97.8805 118.251C97.5982 117.77 97.4201 117.032 97.0788 116.627C96.0682 115.427 94.9533 113.96 94.8587 112.289C94.8094 111.417 94.7866 110.853 94.8484 110.018C94.8939 109.404 94.7841 108.765 94.8998 108.158C94.9876 107.697 95.2124 107.255 95.2287 106.78C95.2714 105.544 95.2287 104.297 95.2287 103.06C95.2287 101.486 94.8784 100.051 94.8587 98.4758C94.7605 90.6188 94.6737 82.7309 94.6737 74.857C94.6737 73.0583 94.6737 71.2597 94.6737 69.461C94.6737 67.6595 94.5065 65.7794 95.0848 64.0445C95.3857 63.142 95.6426 62.4741 96.6574 62.4309C97.9786 62.3747 99.2931 62.2804 100.614 62.2253C102.971 62.1271 105.223 61.5668 107.151 60.1595C109.149 58.702 111.64 58.3716 113.811 57.2508C114.434 56.9294 115.231 56.5756 115.887 56.3566C116.063 56.2979 116.625 56.2817 116.443 56.3155C115.503 56.4895 114.586 56.7932 113.688 57.1172C109.21 58.7336 108.163 63.9998 107.079 68.0427C106.252 71.1304 105.703 74.4769 105.774 77.6732C105.908 83.7192 107.76 89.3067 110.985 94.3955C112.171 96.2667 112.831 98.0675 114.819 99.2775C115.221 99.5224 118.476 100.206 118.118 101.22C117.481 103.025 114.261 102.908 112.845 103.779C112.131 104.219 110.612 104.381 109.854 104.406C106.514 104.516 103.155 104.416 99.8127 104.416C97.5478 104.416 95.1109 104.675 92.8648 104.324C92.2042 104.221 91.5969 104.209 90.9736 103.944C90.6259 103.796 89.9507 103.491 89.5758 103.491C89.2267 103.491 89.7917 104.157 89.8636 104.499C89.9621 104.966 90.2021 105.347 89.6786 105.609C88.9234 105.986 88.6482 106.164 87.8286 105.712C87.0442 105.278 86.2808 104.514 85.701 103.841C84.9317 102.948 83.9779 102.254 83.224 101.374C82.5361 100.572 81.8283 99.7018 81.4973 98.6814C80.8928 96.8175 79.9563 94.8915 79.1231 93.121C78.4894 91.7743 78.1068 90.3353 77.0572 89.2051C76.3018 88.3916 75.4889 87.6532 74.6522 86.9131C73.4549 85.8539 71.7958 84.4134 70.2121 84.025C69.0294 83.7348 67.8928 83.2934 66.7176 82.9869C66.4132 82.9075 65.717 82.6501 65.9159 83.1616C66.5697 84.8427 67.4525 86.5083 68.7732 87.7661C69.5777 88.5323 69.7991 88.4913 69.8729 87.2728C70.0082 85.0411 69.8832 82.7665 69.8832 80.5304C69.8832 76.9526 70.0365 73.3471 70.0682 69.7591C70.0904 67.2565 70.7068 66.1639 73.0694 64.8668C74.8536 63.8872 76.6204 63.6335 78.6195 63.7156C82.034 63.856 81.6921 68.5103 82.0112 71.0541C82.299 73.3483 82.4635 75.6184 82.4635 77.9301C82.4635 79.3471 80.724 78.0381 80.0584 77.7348C77.6073 76.618 75.1651 75.4813 72.7097 74.3739C68.6469 72.5417 65.5553 69.5629 62.4214 66.429C61.5572 65.5649 60.7187 64.8742 59.5436 64.4557C55.7468 63.1034 51.5073 62.8651 47.5491 62.2767C45.4872 61.9702 43.3489 61.8864 41.3104 61.4545C40.4385 61.2698 39.6943 61.1256 38.8026 61.1256C37.8628 61.1256 35.9866 60.6211 35.75 61.8039C35.4915 63.0965 35.7027 64.4805 35.6575 65.7918C35.585 67.8955 34.7907 69.944 34.7325 72.0408C34.6937 73.4353 36.0866 73.2882 37.2403 73.5311C39.1143 73.9257 40.5424 74.7296 42.2971 75.412C46.4666 77.0335 50.4566 79.4408 54.8979 80.181" stroke="black" stroke-opacity="0.25" stroke-width="20" stroke-linecap="round"/>
</svg>
