<svg width="192" height="192" viewBox="0 0 192 192" fill="none" xmlns="http://www.w3.org/2000/svg">
<path fill-rule="evenodd" clip-rule="evenodd" d="M64 28C62.8954 28 62 28.8954 62 30V79.5424C62 80.2352 62.3585 80.8787 62.9477 81.2432L96 101.694L129.052 81.2432C129.641 80.8787 130 80.2352 130 79.5424V30C130 28.8954 129.105 28 128 28H64ZM50 30C50 22.268 56.268 16 64 16H128C135.732 16 142 22.268 142 30V79.5424C142 84.3919 139.49 88.8961 135.366 91.4477L101.262 112.55C98.0375 114.545 93.9624 114.545 90.7383 112.55L56.6336 91.4477C52.5097 88.896 50 84.3919 50 79.5424V30ZM32 90C29.7909 90 28 91.7909 28 94V162C28 164.209 29.7909 166 32 166H160C162.209 166 164 164.209 164 162V94C164 91.7909 162.209 90 160 90H156C152.686 90 150 87.3137 150 84C150 80.6863 152.686 78 156 78H160C168.837 78 176 85.1634 176 94V162C176 170.837 168.837 178 160 178H32C23.1635 178 16 170.837 16 162V94C16 85.1634 23.1634 78 32 78H36C39.3137 78 42 80.6863 42 84C42 87.3137 39.3137 90 36 90H32ZM81 59C81 50.7157 87.7157 44 96 44C100.143 44 103.888 45.6746 106.607 48.3934C108.169 49.9555 110.701 49.9555 112.263 48.3934C113.826 46.8313 113.826 44.2986 112.263 42.7365C108.106 38.5787 102.35 36 96 36C83.2975 36 73 46.2975 73 59C73 71.7025 83.2975 82 96 82C108.703 82 119 71.7025 119 59C119 56.7909 117.209 55 115 55H96C93.7909 55 92 56.7909 92 59C92 61.2091 93.7909 63 96 63H110.461C108.71 69.3424 102.899 74 96 74C87.7157 74 81 67.2843 81 59ZM56 152C56 148.686 58.6863 146 62 146H130C133.314 146 136 148.686 136 152C136 155.314 133.314 158 130 158H62C58.6863 158 56 155.314 56 152ZM48 138C52.4183 138 56 134.418 56 130C56 125.582 52.4183 122 48 122C43.5817 122 40 125.582 40 130C40 134.418 43.5817 138 48 138ZM56 106C56 110.418 52.4183 114 48 114C43.5817 114 40 110.418 40 106C40 101.582 43.5817 98 48 98C52.4183 98 56 101.582 56 106ZM72 138C76.4183 138 80 134.418 80 130C80 125.582 76.4183 122 72 122C67.5817 122 64 125.582 64 130C64 134.418 67.5817 138 72 138ZM128 130C128 134.418 124.418 138 120 138C115.582 138 112 134.418 112 130C112 125.582 115.582 122 120 122C124.418 122 128 125.582 128 130ZM144 138C148.418 138 152 134.418 152 130C152 125.582 148.418 122 144 122C139.582 122 136 125.582 136 130C136 134.418 139.582 138 144 138ZM152 106C152 110.418 148.418 114 144 114C139.582 114 136 110.418 136 106C136 101.582 139.582 98 144 98C148.418 98 152 101.582 152 106ZM96 138C100.418 138 104 134.418 104 130C104 125.582 100.418 122 96 122C91.5817 122 88 125.582 88 130C88 134.418 91.5817 138 96 138Z" fill="black"/>
<path d="M27.6122 96.5207C34.657 96.5207 41.7018 96.5207 48.7466 96.5207C49.7099 96.5207 50.6731 96.5207 51.6364 96.5207C52.0405 96.5207 52.4446 96.5207 52.8486 96.5207C53.7328 96.5207 53.9497 95.5044 54.8323 95.5044C56.3763 95.5044 57.2257 96.7233 58.4812 97.1941C59.8633 97.7124 61.7432 99.294 62.8036 100.317C64.4475 101.902 66.1416 103.754 68.3627 104.284C70.8803 104.884 74.6301 104.877 76.6892 106.635C77.9038 107.672 78.8275 109.445 79.1993 110.994C79.7551 113.31 80.7299 115.444 80.7299 117.863C80.7299 122.557 80.7299 127.251 80.7299 131.945C80.7299 136.791 80.9003 141.621 80.3381 146.43C80.1247 148.256 79.766 150.03 79.4565 151.818C79.0715 154.043 79.4644 156.329 79.0157 158.528C78.7479 159.84 78.3105 161.261 77.4728 162.324C77.0778 162.825 76.4063 162.613 75.832 162.691C74.94 162.812 74.1809 163.431 73.3341 163.512C72.282 163.612 71.218 163.719 70.1872 163.977C68.0925 164.501 66.0557 164.823 63.9056 165.177C60.8749 165.677 57.8893 165.948 54.82 165.948C52.5874 165.948 50.3548 165.948 48.1222 165.948C46.8914 165.948 45.6572 166.05 44.461 165.716C43.0072 165.31 41.4075 165.35 40.0039 164.797C37.4525 163.792 34.814 163.821 32.1183 163.744C29.4216 163.667 28.3068 161.236 28.2734 158.895C28.2135 154.701 28.4173 150.604 28.8122 146.43C29.4991 139.168 28.3139 131.781 29.253 124.537C29.6279 121.644 30.5503 119.121 31.3468 116.333C31.8372 114.616 31.8976 111.943 33.9795 111.288C38.2666 109.938 42.4483 109.084 46.9344 109.084C49.0148 109.084 50.3376 110.434 52.2486 110.798C53.3105 111 54.3793 110.916 55.4568 111.165C58.7171 111.92 62.0191 112.414 65.3015 113.051C66.1313 113.212 66.7699 113.635 67.2117 114.349C69.1125 117.423 70.3216 120.681 71.277 124.145C72.2827 127.791 73.0752 131.587 72.3423 135.373C71.9 137.659 70.7741 139.974 69.9301 142.145C69.1294 144.204 68.1601 145.738 66.7219 147.434C65.6317 148.72 64.4141 149.662 63.1342 150.728C62.0992 151.591 62.023 151.622 60.5506 151.622C56.0282 151.622 51.5058 151.622 46.9834 151.622C44.4345 151.622 43.4779 151.543 42.11 149.149C40.8747 146.987 40.608 143.909 40.4447 141.459C40.221 138.103 40.3957 134.684 40.3957 131.32C40.3957 128.186 40.3957 125.051 40.3957 121.916C40.3957 121.342 40.1972 120.407 41.0079 120.337C42.1803 120.235 44.5202 119.973 45.5263 120.692C46.1483 121.136 46.0785 122.535 46.1018 123.141C46.1877 125.375 46.1462 127.628 46.114 129.863C46.0544 134.004 45.0008 137.71 44.2895 141.741C44.0416 143.146 43.6701 144.452 43.3589 145.83C43.1334 146.829 43.2212 147.879 42.9916 148.855C42.6396 150.351 42.4524 151.777 42.0365 153.287C41.7897 154.184 41.2119 154.87 40.7875 155.687C40.5871 156.073 39.3873 157.576 39.3916 157.524C39.5269 155.901 40.468 154.176 41.1549 152.749C43.2537 148.387 45.8619 144.295 48.4038 140.185C50.7008 136.472 53.1456 132.792 55.0404 128.847C55.4045 128.089 55.5594 127.239 55.9221 126.496C56.9113 124.468 58.1291 123.924 59.8649 122.651C60.9085 121.886 60.673 126.507 60.673 126.851C60.673 131.166 59.5647 135.269 58.1873 139.341C57.6244 141.005 57.884 141.913 58.3465 143.565C58.9039 145.556 59.7495 145.668 61.8118 145.561C65.3501 145.377 68.8983 145.451 72.4402 145.451C76.3875 145.451 80.2792 145.874 84.2075 145.892C87.8307 145.908 91.4577 145.837 95.0808 145.892C96.6057 145.915 98.5614 146.081 99.8563 146.945C100.366 147.284 100.977 147.21 101.571 147.214C104.358 147.231 107.138 147.2 109.921 147.41C115.495 147.831 120.952 148.536 126.55 148.536C128.239 148.536 129.955 148.448 131.644 148.536C132.416 148.577 133.113 149.243 133.872 149.418C134.636 149.594 135.831 149.327 135.831 150.336C135.831 151.45 136.308 154.023 135.574 154.94C134.662 156.081 133.975 158.017 132.807 158.908C131.337 160.028 128.76 159.901 127.015 160.108C125.344 160.306 123.65 160.534 121.97 160.646C121.039 160.709 120.147 160.538 119.264 160.891C117.132 161.744 114.413 161.32 112.174 161.32C106.044 161.32 99.9134 161.32 93.7829 161.32C90.738 161.32 81.6407 161.795 84.6483 161.32C93.6989 159.891 102.865 158.216 112.015 157.585C112.939 157.522 113.207 157.057 114.023 156.802C115.821 156.24 118.364 156.691 120.219 156.691C126.533 156.691 132.848 156.691 139.162 156.691C140.558 156.691 142.068 156.515 143.448 156.74C143.948 156.822 144.183 157.26 144.648 157.353C144.792 157.381 142.122 158.454 141.758 158.553C140.559 158.875 139.255 159.038 138.084 159.385C137.473 159.566 136.488 160.192 136.15 160.708C135.72 161.363 138.438 162.033 138.697 162.104C140.661 162.639 142.77 162.445 144.77 162.789C147.166 163.202 149.484 163.524 151.921 163.524C154.3 163.524 157.459 163.962 158.521 161.308C159.163 159.703 159.194 157.223 159.194 155.479C159.194 153.947 159.119 152.398 159.305 150.875C159.419 149.94 159.821 149.07 159.856 148.145C159.937 145.939 160.517 143.735 160.517 141.483C160.517 138.086 161.178 134.794 161.178 131.394C161.178 127.234 160.958 123.026 160.958 118.904C160.958 114.583 161.032 110.326 160.394 106.047C160.098 104.058 159.892 101.921 159.415 100.01C159.182 99.0787 158.784 98.2075 158.545 97.2921C158.309 96.385 158.291 95.2776 157.652 94.537C156.703 93.4388 157.256 92.7965 155.325 92.7738C153.693 92.7546 152.059 92.7738 150.427 92.7738C148.321 92.7738 146.215 92.7738 144.109 92.7738C142.395 92.7738 140.68 92.7738 138.966 92.7738C138.197 92.7738 138.017 92.7695 137.68 93.5819C136.496 96.4371 133.105 97.312 130.848 99.0676C129.193 100.354 127.337 101.395 125.631 102.619C121.423 105.637 117.242 109.738 112.493 111.778C109.598 113.021 106.459 113.56 103.456 114.472C100.885 115.252 98.3218 116.024 95.7298 116.737C93.331 117.396 90.9848 117.844 88.5421 118.292C87.294 118.521 87.778 120.16 87.8319 121.157C87.9336 123.039 87.9454 124.909 88.0033 126.79C88.04 127.983 88.6259 129.076 88.6645 130.292C88.6895 131.077 88.8596 131.831 88.8849 132.618C88.9389 134.289 88.856 135.545 90.6482 134.479C93.036 133.06 95.7795 131.796 98.4604 131.075C100.792 130.448 103.282 130.684 105.673 130.684C110.031 130.684 114.37 131.414 118.676 131.773C120.196 131.9 121.707 132.055 121.934 130.133C122.001 129.563 121.946 128.955 121.946 128.382C121.946 127.274 121.07 130.465 120.881 130.806C119.997 132.396 118.354 134.451 116.656 135.263C114.392 136.346 111.434 136.258 108.991 136.365C107.726 136.42 106.426 136.324 105.17 136.512C104.785 136.57 103.714 136.741 104.068 136.904C105.286 137.466 107.251 137.373 108.501 137.467C112.632 137.777 116.742 138.247 120.868 138.594C127.59 139.158 134.442 138.559 141.023 140.357C142.473 140.753 143.882 141.258 145.382 141.434C145.741 141.477 146.518 141.379 146.803 141.704C147.202 142.16 147.543 142.343 147.684 143.051C147.826 143.761 148.172 144.193 148.443 144.863C148.612 145.279 149.688 147.413 149.705 147.067C149.989 141.232 149.968 135.209 151.162 129.459C151.527 127.699 152.201 126.014 152.337 124.206C152.453 122.676 152.362 121.112 152.362 119.578C152.362 117.337 152.706 114.84 151.701 112.757C151.397 112.128 151.11 111.609 151.027 110.908C151.013 110.787 150.866 109.767 150.733 109.794C150.511 109.839 152.841 119.615 152.876 119.786C153.882 124.687 154.545 129.632 155.276 134.577C155.63 136.971 156.044 139.353 156.109 141.777C156.132 142.67 156.132 143.578 156.109 144.471C156.061 146.266 154.365 148.013 153.562 149.54C152.903 150.793 152.664 150.478 151.48 149.589C149.619 148.194 149.274 147.495 149.056 145.157C148.798 142.402 148.835 139.643 148.835 136.879C148.835 135.426 148.999 133.86 148.737 132.422C148.173 129.317 147.075 126.073 146.092 123.08C145.168 120.261 144.195 117.441 142.921 114.765C141.88 112.578 141.005 110.502 138.819 109.231C137.157 108.265 134.664 107.541 133.015 108.79C131.244 110.132 129.87 111.217 128.925 113.296C128.474 114.289 127.562 115.382 126.574 115.867C125.012 116.635 122.877 117.007 121.187 117.41C118.582 118.031 116.249 118.55 113.57 118.782C111.957 118.921 110.358 119.116 108.77 119.443C108.199 119.561 106.875 119.648 106.468 120.202C105.998 120.844 106.028 122.161 106.077 122.896C106.178 124.433 107.428 124.891 108.795 125.149C114.247 126.175 120.476 125.241 125.864 124.414C129.305 123.886 132.741 123.212 136.223 123.018C137.014 122.974 138.688 122.669 139.456 123.116C140.331 123.627 141.496 125.355 141.733 126.324C142.277 128.543 139.025 128.62 137.57 128.896C137.374 128.933 134.276 129.197 134.215 129.545C133.985 130.846 135.156 132.536 135.586 133.72C135.795 134.293 136.199 134.21 136.737 134.21C138.417 134.21 139.438 132.554 140.105 131.198C140.328 130.744 141.897 126.593 140.827 126.447C139.072 126.208 137.728 129.425 137.619 130.757C137.616 130.797 137.684 132.181 137.423 131.712C136.937 130.838 136.692 129.847 136.211 128.969C135.824 128.263 135.391 129.657 135.391 130.022" stroke="black" stroke-opacity="0.25" stroke-width="16" stroke-linecap="round"/>
<path d="M95.1221 101.217C95.1221 96.9787 94.6915 92.5074 95.5446 88.3368C95.8373 86.9058 95.894 85.4433 96.1548 84.0089C96.5072 82.0711 96.8277 80.1841 96.9434 78.2165C97.0295 76.7532 97.1326 75.4469 97.4504 74.0107C97.8254 72.3156 97.6569 70.4804 97.6569 68.7534C97.6569 65.1234 97.6569 61.4934 97.6569 57.8633C97.6569 55.864 97.6995 53.8835 97.3565 51.9113C96.7851 48.6257 96.8194 45.0973 95.8732 41.9037C95.4493 40.4733 95.5751 38.6965 95.4226 37.2097C95.3216 36.2252 95.0973 34.1244 94.3523 33.3794C94.0671 33.0942 93.2304 33.0155 92.8409 32.8631C91.6539 32.3986 90.5865 32.3706 89.3391 32.1965C86.47 31.7962 83.4863 31.4781 80.6646 30.8447C78.5491 30.3698 76.2362 30.5818 74.0836 30.5818C72.1608 30.5818 70.2895 30.4439 68.4226 30.9573C66.8801 31.3815 66.406 32.7414 65.8691 34.0835C65.275 35.5689 64.7597 37.1082 64.4609 38.6836C64.2191 39.9586 64.2285 41.2761 63.954 42.5421C62.9445 47.1969 63.1841 52.0213 63.1841 56.7649C63.1841 58.6984 63.4548 60.4298 63.8601 62.3133C64.3278 64.4868 65.4985 66.4484 66.3103 68.5093C67.4137 71.3102 68.1045 74.1662 69.2676 76.921C70.1438 78.9962 72.014 81.0927 73.755 82.4693C75.3359 83.7193 76.7504 85.0431 78.4303 86.1776C79.3155 86.7754 80.1151 87.4658 81.0777 87.9425C82.149 88.4731 83.2916 88.6926 84.3072 89.3132C86.6163 90.7243 86.8736 86.7336 87.0203 85.389C87.1907 83.8267 87.4988 82.3158 87.6024 80.7419C87.7627 78.3049 87.6868 75.8509 87.6868 73.4099C87.6868 68.5672 88.0194 63.5855 87.6681 58.7552C87.4193 55.3344 86.1225 52.059 85.2084 48.7945C84.9289 47.7962 84.3932 46.864 83.9692 45.9218C83.492 44.8614 83.0659 43.6368 82.3732 42.6923C82.0566 42.2606 81.2641 42.2102 80.796 42.0633C80.3461 41.9222 78.2303 40.8282 77.8482 41.1339C77.076 41.7517 77.1411 44.168 77.0408 45.0205C76.7012 47.9077 76.1959 50.8145 76.1959 53.7232C76.1959 57.5567 76.1959 61.3901 76.1959 65.2235C76.1959 68.213 75.7731 71.5285 77.4915 74.1609C79.5172 77.2641 83.3127 77.24 86.5697 77.8974C88.3777 78.2623 90.5314 78.3949 91.9021 79.7656C93.1145 80.978 94.0507 82.4172 95.0846 83.7742C96.2758 85.3377 96.7144 87.2591 97.5818 88.994C97.964 89.7583 98.6153 90.3944 99.4782 90.5336C100.422 90.6859 101.455 90.5712 102.407 90.5712C102.928 90.5712 103.656 90.6561 103.984 90.1393C104.996 88.5502 104.639 86.3242 105.543 84.6192C106.497 82.8192 108.523 82.2909 110.434 82.2909C112.139 82.2909 119.86 83.9572 116.133 86.5531C115.113 87.2632 113.835 87.6546 112.865 88.4119C112.541 88.6657 112.766 88.7043 113.091 88.6372C114.274 88.3924 115.44 87.8813 116.546 87.4074C118.898 86.3994 120.999 84.9458 123.267 83.8118C124.917 82.9872 126.278 82.4377 126.647 80.5072C127.346 76.8468 126.891 72.754 126.891 69.0539C126.891 64.0563 126.891 59.0588 126.891 54.0612C126.891 52.2044 126.956 50.3857 127.239 48.5504C127.648 45.8865 127.736 43.3678 127.736 40.6645C127.736 38.9772 127.64 37.233 127.116 35.6138C126.763 34.5208 126.37 32.578 125.295 31.8961C124.359 31.3023 123.031 31.4267 121.972 31.4267C120.658 31.4267 119.343 31.4267 118.029 31.4267C115.547 31.4267 113.066 31.4267 110.584 31.4267C110.061 31.4267 104.57 31.1079 104.454 31.3704C104.317 31.678 104.779 32.3074 104.886 32.5533C105.265 33.425 105.589 34.3552 105.824 35.2758C106.219 36.8161 106.106 38.4321 106.106 40.0074C106.106 41.8571 106.299 43.7845 106.529 45.6214C106.785 47.671 107.582 49.7949 107.627 51.8362C107.655 53.1062 108.2 54.3334 108.641 55.4976C109.444 57.6193 110.177 59.9587 110.425 62.2194C110.612 63.9289 111.034 65.594 111.251 67.2983C111.408 68.5301 111.488 69.6573 111.776 70.8751C111.917 71.4673 112.146 71.8107 112.734 72.0768C114.219 72.7479 114.174 71.1582 114.292 69.9739C114.743 65.4686 114.555 60.8865 114.555 56.3613C114.555 52.7482 114.837 49.3081 115.475 45.7528C115.643 44.8215 115.569 43.8611 115.569 42.9176" stroke="black" stroke-opacity="0.45" stroke-width="16" stroke-linecap="round"/>
<line x1="36" y1="84" x2="57" y2="84" stroke="black" stroke-width="12"/>
<line x1="136" y1="84" x2="157" y2="84" stroke="black" stroke-width="12"/>
</svg>
