<svg width="192" height="192" viewBox="0 0 192 192" fill="none" xmlns="http://www.w3.org/2000/svg">
<path d="M73.6788 27C51.5871 34.1409 34.1403 51.5878 27 73.68M165 73.678C157.862 51.5946 140.423 34.1534 118.327 27.0078M27.0078 118.324C34.1528 140.422 51.5945 157.861 73.6788 165M118.327 164.992C140.416 157.849 157.849 140.415 164.992 118.326M96 21.9985C116.445 88.5151 103.505 75.5742 170.001 96C103.505 116.445 116.445 103.505 96 170.001C75.5743 103.505 88.5152 116.445 21.9986 96C88.5152 75.5742 75.5743 88.5151 96 21.9985Z" stroke="black" stroke-width="12" stroke-linecap="round" stroke-linejoin="round"/>
<path d="M43.7038 96.3959C47.4639 96.9634 51.8591 96.9211 55.6424 96.35C59.1885 95.8148 62.3441 94.7983 65.6104 93.2565C69.6946 91.3286 74.4077 89.5944 77.7438 86.4966C79.2785 85.0716 80.5165 83.5181 81.7425 81.822C85.1429 77.1173 88.2342 72.3266 91.1376 67.3169C92.099 65.6579 92.6966 63.9812 92.8905 62.0808C93.1383 59.6529 93.7159 57.2901 93.979 54.8741C94.3117 51.8193 95.2622 48.8963 95.2622 45.7998C95.2622 43.9857 95.2622 49.428 95.2622 51.2421C95.2622 53.6963 95.7532 55.8239 96.2476 58.1968C96.4692 59.2606 96.8108 60.2307 97.1298 61.2673C97.654 62.9709 97.9387 64.928 98.6078 66.5607C100.23 70.5193 100.679 74.9257 103.42 78.4077C105.662 81.2554 108.626 83.5695 111.646 85.5113C112.025 85.7546 112.818 86.4896 113.273 86.531C113.722 86.5718 112.473 82.7989 112.425 82.6698C111.537 80.274 110.522 77.9622 109.424 75.6579C108.833 74.4187 108.543 73.0182 107.728 71.8999C105.462 68.7918 103.732 78.7689 103.718 79.8055C103.713 80.18 103.577 80.9283 103.798 81.2606C104.71 82.6286 107.578 83.2244 108.954 83.9302C111.596 85.2857 114.105 86.9423 116.711 88.3069C119.242 89.6329 121.992 90.7141 124.433 92.2712C127.579 94.2784 131.663 95.0816 135.317 95.4105C138.701 95.715 141.968 96.2985 145.377 96.3959C146.926 96.4401 143.342 97.2657 143.051 97.3239C141.26 97.6822 139.638 98.4437 137.792 98.6186C133.46 99.029 129.047 99.512 124.845 100.773C120.684 102.021 117.024 104.012 113.25 106.135C109.367 108.319 107.622 111.56 106.078 115.576C105.396 117.348 105.34 119.434 104.829 121.281C104.178 123.635 103.432 126.112 102.595 128.408C101.921 130.257 101.001 132.129 100.2 133.93C99.4806 135.55 98.762 137.173 98.0349 138.788C97.658 139.626 97.8596 140.703 97.6225 141.584C97.4926 142.067 96.7479 144.458 96.66 144.15C96.2997 142.889 95.9739 141.587 95.5716 140.335C95.1863 139.136 94.1646 138.179 93.8644 136.978C93.6412 136.085 93.1843 135.227 93.0051 134.331C92.8974 133.793 92.8074 133.242 92.7874 132.693C92.7687 132.178 92.4119 131.074 92.7187 132.212C93.5999 135.48 94.7891 138.457 95.9955 141.607C96.3912 142.64 96.1639 143.712 96.3049 144.769C96.4045 145.516 96.7774 148.064 96.3622 145.732C95.9081 143.182 95.0569 140.629 94.3227 138.147C93.5905 135.671 93.0661 132.964 91.9625 130.631C90.6888 127.938 89.8067 125.143 88.5482 122.427C87.6521 120.494 86.2865 118.785 85.2484 116.916C84.6086 115.764 83.5732 114.498 82.682 113.513C82.082 112.85 81.7131 111.872 81.2269 111.119C80.5518 110.072 79.8271 108.838 79.3364 107.693C78.869 106.602 77.8875 105.545 77.022 104.748C75.7324 103.562 74.485 102.506 72.8973 101.712C69.8899 100.208 66.6654 98.7523 63.4793 97.6676C62.3192 97.2727 61.2305 97.4641 60.1337 98.0457C59.2058 98.5378 58.3672 98.8842 57.3381 99.1686C56.759 99.3286 54.7587 99.9595 56.5246 99.4779C59.5126 98.663 62.5083 97.8143 65.5187 97.0833C69.7586 96.0538 73.9121 94.7233 78.1448 93.7034C81.8943 92.7999 85.6975 91.962 89.3502 90.713C94.1917 89.0575 99.3129 88.4162 104.371 87.7684C108.606 87.226 113.234 86.6423 117.238 88.4215C118.423 88.9484 121.234 89.7821 121.821 91.114C122.79 93.3139 122.382 96.3214 120.469 97.828C118.208 99.6077 115.291 100.494 112.7 101.666C111.036 102.419 109.689 103.417 108.163 104.37C107.183 104.983 109.905 102.848 110.799 102.113C112.392 100.803 113.91 99.365 115.576 98.1488C116.62 97.3872 117.366 96.8273 116.917 95.4793C116.185 93.2832 114.04 92.1727 112.231 90.9536C110.674 89.9048 109.008 89.0817 107.453 88.0319C105.612 86.789 104.013 85.1074 102.171 83.8156C101.116 83.0758 99.8062 82.3481 99.0203 81.2949C98.4992 80.5967 98.1713 79.6946 97.737 78.9347C96.9247 77.5131 96.1544 76.0197 95.2622 74.6496C94.714 73.8077 93.6659 72.252 93.6124 71.2353C93.6078 71.1482 93.5791 70.6426 93.6467 70.8343C94.1294 72.2018 94.5653 73.562 95.182 74.8788C96.435 77.5541 97.4171 80.3375 98.6078 83.0365C99.6569 85.4144 100.711 87.7427 101.335 90.2776C102.013 93.0343 103.622 95.6648 104.909 98.1832C105.558 99.4521 106.287 101.088 107.224 102.159C108.744 103.896 109.829 98.2443 109.951 97.4958C110.116 96.4824 110.642 94.9719 109.836 94.1158C108.78 92.9941 107.26 92.1859 105.986 91.3431C103.018 89.3787 100.998 87.3861 99.1578 84.3197C97.6962 81.8838 95.6043 78.6272 95.4799 75.7037C95.4077 74.0069 95.4009 72.2461 95.6747 70.5708C95.863 69.419 96.0238 68.2665 96.0757 67.0992C96.1365 65.731 95.8296 66.9959 95.4914 67.6377C93.7467 70.948 91.3859 73.8861 89.5564 77.1474C87.965 79.9842 86.5098 82.8777 85.0422 85.7863C84.0491 87.7545 82.9741 89.6784 81.9487 91.6296C81.5336 92.4195 80.6528 94.4289 82.2237 92.6149C84.8152 89.6223 87.1366 86.3768 89.5679 83.2542C90.1729 82.4772 92.3204 80.537 92.4437 79.4274C92.5602 78.3789 91.674 81.393 91.3438 82.3949C90.0112 86.4375 88.4456 90.3104 86.5546 94.1273C85.3255 96.6081 84.0441 99.3605 82.1549 101.449C81.7747 101.869 80.2424 104.16 79.703 104.187C79.2021 104.212 78.8556 102.15 78.7979 101.838C78.4438 99.92 78.8237 97.7872 79.6228 96.0292C81.5099 91.8776 86.2054 90.2441 90.6105 90.8734C93.1545 91.2368 95.6493 92.5467 97.9891 93.5315C98.7354 93.8456 102.775 95.1312 99.891 95.1585C97.2282 95.1836 94.6826 95.1723 92.1458 96.0636C90.0802 96.7893 87.8601 97.1739 85.913 98.2061C85.7789 98.2772 84.4227 98.9299 84.5152 99.1456C84.6087 99.364 86.8891 98.8093 87.1275 98.779C91.0128 98.2845 95.1731 98.6644 99.1005 98.6644C101.052 98.6644 103.004 98.6483 104.955 98.6644C105.558 98.6694 106.219 98.7029 105.31 99.0769C104.276 99.5027 103.087 99.6952 102.011 100.005C100.423 100.462 98.7985 100.553 97.1642 100.727C95.123 100.944 93.1106 101.394 91.0917 101.758C89.0637 102.123 83.2019 104.14 85.1568 103.488C88.6398 102.327 92.6113 101.993 96.2476 101.964C97.9927 101.95 100.443 101.523 102.183 101.987C104.057 102.487 105.981 104.073 103.386 105.161C100.414 106.407 96.932 106.546 93.7728 107.028C91.3719 107.395 88.9288 107.326 86.5088 107.326C85.217 107.326 87.7374 108.385 88.0441 108.609C89.637 109.777 90.6429 111.103 91.5271 112.872C92.0892 113.996 92.3519 115.216 92.6729 116.423C93.4211 119.24 94.2103 122.035 94.8498 124.879C95.143 126.183 95.3385 127.486 95.583 128.797C95.9756 130.903 97.6936 127.544 98.0693 126.941C100.274 123.408 101.179 120.489 101.701 116.401C101.919 114.698 102.339 113.003 102.458 111.291C102.486 110.877 102.749 109.025 102.331 108.736C101.658 108.269 97.7937 110.973 97.3704 111.657C97.085 112.118 97.1948 113.185 97.1183 113.697C96.9599 114.756 96.9121 115.737 96.9121 116.813" stroke="black" stroke-opacity="0.2" stroke-width="8" stroke-linecap="round"/>
</svg>
