<svg width="192" height="192" viewBox="0 0 192 192" fill="none" xmlns="http://www.w3.org/2000/svg">
<path d="M87 15C108.483 15 129.085 23.5339 144.276 38.7243C159.466 53.9148 168 74.5175 168 96C168 117.483 159.466 138.085 144.276 153.276C129.085 168.466 108.483 177 87 177C65.5175 177 44.9148 168.466 29.7243 153.276C14.5339 138.085 6 117.483 6 96C6 74.5175 14.5339 53.9148 29.7243 38.7243C44.9148 23.5339 65.5175 15 87 15V15ZM87 28.23C49.7805 28.23 19.5 58.5105 19.5 96C19.4826 110.249 23.9567 124.14 32.2865 135.701C40.6162 147.261 52.3778 155.902 65.8995 160.395C66.1011 160.425 66.3037 160.448 66.507 160.462C69.2475 160.597 70.2735 158.721 70.2735 157.087L70.179 145.558C51.414 149.649 47.445 136.459 47.445 136.459C44.3805 128.629 39.9525 126.55 39.9525 126.55C33.8235 122.338 40.4115 122.419 40.4115 122.419C45.339 122.771 48.5655 126.308 49.9695 128.225L50.7525 129.413C56.7735 139.767 66.5475 136.783 70.395 135.055C71.016 130.668 72.744 127.684 74.6745 125.983C59.6895 124.269 43.935 118.451 43.935 92.4765C43.935 85.0785 46.5675 79.0305 50.8875 74.2785L50.4825 73.131C49.6185 70.3905 48.4305 64.248 51.549 56.337L52.089 56.2425C53.763 56.0265 59.487 56.067 70.1115 63.2895C75.6151 61.7842 81.2943 61.0169 87 61.008C92.7375 61.035 98.5155 61.791 103.902 63.303C116.794 54.528 122.451 56.337 122.451 56.337C126.123 65.679 123.801 72.564 123.126 74.292C127.446 79.017 130.051 85.0785 130.051 92.4765C130.051 118.531 114.27 124.256 99.231 125.929C101.661 128.022 103.821 132.167 103.821 138.485L103.74 157.087C103.74 158.842 104.888 160.895 108.101 160.395C121.622 155.902 133.384 147.261 141.714 135.701C150.043 124.14 154.517 110.249 154.5 96C154.5 58.5105 124.219 28.23 87 28.23Z" fill="black"/>
<path d="M65.8592 160.019C65.8592 153.941 66.4087 147.872 67.408 141.876C68.2044 137.098 69.6621 132.531 70.2163 127.682C70.5307 124.93 68.5229 129.436 68.2931 129.962C66.7526 133.489 65.5238 137.142 63.5105 140.446C61.4854 143.77 59.4066 147.225 56.3623 149.535C55.6011 150.112 53.521 151.721 52.4988 151.407C51.5421 151.113 50.6391 149.863 49.9969 149.211C48.49 147.682 46.9509 146.253 45.2654 144.922C41.4436 141.905 37.6782 138.271 34.2367 134.83C31.0468 131.64 30.0783 128.237 28.6372 124.141C26.962 119.38 26.1527 114.295 25.7779 109.283C25.142 100.778 24.7138 91.6054 25.7439 83.107C27.193 71.1517 35.0079 61.1219 43.9379 53.5439C48.1655 49.9563 52.9909 47.2574 57.3834 43.9107C60.2557 41.7224 62.945 39.5388 66.1316 37.8007C72.1916 34.4952 79.5733 33.8196 86.385 34.6861C89.9502 35.1396 93.4301 36.1269 96.9712 36.7284C99.9192 37.2292 102.899 37.444 105.787 38.2602C110.017 39.4556 114.245 40.8076 117.837 43.3661C123.824 47.6292 129.843 50.9027 134.483 56.8457C137.432 60.6232 139.814 64.7178 141.954 68.9977C143.832 72.7532 146.251 76.3388 147.06 80.52C147.294 81.7297 147.826 82.815 148.03 84.0431C148.301 85.665 148.351 87.3057 148.507 88.9448C148.752 91.519 149.413 93.9637 149.477 96.5696C149.558 99.8853 149.494 103.21 149.494 106.526C149.494 110.05 150.033 114.097 149.426 117.606C149.051 119.772 147.417 122.223 146.277 124.056C144.38 127.109 142.521 130.17 139.997 132.753C136.456 136.378 132.643 139.65 128.832 142.999C126.172 145.337 123.8 148.049 121.003 150.216C118.293 152.315 115.535 154.291 112.799 156.343C111.729 157.146 109.411 158.035 108.17 157.415C107.487 157.073 107.274 156.892 107.013 156.172C105.619 152.328 103.882 148.691 102.758 144.735C101.373 139.861 101.152 134.636 100.341 129.656C99.9404 127.195 101.812 130.942 102.145 131.528C103.414 133.761 104.178 136.254 105.379 138.523C105.82 139.356 108.344 144 109.327 142.591C112.285 138.354 114.415 133.585 117.361 129.349C119.993 125.566 123.572 122.53 125.905 118.559C125.966 118.455 126.8 117.415 126.688 117.266C126.476 116.984 123.185 118.848 123.079 118.899C117.292 121.735 111.869 125.249 106.23 128.362C104.817 129.143 103.344 129.887 101.89 130.592C99.805 131.603 102.43 131.198 103.422 131.239C105.83 131.337 107.321 132.42 109.396 133.468C111.807 134.687 114.529 135.558 117.122 136.293C125.405 138.642 132.544 129.086 134.414 122.167C137.296 111.504 136.404 100.137 136.321 89.1831C136.285 84.4994 135.014 80.1566 133.546 75.7545C132.784 73.4667 131.956 71.397 130.653 69.3551C129.151 67 127.527 66.0645 125.292 64.5556C122.577 62.7234 119.983 60.5984 117.054 59.0923C115.409 58.2459 113.303 57.5595 111.829 56.4542C105.446 51.6668 97.1984 50.0378 89.3123 50.0378C84.405 50.0378 79.4977 50.0378 74.5903 50.0378C71.0288 50.0378 60.8165 53.505 64.1232 52.1823C71.6172 49.1847 80.1295 47.4267 87.9848 45.7489C88.9401 45.5448 91.4848 45.3295 92.2568 44.5575C92.5331 44.2812 91.4896 44.3919 91.0994 44.3703C89.2884 44.2697 87.9583 44.2346 86.0786 44.3362C82.1394 44.5492 78.5236 45.3053 75.1179 47.3487C72.0524 49.1881 69.2438 51.4943 66.3188 53.5439C62.0198 56.5561 55.6534 59.3632 52.7541 64.062C52.6357 64.254 52.2727 64.7234 52.7881 64.6237C55.1664 64.1634 57.5325 63.0204 59.8343 62.292C66.407 60.212 73.4279 58.1964 80.2749 57.2542C84.7053 56.6445 89.6274 55.5831 94.1119 55.9947C99.7001 56.5076 105.246 59.1388 109.94 62.0877C116.927 66.4774 121.303 75.089 123.709 82.7326C126.154 90.4982 124.318 98.4692 125.905 106.305C126.202 107.774 126.415 109.253 126.671 110.73C126.786 111.396 127.545 113.065 127.215 113.742C126.052 116.133 122.464 117.718 120.254 118.712C116.632 120.342 112.807 121.412 108.919 122.167C96.7813 124.525 86.1139 130.515 74.4372 134.285C69.8312 135.772 64.8191 136.684 59.9704 136.736C57.4811 136.763 53.9793 137.383 51.5627 136.532C48.4654 135.441 45.5551 133.455 42.6785 131.885C39.9634 130.404 38.2718 127.689 36.9599 124.958C32.2969 115.254 33.6273 103.673 36.1429 93.5741C37.5801 87.8046 38.3592 81.9615 40.1255 76.2651C40.9435 73.6272 41.7746 70.9876 43.0359 68.5212C43.6346 67.3503 44.3942 65.4836 45.4356 64.6067C46.8123 63.4474 49.7686 70.8957 49.9629 71.3635C51.958 76.1679 50.7769 80.627 49.5033 85.4898C47.4559 93.3073 47.1717 100.941 47.1717 108.96C47.1717 112.375 47.3467 116.671 49.0268 119.716C50.2775 121.983 52.8885 125.562 55.6134 125.946C58.9757 126.419 62.4682 126.32 65.8592 126.32" stroke="black" stroke-opacity="0.25" stroke-width="15" stroke-linecap="round"/>
</svg>
