<svg width="192" height="192" viewBox="0 0 192 192" fill="none" xmlns="http://www.w3.org/2000/svg">
<path d="M22 54.8969V144.219C22 150.041 26.8402 154.76 32.8108 154.76H58.7568V94.7339L102 126.651L145.243 94.7339V154.76H171.189C177.16 154.76 182 150.041 182 144.219V54.8969C182 40.9473 165.622 33.0279 154.234 41.471L102 80.1962L49.7666 41.471C38.3783 33.0279 22 40.9473 22 54.8969Z" stroke="black" stroke-width="14" stroke-linejoin="round"/>
<path d="M40.8268 54.6235C45.0703 57.211 46.4175 62.8966 49.8577 66.5279C51.3973 68.153 53.5583 70.9223 54.6013 72.9134C56.0373 75.6549 60.0244 76.6252 62.1727 78.6604C63.8235 80.2243 67.214 81.8922 69.3108 82.5373C71.9394 83.3461 74.1236 85.5594 76.6313 86.6423C81.9373 88.9335 85.6901 93.4423 90.6795 96.0838C93.6946 97.68 97.3058 103.649 100.759 101.922C102.986 100.809 105.734 100.123 107.761 98.7292C110.338 96.957 112.656 94.8233 115.218 93.2103C118.569 91.1001 121.536 88.1871 124.956 86.0494C127.978 84.1608 131 82.3273 133.827 80.1656C138.88 76.3016 142.671 70.7913 147.944 67.1665C150.583 65.3518 152.912 63.2945 155.903 62.0124C157.798 61.2004 159.112 59.2575 160.875 58.1355C163.44 56.503 163.155 58.6354 163.155 60.6897C163.155 64.5286 163.155 68.3675 163.155 72.2065C163.155 82.2104 163.155 92.2144 163.155 102.218C163.155 106.81 163.155 111.401 163.155 115.993C163.155 119.121 160.462 110.256 159.962 107.167C159.56 104.682 158.64 102.521 158.64 99.9835C158.64 98.9722 158.248 97.4823 158.001 96.4943C157.756 95.5123 157.277 94.669 156.77 93.8032C156.533 93.3992 156.843 96.33 156.906 96.8135C157.539 101.667 158.229 106.789 158.229 111.683C158.229 117.293 158.229 122.903 158.229 128.513C158.229 129.657 159.011 130.449 159.05 131.478C159.099 132.736 159.05 134.004 159.05 135.263C159.05 135.979 158.866 136.834 159.689 137.134C160.576 137.456 161.899 138.941 161.924 137.863C162.105 130.053 158.647 122.461 157.727 114.647C156.528 104.449 152.987 94.619 150.338 84.8179C149.671 82.3469 149.749 78.8428 146.553 78.8428C144.066 78.8428 140.886 79.9767 138.616 80.8953C136.124 81.9042 134.075 84.278 131.547 85.0003C130.609 85.2684 129.961 86.176 129.289 86.8476C128.225 87.9118 126.832 88.5733 125.389 89.0141C123.057 89.7269 120.791 91.8111 118.616 92.9822C117.786 93.4291 116.649 93.6285 115.743 94.0313C114.332 94.6584 113.168 95.7058 111.843 96.403C110.881 96.9091 109.491 96.4873 108.468 97.0872C107.351 97.7419 106.367 97.7963 105.092 98.1362C102.481 98.8327 100.014 99.0285 97.4755 100.098C95.9393 100.744 93.1935 100.189 91.5233 100.189C88.8638 100.189 85.9086 97.6528 84.1343 95.8785C81.9809 93.7251 80.1878 91.0604 77.7716 89.1965C76.7026 88.3718 75.863 87.5721 74.5788 87.144C73.4132 86.7555 72.6494 85.7066 71.6141 85.4108C69.4964 84.8058 65.8226 82.9033 64.2252 81.3058C62.7814 79.8621 60.6139 79.3366 59.0939 77.8166C57.2602 75.9829 54.3157 75.1292 51.9102 74.3274C50.4484 73.8401 49.3474 73.5064 47.8052 73.5064C46.801 73.5064 45.4554 73.7454 44.5213 73.2783C42.9994 72.5174 41.16 70.6275 40.2338 69.1961C38.0248 65.7822 40.2393 71.324 40.5075 72.7766C41.1259 76.1262 42.0583 79.1737 42.0583 82.5601C42.0583 92.4121 42.0583 102.264 42.0583 112.116C42.0583 114.237 41.6478 116.28 41.6478 118.342C41.6478 119.586 41.3038 120.714 41.2373 121.945C41.1817 122.974 41.1229 124.928 40.7812 125.868C39.3006 129.939 40.8268 133.8 40.8268 137.955" stroke="black" stroke-opacity="0.2" stroke-width="30" stroke-linecap="round"/>
</svg>
