<svg width="192" height="192" viewBox="0 0 192 192" fill="none" xmlns="http://www.w3.org/2000/svg">
<line x1="119.637" y1="167.248" x2="109.651" y2="139.856" stroke="black" stroke-width="5"/>
<path d="M101.458 14C56.5096 14 20 49.856 20 94C20 138.144 56.5096 174 101.458 174C136.584 174 158.028 158.13 169.193 138.457C180.357 118.783 181.768 95.6712 178.379 79.8696L177.715 77.1522H174.948L101.458 77.0435H97.9167V113.239H138.424C132.31 127.152 119.858 136.717 101.458 136.717C77.4137 136.717 57.9622 117.614 57.9622 94C57.9622 70.3859 77.4137 51.2826 101.458 51.2826C112.263 51.2826 122.072 55.2092 129.681 61.6087L132.227 63.6739L156.465 39.8696L159.01 37.2609L156.354 34.8696C141.883 21.9212 122.57 14 101.458 14ZM101.458 20.9565C119.43 20.9565 135.644 27.4103 148.496 37.8043L131.452 54.5435C123.027 48.3614 112.789 44.3261 101.458 44.3261C73.5815 44.3261 50.8789 66.6223 50.8789 94C50.8789 121.378 73.5815 143.674 101.458 143.674C124.659 143.674 141.344 129.707 147.279 110.739L148.717 106.283H105V84L171.738 84.1087C174.09 98.144 172.527 118.293 162.995 135.087C152.868 152.913 134.468 167.043 101.458 167.043C60.328 167.043 27.0833 134.38 27.0833 94C27.0833 53.6196 60.328 20.9565 101.458 20.9565Z" fill="black"/>
<line x1="42.2862" y1="46.8563" x2="67.2862" y2="61.8563" stroke="black" stroke-width="5"/>
<line x1="27.7259" y1="116.19" x2="56.2001" y2="109.927" stroke="black" stroke-width="5"/>
<path d="M41.5 54C39.4338 58.2185 37.6946 62.4996 35.75 66.7778C34.8921 68.6651 34.2562 70.9389 33.25 72.75C32.3539 74.363 31.6928 76.8745 30.5 78.2778C29.8659 79.0237 28.9014 79.7603 28.5278 80.6945C27.964 82.104 28.7319 77.5909 29.3889 76.2222C30.663 73.5679 32.0814 71.2049 33.5 68.7222C35.3737 65.4433 35.8137 59.506 38.75 57.2222C40.2021 56.0928 40.9452 54.1103 42.25 52.8056C44.2845 50.771 42.279 54.1236 41.5 55C39.7349 56.9858 38.1243 59.1563 36.3889 61.2222C35.3286 62.4845 34.4663 63.9744 33.25 65.0556C32.2691 65.9275 31.2447 68.8037 32.3611 65.1111C33.388 61.7145 35.5922 58.9176 37 55.75C37.6922 54.1927 40.194 53.0838 41.3889 51.8889C45.2409 48.0369 50.5999 53.6 53.6111 56.6111C55.0058 58.0059 57.214 59.4959 59 60.3889C59.9688 60.8733 62 60.79 62 62.25C62 65.4316 57.1695 66.8875 54.5 68.2222C50.0416 70.4515 48.6832 76.2308 45.5 79.7778C44.5544 80.8314 43.81 81.9933 43.0278 83.1667C42.699 83.6598 43 81.9816 43 81.3889C43 79.4307 43.0365 77.5232 43.5 75.6111C44.6694 70.7871 44.1096 65.512 45.25 60.7222C45.4285 59.9724 47.3935 54.082 46 54C42.0629 53.7684 43.5 57.0719 43.5 60.4445C43.5 66.2553 42.5751 71.0144 40.2778 76.4445C39.6601 77.9045 39.061 79.3446 38.1111 80.6111C37.9449 80.8327 38 74.627 38 73C38 69.2466 38.9056 66.1072 40.1111 62.6111C42.473 55.7617 42.288 64.2441 41.9444 67.25C41.5867 70.3799 39.5776 73.409 37.6111 75.7778C37.237 76.2284 35 79.2574 35 77.6389C35 74.1421 35.4501 71.3813 37.6111 68.5C39.1091 66.5027 41.2258 64.9623 42.3889 62.7222C43.5136 60.5561 43.7617 58.3718 44.25 56.0278C45.3929 50.5417 43.3232 57.4651 42.5833 59.2222C42.2069 60.1163 41.5816 61.6962 40.8889 62.3889C39.7869 63.4909 40 58.7518 40 58.3889C40 54.8914 40.3531 54.6342 44.1111 54.5C46.5805 54.4118 48.9458 54 51.4722 54C54.6591 54 55.2928 55.4975 56.75 58.25C57.2139 59.1262 57.8886 60.4976 58 61.5C58.2754 63.9791 55.4858 63.025 53.1111 63C52.4713 62.9933 50.3631 63.2166 49.8333 62.6111C49.0525 61.7188 52.2031 62.5 53.3889 62.5C53.6786 62.5 57.1897 63.2548 57.0555 63.3889C55.8416 64.6028 49.836 60.4668 48.5833 59.7778C48.2248 59.5806 46.141 57.6537 46.8333 57.5278C49.6414 57.0172 51.8139 60.8412 53.8889 62.2778C54.718 62.8518 56.0103 63.3309 57 63.4722C59.0482 63.7649 57.0431 62.9876 56.0555 62C53.8096 59.7541 51.1834 58.5317 48.5278 56.8056C47.1622 55.918 45.9698 54.9058 44.6111 54C43.3791 53.1787 42.6921 51.8236 44.8889 52.7222C47.7343 53.8863 51.2755 56.3868 53.5 58.5C54.4344 59.3877 55.4997 60.1491 56.4722 61C57.1305 61.576 59.1653 62.6922 59.5 63.2778C59.7786 63.7654 62.9772 65 61.25 65C58.0555 65 54.8611 65 51.6667 65C47.1541 65 45.0877 61.8758 43 58.2222C42.4829 57.3173 41.7284 57.1475 41 56.5C39.1303 54.8381 43.3169 57.515 43.7778 57.8889C48.4174 61.6531 53.1354 65.1331 57.75 68.7222C60.9522 71.2128 53.6079 69.223 52.5555 68.7778C49.4195 67.451 45.7783 65.9541 42.5 65.1111C40.9022 64.7003 34.6067 63.5 39.3889 63.5C41.8948 63.5 44.0494 64.123 46.5 64.5C48.7692 64.8491 51.2247 64.6317 53.25 65.7222C54.0462 66.1509 55.6249 66.3781 55.8889 67.5C56.0478 68.1755 52.678 68 52 68C48.599 68 45.0211 67.5 41.4722 67.5C39.0208 67.5 32.0879 66.3305 30.5 68.8889C28.8406 71.5624 27.125 77.1376 27 80.3889C26.8602 84.0234 26.8653 87.7533 27 91.3889C27.1044 94.2085 28.655 97.1448 28.9722 100C29.4327 104.145 29.5 108.271 29.5 112.5C29.5 120.803 30.5 95.9141 30.5 87.6111C30.5 84.1482 30.5 80.6852 30.5 77.2222C30.5 73.713 30.5 84.2408 30.5 87.75C30.5 95.8334 30.5 103.917 30.5 112C30.5 112.371 30.5108 113.823 30.4722 113.611C29.8729 110.315 29.5446 106.849 29.5 103.5C29.4437 99.2756 29.2162 95.4734 28.75 91.2778C28.3012 87.2383 26.9386 82.6812 27.5 78.6111C28.0003 74.9841 34.2348 74.5 36.9722 74.5C42.8885 74.5 48.3356 68.2736 54.3889 69C56.5794 69.2629 54.5284 82.4072 53.8889 84.5C53.0519 87.2393 50.4967 89.3928 49.9722 92.2778C49.3458 95.7228 49.5 99.1998 49.5 102.722C49.5 104.058 48.963 106.47 50.1111 107.389C52.5626 109.35 52 103.75 52 102.75C52 101.723 51.087 101.179 50.8889 100.167C50.1167 96.2202 50.5 91.9987 50.5 88C50.5 82.5504 50.3122 77.0578 50.5 71.6111C50.5377 70.5163 51.2268 69.331 51.5278 68.2778C51.6191 67.9582 52.5 71.2313 52.5 71.9722C52.5 76.7223 53.5 81.2602 53.5 86C53.5 88.4782 53.7226 90.6409 52.9444 86.3611C51.9294 80.7786 51.4908 75.1444 51 69.5C50.8158 67.3823 48.368 73.6746 48.3055 73.9722C47.1906 79.2897 47.5 84.6818 47.5 90.0834C47.5 96.5068 47.0968 103.061 48.4722 109.25C49.3058 113.001 48.5 101.565 48.5 97.7222C48.5 93.25 48.5 88.7778 48.5 84.3056C48.5 79.6421 48.7818 73.8288 45.5 70C44.258 68.551 44.5 69.4981 44.5 71.3611C44.5 76.0371 44.5 80.713 44.5 85.3889C44.5 91.2315 44.5 97.0741 44.5 102.917C44.5 104.954 44.5 106.991 44.5 109.028C44.5 110.011 44.5614 111.018 44.5 112C44.2099 116.642 44 102.707 44 98.0556C44 91.5 44 84.9445 44 78.3889C44 76.4637 43.9721 74.5362 44 72.6111C44.0219 71.1021 43.2926 67.2056 44.5 68.1111C45.5254 68.8802 45 73.7399 45 75C45 76.2551 44.4452 79.427 45.1111 80.3889C45.8606 81.4716 47.9835 68.7222 48.5 68.7222C48.9444 68.7222 48.5 69.6111 48.5 70.0556C48.5 72.1111 48.5 74.1667 48.5 76.2222C48.5 82.2222 48.5 88.2222 48.5 94.2222C48.5 99.0014 48.446 103.552 46.25 107.944C43.9201 112.604 38.6581 110.86 34.5 112.611C33.4839 113.039 30.2653 114.198 33.5 113.389C40.9418 111.528 39 96.6487 39 90.9445C39 86.0983 39.6144 81.2379 40 76.6111C40.5651 69.8292 41.5 90.1668 41.5 96.9722C41.5 101.389 41.5 105.806 41.5 110.222C41.5 111.644 38.9108 111 37.9444 111C36.4444 111 31.9444 111 33.4444 111C36.4157 111 39 111.423 39 108.278C39 102.654 36.8262 98.0338 36.0278 92.4445C35.1871 86.56 35.5 80.5175 35.5 74.5834C35.5 72.0249 36.7094 65.5541 40.5 66C42.6277 66.2503 39.949 73.1445 39.5278 73.75C37.4309 76.7642 34.9897 80.5621 34.6111 84.2222C33.7009 93.0211 35.8964 102.591 33.9722 111.25C33.8498 111.801 33.0279 113.64 32.5 113.889C30.7013 114.735 31 106.57 31 105.889C31 100.593 30.4006 94.72 31.2222 89.5C31.6846 86.5625 32.0925 82.8388 33.7222 80.2778C33.9493 79.921 34.9963 78.531 34.5 78.5C33.4638 78.4353 32.6007 78.2514 32.5278 79.5278C32.2864 83.7523 32.5 88.045 32.5 92.2778C32.5 95.8148 32.5 99.3519 32.5 102.889C32.5 104.632 31.4527 109 33.7778 109C35.8541 109 38.2351 109.04 40.2222 108.472C41.2106 108.19 40.4775 99.8383 40.3889 98.8334C39.9539 93.9037 39.5828 89.1936 39.5 84.2222C39.4756 82.7575 37 76.5315 37 80.7778C37 83.713 37 86.6482 37 89.5834C37 93.6282 36.271 97.7169 35.9722 101.75C35.8526 103.364 35.5 104.868 35.5 106.5C35.5 107.158 35.4388 109.244 35.1111 107.278C33.2089 95.8646 33.5 84.5212 33.5 73" stroke="black" stroke-opacity="0.5" stroke-width="4" stroke-linecap="round"/>
<path d="M145.5 37.5C136.759 39.9071 134.601 45.4871 130 52.3889C129.659 52.9005 128.601 53.938 130.056 53.0556C132.455 51.6005 134.129 49.0994 136.528 47.75C138.449 46.6692 140.338 45.5769 142.222 44.5C144.64 43.1187 145.421 41.1429 146.75 38.75C146.924 38.4359 147.486 37.9215 147.028 38.0833C143.451 39.3457 140.714 41.8273 138.056 44.4444C136.645 45.833 135.134 47.0538 133.5 48.1111C132.667 48.6502 130.808 50.6324 130.25 51.5C130.11 51.7174 128.758 52.8783 129.167 52.1111C130.525 49.5641 133.823 46.7496 136.111 45C139.044 42.7575 142.337 41.0433 145.25 38.7778C145.92 38.2565 148.826 36.3516 145.75 36.0278C138.065 35.2189 130.799 32.8229 123.278 30.8889C110.46 27.5929 96.0131 29.4059 83.1111 30.8889C78.346 31.4366 73.8638 32.3635 69.2778 33.75C66.2736 34.6583 61.4319 35.8964 59.0278 38C56.187 40.4856 51.7471 40.7384 48.2778 42C47.054 42.445 46.0756 42.9784 45 43.6111C44.3693 43.9821 43.1585 46.4211 44.5 46.5C50.4864 46.8521 56.795 46.7544 62.6111 45.3889C76.8754 42.0399 91.1811 38.4496 105.944 38.0278C117.104 37.7089 128.307 38 139.472 38C144.792 38 137.411 38 135.778 38C130.389 38 125 38 119.611 38C110.352 38 101.093 38 91.8333 38C84.6486 38 66.7343 35.8096 64.25 45.25C63.8328 46.8353 64.5767 49.0479 63.8889 50.5C63.1946 51.9656 62.5526 53.2555 61.7778 54.6944C60.4068 57.2406 60.9363 50.0686 61.1111 49C61.7376 45.1715 64.1721 41.8708 64.8889 38C65.2188 36.2183 65.5565 34.6208 66.2778 32.9722C66.5226 32.4125 68.0499 28.3034 68 30C67.8669 34.5251 64.7594 39.5368 62.7778 43.5C61.1071 46.8414 59.7782 50.0786 57.7778 53.2222C55.925 56.1337 62.0784 52.9162 62.8889 52C65.4542 49.1001 67.2828 45.4168 68.6944 41.8333C70.8344 36.4011 72.3714 29.3081 76.3889 24.8889C78.3175 22.7674 77.5 30.2127 77.5 31.4722C77.5 35.6146 77.0899 39.1538 76.2778 43.1667C75.6002 46.5147 74.3633 49.5405 73.5 52.7778C72.8216 55.3219 71.7849 54.2362 72.3333 51.8889C72.9478 49.2591 74.6737 46.1125 76.5 44.0833C79.5657 40.677 81.8986 37.0192 84.6111 33.2778C86.4488 30.743 88.6689 29.0224 90.75 26.7222C92.7409 24.5218 93.5965 23.6269 93.5 27.3889C93.409 30.9382 91.5092 35.9764 90 39.2778C88.805 41.8919 88.3871 44.948 87.1111 47.5C84.6918 52.3386 94.036 39.1774 97.2222 34.8056C100.146 30.7943 104.6 27.1269 106.972 22.7778C108.045 20.8106 109 21.4146 109 23.3889C109 26.9907 109 30.5926 109 34.1944C109 36.1667 109 38.1389 109 40.1111C109 42.3241 109 44.537 109 46.75C109 47.3193 108.669 48.7684 109.222 47.7778C111.179 44.2766 114.783 41.6986 116.972 38.2778C118.451 35.9679 119.668 33.3324 121.611 31.3889C122.814 30.1861 124.032 28.5916 125.528 27.75C125.714 27.6455 127.309 26.5014 127.389 26.6111C128.043 27.5101 127.5 30.3922 127.5 31.4722C127.5 37.4791 125.719 43.6934 122.75 48.9722C122.329 49.7211 120.491 53.3367 122.5 51.5C124.904 49.3024 128.562 48.01 131.5 46.6111C132.785 45.9994 134.855 45.2764 136.222 45.0278C140.607 44.2305 130.483 44.0022 130 44C118.73 43.9476 106.792 44.2249 95.5833 42.75C93.9738 42.5382 91.4508 42.0823 94.7778 41.2778C103.912 39.0688 113.346 37.961 122.556 36.0556C125.164 35.5159 127.768 35.1536 130.278 34.25C130.706 34.096 134.29 32.8691 132.111 32.6111C125.901 31.8756 119.293 32.5 113.056 32.5C107.652 32.5 101.858 31.9243 96.5556 33.25C95.8068 33.4372 92.1364 34.0953 95.0278 33.9722C98.845 33.8098 102.322 32.8584 105.667 31C107.56 29.9479 108.713 28.4301 110.222 27C111.665 25.6328 113.541 24.943 114.972 23.75C120.316 19.2972 103.276 31.3567 98 35.8889C93.3844 39.8536 88.4251 42.2597 83 44.9722C79.7232 46.6106 76.4003 47.936 73.2222 49.7778C72.7484 50.0524 68.9533 52.3925 68.3333 51.8611C66.1758 50.0118 79.418 40.5531 80.5 39.5C82.7695 37.291 84.851 34.9331 87 32.6111C88.9767 30.4754 91.2064 29.296 93.4167 27.5278C94.3832 26.7546 100.048 23.7539 96.8333 24.1111C90.133 24.8556 84.5709 27.5333 78.7222 30.5C73.7431 33.0256 69.2206 36.3857 64.1111 38.6667C61.198 39.9672 58.3289 40.716 55.7778 42.6111C54.0019 43.9303 52.285 44.6594 50.75 46.1944C50.2179 46.7266 48.4261 48 47.75 48C46.1505 48 45.0694 48.1066 45.6111 46C45.8329 45.1376 46.4346 44.4044 47.2222 44C49.9412 42.6038 52.3917 41.3481 54.6944 39.25C55.6177 38.4088 65.4175 29.133 65.8889 29.7222C66.0463 29.919 62.6342 33.9465 62.25 34.4722C61.5195 35.4718 57.7277 38.2834 61.3333 35.3333C65.6067 31.8369 70.2567 26.6431 75.9722 25.5C79.3275 24.8289 82.7171 24.6431 86.1111 24C90.6881 23.1328 95.1912 21.4761 99.8333 21C104.967 20.4735 110.032 20.5 115.194 20.5C117.716 20.5 120.05 20.4491 122.5 21.1111C125.151 21.8277 126.441 23.9068 128.75 24.9722C131.042 26.0302 132.959 27.3997 135 28.8889C136.51 29.9908 140.556 30.7507 141.5 32.1667C141.525 32.204 133.587 32.0921 132.611 31.8889C129.379 31.2156 126.257 30.7179 123 30.2222C115.053 29.013 107.268 28.9633 99.2222 29C94.3445 29.0223 90.1255 29.4395 85.6111 31.3889C83.799 32.1714 78.2356 34.1882 80.0278 33.3611C86.9351 30.1731 93.2381 30 100.639 30C107.063 30 113.416 29.4469 119.833 29.1111C125.154 28.8327 141.107 29.0024 135.806 28.4722C122.721 27.1638 109.163 27 96 27C88.6127 27 66.5016 28.5 73.8889 28.5C78.4606 28.5 83.0409 28.581 87.6111 28.4722C94.6819 28.3039 101.544 26.5866 108.583 26C113.262 25.6101 117.865 25.5 122.556 25.5C127.829 25.5 112.083 24.2453 106.833 23.75C103.722 23.4564 100.622 23.5 97.5 23.5C97.1057 23.5 94.2534 23.5 95.2222 23.5C99.2222 23.5 103.222 23.5 107.222 23.5C113.452 23.5 119.781 23.1545 126 23.5C127.504 23.5835 128.874 25.1595 129.722 26.25C130.461 27.1996 124.041 27.2592 122.75 26.9722C122.406 26.8957 121.629 26.1559 122.333 26.0278C123.897 25.7434 126.061 25.933 127.556 26.3333C131.242 27.3209 135.556 30.3205 137.5 33.7222C138.314 35.1472 155.586 34.8747 144.222 39.3889C138.128 41.8099 133.825 46.5811 129.056 50.9167C126.125 53.5806 130.017 54 132.5 54C135.023 54 133.571 54.143 131.778 53.9722C129.594 53.7642 130.426 48.5689 130.611 47.1667C131.211 42.6332 134.534 38.7759 138.222 36.2778C141.615 33.9795 138.567 38.3043 137.722 39.4444C135.976 41.8012 133.976 43.95 132 46.1111C131.979 46.1336 129.79 48.596 130.833 46.7778C132.789 43.3718 136.358 40.7371 139.056 37.9444C139.37 37.6192 139.691 37.2987 139.972 36.9444C140.378 36.4332 140.634 36.0147 139.667 36.4444C135.919 38.1099 132.572 41.0752 129.444 43.6667C124.168 48.0386 131.623 43.399 133.194 42.5278C134.784 41.6462 138.256 38.3544 138.111 40.1667C138.039 41.0719 135.838 42.7141 135.111 43.1667C133.508 44.165 131.616 44.924 129.944 45.7778C128.648 46.4402 125.56 48.678 123.861 48.4167C123.414 48.3479 124.049 47.4649 124.389 47.1667C125.077 46.5631 126.064 45.9275 126.833 45.4444C127.234 45.1927 128.267 45.1455 128.056 44.7222C128.038 44.6868 122.592 47.0149 122.944 45.8333C123.434 44.1902 128.408 41.7965 127.556 43.4444C127.299 43.9413 123.96 48.374 123.556 47.6667C122.934 46.5785 124.336 46.5179 124.611 46.3889C126.568 45.4715 129.056 42.391 130.417 41.0556C131.393 40.097 132.38 39.148 133.333 38.1667C135.115 36.3339 134.014 37.2318 132.667 38.2778C129.728 40.56 126.902 43.0085 123.889 45.1944C122.792 45.9902 123 45.44 123 44.5278C123 42.6554 119.74 46.295 119.528 47.25C119.073 49.2985 126.592 45.8471 126.667 45.8056C127.803 45.1729 133.985 41.3942 132.389 39C131.616 37.8401 127.778 38.5457 126.778 38.7222C125.256 38.9907 123.605 39.4767 122.556 40.6944C122.464 40.8007 121.664 41.8543 122.667 41.6111C123.658 41.3707 125.294 40.1543 125.944 39.6667C127.371 38.5968 131.673 35.0039 127.806 33.8611C123.508 32.5914 117.686 34.8434 115.056 38.3333C113.483 40.4206 116.57 40.1029 117.917 39.9444C122.419 39.4147 115.525 38.9491 114.389 39C112.689 39.0761 108.923 40.2198 109 42.6111C109.115 46.1795 123.951 42.3193 125.194 41.9444C128.036 41.0881 136.246 37.6102 133.472 38.6667C129.486 40.1851 125.934 43.3942 122.611 46C120.965 47.291 119.574 47 117.528 47C115.896 47 111.385 47.7946 112.639 46.75C113.879 45.7165 117.198 45.4277 118.75 44.7222C122.221 43.1443 125.253 40.9089 128.278 38.6111C128.657 38.3233 133.123 34.1561 133.389 34.3333C134.316 34.9517 132.998 39.6161 132.75 40.4444C132.151 42.4398 132.838 46.034 130.222 46C125.045 45.9328 119.859 43.6159 114.75 42.8056C108.422 41.8018 102.224 41.4667 95.8333 41.5C90.3909 41.5283 84.1708 41.0523 79.6944 44.5556C76.9386 46.7123 75.1942 49.6948 73.3889 52.6111C72.7666 53.6164 65.4383 58.5416 65.0278 56.6944C64.5626 54.6011 68.8318 51.2238 70 50.0556C73.1937 46.8619 76.7361 44.6675 80.5556 42.3333C82.0287 41.4331 83.6003 40.7224 85.1111 39.8889C89.4739 37.4818 95.3528 35.3589 99 31.9722C100.012 31.0323 96.2967 32.5795 95 33.0556C91.7554 34.2468 88.5969 35.6345 85.5 37.1667C81.8121 38.9912 78.1143 40.8861 75 43.6111C73.7737 44.6841 71.5606 47.9439 69.8056 48.1389C69.0869 48.2187 69.8686 46.6587 70.1667 46C72.2739 41.3436 75.6718 37.3379 78.7778 33.3333C79.8772 31.9158 81.3762 28.5 83.5556 28.5C87.4042 28.5 90.5198 30.3549 94.1389 31.3889C98.7743 32.7133 104.279 32 109.056 32C111.341 32 108.691 32.8648 107.833 33.2222C105.748 34.0911 103.618 34.8044 101.444 35.4167C101.354 35.442 99.0358 36.0415 98.6111 36.1944C97.7989 36.4869 98.6655 36.4555 99.0833 36.4722C105.575 36.7319 112.114 36.5 118.611 36.5C121.788 36.5 116.033 36.5 115.389 36.5C112.643 36.5 109.853 36.6436 107.111 36.4722C102.91 36.2097 110.194 35.5034 110.833 35.5C114.018 35.4831 117.204 35.5 120.389 35.5C121.138 35.5 119.606 36.3992 119.306 37C118.487 38.6378 119.071 41.1121 119 42.8889C118.941 44.3702 112.084 43.5557 110.889 42.8889C106.981 40.7075 111.493 38.5 114.472 38.5C116.214 38.5 116.684 41.9304 115.5 42C114.596 42.0532 112.547 42.3841 111.778 41.9444C110.665 41.3088 110.499 37.9273 110 36.8056C109.122 34.8303 107.898 33.7824 106 32.7778C103.328 31.3634 102.775 28.6204 101.778 26.0556C100.499 22.7672 94.9782 29.2213 94.1667 30.2222C92.4265 32.3684 89.6508 33.9631 87.3889 35.5C84.2312 37.6456 86.4685 36.8069 88.5 35.6944C89.2359 35.2915 96.4078 31.185 93.7778 32.5C87.9417 35.418 82.019 37.0194 76.8889 41.4167C74.0621 43.8396 76.8496 41.8422 78.2778 41.1111C80.0354 40.2114 81.8541 39.0833 83.75 38.5C86.3007 37.7152 88.1201 36.1229 89.1667 33.6111C89.8784 31.9029 89.4101 30.5686 87.3333 30.8333C83.6715 31.3 79.9747 34.4442 78.8333 37.9722C77.3092 42.6831 82.4784 38.5442 83.9167 37.3611C85.0386 36.4382 99.3679 22.1491 96.1667 20.5C92.3033 18.5098 84.3499 27.5551 82.5 29.8889C81.7943 30.7791 79.0552 35.848 79 35.2778C78.8249 33.4688 76.1132 33.8585 74.8333 34.1111C73.4956 34.3751 71.2381 38.7563 72.75 39.3611C73.123 39.5103 72.8324 36.1466 72.75 35.8333C72.3265 34.2241 72.5311 32.7627 74 31.7222C76.8609 29.6957 75.5 34.3433 75.5 36.3611C75.5 37.4789 75.7935 43.3951 74.75 39.9167C74.52 39.1498 71.6317 28.4219 69.7778 30.8056C68.2249 32.8021 67.2137 36.0404 65.8889 38.3333C62.8152 43.6532 65.4729 38.3431 63.8889 37.1111C63.2458 36.611 62.4586 40.9064 62.2222 41.2778C61.2507 42.8044 60.5387 45.4411 58.8889 46.3889C55.7265 48.2056 51.7738 48 48.25 48C46.2678 48 46.5659 45.5 48.6389 45.5C51.4259 45.5 54.213 45.5 57 45.5C62.0818 45.5 64.597 40.1153 66.9444 36.3333C68.1083 34.4582 69.4927 33.5073 71 32C72.1641 30.8359 74.5014 26.5305 75.8889 26.2222C77.7282 25.8135 73.1145 28.8262 71.4722 29.75C66.9027 32.3204 64.3377 36.1847 62.2222 40.9444C60.8197 44.1 61.2439 46 57.5278 46C54.2747 46 54.5 46.4407 54.5 49.7222C54.5 51.4279 54.5 52.49 54.5 50.1111C54.5 48.4341 54.4331 48 56.2778 48C58.3117 48 58.2384 48.1641 59.5 49.5C61.3715 51.4815 59.1249 51 57.3889 51C56.1759 51 54.963 51 53.75 51C52.8869 51 51.8566 51.1653 51.0278 50.9167C49.7652 50.5379 49.3935 49.5 50.8889 49.5C54.2604 49.5 56.2314 52.5 59.7222 52.5C63.3155 52.5 66.7033 53.7473 70.2778 52.2778C74.0384 50.7318 76.3487 46.6312 80 44.8056C82.2834 43.6638 86.2384 44.6621 88.6667 44.3889C90.7041 44.1597 92.5343 43.2692 94.5 42.7778C95.2626 42.5871 97.1782 42.5996 97.7778 42C98.3147 41.4631 96.2593 42 95.5 42C94.0347 42 92.6287 41.9382 91.1944 42.25C87.9628 42.9525 85.4824 44.1374 82.7778 46.1111C81.0215 47.3927 79.1901 48.4616 77.4722 49.75C76.8116 50.2455 74.5126 50.9088 75.3333 51C76.4947 51.129 77.8638 51.0886 79.0278 50.9722C84.0676 50.4682 85.8693 45.0568 90.75 43.9722C93.2199 43.4234 100.808 43 98.2778 43C92.2451 43 85.8815 42.4325 79.8889 43.2222C73.8913 44.0126 69.261 47.412 65.7778 52.2222C65.3827 52.7678 63.6502 56.4618 63 56.5C61.9081 56.5642 59.5605 56.5 62.2778 56.5C63.8161 56.5 66.3637 56.9157 67.8611 56.3611C69.9025 55.6051 71.0937 53.6064 72.4722 52.0556C73.6795 50.6974 72.7497 50.67 72.1111 49C70.7936 45.5541 70.3693 42.1849 69.9722 38.6111C69.8712 37.7016 67.0923 37.6629 66.5 38.2222C65.887 38.8012 65.6151 39.492 65.4722 40.2778C65.1698 41.941 62.8349 43.2424 61.5 44C60.8507 44.3685 57.3157 46.2501 57.0278 44.6667C56.9547 44.2648 57 41.9576 57 43.6389C57 45.0349 56.3128 47.2851 58.2222 46.3889C61.1448 45.0171 63.5001 43.2649 66.5278 42.3333C72.6192 40.4591 77.8727 36.543 84.1111 34.8889C88.1083 33.829 92.1549 32.4859 96.2778 32.0278C99.2054 31.7025 90.5088 33.3408 87.7778 34.4444C80.2431 37.4893 73.179 41.722 65.4444 44.2778C63.7387 44.8414 58 46.4886 58 43.6944C58 41.4627 57.8636 37.2767 58 41.7778C58.0565 43.642 63.1959 42.0762 64.1111 41.5C65.7356 40.4772 61.2368 42.8451 60.8889 43.0556C59.5033 43.8937 59.3139 44.457 59.5556 46.0278C60.0612 49.3146 65.3154 52.8644 68.3889 53.8889C69.4713 54.2497 70.23 55.5 68.4722 55.5C67.3048 55.5 65.3331 55.8925 64.3889 55.0556C62.1444 53.0661 61.9541 48.272 60.7778 45.5833C59.087 41.7186 59.0737 41.5 55 41.5C53.9242 41.5 51 41.9158 51 40.25C51 37.5408 50.807 36.5 54.0556 36.5C55.2523 36.5 55.4027 38.5294 54.8889 39.5C54.49 40.2535 51.2287 40.0695 52.4444 39.9722C55.2893 39.7446 57.7405 38.4866 60.4722 37.8333C65.4028 36.6543 71.1029 37.0222 76.1111 37C83.4163 36.9677 90.7224 37 98.0278 37C103.465 37 109.869 36.0771 115 38.3333C118.393 39.8252 121.299 42.5383 123.75 45.2778C125.506 47.2401 126.971 49.7166 128.5 51.8889C129.312 53.0434 130.713 53.2665 131.5 54.25C133.311 56.5132 139.655 45.312 140.444 44.5C142.781 42.0966 145.342 39.9092 147.806 37.6389C148.546 36.9567 150.079 35.9911 148.25 35.7778C141.92 35.0393 135.368 35.5 129 35.5" stroke="black" stroke-opacity="0.6" stroke-width="4" stroke-linecap="round"/>
<path d="M35.0412 120.251C35.8341 120.141 36.6101 119.976 37.4095 119.914C37.6712 119.893 37.8995 119.75 38.1491 119.745C38.7606 119.734 39.2668 119.697 39.8528 119.535C40.1057 119.464 40.3699 119.536 40.6204 119.474C41.3256 119.297 42.0423 119.33 42.7641 119.324C43.534 119.318 44.3255 119.152 45.0903 119.062C45.9491 118.961 46.8754 118.95 47.7161 118.734C48.512 118.53 49.0411 118.703 49.7381 119.109C50.1276 119.336 51.1617 119.95 51.4371 119.399C51.5082 119.257 52.0497 118.097 52.2281 118.538C52.4249 119.024 52.548 119.446 52.7991 119.914C53.3392 120.919 53.9213 121.878 54.6246 122.778C55.2646 123.597 55.8308 124.467 56.4687 125.287C57.0159 125.991 57.5411 126.709 58.0835 127.417C59.468 129.222 60.4954 131.268 61.8513 133.075C62.8596 134.42 64.0442 135.811 65.3055 136.932C65.7793 137.353 66.3328 137.797 66.7191 138.299C66.8997 138.534 67.175 138.685 67.4024 138.875C68.2952 139.619 69.3127 140.175 70.3512 140.686C73.3997 142.186 76.5183 143.894 79.1833 146.026C80.3988 146.999 82.2173 147.474 83.6532 147.931C85.8312 148.625 88.0434 149.173 90.2341 149.813C91.5101 150.186 92.7389 150.508 94.0534 150.712C94.8431 150.834 95.5827 151.113 96.3749 151.212C97.0058 151.291 97.3671 149.364 98 149.364C98.6004 149.364 99.569 151.503 100.147 151.32C100.737 151.134 101.058 150.685 101.594 150.459C102.041 150.27 102.422 149.886 102.843 149.635C103.034 149.521 103.481 149.236 103.7 149.364C104.117 149.607 104.738 149.691 104.95 150.262C105.367 151.389 106.009 152.398 106.419 153.529C106.603 154.035 106.648 154.563 106.803 155.065C106.915 155.423 107.044 155.73 107.079 156.104C107.163 156.979 107.624 157.75 108.043 158.495C108.204 158.781 108.491 158.906 108.713 159.127C108.928 159.343 108.925 159.52 108.994 159.811C109.164 160.533 109.122 161.259 109.415 161.954C109.491 162.135 109.69 162.808 109.462 162.881C108.489 163.193 107.183 162.965 106.176 162.965C104.212 162.965 102.254 162.988 100.297 162.801C99.1502 162.692 97.8532 162.935 96.7775 162.479C95.2638 161.836 93.6099 161.385 91.9939 161.084C90.8212 160.865 89.594 161.065 88.4321 160.77C87.2948 160.481 86.1363 160.215 85.0293 159.82C84.3452 159.576 83.6015 159.434 82.909 159.174C81.0423 158.474 79.1046 158.005 77.2222 157.339C74.7795 156.476 72.505 155.118 70.0937 154.166C68.9638 153.72 67.8847 153.16 66.7752 152.668C65.677 152.181 64.5267 151.775 63.4848 151.17C62.7941 150.769 62.4169 150.017 61.7109 149.654C60.9783 149.277 60.372 148.49 59.7076 147.988C58.6469 147.186 57.6011 146.371 56.5483 145.558C55.9731 145.115 55.3559 144.778 54.8399 144.262C54.6487 144.071 54.5371 143.859 54.4093 143.621C54.0644 142.978 53.5074 142.476 53.0332 141.931C52.419 141.225 51.8433 140.488 51.2171 139.792C50.5775 139.081 50.082 138.253 49.4104 137.569C48.673 136.817 47.825 136.136 46.9812 135.509C46.6302 135.248 46.3295 134.92 45.9936 134.639C45.7143 134.405 45.3755 134.231 45.1137 133.983C44.6782 133.571 44.4028 133.227 44.2244 132.654C43.9026 131.621 42.8284 131.071 42.1182 130.361" stroke="black" stroke-opacity="0.35" stroke-width="15" stroke-linecap="round"/>
<path d="M106.253 85.2934C108.122 84.9944 110.024 85.0736 111.913 85.0736C112.756 85.0736 113.548 85.2235 114.385 85.2812C115.257 85.3413 116.137 85.263 117.01 85.3056C117.959 85.3519 118.906 85.5242 119.855 85.5986C122.456 85.8026 125.071 85.7329 127.681 85.7329C132.325 85.7329 136.969 85.7329 141.612 85.7329C144.714 85.7329 147.894 85.5378 150.989 85.7818C152.566 85.906 154.105 86.1285 155.684 86.1786C156.961 86.2191 158.227 86.2823 159.506 86.2823C161.643 86.2823 163.833 86.1186 165.946 86.4533C166.507 86.5421 167.284 86.3224 167.814 86.5265C168.319 86.7208 168.493 87.4773 168.559 87.9368C168.936 90.5743 168.779 93.2957 168.779 95.9524C168.779 99.0504 168.3 102.016 167.857 105.067C167.735 105.907 167.684 106.761 167.564 107.6C167.512 107.966 167.335 107.592 167.277 107.46C167.028 106.896 166.699 106.407 166.471 105.83C165.986 104.604 165.634 103.438 164.847 102.338C163.558 100.536 161.3 100.034 159.286 99.4809C157.737 99.0552 156.042 98.5896 154.42 98.5896C152.857 98.5896 151.281 98.6502 149.72 98.5652C147.487 98.4437 145.292 98.0434 143.065 97.9059C142.243 97.8551 141.421 97.7932 140.599 97.735C139.38 97.6486 138.219 97.3739 137.009 97.2283C134.489 96.9249 131.999 96.3919 129.458 96.3919C128.348 96.3919 127.253 96.282 126.143 96.282C124.279 96.282 122.415 96.282 120.551 96.282C119.425 96.282 118.355 96.5845 117.242 96.6117C116.204 96.637 115.247 96.6089 114.22 96.7826C112.987 96.9913 111.856 97.271 110.6 97.271C110.194 97.271 107.521 96.9675 107.462 97.5152C107.418 97.9247 106.981 98.321 107.157 98.7606C107.42 99.4185 109.199 99.1352 109.654 99.1452C111.469 99.1851 113.303 99.2197 115.111 99.3833C116.797 99.5357 118.454 99.8859 120.136 100.067C121.526 100.217 122.931 100.059 124.324 100.152C125.387 100.224 126.407 100.541 127.461 100.677C128.294 100.785 129.126 100.787 129.964 100.787C131.177 100.787 132.39 100.787 133.603 100.787C135.2 100.787 136.694 101.077 138.279 101.251C139.31 101.365 140.332 101.6 141.356 101.752C142.827 101.97 144.322 102.1 145.794 102.332C147.501 102.601 149.209 102.835 150.928 103.016C151.661 103.092 152.487 103.018 153.193 103.254C153.625 103.398 153.362 104.153 153.37 104.609C153.417 107.089 153.395 109.571 153.395 112.051C153.395 114.963 153.398 117.875 153.395 120.787C153.394 121.247 153.391 124.594 153.37 125.317C153.368 125.383 153.393 126.403 153.163 126.66C152.884 126.969 151.97 126.889 151.575 127.136C150.943 127.531 150.072 127.627 149.359 127.813C148.402 128.063 147.441 128.323 146.49 128.595C145.5 128.878 144.597 129.443 143.651 129.846C141.313 130.844 139.104 132.66 137.302 134.462C136.019 135.745 135.355 137.431 134.25 138.857C133.746 139.507 133.21 140.035 132.48 140.408C131.498 140.908 130.443 141.377 129.378 141.677C128.76 141.852 128.099 141.803 127.486 141.995C126.647 142.257 125.743 142.268 124.873 142.379C123.898 142.505 123.323 142.776 122.443 143.216C121.563 143.656 120.841 143.973 119.843 143.973C119.636 143.973 120.226 144.182 120.325 144.364C120.454 144.601 120.692 144.751 120.856 144.962C121.064 145.23 121.134 145.717 121.259 146.036C121.373 146.328 121.346 146.729 121.503 146.964C121.572 147.067 121.557 147.41 121.528 147.526C121.436 147.89 121.175 146.861 121.033 146.512C120.808 145.958 120.594 145.386 120.319 144.852C120.299 144.814 120.046 144.461 120.209 144.461C120.411 144.461 120.316 145.165 120.325 145.279C120.505 147.616 121.421 149.764 121.857 152.056C122.06 153.118 122.437 154.065 122.541 155.145C122.59 155.653 122.602 156.532 122.761 157.025C122.811 157.182 123.209 157.976 123.347 158.026C123.725 158.164 124.457 157.913 124.824 157.812C125.489 157.631 126.288 157.414 126.888 157.074C127.966 156.461 129.261 156.189 130.27 155.45C132.751 153.631 136.028 153.029 138.719 151.561C139.964 150.882 141.257 150.317 142.516 149.662C142.824 149.502 143.073 149.262 143.346 149.052C143.706 148.776 144.139 148.67 144.543 148.478C145.292 148.122 145.85 147.428 146.57 147.013C147.721 146.349 148.87 145.676 150.025 145.011C151.221 144.321 152.48 143.68 153.517 142.758C153.753 142.548 154.039 142.486 154.286 142.306C154.622 142.062 154.904 141.724 155.263 141.513C155.839 141.172 156.238 140.8 156.716 140.322C157.611 139.427 158.309 138.345 159.109 137.367C159.799 136.524 160.192 135.332 160.403 134.278C160.659 132.997 161.193 131.724 161.661 130.493C161.971 129.676 162.407 128.925 162.65 128.088C162.748 127.747 162.996 127.419 163.15 127.099C163.299 126.789 163.328 126.467 163.504 126.165C163.818 125.627 163.907 124.79 164.103 124.187C164.412 123.23 164.711 122.273 164.982 121.312C165.348 120.008 165.922 118.689 165.922 117.325C165.922 117.016 165.922 116.707 165.922 116.397C165.922 115.888 165.669 115.568 165.507 115.097C165.418 114.841 165.248 114.167 164.969 114.084C164.135 113.833 162.293 114.485 161.52 114.92C160.529 115.478 159.644 116.213 158.62 116.745C156.32 117.941 154.067 119.61 152.79 121.879C152.521 122.358 152.341 122.748 151.978 123.192C151.765 123.453 151.391 124.222 151.087 124.34C150.836 124.437 150.867 122.313 150.867 122.008C150.867 121.692 150.867 121.377 150.867 121.061C150.867 120.666 151.072 120.337 151.087 119.932C151.102 119.531 151.513 118.403 151.307 118.748C150.997 119.264 150.561 119.854 150.318 120.402C150.107 120.877 149.794 121.369 149.543 121.825C149.277 122.306 149.206 122.817 148.938 123.29C148.699 123.712 148.709 124.28 148.584 124.743C148.394 125.446 148.067 126.153 148.016 126.892C147.983 127.37 147.829 127.772 147.742 128.241C147.603 128.985 147.624 129.743 147.394 130.469C146.844 132.205 146.626 134.219 145.617 135.768C145.382 136.128 145.217 136.51 145.043 136.903C144.806 137.441 144.475 137.812 144.17 138.308C143.525 139.357 142.699 140.268 142.076 141.336" stroke="black" stroke-opacity="0.2" stroke-width="15" stroke-linecap="round"/>
</svg>
