<svg width="192" height="192" viewBox="0 0 192 192" fill="none" xmlns="http://www.w3.org/2000/svg">
<path d="M57.1904 96.8533C57.7125 96.3136 57.9916 95.6284 58.0297 94.9332L70.9139 73.6733L79.6147 88.0288C79.9393 88.5642 80.4046 88.9619 80.9345 89.2032C81.4724 89.714 82.1996 90.0275 83 90.0275L99 90.0275C100.657 90.0275 102 88.6843 102 87.0275C102 85.3706 100.657 84.0275 99 84.0275L84.2056 84.0275L73.5656 66.4725C73.0854 65.6804 72.2971 65.1897 71.4477 65.061C70.2399 64.8129 68.9539 65.3308 68.2783 66.4456L54.1579 89.7454L48.0859 83.8713C47.3738 83.1824 46.4083 82.9167 45.5008 83.0691C45.338 83.0417 45.1706 83.0275 45 83.0275L29 83.0275C27.3431 83.0275 26 84.3706 26 86.0275C26 87.6843 27.3431 89.0275 29 89.0275L44.7864 89.0275L52.9484 96.9236C54.1392 98.0756 56.0384 98.0441 57.1904 96.8533Z" fill="black" stroke="black" stroke-width="3" stroke-linecap="round"/>
<path fill-rule="evenodd" clip-rule="evenodd" d="M96.7083 50.1883L105.074 41.5851L106.468 40.1513C122.639 23.5214 149.23 23.1494 165.86 39.3205C182.489 55.4915 182.861 82.0818 166.69 98.7116L164.91 100.543C160.183 98.1051 154.732 97.586 149.702 98.9693L158.087 90.3459C169.638 78.4674 169.372 59.4744 157.494 47.9236C145.615 36.3728 126.622 36.6386 115.072 48.517L105.311 58.554L96.9457 67.1572L88.3426 58.7914L78.3056 49.0314C66.4272 37.4807 47.434 37.7464 35.8833 49.6248C24.3326 61.5032 24.5984 80.4964 36.4768 92.0471L98.1326 152.002L108.138 141.712L116.741 150.078L106.736 160.367L98.37 168.971L89.7668 160.605L28.111 100.65C11.4812 84.4793 11.1092 57.8889 27.2802 41.259C43.4512 24.6292 70.0416 24.2573 86.6713 40.4282L88.1052 41.8225L96.7083 50.1883Z" fill="black"/>
<path d="M133.263 111.745L135.414 113.836L137.505 111.686L142.385 106.667C149.315 99.5399 160.711 99.3805 167.838 106.311C174.965 113.241 175.125 124.637 168.194 131.764L136.126 164.743L103.147 132.674C96.0199 125.744 95.8604 114.348 102.791 107.221C109.721 100.094 121.117 99.9344 128.244 106.865L133.263 111.745Z" stroke="black" stroke-width="6"/>
<path d="M101.743 146.975C101.501 145.764 100.028 144.579 99.3091 143.659C98.699 142.878 98.1616 142.123 97.4569 141.418C96.8218 140.783 96.1868 140.148 95.5518 139.513C94.3829 138.344 92.9195 137.809 91.6798 136.753C91.3036 136.432 90.8598 136.277 90.4714 135.985C89.9335 135.582 89.5269 135.019 89.0073 134.592C87.864 133.652 87.147 132.62 86.2202 131.487C84.0102 128.786 83.4308 125.52 82.4629 122.217C81.9093 120.329 81.5501 118.339 81.5809 116.37C81.6145 114.221 83.1765 112.451 84.4298 110.866C85.117 109.997 85.8281 109.115 86.6259 108.343C87.4988 107.499 87.3979 110.015 87.455 110.496C87.6603 112.22 88.1225 113.882 88.2841 115.611C88.3994 116.845 88.8405 118.043 88.8839 119.28C88.9093 120.006 88.9458 120.877 89.122 121.582C89.2454 122.076 89.3601 124.681 89.3601 122.949C89.3601 121.17 89.2637 119.357 89.466 117.587C89.6915 115.614 90.5435 113.844 90.9477 111.924C91.3968 109.791 92.7988 107.695 93.7701 105.768C94.5712 104.179 95.4738 102.732 96.4249 101.252C97.0886 100.22 94.0678 101.658 93.7348 101.764C92.3677 102.197 91.1347 103.386 90.445 104.613C89.3461 106.566 88.1861 108.489 87.1199 110.469C86.749 111.158 86.4485 111.731 86.1144 112.436C85.4948 113.744 85.2018 115.392 84.9149 116.811C84.3435 119.636 84.1211 122.435 84.1211 125.304C84.1211 126.941 84.8943 129.388 86.1849 130.464C87.1705 131.285 87.455 126.022 87.455 129.017C87.455 129.33 87.6681 130.986 87.0669 130.711C85.675 130.075 84.3932 128.864 83.4155 127.73C82.9694 127.212 81.4495 125.964 81.6956 125.128C81.921 124.362 82.8585 123.906 83.3978 123.399C83.8869 122.94 84.3522 122.454 84.8267 121.979C85.5279 121.278 85.7552 120.804 86.0967 119.951C86.3058 119.428 87.1416 117.534 87.5256 118.795C87.8902 119.993 87.4406 121.369 87.649 122.597C87.7728 123.325 88.1034 124.026 88.2841 124.749C88.3644 125.07 88.3724 125.43 88.5663 125.701C88.8431 126.089 88.6486 126.558 88.8309 126.989C89.2006 127.863 89.6776 128.67 89.6776 129.653C89.6776 129.67 89.1603 128.794 89.0602 128.629C88.1539 127.14 87.271 125.624 86.4319 124.096C85.4879 122.376 84.7129 120.523 83.6448 118.874C82.6746 117.378 81.6321 115.929 80.549 114.509C79.6821 113.372 78.7704 112.275 77.8589 111.175C77.4727 110.709 77.1234 110.214 76.7387 109.746C76.4357 109.377 76.0694 108.599 75.6539 108.361C75.4442 108.241 75.3893 112.167 75.3893 112.506C75.3893 113.996 75.1743 115.662 75.5127 117.128C75.6834 117.868 76.0451 118.532 76.3418 119.227C76.6668 119.989 77.2211 120.91 77.4179 121.697C77.6329 122.557 77.7261 123.443 77.9118 124.325C77.9512 124.512 78.0191 125.443 77.6648 125.348C76.956 125.159 76.7092 124.151 76.4036 123.593C75.7576 122.414 75.0742 121.273 74.4014 120.109C73.9205 119.278 73.4811 118.265 72.8138 117.569C71.7085 116.416 70.3556 115.412 69.0389 114.517C66.9229 113.08 65.8691 110.899 64.4701 108.873C62.8994 106.598 61.7446 104.165 60.1395 101.958C58.5145 99.7234 56.7752 97.0333 54.5212 95.3428C54.0505 94.9898 53.4538 94.8818 53.013 94.496C52.5137 94.0592 52.0449 93.5963 51.5577 93.1466C50.7746 92.4238 49.7948 91.9569 48.9734 91.2679C48.407 90.7929 47.9312 90.3385 47.2888 89.9714C45.9045 89.1804 44.5831 87.7052 43.4433 86.611C42.3062 85.5194 41.4873 84.456 40.4974 83.2241C38.5258 80.7706 37.4397 77.4609 36.9694 74.4041C36.6598 72.3917 36.3344 70.4774 36.3344 68.4418C36.3344 65.471 38.6193 62.7193 40.3033 60.3803C41.8906 58.1759 43.7622 56.2933 45.2955 54.0299C46.6675 52.0045 49.2538 50.2164 51.6811 49.7787C52.5072 49.6297 53.3583 49.4343 54.1595 49.1878C55.3842 48.811 56.9077 48.8958 58.1726 48.8702C60.9337 48.8145 63.7728 48.6919 66.5075 49.0907C68.62 49.3988 70.9111 49.8685 72.708 51.0664C75.8537 53.1636 78.5414 55.8079 81.6515 57.9284C82.7751 58.6945 83.835 59.5097 84.8708 60.3891C85.8486 61.2194 86.8966 61.9594 87.8695 62.797C89.8005 64.4593 90.7486 66.1597 91.1418 68.724C91.6302 71.9093 91.5364 75.295 90.736 78.426C89.8126 82.0386 87.6873 85.1327 85.5146 88.0927C83.1769 91.2775 80.5049 94.2875 77.4355 96.7892C76.3627 97.6637 73.8016 98.653 73.0961 96.8333C72.3193 94.8302 72.3728 92.7089 72.3728 90.5976C72.3728 87.7465 72.1284 84.7609 72.9726 81.9981C73.5955 79.9596 74.5899 78.0786 75.4775 76.1505C76.2051 74.5697 77.4408 73.2257 78.441 71.811C78.9737 71.0576 79.5577 70.2658 79.8875 69.3944C80.1038 68.8225 79.2245 69.0251 78.9173 69.0239C74.7132 69.0076 70.5087 69.0239 66.3047 69.0239C64.5113 69.0239 62.7178 69.0042 60.9245 69.0239C60.6954 69.0264 59.5395 69.0231 59.1781 69.165C58.5752 69.4019 58.4208 70.3812 58.3226 70.8761C57.7279 73.8714 57.6927 76.9993 57.6346 80.0401C57.583 82.7412 57.6082 85.4441 57.6082 88.1457C57.6082 88.5544 57.8104 89.9096 57.5111 90.3418C57.0704 90.9784 55.0765 87.5372 54.9181 87.2813C53.563 85.0923 52.4353 82.6289 51.7782 80.1371C50.4621 75.1469 51.0546 70.3408 52.8454 65.5312C53.8996 62.6998 57.2963 60.8094 60.1924 60.5391C63.9119 60.1919 67.8454 63.1266 70.9616 64.8785C75.2227 67.2741 79.7274 69.1506 84.1211 71.2818C86.2813 72.3297 89.002 73.5126 90.4009 75.586C92.2103 78.2677 93.3853 81.6027 94.5992 84.5824C95.0338 85.6491 96.1561 89.0623 97.7127 89.1776C98.8142 89.2592 100.036 89.2685 101.144 89.1864C101.604 89.1523 101.883 88.6912 102.343 88.5867C102.884 88.4638 103.461 88.1099 104.001 88.0751C104.886 88.018 109.205 87.0128 109.205 87.5194C109.205 88.2987 108.698 89.1498 108.729 89.9449C108.738 90.1731 111.667 90.4565 112.257 90.4565C113.502 90.4565 114.787 90.3327 115.988 90.6153C117.276 90.9183 118.613 91.2346 119.824 91.6825C122.158 92.5449 124.519 93.3778 126.88 94.1609C127.746 94.4479 127.937 94.5974 128.486 95.1311C129.243 95.8685 130.234 96.378 131.061 97.0362C131.806 97.6285 132.993 97.898 133.416 98.7914C133.757 99.5119 133.78 99.8366 134.642 99.8233C136.001 99.8024 137.19 99.3562 138.452 98.8972C139.185 98.6307 139.987 98.553 140.701 98.2357C142.819 97.2946 144.956 96.4098 146.646 94.7606C149.791 91.6918 152.45 88.2182 155.228 84.8293C156.373 83.4326 157.598 82.0114 158.28 80.3135C158.984 78.5587 159.215 76.5074 159.338 74.6334C159.476 72.5353 159.849 70.4572 159.849 68.3624C159.849 65.8046 159.849 63.2468 159.849 60.689C159.849 59.3266 159.856 57.8018 159.214 56.5525C158.643 55.4398 157.632 54.4555 156.833 53.5007C155.788 52.2521 153.882 51.4444 152.502 50.7048C150.815 49.8 149.144 48.8808 147.457 47.9794C143.427 45.8255 139.027 46.3404 134.589 46.6741C132.294 46.8466 130.031 47.2507 127.754 47.5649C127.14 47.6495 126.392 47.6187 125.787 47.7766C125.168 47.938 124.55 48.3853 123.97 48.6409C122.027 49.4973 119.701 49.9485 117.963 51.1899C116.733 52.069 115.386 52.7471 114.18 53.6771C111.27 55.9201 109.534 59.4692 107.997 62.7088C106.134 66.6366 104.204 70.9569 104.125 75.3567C104.119 75.6945 103.87 77.9392 104.636 77.9145C106.03 77.8695 107.554 76.6552 108.623 75.8859C114.951 71.3332 120.198 65.1545 127.216 61.571C130.562 59.8623 134.396 59.735 137.817 61.28C140.918 62.6802 142.903 65.0495 143.647 68.3977C144.361 71.6117 144.945 75.1048 143.815 78.2849C143.179 80.0752 142.406 81.291 140.657 82.0775C139.193 82.736 137.932 82.9948 136.353 82.9948C135.316 82.9948 134.273 83.0805 133.275 82.7478C132.019 82.3293 130.781 81.8611 129.535 81.416C127.964 80.8548 126.367 80.7592 124.728 80.5252C124.486 80.4906 122.689 80.2997 122.753 79.8372C122.971 78.2521 125.066 76.6974 126.157 75.7271C127.533 74.5046 129.014 73.623 130.567 72.6754C131.653 72.0129 132.949 71.5603 134.13 71.0878" stroke="black" stroke-opacity="0.25" stroke-width="20" stroke-linecap="round"/>
<path d="M107.461 100.715C107.458 100.655 107.415 100.594 107.363 100.564C107.338 100.55 107.301 100.548 107.273 100.547C107.257 100.546 107.238 100.54 107.222 100.537C107.215 100.536 107.208 100.536 107.202 100.53C107.191 100.52 107.181 100.508 107.169 100.498C107.147 100.479 107.116 100.47 107.091 100.455C107.079 100.447 107.061 100.443 107.051 100.434C107.04 100.424 107.034 100.413 107.023 100.402" stroke="black" stroke-opacity="0.25" stroke-linecap="round"/>
<path d="M129.965 122.465C129.965 123.662 130.065 124.808 131.282 125.375C133.565 126.437 136.747 126.291 139.2 126.143C140.468 126.066 139.95 125.475 139.022 125.553C138.027 125.636 137.269 126.335 136.606 127.021C135.482 128.187 134.496 129.552 133.793 131.014C133.419 131.795 132.553 134.171 133.986 134.541C136.183 135.108 139.203 134.412 141.025 133.141C142.864 131.858 141.944 129.48 141.944 127.625C141.944 125.176 142.001 122.628 142.932 120.325C143.127 119.842 143.503 119.448 143.701 118.953C143.877 118.511 144.102 117.905 144.442 117.553C145.094 116.876 145.864 116.636 146.575 116.092C147.066 115.716 147.482 115.197 148.119 115.056C148.674 114.932 149.231 114.68 149.773 114.5C150.14 114.378 150.633 114.391 150.953 114.191C151.415 113.903 151.986 113.786 152.51 113.69C152.854 113.628 153.144 113.356 153.491 113.265C153.858 113.168 154.314 113.168 154.637 112.956C155.938 112.106 158.557 112.486 159.632 113.601C160.671 114.679 162.198 115.67 162.198 117.34C162.198 118.891 162.196 120.377 161.642 121.855C161.462 122.336 161.325 122.836 161.155 123.323C161.052 123.618 160.802 123.819 160.716 124.078C160.529 124.64 160.144 124.946 159.879 125.429C159.56 126.009 159.037 126.441 158.74 127.035C158.554 127.407 158.248 128.15 157.875 128.366C157.339 128.677 156.763 129.399 156.297 129.848C155.684 130.44 155.056 130.881 154.527 131.556C153.99 132.243 153.427 132.965 152.812 133.58C152.312 134.08 151.617 134.734 151.323 135.371C151.061 135.939 150.295 136.591 149.848 137.038C149.118 137.768 148.438 138.598 147.653 139.261C145.317 141.233 144.588 144.489 142.13 146.3C141.717 146.604 140.956 146.895 140.956 147.467C140.956 148.088 140.723 148.136 140.462 148.592C140.008 149.387 138.993 150.015 138.85 150.945C138.758 151.545 138.498 151.036 138.287 150.801C137.901 150.369 137.473 149.952 137.046 149.559C136.3 148.874 135.485 148.415 134.665 147.851C133.753 147.224 133.119 146.312 132.14 145.697C131.095 145.04 130.15 144.244 129.197 143.46C128.582 142.955 128.485 142.387 128.113 141.758C127.542 140.796 126.702 139.961 126.068 139.028C125.474 138.154 124.522 137.699 123.886 136.915C123.11 135.957 122.567 134.777 121.732 133.875C121.112 133.205 120.394 132.928 119.632 132.455C118.648 131.844 117.685 131.208 116.689 130.616C116.289 130.378 115.488 129.447 115.015 129.388C114.221 129.289 113.556 128.927 112.854 128.489C112.206 128.086 111.09 127.475 110.823 126.733C110.599 126.109 110.47 125.571 110.302 124.935C110.047 123.973 109.835 123.058 109.835 122.04C109.835 121.07 109.835 120.101 109.835 119.131C109.835 117.939 110.426 116.602 110.796 115.454C110.971 114.907 111.117 114.385 111.742 114.287C112.634 114.147 113.351 113.944 114.253 113.944C114.696 113.944 115.207 114.013 115.639 113.917C116.394 113.749 116.914 114.096 117.622 114.184C118.249 114.263 118.666 114.871 119.097 115.303C119.519 115.724 119.963 115.994 120.394 116.359C121.135 116.986 121.642 117.468 122.555 117.773" stroke="black" stroke-opacity="0.4" stroke-width="20" stroke-linecap="round"/>
</svg>
