<svg width="192" height="192" viewBox="0 0 192 192" fill="none" xmlns="http://www.w3.org/2000/svg">
<path d="M28.8284 169.172L24.5858 164.929L28.8284 169.172ZM48.4853 149.515L44.2426 145.272L48.4853 149.515ZM34 68H118V56H34V68ZM124 74V134H136V74H124ZM28 146V74H16V146H28ZM16 146V166.343H28V146H16ZM33.0711 173.414L52.7279 153.757L44.2426 145.272L24.5858 164.929L33.0711 173.414ZM56.9706 152H118V140H56.9706V152ZM16 166.343C16 175.252 26.7714 179.714 33.0711 173.414L24.5858 164.929C25.8457 163.669 28 164.561 28 166.343H16ZM124 134C124 137.314 121.314 140 118 140V152C127.941 152 136 143.941 136 134H124ZM118 68C121.314 68 124 70.6863 124 74H136C136 64.0589 127.941 56 118 56V68ZM52.7279 153.757C53.8531 152.632 55.3793 152 56.9706 152V140C52.1967 140 47.6183 141.896 44.2426 145.272L52.7279 153.757ZM34 56C24.0589 56 16 64.0589 16 74H28C28 70.6863 30.6863 68 34 68V56Z" fill="black"/>
<path d="M74 28H158V16H74V28ZM164 34V94H176V34H164ZM68 64V34H56V64H68ZM130 112H158V100H130V112ZM164 94C164 97.3137 161.314 100 158 100V112C167.941 112 176 103.941 176 94H164ZM158 28C161.314 28 164 30.6863 164 34H176C176 24.0589 167.941 16 158 16V28ZM74 16C64.0589 16 56 24.0589 56 34H68C68 30.6863 70.6863 28 74 28V16Z" fill="black"/>
<path d="M31.5228 77.854C31.5365 76.7507 31.5306 75.6395 31.6718 74.5428C31.9147 72.6555 32.7366 72.6479 34.4903 72.744C37.9429 72.9331 41.3294 73.5983 44.7676 73.8897C46.1243 74.0047 46.9154 73.967 48.3653 73.7178C54.1444 72.7245 60.1207 72.9175 65.9639 72.9044C81.7399 72.8689 97.5096 72.6981 113.283 72.6981C114.213 72.6981 116.066 72.231 116.434 73.271C117.204 75.4442 117.764 77.539 118.026 79.8247C118.474 83.7201 119.322 87.5604 119.699 91.4654C119.897 93.5146 120.311 95.4773 120.593 97.5149C120.914 99.8296 120.833 102.173 120.822 104.504C120.789 111.551 120.43 118.6 120.203 125.643C120.108 128.613 120.003 131.563 119.184 134.431C118.931 135.316 118.878 136 117.866 136.012C116.137 136.032 114.405 136.012 112.676 136.012C104.931 136.012 97.2106 136.284 89.4746 136.631C80.3325 137.041 71.2144 136.685 62.0798 137.352C59.8821 137.513 57.6594 137.614 55.4689 137.868C54.0891 138.028 52.7633 138.502 51.39 138.716C49.9973 138.933 48.1053 138.627 46.8529 139.358C44.2654 140.867 41.8947 142.57 39.543 144.445C38.0251 145.654 36.5209 146.757 35.5559 148.478C34.5822 150.213 33.462 151.796 32.2676 153.393C31.7629 154.068 30.6883 156.011 30.4917 155.192C30.2048 153.997 30.3793 152.485 30.2396 151.25C29.9431 148.629 29.62 146.014 29.2543 143.402C28.8076 140.212 28.6543 136.986 28.6356 133.766C28.6273 132.344 28.4057 130.684 28.6814 129.275C28.9508 127.898 29.6221 126.546 29.9875 125.185C30.6585 122.686 31.2971 120.119 31.3166 117.52C31.3577 112.059 31.3166 106.596 31.3166 101.135C31.3166 98.1246 31.2564 95.106 31.3281 92.0956C31.3637 90.5998 31.4572 88.9157 32.1415 87.547C32.3245 87.1811 32.5158 86.9719 32.9092 86.7908C35.9305 85.4 39.7757 84.9429 42.9803 84.2701C50.9038 82.6066 58.5919 82.3911 66.6399 82.3911C77.2495 82.3911 87.8591 82.3911 98.4686 82.3911C101.746 82.3911 105.283 82.138 108.288 83.7431C110.51 84.9303 111.443 88.311 111.656 90.6176C112.203 96.532 112.535 102.684 111.862 108.606C111.615 110.785 110.653 112.781 109.731 114.747C108.486 117.401 106.639 121.507 103.602 122.492C94.5052 125.442 84.5389 126.299 75.1069 127.533C69.73 128.237 64.4916 128.588 59.078 128.588C54.6558 128.588 50.0583 128.192 45.6613 128.794C44.9992 128.884 43.6087 129.282 42.9459 128.897C42.1899 128.458 41.9497 127.252 41.8116 126.502C41.2295 123.34 41.4221 119.98 41.4221 116.786C41.4221 112.256 41.2747 107.838 42.2928 103.416C42.6606 101.818 43.0588 100.215 43.5073 98.6378C44.07 96.6593 44.9641 95.8599 46.9216 95.086C54.0307 92.2754 62.3163 93.3019 69.7678 93.3215C77.1525 93.341 84.6098 93.4693 91.9608 94.2496C93.4382 94.4064 94.9112 94.6315 96.3719 94.9026C98.1101 95.2253 99.9479 95.1785 100.153 97.3545C100.433 100.329 99.9364 103.729 98.9269 106.52C97.4079 110.721 94.368 112.196 90.3568 113.498C80.3176 116.757 69.1094 118.602 58.528 117.657C58.14 117.622 56.832 117.648 56.4771 117.222C55.7342 116.33 55.599 114.385 55.3772 113.303C54.8963 110.959 55.7396 109.863 58.0353 109.133C60.0459 108.493 62.154 108.469 64.2453 108.422C68.4397 108.329 72.7292 108.175 76.9172 108.514C78.3035 108.626 79.6275 108.995 81.019 108.995" stroke="black" stroke-opacity="0.2" stroke-width="20" stroke-linecap="round"/>
<path d="M68.4387 53.7246C79.1322 54.8325 89.675 55.5807 100.405 55.5807C105.87 55.5807 111.342 55.7036 116.778 56.314C120.773 56.7627 124.725 57.4823 128.693 58.1128C129.398 58.2247 130.563 58.1912 131.237 58.4909C131.737 58.713 132.381 59.4126 132.807 59.7398C135.039 61.4567 135.643 63.9539 136.542 66.5455C138.834 73.1574 141.141 79.7685 142.442 86.6648C142.906 89.1205 142.577 91.5782 142.901 94.009C143.005 94.7924 146.378 94.6445 146.75 94.6735C149.161 94.8616 151.528 95.2063 153.9 95.6703C156.442 96.1676 156.475 90.4833 156.592 88.8875C156.98 83.6282 158.165 78.4334 158.368 73.145C158.463 70.6776 159.151 68.1479 159.537 65.7206C160.074 62.3447 160.894 59.035 161.233 55.6266C161.479 53.1371 161.45 50.643 161.45 48.1449C161.45 44.8319 161.827 41.1929 160.82 37.9821C160.443 36.7818 159.949 35.5549 159.411 34.4189C158.928 33.4006 157.475 33.3753 156.489 33.2158C150.872 32.3071 145.421 32.2763 139.738 32.2763C132.073 32.2763 124.408 32.2763 116.743 32.2763C112.52 32.2763 108.318 32.1857 104.117 32.6888C98.3825 33.3756 92.5692 33.8156 86.8623 34.7053C83.6804 35.2013 80.4681 35.7368 77.2609 36.0344C76.0318 36.1484 74.9177 36.38 73.7321 36.7218C73.1935 36.8771 72.0616 36.8343 71.6239 37.2259C71.184 37.6196 72.4153 38.5847 72.5863 38.7154C75.0139 40.5706 78.4373 40.9789 81.2711 41.9235C83.9405 42.8133 86.6343 43.3724 89.4058 43.8254C95.5424 44.8285 101.773 44.6503 107.967 44.6503C113.062 44.6503 118.156 44.6503 123.251 44.6503C130.183 44.6503 136.837 44.855 143.668 45.9336C145.059 46.1531 146.513 45.7252 146.922 47.2856C147.273 48.625 146.719 50.095 147.174 51.4102C148.012 53.8309 147.785 56.6245 148.618 59.0409C148.884 59.8126 149.076 60.0336 149.076 60.897C149.076 61.6156 148.881 62.6098 149.282 63.2114" stroke="black" stroke-opacity="0.4" stroke-width="20" stroke-linecap="round"/>
</svg>
