<svg width="192" height="192" viewBox="0 0 192 192" fill="none" xmlns="http://www.w3.org/2000/svg">
<path d="M146 78L128 93.5L143.5 111.5L152.5 110.5L171.5 93.5L146 78Z" fill="black" fill-opacity="0.2" stroke="black"/>
<path d="M138 118L123 101L77 147L80.5 149L138 118Z" fill="black" fill-opacity="0.25" stroke="black"/>
<path d="M141.5 73.5L80.5 39L77 43.5L122.5 92L141.5 73.5Z" fill="black" fill-opacity="0.25" stroke="black"/>
<path d="M117 92.5L50.5 25.5H46L48 165L114.5 102L117 92.5Z" fill="black" fill-opacity="0.3"/>
<path d="M44 27.4241V164.576C44 169.202 49.0138 172.088 53.0137 169.764L171.068 101.188C175.05 98.8753 175.05 93.1247 171.068 90.8118L53.0137 22.2359C49.0138 19.9124 44 22.7983 44 27.4241Z" stroke="black" stroke-width="12"/>
<path d="M48 21L143.944 116.944M48 171L143.944 75.0558L48 171Z" stroke="black" stroke-width="12"/>
</svg>
