<svg width="192" height="192" viewBox="0 0 192 192" fill="none" xmlns="http://www.w3.org/2000/svg">
<path d="M66 114C90.3005 114 110 94.3005 110 70C110 45.6995 90.3005 26 66 26C41.6995 26 22 45.6995 22 70C22 94.3005 41.6995 114 66 114Z" stroke="black" stroke-width="12"/>
<path d="M138 166C147.941 166 156 157.941 156 148C156 138.059 147.941 130 138 130C128.059 130 120 138.059 120 148C120 157.941 128.059 166 138 166Z" stroke="black" stroke-width="12"/>
<path d="M167 82C171.971 82 176 77.9706 176 73C176 68.0294 171.971 64 167 64C162.029 64 158 68.0294 158 73C158 77.9706 162.029 82 167 82Z" fill="black"/>
<path d="M138 110C145.18 110 151 104.18 151 97C151 89.8203 145.18 84 138 84C130.82 84 125 89.8203 125 97C125 104.18 130.82 110 138 110Z" stroke="black" stroke-width="12"/>
<path d="M38.1292 94.5767C38.0561 93.4794 37.7664 92.4414 37.3724 91.4189C36.7474 89.797 36.4634 88.1105 35.8979 86.4733C35.3122 84.778 35.3221 83.0725 35.0236 81.319C34.6799 79.2997 34.4454 77.262 34.3842 75.2121C34.2774 71.6354 34.0044 67.7376 34.606 64.1988C35.1804 60.8201 37.0967 57.2573 39.0166 54.4382C41.1692 51.2774 44.2153 49.2226 47.2765 47.0265C49.6971 45.29 52.3769 43.4128 55.0406 42.0809C55.7806 41.7109 56.6345 41.5001 57.3111 41.024C58.4802 40.2013 53.4277 40.1077 52.9528 40.0975C48.6956 40.0059 45.0621 42.4779 41.013 43.4902C40.2253 43.6871 39.3731 44.032 38.8991 44.7429C38.5373 45.2857 40.0651 44.1512 40.6085 43.7903C43.6512 41.7695 46.6398 39.6676 49.9254 38.0488C53.3889 36.3424 57.2609 35.4175 61.0953 34.9693C64.6417 34.5548 69.3239 34.5621 72.7088 35.6217C75.6333 36.5372 78.0214 38.5269 80.7992 39.7452C83.4137 40.8919 86.2223 42.4942 88.4197 44.3253C92.3842 47.6291 95.5909 52.6193 97.5279 57.3873C98.1644 58.9542 98.9668 60.4289 99.3808 62.0849C100.14 65.1206 100.169 68.4108 100.125 71.5193C100.062 75.8919 100.026 80.4897 98.5065 84.6465C96.6368 89.7618 93.8053 94.7681 89.5941 98.3087C85.586 101.679 80.1823 103.615 75.2534 105.212C73.5186 105.774 71.5733 106.099 69.7598 106.269C61.7453 107.018 51.1218 106.63 45.0843 100.592C43.9978 99.5057 44.4093 97.3773 44.471 95.9338C44.5823 93.3289 46.1069 91.1433 47.0416 88.783C48.0424 86.256 48.4193 83.6413 48.8815 80.9797C50.1651 73.5879 52.1973 65.5643 56.6848 59.449C58.9037 56.4253 61.6029 53.6908 64.6446 51.5022C65.5086 50.8806 68.29 49.5931 68.6115 48.4357C68.892 47.4257 67.0482 47.4256 66.5237 47.3657C61.4022 46.7814 57.6045 49.5686 53.9576 52.9898C48.3229 58.2757 42.9981 64.8128 38.9905 71.454C38.4664 72.3224 38.029 73.2523 37.7639 74.2334C37.6298 74.7293 38.5144 73.5305 38.86 73.1504C41.9876 69.71 43.5229 68.0919 47.3809 64.7599C55.9605 57.3503 65.4669 51.1238 77.1194 51.1238C78.5977 51.1238 80.3581 51.0927 81.6865 51.8676C83.638 53.006 84.6124 56.0072 85.4576 57.9223C89.3897 66.8317 90.7708 79.3904 83.9179 87.3737C79.3043 92.7483 71.5867 94.1066 64.9578 94.9943C64.0572 95.1149 58.673 96.2923 57.4155 95.0465C56.1182 93.7611 55.97 89.6304 55.9018 88.0001C55.6164 81.1681 59.5612 73.3154 64.3706 68.6224C66.7292 66.3209 69.9393 64.9292 73.283 65.2688C76.4506 65.5906 76.6448 71.0729 76.3756 73.2678C76.0623 75.822 70.9147 90.3666 66.341 85.1293C63.0966 81.4143 62.4581 74.6788 67.0456 71.9368C70.3535 69.9597 70.0128 74.3079 70.3078 76.4909" stroke="black" stroke-opacity="0.25" stroke-width="15" stroke-linecap="round"/>
<path d="M140.874 95.2794C138.604 95.1763 137.295 94.1767 136.232 96.8902C135.888 97.7677 135.29 99.5012 135.731 100.462C135.882 100.79 136.21 101.024 136.372 101.402" stroke="black" stroke-opacity="0.45" stroke-width="15" stroke-linecap="round"/>
<path d="M144.115 142.281C143.912 141.061 142.491 139.984 141.534 139.44C139.023 138.01 136.577 137.546 134.331 139.399C132.193 141.164 130.977 142.969 130.469 145.762C130.075 147.93 129.975 150.75 130.379 152.926C130.556 153.88 130.895 154.859 131.289 155.747C131.517 156.26 132.754 156.197 133.15 156.227C135.123 156.376 137.176 156.566 139.153 156.527C140.757 156.496 141.654 155.66 142.635 154.486C144.583 152.156 145.323 149.746 144.926 146.723C144.806 145.817 142.246 145.68 141.594 145.542C141.481 145.518 140.024 145.43 140.804 145.112C141.818 144.698 142.895 144.419 143.935 144.082" stroke="black" stroke-opacity="0.35" stroke-width="15" stroke-linecap="round"/>
</svg>
