<svg width="192" height="192" viewBox="0 0 192 192" fill="none" xmlns="http://www.w3.org/2000/svg">
<path d="M68 89H124" stroke="black" stroke-width="12" stroke-linecap="round" stroke-linejoin="round"/>
<path d="M68 113H124" stroke="black" stroke-width="12" stroke-linecap="round" stroke-linejoin="round"/>
<path d="M68 137H104" stroke="black" stroke-width="12" stroke-linecap="round" stroke-linejoin="round"/>
<path fill-rule="evenodd" clip-rule="evenodd" d="M52 28C50.8954 28 50 28.8954 50 30V162C50 163.105 50.8954 164 52 164H140C141.105 164 142 163.105 142 162V62H114C110.686 62 108 59.3137 108 56V28H52ZM120 36.4853L133.515 50H120V36.4853ZM38 30C38 22.268 44.268 16 52 16H114C115.591 16 117.117 16.6321 118.243 17.7574L152.243 51.7574C153.368 52.8826 154 54.4087 154 56V162C154 169.732 147.732 176 140 176H52C44.268 176 38 169.732 38 162V30Z" fill="black"/>
<path d="M49.0786 31.8636C51.7569 31.5958 54.1885 31.0186 56.908 31.2112C59.5463 31.398 62.1673 31.3939 64.8156 31.3939C71.0182 31.3939 77.2208 31.3939 83.4234 31.3939C89.5528 31.3939 95.4023 32.1527 101.483 32.6205C101.968 32.6578 105.813 32.6371 106.155 33.1946C106.619 33.9529 106.389 35.3496 106.389 36.1828C106.389 37.4051 106.389 38.6273 106.389 39.8496C106.389 46.0012 107.094 52.0858 107.094 58.2224C107.094 58.6712 106.761 66.3612 107.198 66.4432C107.429 66.4865 108.191 66.2318 108.229 66.2214C109.657 65.8338 111.087 65.5069 112.549 65.2688C114.893 64.887 117.211 64.7469 119.582 64.7469C122.834 64.7469 126.071 64.6714 129.303 65.0992C131.946 65.449 134.461 66.2091 137.067 66.7303C137.357 66.7883 139.881 66.939 139.69 67.3567C138.725 69.4718 137.811 71.5285 137.355 73.8289C136.354 78.8693 136.689 84.0951 136.689 89.2005C136.689 89.6824 136.651 90.184 136.806 90.649C137.331 92.2216 136.924 87.335 136.924 85.6773C136.924 81.0214 136.789 76.332 137.211 71.6889C137.383 69.7926 137.683 68.3563 138.229 66.5476C138.949 64.1599 139.151 66.7149 139.221 68.0352C139.677 76.7067 139.273 85.4767 139.273 94.1591C139.273 101.731 139.512 109.337 139.26 116.903C139.144 120.373 138.803 123.775 138.803 127.264C138.803 131.742 138.764 136.194 138.581 140.665C138.428 144.411 138.804 147.959 139.221 151.653C139.515 154.267 139.397 156.879 137.107 158.464C135.772 159.388 133.219 159.15 131.73 159.404C127.256 160.165 122.697 160.797 118.199 161.4C112.005 162.23 105.524 162.803 99.3039 161.857C91.606 160.685 83.8132 160.009 76.1421 158.699C70.6766 157.766 65.3395 156.886 59.7918 157.068C58.7494 157.102 57.6763 157.232 56.6992 157.512C56.3823 157.602 55.7466 157.948 55.4204 157.89C54.908 157.8 55.0251 148.69 54.794 147.738C53.452 142.209 51.9034 136.524 51.4796 130.827C50.9235 123.35 51.4274 115.638 51.4274 108.148C51.4274 100.714 51.1341 93.2092 51.4535 85.7817C51.5975 82.4332 52.161 78.8203 52.8367 75.5383C53.197 73.7885 53.3297 72.0244 53.5413 70.2535C53.6975 68.9467 54.1229 67.6737 54.2199 66.3649C54.6417 60.6701 54.246 54.8137 54.246 49.1012C54.246 46.6654 54.246 44.2296 54.246 41.7938C54.246 40.1653 55.5564 40.2702 57.0124 40.1888C62.3573 39.8901 67.7503 40.0844 73.1017 40.0844C78.0298 40.0844 82.9579 40.0844 87.8861 40.0844C89.8907 40.0844 92.0462 39.864 94.0452 40.1366C97.5807 40.6187 97.7179 44.8313 98.0381 47.6006C98.8946 55.0068 98.4035 62.6817 98.4035 70.1361C98.4035 88.4437 98.4035 106.751 98.4035 125.059C98.4035 131.272 98.7005 137.564 98.3513 143.771C98.2439 145.681 98.0956 147.619 97.8163 149.513C97.7081 150.246 97.602 150.762 96.8115 150.896C93.2906 151.494 89.2544 150.813 85.7722 150.243C82.1811 149.656 78.4608 150.137 74.8372 149.956C71.4579 149.787 68.2607 149.604 64.9983 148.651C64.7049 148.566 63.881 148.428 63.6673 148.169C62.9407 147.286 63.4063 144.749 63.4063 143.745C63.4063 132.166 63.4063 120.588 63.4063 109.009C63.4063 98.0173 63.4063 87.0257 63.4063 76.0342C63.4063 72.1743 62.992 68.08 63.5238 64.251C63.753 62.6002 64.111 60.8941 64.111 59.2272C64.111 56.6975 63.2248 52.794 66.6294 52.4157C70.9385 51.9369 75.4254 52.2982 79.7566 52.2982C82.0967 52.2982 84.4194 52.0633 86.7639 52.0633C88.346 52.0633 87.8339 52.8446 87.8339 54.3599C87.8339 57.4311 88.1681 60.711 87.7295 63.7552C87.1782 67.5819 86.5262 71.3575 86.2941 75.2382C85.9666 80.7145 86.0903 86.2076 85.72 91.6798C85.3254 97.5105 84.7804 103.234 84.7804 109.087C84.7804 113.724 84.7804 118.361 84.7804 122.997C84.7804 126.425 84.7804 129.852 84.7804 133.28C84.7804 134.283 85.3589 137.785 84.2976 138.382C82.3284 139.49 79.7678 139.264 77.6166 139.06C76.3809 138.943 74.7495 138.938 74.1064 137.664C72.9797 135.432 73.1005 132.624 72.9059 130.2C71.768 116.027 72.3318 101.698 72.3318 87.4781C72.3318 85.0009 72.5145 82.6707 72.8015 80.2229C73.235 76.5274 74.5179 72.9939 74.9677 69.314C75.1613 67.7298 75.296 66.1876 75.5679 64.6164C75.6626 64.0691 75.4273 63.1128 75.855 62.6852C75.9824 62.5578 76.4866 66.251 76.5335 66.4954C77.0196 69.0287 77.7323 71.6406 78.7649 74.0116C79.2836 75.2027 79.8333 75.5867 81.1006 75.8385C83.8533 76.3852 86.6577 76.7211 89.4259 77.1825C94.5502 78.0366 99.6735 77.9002 104.85 77.9002C107.549 77.9002 110.229 78.1351 112.927 78.1351C114.541 78.1351 116.154 78.1351 117.768 78.1351C120.353 78.1351 122.895 78.6048 125.467 78.6048C127.196 78.6048 127.384 79.5088 127.633 81.2277C128.138 84.7159 127.998 88.2445 127.998 91.7581C127.998 102.023 127.998 112.288 127.998 122.554C127.998 128.563 127.555 134.774 128.051 140.77C128.309 143.892 129.271 146.958 129.173 150.113C129.094 152.622 118.858 151.65 117.22 151.6C114.758 151.527 112.322 151.183 109.86 151.183C108.375 151.183 109.21 149.733 109.691 148.651C110.743 146.284 111.846 144.115 112.483 141.566C113.104 139.082 114.156 136.622 114.401 134.102C114.502 133.076 114.849 132.079 115.263 131.14C115.71 130.125 115.761 132.235 115.798 132.458C116.225 135.023 116.42 137.692 117.207 140.183C117.722 141.812 117.98 143.495 118.473 145.115C118.637 145.656 118.603 142.082 118.603 141.97C118.603 138.63 118.603 135.289 118.603 131.949C118.603 124.537 118.603 117.125 118.603 109.713C118.603 104.746 118.603 99.7789 118.603 94.8116C118.603 93.4444 118.852 91.8104 118.564 90.4663C118.405 89.7227 115.642 90.114 115.067 90.114C113.088 90.114 113.084 91.2537 112.588 93.1674C111.19 98.5596 110.852 103.821 110.852 109.374C110.852 115.882 110.328 122.32 110.148 128.817C110.018 133.497 108.926 137.748 107.799 142.257" stroke="black" stroke-opacity="0.25" stroke-width="15" stroke-linecap="round"/>
<path d="M121.034 39.2884C121.652 41.9055 122.165 44.7924 123.696 47.0432C124.12 47.6674 124.688 48.0311 125.337 48.4316C126.391 49.0817 127.618 49.9196 128.904 49.9196" stroke="black" stroke-opacity="0.5" stroke-width="15" stroke-linecap="round"/>
</svg>
