<svg width="192" height="192" viewBox="0 0 192 192" fill="none" xmlns="http://www.w3.org/2000/svg">
<path d="M96 30H80.8709C76.6145 30 72.6765 32.2548 70.5219 35.9256L23.6049 115.858C21.3826 119.644 21.4052 124.342 23.664 128.107L40.5044 156.174C42.673 159.788 46.5791 162 50.7943 162H96" stroke="black" stroke-width="12" stroke-linecap="round" stroke-linejoin="round"/>
<path d="M96 30H111.129C115.386 30 119.323 32.2548 121.478 35.9256L168.395 115.858C170.617 119.644 170.595 124.342 168.336 128.107L151.496 156.174C149.327 159.788 145.421 162 141.206 162H96" stroke="black" stroke-width="12" stroke-linecap="round" stroke-linejoin="round"/>
<path d="M59 127L96 65L133 127H96H59Z" stroke="black" stroke-width="12" stroke-linecap="round" stroke-linejoin="round"/>
<path d="M80.268 77.5428C82.1918 73.4111 84.5706 69.6288 86.751 65.6574C87.4782 64.3329 88.2626 63.0398 88.992 61.7156C90.7253 58.569 91.7824 55.609 92.4836 52.0512C93.0116 49.372 94.5188 44.5171 92.2535 42.1867C90.8144 40.7063 88.7027 40.457 86.771 40.4459C85.3543 40.4378 83.9386 40.3385 82.6191 40.9462C80.891 41.742 79.8129 43.2755 78.7373 44.7779C77.4502 46.5758 75.7419 48.421 75.3058 50.6706C74.9854 52.3228 74.5901 54.1415 74.5154 55.8229C74.4871 56.4593 74.39 57.2721 74.5454 57.8939C74.8446 59.0905 77.7343 57.2179 78.087 56.9935C80.6448 55.3658 82.3475 53.7924 83.5995 51.0708C85.2825 47.4122 88.3316 43.5593 92.2234 42.0867C94.5581 41.2033 97.0608 40.7065 99.5368 40.4459C101.13 40.2782 102.853 40.2947 104.409 39.9057C105.814 39.5545 107.517 39.5127 108.601 40.586C110.34 42.3082 111.586 44.5022 112.693 46.6688C115.254 51.684 119.034 55.8551 121.727 60.8052C124.767 66.3943 127.121 72.251 129.711 78.043C131.538 82.1298 134.715 85.5518 137.034 89.3882C137.523 90.198 138.78 92.6871 138.595 91.7593C137.882 88.1989 135.879 84.6661 134.263 81.4646C133.011 78.9864 131.842 76.5896 131.051 73.9212C130.483 72.0041 128.817 66.2541 129.19 68.2186C129.727 71.0475 131.23 73.8858 132.332 76.5223C133.225 78.6591 134.333 80.6859 135.193 82.8352C136.152 85.2325 137.523 87.8061 138.935 89.9685C139.342 90.5931 139.744 91.248 139.855 91.9994C140.089 93.5778 141.889 95.1726 142.836 96.3414C145.146 99.1884 147.086 102.035 148.399 105.476C149.174 107.506 150.064 109.493 150.76 111.558C151.227 112.944 151.58 114.317 152.381 115.54C154.016 118.038 155.803 120.468 157.483 122.923C157.711 123.257 157.703 123.525 157.703 123.924C157.703 125.615 157.703 127.305 157.703 128.996C157.703 131.198 156.728 132.267 155.922 134.189C153.742 139.39 152.179 145.053 147.629 148.765C146.755 149.478 145.374 151.737 144.157 151.737C142.872 151.737 141.786 150.062 141.206 149.095C139.185 145.727 139.515 141.859 139.515 138.06C139.515 135.532 140.076 133.441 141.316 131.237C142.022 129.982 142.7 128.797 143.037 127.365C143.723 124.446 143.477 121.336 143.477 118.361C143.477 115.401 141.317 112.892 139.635 110.598C138.459 108.994 137.113 107.465 135.833 105.916C134.859 104.737 133.915 103.533 132.942 102.354C132.119 101.358 132.561 104.681 132.582 105.065C132.74 108.033 133.335 110.88 133.612 113.819C133.715 114.91 133.622 116.611 134.012 117.651C135.162 120.716 131.891 111.445 130.511 108.477C129.449 106.193 128.824 103.843 128.09 101.444C126.927 97.6439 126.18 93.6757 124.758 89.9785C124.18 88.4744 123.479 86.9777 122.947 85.4664C122.906 85.3481 122.679 84.4661 122.807 85.1863C123.211 87.4549 124.026 89.649 124.858 91.7893C127.336 98.161 130.093 104.429 132.722 110.738C134.523 115.06 136.706 119.27 138.675 123.524C138.75 123.688 139.548 125.557 139.425 124.904C139.052 122.93 138.323 120.915 137.774 119.002C136.429 114.315 135.145 109.61 133.762 104.935C131.005 95.6141 126.67 86.5433 120.947 78.6733C119.049 76.0646 116.981 73.8029 114.884 71.38C112.17 68.2448 110.194 64.5738 108.141 60.9953C106.399 57.9592 104.603 54.9371 102.318 52.2713C102.072 51.984 99.7369 50.2267 99.7369 51.2508C99.7369 54.4387 101.374 57.7769 102.488 60.6851C103.017 62.0652 103.345 63.5373 104.019 64.857C104.946 66.6751 105.939 68.472 106.96 70.2395C108.225 72.429 109.492 74.6462 110.612 76.9125C111.691 79.0966 112.932 81.3785 113.763 83.6656C113.792 83.7456 114.136 84.7099 113.833 84.2058C113.505 83.6582 113.406 82.9681 113.243 82.365C112.811 80.7692 112.324 79.1912 111.742 77.6428C110.149 73.4006 107.896 69.2612 105.84 65.2172C104.834 63.2391 103.412 61.4227 101.318 60.5451C98.9809 59.5662 96.205 59.3026 94.0943 57.8739C93.1204 57.2146 92.2821 56.7299 91.4131 55.923C90.2554 54.848 88.9091 53.9374 87.4513 53.3318C86.5763 52.9683 85.5974 52.3517 84.66 52.1813C83.4225 51.9563 81.9907 52.1512 80.7382 52.1512C79.3409 52.1512 77.9436 52.1512 76.5463 52.1512C75.5751 52.1512 74.2447 51.9124 73.3048 52.2313C71.2447 52.9303 69.2443 54.1677 67.5922 55.5628C65.8011 57.0753 64.7505 59.1794 63.4203 61.0753C59.9377 66.0391 56.6622 71.0891 54.1561 76.6424C52.6945 79.8813 51.6096 83.3399 49.8342 86.4268C48.554 88.6526 47.399 90.7722 46.7127 93.27C46.3658 94.5329 45.9911 95.2267 47.273 95.8711C49.4595 96.9702 52.0229 97.7114 54.0161 99.1526C54.8455 99.7524 55.3849 100.675 55.9169 101.524C56.5188 102.484 57.2617 102.998 58.0479 103.785C58.5886 104.325 59.2975 104.195 60.0388 104.195C62.1558 104.195 62.6412 103.952 63.5604 102.014C66.126 96.6033 70.7301 92.4923 73.4349 87.1472C74.1561 85.722 74.9386 84.3356 75.6859 82.9252C77.0209 80.4057 76.7585 76.8871 76.9065 74.1413C77.0604 71.2846 77.9822 67.4822 74.5154 66.2076C73.2327 65.7361 71.9849 66.3149 71.1839 67.3382C70.0369 68.8032 69.1836 70.5787 68.3226 72.2104C67.0316 74.657 65.7757 77.1294 64.6209 79.6438C62.5378 84.1794 61.047 88.9864 58.5781 93.35C57.0738 96.0089 55.4092 98.5832 54.0561 101.314C53.5905 102.253 52.9605 102.331 51.9451 102.374C50.2336 102.446 48.4785 102.234 46.7828 102.524C44.5254 102.91 41.2902 102.876 39.5295 104.595C36.6631 107.393 35.1058 111.503 33.6468 115.15C33.2759 116.077 32.9786 117.038 32.5063 117.921C32.0499 118.774 31.4195 119.647 31.1457 120.582C31.0748 120.825 31.0748 121.111 31.1957 121.333C32.2487 123.263 33.6372 124.982 34.4772 127.035C35.5692 129.705 35.8116 132.605 37.2484 135.159C38.8944 138.085 40.9566 140.731 42.5709 143.693C43.8924 146.118 45.3398 148.436 46.4026 150.986C46.608 151.479 46.8623 151.938 47.0929 152.417C47.3389 152.928 49.2613 152.805 49.6941 152.857C56.8356 153.714 64.076 152.693 71.2239 153.497C81.2179 154.622 91.3236 153.854 101.358 154.218C106.551 154.406 111.72 154.159 116.885 154.918C119.817 155.349 122.733 155.87 125.669 156.279C127.163 156.487 128.757 156.929 130.271 156.959C131.084 156.975 131.899 156.959 132.712 156.959C133.856 156.959 133.768 156.951 133.652 155.798C133.237 151.645 132.463 147.544 132.032 143.393C131.832 141.471 131.691 139.543 131.501 137.62C131.442 137.022 131.489 136.057 131.231 135.489C130.978 134.932 129.346 135.169 129.11 135.169C123.101 135.169 117.091 135.169 111.082 135.169C104.906 135.169 98.7297 135.169 92.5536 135.169C89.327 135.169 86.0948 135.222 82.8692 135.129C79.0046 135.018 75.2004 134.489 71.364 134.069C66.5394 133.539 61.6868 133.835 56.8474 133.708C55.1439 133.664 53.4566 133.401 51.755 133.368C51.097 133.355 50.3937 133.612 50.5345 132.708C50.8128 130.921 51.6917 129.259 52.2553 127.556C53.0109 125.271 53.4836 122.922 54.0661 120.592C55.0091 116.821 56.6013 113.376 58.218 109.857C58.672 108.869 57.4203 109.125 56.7873 109.227C53.8407 109.704 51.2454 111.221 48.8237 112.889C46.197 114.698 43.6824 116.485 42.1307 119.362C41.4884 120.552 40.3623 122.282 40.67 123.744C41.1503 126.025 43.3484 128.01 44.3517 130.087C45.5193 132.503 46.7845 134.917 47.5731 137.49C48.1554 139.39 48.3572 140.458 50.4344 141.112C53.998 142.234 58.2273 141.652 61.9297 141.652C65.3383 141.652 68.709 141.608 72.0843 142.172C77.4821 143.075 82.7908 143.258 88.2516 143.563C93.6936 143.867 99.0631 145.016 104.479 145.574C106.64 145.796 108.812 145.794 110.982 145.794C113.256 145.794 115.505 146.053 117.775 146.134C119.137 146.183 120.504 146.154 121.867 146.154" stroke="black" stroke-opacity="0.25" stroke-width="15" stroke-linecap="round"/>
</svg>
