<svg width="192" height="192" viewBox="0 0 192 192" fill="none" xmlns="http://www.w3.org/2000/svg">
<path d="M27 142.5L24 128L27 91.5L40 59.5L54.5 46L98.5 44L132.5 46L157.5 62L168.5 137L157.5 148.5L123.5 118L67 120.5L37.5 146L27 142.5Z" fill="black" fill-opacity="0.2"/>
<path d="M29.5605 78.9611L22.4199 135.193C20.979 146.54 34.7219 153.278 42.8096 145.19L70 118H122L149.19 145.19C157.278 153.278 171.021 146.54 169.58 135.193L162.44 78.9611C159.902 58.9784 142.901 44 122.758 44H69.2418C49.0987 44 32.098 58.9784 29.5605 78.9611Z" stroke="black" stroke-width="12" stroke-linejoin="round"/>
<path d="M66 81H78M66 69V81V69ZM66 93V81V93ZM66 81H54H66Z" stroke="black" stroke-width="12" stroke-linecap="round"/>
<path d="M126 75C129.314 75 132 72.3137 132 69C132 65.6863 129.314 63 126 63C122.686 63 120 65.6863 120 69C120 72.3137 122.686 75 126 75Z" fill="black"/>
<path d="M126 99C129.314 99 132 96.3137 132 93C132 89.6863 129.314 87 126 87C122.686 87 120 89.6863 120 93C120 96.3137 122.686 99 126 99Z" fill="black"/>
<path d="M132 81C132 84.3137 134.686 87 138 87C141.314 87 144 84.3137 144 81C144 77.6863 141.314 75 138 75C134.686 75 132 77.6863 132 81Z" fill="black"/>
<path d="M108 81C108 84.3137 110.686 87 114 87C117.314 87 120 84.3137 120 81C120 77.6863 117.314 75 114 75C110.686 75 108 77.6863 108 81Z" fill="black"/>
</svg>
