<svg width="192" height="192" viewBox="0 0 192 192" fill="none" xmlns="http://www.w3.org/2000/svg">
<path d="M163.5 71L118.5 71.5L126.5 97.5L124 107.5L91.5 165L94.5 167H110L142.5 151L156 137L168.5 108.5L169 94L163.5 71Z" fill="black" fill-opacity="0.2"/>
<path d="M75.5 120L37 52L23.5 84.5V103.5L36 143L84.5 168L103.5 132.5V125.5L75.5 120Z" fill="black" fill-opacity="0.25" stroke="black"/>
<path d="M64 88.5L41 50.5L49 37.5L78 27.5L99 24.5L140.5 35.5L161.5 66L80 70.5L64 88.5Z" fill="black" fill-opacity="0.3"/>
<path d="M96 170C136.869 170 170 136.869 170 96C170 55.1309 136.869 22 96 22C55.1309 22 22 55.1309 22 96C22 136.869 55.1309 170 96 170Z" stroke="black" stroke-width="12" stroke-linecap="round" stroke-linejoin="round"/>
<path d="M96 124C111.464 124 124 111.464 124 96C124 80.536 111.464 68 96 68C80.536 68 68 80.536 68 96C68 111.464 80.536 124 96 124Z" stroke="black" stroke-width="12" stroke-linecap="round" stroke-linejoin="round"/>
<path d="M96 68H162" stroke="black" stroke-width="12"/>
<path d="M120.249 110L87.2487 167.158" stroke="black" stroke-width="12"/>
<path d="M71.7513 110L38.7513 52.8422" stroke="black" stroke-width="12"/>
</svg>
