<svg width="192" height="192" viewBox="0 0 192 192" fill="none" xmlns="http://www.w3.org/2000/svg">
<path fill-rule="evenodd" clip-rule="evenodd" d="M62.6274 81.2548C59.5032 78.1306 59.5032 73.0653 62.6274 69.9411L102.225 30.3431C105.35 27.2189 110.415 27.2189 113.539 30.3431C116.663 33.4673 116.663 38.5327 113.539 41.6569L73.9411 81.2548C70.8169 84.379 65.7516 84.379 62.6274 81.2548ZM82.4264 89.7401C74.6159 97.5506 61.9526 97.5506 54.1421 89.7401C46.3317 81.9296 46.3316 69.2663 54.1421 61.4558L93.7401 21.8579C97.547 18.0509 102.507 16.0996 107.496 16.0037C107.753 15.9988 108.01 15.9988 108.267 16.0037C110.82 16.0518 113.256 16.5784 115.489 17.4974C117.866 18.4736 120.094 19.9271 122.024 21.8579C123.944 23.7772 125.391 25.9896 126.367 28.351C127.344 30.7073 127.882 33.2908 127.882 36V156C127.882 167.046 118.928 176 107.882 176C96.8366 176 87.8823 167.046 87.8823 156V84.2843L82.4264 89.7401ZM99.8823 72.2843V156C99.8823 160.418 103.464 164 107.882 164C112.301 164 115.882 160.418 115.882 156V56.2843L99.8823 72.2843Z" fill="black"/>
<path d="M71.3337 80.7664C72.8852 79.4969 74.7574 78.6497 76.2905 77.321C77.5224 76.2534 78.8188 75.2836 79.9894 74.1384C81.3618 72.7958 82.9932 71.7616 84.2609 70.2894C86.2336 67.9986 88.8518 66.4305 90.8513 64.1871C92.2338 62.6361 93.5659 61.0283 94.8976 59.4368C95.8479 58.301 97.0098 57.3921 97.958 56.2543C99.0033 54.9999 100.244 53.7406 101.488 52.6774C102.862 51.5035 103.893 50.0658 105.168 48.7908C106.94 47.0191 109.318 45.5825 110.707 43.4584C112.018 41.4539 111.552 38.8575 111.552 36.577C111.552 35.632 111.152 35.075 110.669 34.2582C110.139 33.3608 109.734 33.1593 108.773 32.9063C107.545 32.5831 107.008 32.6861 105.891 32.9345C105.051 33.1211 104.424 33.8706 103.591 34.2112C99.2169 36.0006 95.6297 38.8701 93.3016 43.0829C91.8332 45.74 89.0645 47.3479 86.6361 48.9973C84.4652 50.472 82.8765 52.5969 81.3131 54.6489C80.8103 55.3089 80.2356 55.9063 79.7078 56.5453C79.1382 57.2347 78.5181 57.8664 77.8865 58.498C77.1105 59.274 76.2333 59.6111 75.3799 60.2348C72.9655 61.9992 70.6088 63.8302 68.6299 66.1023C67.5232 67.3729 66.6431 68.7853 65.5976 70.0922C65.0058 70.832 64.189 71.7047 63.8139 72.58C63.5405 73.2179 63.2224 73.8294 63.2224 74.514C63.2224 75.4297 63.5604 76.2722 63.5604 77.2177" stroke="black" stroke-opacity="0.45" stroke-width="16" stroke-linecap="round"/>
<path d="M100.906 75.1899C100.906 74.4255 102.226 73.4506 102.661 72.918C103.282 72.1596 103.721 71.3009 104.37 70.5522C106.387 68.2252 109.376 66.9976 111.383 64.7035C111.627 64.4246 111.877 64.0445 111.89 63.6614C111.904 63.2246 111.967 61.968 111.862 63.2859C111.695 65.3659 111.437 67.5493 111.007 69.5946C110.834 70.4196 110.768 71.3445 110.463 72.1294C110.277 72.6075 110.369 73.2004 110.369 73.7066C110.369 74.661 110.369 77.5244 110.369 76.5699C110.369 74.869 111.558 73.1472 112.228 71.66C113.5 68.8337 114.374 65.8525 115.27 62.8916C115.716 61.4148 118.097 57.5103 117.006 58.6013C116.243 59.3651 115.333 60.0302 114.612 60.8262C113.621 61.9223 112.63 63.5047 111.918 64.7974C111.155 66.1827 110.509 67.3241 110.191 68.8624C109.436 72.5119 109.564 76.2875 108.773 79.9027C108.582 80.7755 108.628 81.7186 108.548 82.6064C108.499 83.1452 108.172 83.6373 108.172 84.146C108.172 84.9065 108.172 85.6669 108.172 86.4273C108.172 90.7246 108.323 95.14 107.496 99.3734C107.337 100.188 106.196 106.252 104.868 105.25C104.388 104.888 104.304 103.773 104.21 103.288C103.99 102.142 103.825 100.985 103.704 99.824C103.59 98.7418 103.61 97.6624 103.61 96.5758C103.61 94.6544 103.61 92.7329 103.61 90.8115C103.61 87.1502 103.61 83.4889 103.61 79.8276C103.61 78.7824 103.61 77.7372 103.61 76.692C103.61 75.4424 104.115 74.4437 104.417 73.2372C104.472 73.018 104.554 72.3846 104.783 72.2702C104.943 72.1901 104.809 72.6275 104.83 72.8053C105.024 74.4696 105.341 76.12 105.562 77.781C106.071 81.5963 106.428 85.4158 107.224 89.1874C107.492 90.458 107.899 91.7159 108.041 93.0083C108.302 95.3847 108.481 97.7543 108.51 100.143C108.525 101.333 108.848 102.476 108.848 103.654C108.848 104.113 108.799 104.609 108.886 105.063C109.206 106.746 109.08 108.54 109.43 110.207C109.772 111.836 109.831 112.716 109.562 114.394C109.319 115.905 109.118 117.439 108.867 118.947C108.688 120.018 108.833 121.159 108.689 122.243C108.598 122.924 109.182 123.549 108.923 124.214C108.689 124.817 108.535 125.637 108.135 126.148C107.777 126.605 106.642 126.392 106.163 126.392C104.355 126.392 103.839 124.686 103.366 123.266C103.201 122.772 103.346 122.25 103.197 121.754C103.007 121.128 102.934 120.615 102.934 119.961C102.934 119.324 102.839 118.722 103.478 118.356C103.694 118.232 105.278 117.652 105.44 117.896C105.879 118.554 104.34 119.975 104.06 120.309C103.434 121.056 102.827 121.82 102.183 122.552C102.014 122.744 101.63 123.293 101.591 123.041C101.501 122.456 101.561 121.784 101.582 121.191C101.586 121.059 101.607 120.978 101.704 120.881C102.418 120.167 103.043 119.451 103.61 118.6C104.248 117.643 104.946 116.552 105.206 115.408C105.301 114.987 104.978 115.546 104.962 115.709C104.922 116.102 105.088 116.46 105.121 116.844C105.333 119.282 105.637 121.563 105.637 124.026C105.637 126.712 105.245 129.821 105.816 132.438C106.271 134.525 106.144 136.669 106.144 138.794C106.144 141.216 105.554 143.551 105.468 145.957C105.401 147.854 105.468 149.766 105.468 151.665C105.468 153.32 105.502 154.943 105.637 156.565C105.695 157.259 106.259 158.402 106.651 158.968C107.362 159.995 108.54 158.647 108.98 158.03C109.551 157.227 109.524 156.361 109.524 155.42C109.524 153.999 109.524 152.578 109.524 151.158C109.524 149.543 109.59 148.02 110.031 146.464C110.227 145.772 110.15 145.076 110.303 144.38C110.47 143.619 110.853 142.946 111.045 142.201C111.577 140.135 112.194 138.081 112.603 135.987C112.797 134.998 112.735 133.985 112.735 132.982C112.735 132.232 112.995 130.922 112.566 130.279" stroke="black" stroke-opacity="0.25" stroke-width="16" stroke-linecap="round"/>
</svg>
