<svg width="192" height="192" viewBox="0 0 192 192" fill="none" xmlns="http://www.w3.org/2000/svg">
<path d="M162.5 34H26.5L29.5 156.5H163.5L162.5 34Z" fill="black" fill-opacity="0.3"/>
<path d="M24 40V152C24 153.051 24.2069 154.091 24.609 155.061C25.011 156.032 25.6003 156.914 26.3431 157.657C27.086 158.4 27.9679 158.989 28.9385 159.391C29.9091 159.793 30.9494 160 32 160H160C161.051 160 162.091 159.793 163.061 159.391C164.032 158.989 164.914 158.4 165.657 157.657C166.4 156.914 166.989 156.032 167.391 155.061C167.793 154.091 168 153.051 168 152V40C168 37.8783 167.157 35.8434 165.657 34.3431C164.157 32.8429 162.122 32 160 32H32C29.8783 32 27.8434 32.8429 26.3431 34.3431C24.8429 35.8434 24 37.8783 24 40V40Z" stroke="black" stroke-width="14"/>
<path d="M144 141.511H99.7183V160H144V141.511Z" fill="black"/>
<path d="M96 96C102.63 96 108 90.63 108 84C108 77.37 102.63 72 96 72C89.37 72 84 77.37 84 84C84 90.63 89.37 96 96 96ZM96 102C87.99 102 72 106.02 72 114V120H120V114C120 106.02 104.01 102 96 102Z" fill="black"/>
<path d="M126 84C121.028 84 117 88.0275 117 93C117 97.9725 121.028 102 126 102C130.972 102 135 97.9725 135 93C135 88.0275 130.972 84 126 84ZM126 106.5C124.635 106.5 122.959 106.658 121.188 106.969C122.807 108.852 124 111.263 124 114V120H144V115.5C144 109.515 132.007 106.5 126 106.5ZM112.156 109.984C109.706 111.395 108 113.241 108 115.5V116H116V114C116 113.341 115.743 112.706 114.656 111.703C114.046 111.14 113.175 110.553 112.156 109.984Z" fill="black"/>
<path d="M66 84C61.0275 84 57 88.0275 57 93C57 97.9725 61.0275 102 66 102C70.9725 102 75 97.9725 75 93C75 88.0275 70.9725 84 66 84ZM66 106.5C59.9925 106.5 48 109.515 48 115.5V120H68V114C68 111.263 69.1935 108.852 70.8125 106.969C69.0411 106.658 67.3645 106.5 66 106.5ZM79.8438 109.984C78.8246 110.553 77.9538 111.14 77.3438 111.703C76.2571 112.706 76 113.341 76 114V116H84V115.5C84 113.241 82.2942 111.395 79.8438 109.984Z" fill="black"/>
</svg>
