<svg width="192" height="192" viewBox="0 0 192 192" fill="none" xmlns="http://www.w3.org/2000/svg">
<path d="M106 122C106 113.163 113.163 106 122 106H154C162.837 106 170 113.163 170 122V154C170 162.837 162.837 170 154 170H122C113.163 170 106 162.837 106 154V122Z" stroke="black" stroke-width="12"/>
<path d="M149.607 148.607C147.509 150.704 144.836 152.133 141.926 152.712C139.017 153.291 136.001 152.994 133.26 151.858C130.519 150.723 128.176 148.8 126.528 146.334C124.88 143.867 124 140.967 124 138C124 135.033 124.88 132.133 126.528 129.666C128.176 127.2 130.519 125.277 133.26 124.142C136.001 123.006 139.017 122.709 141.926 123.288C144.836 123.867 147.509 125.296 149.607 127.393" stroke="black" stroke-width="8" stroke-linecap="round"/>
<path fill-rule="evenodd" clip-rule="evenodd" d="M96 28C75.568 28 57.2406 37.0114 44.7756 51.2765L63.9799 84.5394C68.6832 71.4004 81.2438 62 96 62H154.903C143.145 41.6748 121.17 28 96 28ZM28 96C28 83.6095 31.3139 71.993 37.1038 61.9886L66.2256 112.429C71.0936 121.232 79.7525 127.648 90 129.472V120C90 119.058 90.0434 118.127 90.1282 117.208C84.5128 115.656 79.7983 111.935 76.9442 107.002L76.9475 107L76.733 106.628C74.9914 103.478 74 99.8547 74 96C74 83.8497 83.8497 74 96 74C106.117 74 114.639 80.8287 117.208 90.1282C118.127 90.0434 119.058 90 120 90H129.472C128.398 83.966 125.732 78.4828 121.924 74H160.362C162.208 79.4023 163.394 85.111 163.821 91.0297C168.402 92.2632 172.548 94.5541 175.984 97.6245C175.995 97.0843 176 96.5428 176 96C176 51.8172 140.183 16 96 16C51.8172 16 16 51.8172 16 96C16 140.183 51.8172 176 96 176C96.5428 176 97.0843 175.995 97.6245 175.984C94.5541 172.548 92.2632 168.402 91.0297 163.821C55.7948 161.276 28 131.884 28 96Z" fill="black"/>
<path d="M125 81L165 82" stroke="black" stroke-opacity="0.25" stroke-width="18" stroke-linecap="round"/>
<path d="M82.5 126.5C82.5 138.258 83.5 176.258 83.5 164.5C83.5 163.771 81.2776 162.623 81.2776 162.834C81.2776 163.55 78.2706 162.99 77.376 162.749C76.2847 162.456 75.1788 161.138 74.0564 160.669C71.5124 159.606 71.587 157.325 71.5619 154.683C71.5372 152.092 72.0453 149.612 72.4227 147.069C72.8345 144.293 72.7847 141.521 72.7847 138.72C72.7847 135.867 70.9553 121.776 70.5 119C70.3848 118.298 71.9516 133.287 71.3825 133.475C69.8854 133.969 67.7735 133.864 66.2368 133.971C64.5848 134.086 62.1989 133.639 60.6183 134.329C59.3804 134.869 58.6983 136.192 57.3426 136.566C56.7132 136.74 58.0506 138.238 58.3253 138.744C59.2095 140.375 59.7646 142.265 60.7028 143.834C61.6979 145.498 61.595 148.124 62.1191 150.029C62.1523 150.149 62.3944 151.121 62.1021 151.098C59.9626 150.924 58.5677 149.365 57.2747 147.76C55.0782 145.033 52.5489 143.509 51.8392 139.836C51.0784 135.899 50.2551 131.575 50.2272 127.541C50.2134 125.549 51.4483 119.691 51.327 121.679C51.3158 121.863 51.2362 122.09 51.6751 122.392C52.07 122.664 51.7023 121.389 51.6109 120.9C50.9642 117.444 50.5167 113.958 50.166 110.455C49.8221 107.021 49.2242 103.605 48.3839 100.264C47.6716 97.432 45.8434 95.4589 44.4506 93.0239C43.1303 90.716 42.3704 88.3252 41.7695 85.7158C41.0218 82.4693 41.0674 79.5349 39.4737 76.5424C38.3493 74.4313 37.178 72.3395 36.1022 70.2007C35.7766 69.5533 35.6683 69.0176 35.4921 68.3355C35.0536 66.6374 35.2665 71.8491 35.2353 73.6089C35.1417 78.873 34.6698 83.625 32.9716 88.5983C31.6253 92.5408 30.8921 95.7262 31.0129 99.9591C31.2369 107.807 33.1886 116.479 36.4233 123.613C38.6115 128.439 41.3313 132.807 43.8887 137.399C44.1414 137.853 44.5255 138.724 44.4506 137.517C44.2659 134.544 43.7796 131.584 43.407 128.632C43.0028 125.431 43.2356 122.235 42.9093 119.035C42.5159 115.177 41.7387 111.269 41.1433 107.437C40.6699 104.389 38.4381 95.4476 39.4415 98.3482C40.3604 101.004 41.5838 104.105 44.8359 103.333C46.2586 102.996 47.454 101.916 48.689 101.163C49.8952 100.428 51.6819 99.8292 52.3815 98.45C54.2963 94.6749 47.9515 90.3022 46.5377 87.4284C45.9457 86.225 45.5466 83.9707 45.3817 86.4788C45.0451 91.599 40.7626 96.0978 36.3912 98.06C35.55 98.4376 37.7826 96.7817 38.5907 96.3304C41.3791 94.7733 42.629 96.2245 44.8038 98.3143C48.4429 101.811 52.5411 105.058 55.9135 108.827C57.5326 110.637 58.5462 112.872 59.3813 115.169C60.0454 116.995 61.0552 118.941 61.5326 120.832C61.9322 122.415 62.1384 124.043 62.7206 125.58" stroke="black" stroke-opacity="0.35" stroke-width="15" stroke-linecap="round"/>
<path d="M46.1152 49.6948C49.9978 55.2904 51.4383 61.9396 54.1534 68.0938C54.504 68.8887 59.2454 78.707 60.2603 77.7239C61.8221 76.2108 62.8185 75.1038 64.8796 74.2007C68.5724 72.5825 72.4513 71.8251 76.2321 70.4948C80.6567 68.938 84.8842 66.7055 89.281 65.0273C92.8229 63.6754 96.493 62.7467 100.086 61.5432C108.278 58.7991 117.294 58.7123 125.844 58.4376C131.411 58.2587 137.017 58.2908 142.573 58.6725C143.988 58.7697 145.464 58.7627 146.866 58.9857C147.414 59.0729 147.934 59.2094 148.445 59.4293C148.902 59.6262 150.009 60.548 149.776 60.1079C146.735 54.3648 141.854 49.9149 137.353 45.3365C130.653 38.521 120.497 37.4439 111.699 34.793C103.351 32.2775 95.1296 32.1558 86.4625 32.0788C82.3497 32.0422 78.4111 31.5849 74.3792 32.7573C69.7351 34.1078 65.7658 36.9021 61.3564 38.7859C59.3189 39.6564 57.1053 40.6891 54.9754 41.3044C54.1982 41.5289 53.31 41.2772 53.4487 42.3352C53.6267 43.6925 53.9684 45.104 54.4535 46.3804C54.8631 47.4583 54.9497 48.6332 55.4322 49.6687C56.1908 51.297 56.8165 52.9687 57.5983 54.5882C58.2874 56.0156 58.4731 57.5707 59.1641 58.9857C59.6247 59.9286 60.4008 62.0251 61.2911 62.7176C61.5666 62.9319 62.0371 62.6425 62.2698 62.535C63.6955 61.8759 65.072 61.2839 66.5759 60.8125C68.8745 60.0921 71.1923 59.4409 73.4919 58.7247C75.6975 58.0377 77.8461 57.2113 80.0685 56.5586C82.6357 55.8046 85.404 55.7155 88.0414 55.3189C94.0265 54.4189 100.02 53.5685 106.023 52.8266C109.884 52.3494 113.674 51.339 117.584 51.339C120.698 51.339 124.615 50.6329 127.619 51.7174C129.661 52.4548 131.517 53.7581 133.543 54.5751C135.302 55.2845 136.925 56.1879 138.645 56.9761C139.897 57.5499 141.152 58.2008 142.364 58.8552C143.243 59.3293 144.201 59.4552 145.091 59.9121C146.283 60.5239 147.421 60.3839 148.588 60.8647C149.995 61.4441 146.68 59.1143 146.618 59.064C142.784 55.9497 138.749 54.6322 134.039 53.3616C132.185 52.8615 129.97 52.5563 128.219 51.7044C127.115 51.1672 126.178 50.3071 125.113 49.6948C122.053 47.9341 119.222 46.8788 115.744 46.5239C111.887 46.1304 108.351 44.6286 104.522 44.1751C102.454 43.9303 100.414 43.8515 98.337 43.8228C93.205 43.752 88.0914 43.189 82.9523 43.1312C79.494 43.0924 75.7519 42.7579 72.3175 43.2748C69.3518 43.7211 65.2419 44.9725 63.2093 47.333C62.8791 47.7165 61.3784 49.7808 61.9044 50.3473C62.6378 51.1371 66.2461 50.5259 66.9674 50.4778C69.4704 50.3109 71.8489 49.9 74.3009 49.46" stroke="black" stroke-opacity="0.45" stroke-width="15" stroke-linecap="round"/>
<path d="M116.892 121.991C117.663 121.051 118.194 119.93 118.848 118.907C119.1 118.514 119.422 117.808 119.868 117.565C120.896 117.004 121.832 116.717 123.028 116.637C125.284 116.487 127.578 116.606 129.84 116.606C134.212 116.606 138.492 115.957 142.849 115.717C146.144 115.534 149.369 115.226 152.674 115.226C154.579 115.226 156.55 115.218 157.315 117.189C158.077 119.154 158.451 121.384 158.665 123.464C159.168 128.354 159.054 133.309 159.248 138.222C159.475 143.972 159.826 150.125 157.745 155.618C157.37 156.608 157.129 158.031 155.98 158.364C152.854 159.272 149.302 159.175 146.086 159.239C138.956 159.381 131.816 159.269 124.685 159.269C122.645 159.269 120.604 159.269 118.564 159.269C118.113 159.269 116.251 159.565 115.925 159.239C115.775 159.088 115.827 158.822 115.818 158.61C115.77 157.434 115.869 156.253 115.933 155.081C116.138 151.331 116.254 147.582 115.902 143.836C115.525 139.821 114.492 135.161 115.757 131.18C115.845 130.903 116.034 130.796 116.309 130.705C118.027 130.132 119.974 129.937 121.747 129.677C125.128 129.181 128.525 128.764 131.911 128.296C134.25 127.973 136.806 127.939 139.151 128.204C142.314 128.562 143.686 132.306 145.073 134.724C146.184 136.659 147.43 138.51 148.486 140.477C149.452 142.274 150.005 144.113 150.404 146.107C151.221 150.192 149.415 137.834 148.816 133.711C148.502 131.544 147.56 129.708 147.075 127.606C146.836 126.568 146.635 125.501 147.635 124.783C148.353 124.267 149.153 124.119 150.013 124.062C150.833 124.007 151.44 123.77 150.887 124.814C149.446 127.532 147.911 130.078 146.73 132.944C144.701 137.867 142.806 142.743 139.78 147.165C139.032 148.259 138.342 149.451 137.548 150.51C137.16 151.028 136.609 150.813 136.06 150.671C132.149 149.655 130.638 146.5 130.054 142.655C129.639 139.922 130.4 137.915 132.816 136.626C133.37 136.331 132.366 136.837 132.294 136.887C129.435 138.887 126.481 141.091 124.762 144.205C123.747 146.043 123.184 148.07 122.79 150.119C122.71 150.537 122.502 151.257 122.936 151.599C123.994 152.433 126.089 152.573 127.285 152.742C128.941 152.975 130.548 153.131 132.217 153.187C133.31 153.223 135.176 153.399 135.991 152.351C137.034 151.01 137.124 148.498 137.249 146.951C137.466 144.273 137.461 141.541 137.034 138.881C136.738 137.034 136.135 133.959 134.281 132.937C131.285 131.285 131.344 138.099 131.496 139.296C131.644 140.458 131.869 141.779 132.793 142.632C133.853 143.611 135.896 143.366 137.142 143.054C138.73 142.656 139.959 141.776 140.663 140.285C140.987 139.597 141.453 138.107 140.747 137.424C138.915 135.651 136.678 139.871 136.321 140.96C136.066 141.741 135.494 143.756 136.099 144.603C136.692 145.434 138.527 144.402 138.96 144.105C140.081 143.335 140.668 142.643 141.023 141.298C141.232 140.506 141.471 137.624 140.164 137.255C139.063 136.944 138.84 139.575 138.806 140.009C138.749 140.75 138.875 141.197 138.983 141.873" stroke="black" stroke-opacity="0.25" stroke-width="15" stroke-linecap="round"/>
</svg>
