<svg width="192" height="192" viewBox="0 0 192 192" fill="none" xmlns="http://www.w3.org/2000/svg">
<path fill-rule="evenodd" clip-rule="evenodd" d="M27.5 26.5H81.5L102.165 80.98H111.025V76.8H114.985V80.98H125.93V83.95H103.291L104.147 86.205H122.685V95.005H107.485L108.34 97.26H119.66H120.485L121.255 97.095L123.4 98.855C121.082 100.787 117.83 102.592 114.875 103.859V104.616C118.288 104.463 121.853 104.299 125.38 104.135L125.325 107.05C121.834 107.26 118.288 107.454 114.875 107.633V111.34C114.875 112.274 114.773 112.946 114.479 113.445L116.051 117.589L119.605 117.28C120.32 120.305 120.87 124.1 120.925 126.41L119.47 126.604L125.5 142.5H26L27.5 26.5ZM111.08 104.484L109.404 100.065H116.57C115.391 100.745 114.086 101.394 112.822 101.935H111.08V104.484ZM125.655 88.735V85.16H131.76V76.8H135.335V85.16H140.78H142.815H144.575C144.41 101.935 144.355 111.23 146.775 111.23C147.6 111.23 147.82 107.93 147.875 103.86C148.59 104.685 149.69 105.675 150.405 106.17C150.075 112.66 149.36 114.75 146.5 114.75C140.983 114.75 140.783 106.048 140.78 88.735H135.335V89.01C135.335 92.2213 135.151 95.521 134.446 98.7728C136.678 100.58 138.644 102.397 139.9 103.915L137.755 107.105C136.689 105.773 135.13 104.216 133.335 102.627C131.639 107.239 128.575 111.637 123.125 115.41C122.465 114.585 121.255 113.485 120.32 112.825C125.899 109.055 128.799 104.608 130.281 100.072C128.425 98.5971 126.481 97.1851 124.665 95.995L126.7 93.245C128.152 94.146 129.694 95.1887 131.213 96.2933C131.646 93.8111 131.76 91.3513 131.76 89.01V88.735H125.655ZM119.055 88.79H106.735V92.475H119.055V88.79ZM130.11 126.905C129.67 124.43 128.405 120.525 127.085 117.5L130.935 116.84C132.31 119.755 133.685 123.66 134.18 126.025L130.11 126.905ZM145.345 127.51C144.025 124.76 141.055 120.47 138.47 117.335L142.375 116.07C144.96 119.095 148.04 123.275 149.415 126.025L145.345 127.51Z" fill="black" fill-opacity="0.4"/>
<path d="M81.5 26.5L81.9675 26.3227L81.8451 26H81.5V26.5ZM27.5 26.5V26H27.0064L27 26.4935L27.5 26.5ZM102.165 80.98L101.697 81.1573L101.82 81.48H102.165V80.98ZM111.025 80.98V81.48H111.525V80.98H111.025ZM111.025 76.8V76.3H110.525V76.8H111.025ZM114.985 76.8H115.485V76.3H114.985V76.8ZM114.985 80.98H114.485V81.48H114.985V80.98ZM125.93 80.98H126.43V80.48H125.93V80.98ZM125.93 83.95V84.45H126.43V83.95H125.93ZM103.291 83.95V83.45H102.567L102.824 84.1273L103.291 83.95ZM104.147 86.205L103.679 86.3823L103.802 86.705H104.147V86.205ZM122.685 86.205H123.185V85.705H122.685V86.205ZM122.685 95.005V95.505H123.185V95.005H122.685ZM107.485 95.005V94.505H106.76L107.017 95.1823L107.485 95.005ZM108.34 97.26L107.873 97.4373L107.995 97.76H108.34V97.26ZM120.485 97.26V97.76H120.538L120.59 97.7489L120.485 97.26ZM121.255 97.095L121.572 96.7085L121.386 96.5556L121.15 96.6061L121.255 97.095ZM123.4 98.855L123.72 99.2391L124.185 98.852L123.717 98.4685L123.4 98.855ZM114.875 103.859L114.678 103.4L114.375 103.53V103.859H114.875ZM114.875 104.616H114.375V105.139L114.897 105.115L114.875 104.616ZM125.38 104.135L125.88 104.144L125.89 103.611L125.357 103.636L125.38 104.135ZM125.325 107.05L125.355 107.549L125.816 107.521L125.825 107.059L125.325 107.05ZM114.875 107.633L114.849 107.133L114.375 107.158V107.633H114.875ZM114.479 113.445L114.048 113.192L113.927 113.399L114.012 113.623L114.479 113.445ZM116.051 117.589L115.584 117.766L115.718 118.12L116.094 118.087L116.051 117.589ZM119.605 117.28L120.092 117.165L119.992 116.744L119.562 116.782L119.605 117.28ZM120.925 126.41L120.991 126.906L121.436 126.846L121.425 126.398L120.925 126.41ZM119.47 126.604L119.404 126.108L118.779 126.192L119.003 126.781L119.47 126.604ZM125.5 142.5V143H126.224L125.967 142.323L125.5 142.5ZM26 142.5L25.5 142.494L25.4935 143H26V142.5ZM111.08 104.484L110.613 104.661L111.58 104.484H111.08ZM109.404 100.065V99.565H108.68L108.936 100.242L109.404 100.065ZM116.57 100.065L116.82 100.498L118.438 99.565H116.57V100.065ZM112.822 101.935V102.435H112.924L113.019 102.395L112.822 101.935ZM111.08 101.935V101.435H110.58V101.935H111.08ZM125.655 85.16V84.66H125.155V85.16H125.655ZM125.655 88.735H125.155V89.235H125.655V88.735ZM131.76 85.16V85.66H132.26V85.16H131.76ZM131.76 76.8V76.3H131.26V76.8H131.76ZM135.335 76.8H135.835V76.3H135.335V76.8ZM135.335 85.16H134.835V85.66H135.335V85.16ZM144.575 85.16L145.075 85.1649L145.08 84.66H144.575V85.16ZM147.875 103.86L148.253 103.533L147.393 102.54L147.375 103.853L147.875 103.86ZM150.405 106.17L150.904 106.195L150.918 105.917L150.69 105.759L150.405 106.17ZM140.78 88.735L141.28 88.7349L141.279 88.235H140.78V88.735ZM135.335 88.735V88.235H134.835V88.735H135.335ZM134.446 98.7728L133.958 98.6669L133.893 98.9676L134.132 99.1613L134.446 98.7728ZM139.9 103.915L140.315 104.194L140.523 103.884L140.285 103.596L139.9 103.915ZM137.755 107.105L137.365 107.417L137.79 107.949L138.17 107.384L137.755 107.105ZM133.335 102.627L133.666 102.253L133.118 101.768L132.865 102.455L133.335 102.627ZM123.125 115.41L122.735 115.722L123.026 116.087L123.41 115.821L123.125 115.41ZM120.32 112.825L120.04 112.411L119.44 112.816L120.032 113.233L120.32 112.825ZM130.281 100.072L130.756 100.227L130.864 99.8963L130.592 99.6801L130.281 100.072ZM124.665 95.995L124.263 95.6976L123.948 96.1231L124.391 96.4132L124.665 95.995ZM126.7 93.245L126.964 92.8202L126.572 92.5772L126.298 92.9476L126.7 93.245ZM131.213 96.2933L130.919 96.6977L131.568 97.1695L131.706 96.3793L131.213 96.2933ZM131.76 88.735H132.26V88.235H131.76V88.735ZM106.735 88.79V88.29H106.235V88.79H106.735ZM119.055 88.79H119.555V88.29H119.055V88.79ZM106.735 92.475H106.235V92.975H106.735V92.475ZM119.055 92.475V92.975H119.555V92.475H119.055ZM127.085 117.5L127.001 117.007L126.371 117.115L126.627 117.7L127.085 117.5ZM130.11 126.905L129.618 126.993L129.709 127.503L130.216 127.394L130.11 126.905ZM130.935 116.84L131.387 116.627L131.225 116.283L130.851 116.347L130.935 116.84ZM134.18 126.025L134.286 126.514L134.771 126.409L134.669 125.923L134.18 126.025ZM138.47 117.335L138.316 116.859L137.617 117.086L138.084 117.653L138.47 117.335ZM145.345 127.51L144.894 127.726L145.09 128.135L145.516 127.98L145.345 127.51ZM142.375 116.07L142.755 115.745L142.538 115.492L142.221 115.594L142.375 116.07ZM149.415 126.025L149.586 126.495L150.113 126.303L149.862 125.801L149.415 126.025ZM81.5 26H27.5V27H81.5V26ZM102.632 80.8027L81.9675 26.3227L81.0325 26.6773L101.697 81.1573L102.632 80.8027ZM111.025 80.48H102.165V81.48H111.025V80.48ZM110.525 76.8V80.98H111.525V76.8H110.525ZM114.985 76.3H111.025V77.3H114.985V76.3ZM115.485 80.98V76.8H114.485V80.98H115.485ZM125.93 80.48H114.985V81.48H125.93V80.48ZM126.43 83.95V80.98H125.43V83.95H126.43ZM103.291 84.45H125.93V83.45H103.291V84.45ZM104.614 86.0277L103.759 83.7727L102.824 84.1273L103.679 86.3823L104.614 86.0277ZM122.685 85.705H104.147V86.705H122.685V85.705ZM123.185 95.005V86.205H122.185V95.005H123.185ZM107.485 95.505H122.685V94.505H107.485V95.505ZM108.808 97.0827L107.952 94.8277L107.017 95.1823L107.873 97.4373L108.808 97.0827ZM119.66 96.76H108.34V97.76H119.66V96.76ZM120.485 96.76H119.66V97.76H120.485V96.76ZM121.15 96.6061L120.38 96.7711L120.59 97.7489L121.36 97.5839L121.15 96.6061ZM123.717 98.4685L121.572 96.7085L120.938 97.4815L123.083 99.2415L123.717 98.4685ZM115.072 104.319C118.055 103.039 121.353 101.212 123.72 99.2391L123.08 98.4709C120.811 100.362 117.606 102.144 114.678 103.4L115.072 104.319ZM115.375 104.616V103.859H114.375V104.616H115.375ZM125.357 103.636C121.83 103.8 118.265 103.964 114.853 104.116L114.897 105.115C118.31 104.963 121.876 104.799 125.403 104.634L125.357 103.636ZM125.825 107.059L125.88 104.144L124.88 104.126L124.825 107.041L125.825 107.059ZM114.901 108.132C118.314 107.954 121.863 107.759 125.355 107.549L125.295 106.551C121.806 106.761 118.261 106.955 114.849 107.133L114.901 108.132ZM115.375 111.34V107.633H114.375V111.34H115.375ZM114.91 113.699C115.275 113.078 115.375 112.292 115.375 111.34H114.375C114.375 112.256 114.271 112.813 114.048 113.192L114.91 113.699ZM116.519 117.412L114.947 113.268L114.012 113.623L115.584 117.766L116.519 117.412ZM119.562 116.782L116.008 117.091L116.094 118.087L119.648 117.778L119.562 116.782ZM121.425 126.398C121.369 124.044 120.812 120.213 120.092 117.165L119.118 117.395C119.828 120.397 120.371 124.156 120.425 126.422L121.425 126.398ZM119.537 127.1L120.991 126.906L120.859 125.914L119.404 126.108L119.537 127.1ZM125.967 142.323L119.938 126.427L119.003 126.781L125.033 142.677L125.967 142.323ZM26 143H125.5V142H26V143ZM27 26.4935L25.5 142.494L26.5 142.506L28 26.5065L27 26.4935ZM111.548 104.306L109.871 99.8877L108.936 100.242L110.613 104.661L111.548 104.306ZM109.404 100.565H116.57V99.565H109.404V100.565ZM116.32 99.6319C115.159 100.302 113.871 100.942 112.625 101.475L113.019 102.395C114.3 101.847 115.623 101.189 116.82 100.498L116.32 99.6319ZM112.822 101.435H111.08V102.435H112.822V101.435ZM110.58 101.935V104.484H111.58V101.935H110.58ZM125.155 85.16V88.735H126.155V85.16H125.155ZM131.76 84.66H125.655V85.66H131.76V84.66ZM131.26 76.8V85.16H132.26V76.8H131.26ZM135.335 76.3H131.76V77.3H135.335V76.3ZM135.835 85.16V76.8H134.835V85.16H135.835ZM140.78 84.66H135.335V85.66H140.78V84.66ZM142.815 84.66H140.78V85.66H142.815V84.66ZM144.575 84.66H142.815V85.66H144.575V84.66ZM146.775 110.73C146.66 110.73 146.529 110.685 146.369 110.485C146.198 110.272 146.025 109.915 145.867 109.375C145.551 108.299 145.338 106.66 145.205 104.455C144.938 100.057 144.992 93.5604 145.075 85.1649L144.075 85.1551C143.993 93.5346 143.937 100.073 144.207 104.516C144.341 106.732 144.558 108.465 144.907 109.656C145.081 110.25 145.3 110.75 145.589 111.11C145.888 111.485 146.285 111.73 146.775 111.73V110.73ZM147.375 103.853C147.348 105.887 147.279 107.706 147.118 109.01C147.036 109.667 146.935 110.16 146.818 110.478C146.759 110.638 146.708 110.72 146.679 110.753C146.656 110.779 146.69 110.73 146.775 110.73V111.73C147.067 111.73 147.287 111.578 147.435 111.408C147.576 111.245 147.678 111.036 147.756 110.824C147.914 110.395 148.026 109.809 148.11 109.133C148.279 107.769 148.347 105.903 148.375 103.867L147.375 103.853ZM150.69 105.759C150.013 105.29 148.943 104.329 148.253 103.533L147.497 104.187C148.237 105.041 149.367 106.06 150.12 106.581L150.69 105.759ZM146.5 115.25C147.274 115.25 147.957 115.109 148.536 114.746C149.118 114.381 149.543 113.825 149.86 113.092C150.479 111.662 150.74 109.426 150.904 106.195L149.906 106.145C149.74 109.404 149.478 111.458 148.942 112.695C148.682 113.296 148.371 113.669 148.005 113.898C147.635 114.13 147.156 114.25 146.5 114.25V115.25ZM140.28 88.7351C140.281 97.3742 140.33 103.928 141.079 108.319C141.453 110.513 142.012 112.234 142.875 113.415C143.764 114.629 144.96 115.25 146.5 115.25V114.25C145.281 114.25 144.384 113.783 143.683 112.825C142.957 111.833 142.431 110.297 142.065 108.151C141.334 103.863 141.281 97.4089 141.28 88.7349L140.28 88.7351ZM135.335 89.235H140.78V88.235H135.335V89.235ZM135.835 89.01V88.735H134.835V89.01H135.835ZM134.935 98.8787C135.651 95.5778 135.835 92.2383 135.835 89.01H134.835C134.835 92.2043 134.652 95.4643 133.958 98.6669L134.935 98.8787ZM140.285 103.596C138.998 102.041 137.002 100.2 134.761 98.3843L134.132 99.1613C136.353 100.961 138.29 102.753 139.515 104.234L140.285 103.596ZM138.17 107.384L140.315 104.194L139.485 103.636L137.34 106.826L138.17 107.384ZM133.003 103.002C134.789 104.581 136.324 106.117 137.365 107.417L138.145 106.793C137.054 105.429 135.471 103.85 133.666 102.253L133.003 103.002ZM123.41 115.821C128.945 111.989 132.073 107.507 133.804 102.8L132.865 102.455C131.205 106.97 128.205 111.285 122.84 114.999L123.41 115.821ZM120.032 113.233C120.936 113.872 122.109 114.94 122.735 115.722L123.515 115.098C122.821 114.23 121.574 113.098 120.608 112.417L120.032 113.233ZM129.806 99.9163C128.358 104.35 125.525 108.705 120.04 112.411L120.6 113.239C126.273 109.406 129.241 104.866 130.756 100.227L129.806 99.9163ZM124.391 96.4132C126.193 97.5941 128.124 98.9971 129.97 100.463L130.592 99.6801C128.725 98.1971 126.769 96.776 124.939 95.5768L124.391 96.4132ZM126.298 92.9476L124.263 95.6976L125.067 96.2924L127.102 93.5424L126.298 92.9476ZM131.507 95.889C129.98 94.778 128.427 93.7283 126.964 92.8202L126.436 93.6698C127.876 94.5637 129.409 95.5995 130.919 96.6977L131.507 95.889ZM131.26 89.01C131.26 91.3363 131.147 93.7645 130.72 96.2074L131.706 96.3793C132.146 93.8577 132.26 91.3662 132.26 89.01H131.26ZM131.26 88.735V89.01H132.26V88.735H131.26ZM125.655 89.235H131.76V88.235H125.655V89.235ZM106.735 89.29H119.055V88.29H106.735V89.29ZM107.235 92.475V88.79H106.235V92.475H107.235ZM119.055 91.975H106.735V92.975H119.055V91.975ZM118.555 88.79V92.475H119.555V88.79H118.555ZM126.627 117.7C127.936 120.701 129.187 124.567 129.618 126.993L130.602 126.817C130.153 124.293 128.874 120.349 127.543 117.3L126.627 117.7ZM130.851 116.347L127.001 117.007L127.169 117.993L131.019 117.333L130.851 116.347ZM134.669 125.923C134.164 123.51 132.774 119.567 131.387 116.627L130.483 117.053C131.846 119.943 133.206 123.81 133.691 126.127L134.669 125.923ZM130.216 127.394L134.286 126.514L134.074 125.536L130.004 126.416L130.216 127.394ZM138.084 117.653C140.657 120.774 143.599 125.028 144.894 127.726L145.796 127.294C144.451 124.492 141.453 120.166 138.856 117.017L138.084 117.653ZM142.221 115.594L138.316 116.859L138.624 117.811L142.529 116.546L142.221 115.594ZM149.862 125.801C148.46 122.997 145.349 118.78 142.755 115.745L141.995 116.395C144.571 119.41 147.62 123.553 148.968 126.249L149.862 125.801ZM145.516 127.98L149.586 126.495L149.244 125.555L145.174 127.04L145.516 127.98Z" fill="black"/>
<path fill-rule="evenodd" clip-rule="evenodd" d="M34 28C30.6863 28 28 30.6863 28 34V134C28 137.314 30.6863 140 34 140H121.375L79.8263 28H34ZM16 34C16 24.0589 24.0589 16 34 16H84C86.5088 16 88.7528 17.561 89.6254 19.9132L97.077 40H158C167.941 40 176 48.0589 176 58V158C176 167.941 167.941 176 158 176H108C105.491 176 103.247 174.439 102.375 172.087L94.923 152H34C24.0589 152 16 143.941 16 134V34ZM135.625 143.913L101.529 52H158C161.314 52 164 54.6863 164 58V158C164 161.314 161.314 164 158 164H112.174L107.722 152H130C131.964 152 133.804 151.039 134.925 149.426C136.047 147.814 136.309 145.755 135.625 143.913ZM48 88C48 79.1634 55.1634 72 64 72C68.4199 72 72.4117 73.7843 75.3137 76.6863C77.6569 79.0294 81.4558 79.0294 83.799 76.6863C86.1421 74.3431 86.1421 70.5442 83.799 68.201C78.7386 63.1406 71.7303 60 64 60C48.536 60 36 72.536 36 88C36 103.464 48.536 116 64 116C79.464 116 92 103.464 92 88C92 84.6863 89.3137 82 86 82H64C60.6863 82 58 84.6863 58 88C58 91.3137 60.6863 94 64 94H78.837C76.4634 99.8637 70.7148 104 64 104C55.1634 104 48 96.8366 48 88Z" fill="black"/>
<path d="M121.079 90.8702C121.079 91.1455 121.079 91.4209 121.079 91.6962C121.079 91.8048 121.09 91.9308 121.075 92.0406C121.067 92.1005 120.987 92.1934 120.951 92.24C120.806 92.4259 120.763 92.1186 120.749 92.0189C120.714 91.7726 120.669 91.5296 120.673 91.2804C120.675 91.0905 121.004 91.0646 121.147 91.0226" stroke="black" stroke-width="3" stroke-linecap="round"/>
<path d="M117.601 93.848C117.86 93.848 118.119 93.848 118.379 93.848C118.442 93.848 118.503 93.8496 118.564 93.8333C118.682 93.8019 118.811 93.78 118.934 93.7751C119.148 93.7665 119.363 93.7847 119.577 93.7735C119.699 93.767 119.822 93.7504 119.943 93.7456C120.188 93.736 120.436 93.7448 120.682 93.7448C120.787 93.7448 120.908 93.7629 121.007 93.73" stroke="black" stroke-width="3" stroke-linecap="round"/>
<path d="M115.315 87.552C115.532 87.5353 115.742 87.5422 115.958 87.5683C116.106 87.5862 116.257 87.6257 116.406 87.6257C116.629 87.6257 116.852 87.6257 117.075 87.6257C117.789 87.6257 118.503 87.6404 119.218 87.6404C119.597 87.6404 119.977 87.6367 120.356 87.6404C120.438 87.6412 120.518 87.6645 120.597 87.6838C120.663 87.7001 120.668 87.6961 120.668 87.7617C120.668 87.9096 120.66 88.0553 120.65 88.2024C120.643 88.2876 120.641 88.374 120.631 88.4588C120.618 88.5624 120.585 88.6644 120.58 88.7684C120.575 88.8858 120.565 89 120.55 89.1166C120.539 89.1953 120.51 89.2903 120.521 89.3705C120.527 89.4191 120.715 89.3358 120.746 89.3295C120.8 89.3187 120.883 89.339 120.912 89.2787C120.969 89.1586 120.948 89.0017 120.948 88.8716C120.948 88.6015 121.01 88.343 121.021 88.0738C121.024 87.992 121.029 87.9028 121.021 87.8206C121.011 87.734 120.962 87.6543 120.962 87.5667" stroke="black" stroke-width="3" stroke-linecap="round"/>
<path d="M111.865 78.9704C111.991 78.8946 112.159 78.8966 112.302 78.8966C112.356 78.8966 112.411 78.8997 112.464 78.8934C112.534 78.8851 112.599 78.8394 112.666 78.8377C112.749 78.8355 112.861 78.8601 112.94 78.8295C113.01 78.8023 112.956 78.6667 112.913 78.6402C112.752 78.5436 112.525 78.5575 112.345 78.5575C112.249 78.5575 112.153 78.5589 112.056 78.5575C112.028 78.5571 111.987 78.548 112.063 78.5526C112.321 78.5681 112.569 78.6017 112.827 78.6017C112.967 78.6017 113.112 78.5906 113.251 78.6017C113.374 78.6116 113.563 78.7397 113.604 78.5641C113.607 78.5492 113.644 78.3738 113.648 78.4584C113.66 78.7151 113.649 78.9746 113.649 79.2317C113.649 79.4026 113.663 79.5689 113.682 79.7387C113.716 80.0553 113.704 80.3736 113.734 80.6906C113.743 80.7812 113.899 81.6466 113.816 81.6539C113.758 81.659 113.677 81.6124 113.628 81.5917C113.491 81.5339 113.357 81.4686 113.226 81.3984C113.133 81.3481 113.069 81.2968 112.964 81.2886C112.928 81.2858 112.732 81.2597 112.715 81.3001C112.676 81.3929 112.693 81.5305 112.691 81.6285C112.69 81.7077 112.686 81.7896 112.694 81.8686C112.709 82.0255 112.781 82.1649 112.808 82.3175C112.812 82.3393 112.829 82.3604 112.853 82.3617C112.891 82.3638 112.929 82.3617 112.967 82.3617C113.005 82.3617 113.013 82.3887 113.049 82.3904C113.429 82.4072 113.811 82.3912 114.191 82.3912C114.518 82.3912 114.842 82.347 115.168 82.347" stroke="black" stroke-width="3" stroke-linecap="round"/>
<path d="M111.555 82.229C111.997 82.229 112.441 82.2185 112.882 82.247C113 82.2546 113.118 82.2732 113.236 82.2732" stroke="black" stroke-width="3" stroke-linecap="round"/>
<path d="M113.443 82.3322C113.829 82.3853 114.215 82.4463 114.602 82.4961C114.676 82.5055 114.748 82.5092 114.822 82.5092C114.933 82.5092 115.045 82.5092 115.156 82.5092C115.494 82.5092 115.842 82.5398 116.177 82.5001C116.763 82.4308 117.349 82.3298 117.938 82.2945C118.36 82.2693 118.785 82.2732 119.208 82.2732" stroke="black" stroke-width="3" stroke-linecap="round"/>
<path d="M118.294 82.3469C118.599 82.4324 118.928 82.4944 119.247 82.4944C119.484 82.4944 119.71 82.4502 119.948 82.4502C120.283 82.4502 120.617 82.4502 120.952 82.4502C121.274 82.4502 121.587 82.3934 121.908 82.3912C122.037 82.3903 122.165 82.369 122.294 82.3617C122.403 82.3556 122.505 82.3194 122.614 82.3174C122.954 82.3112 123.297 82.335 123.636 82.3166C123.963 82.2989 124.291 82.3027 124.619 82.3027" stroke="black" stroke-width="3" stroke-linecap="round"/>
<path d="M119.085 98.749C119.168 98.8102 119.174 98.9011 119.205 98.9936C119.216 99.029 119.222 99.0756 119.261 99.0909C119.306 99.1087 119.356 99.1131 119.404 99.1131C119.465 99.1131 119.517 99.0729 119.568 99.0437C119.623 99.0119 119.677 98.9779 119.728 98.9387C119.862 98.8342 120.026 98.8444 120.188 98.8444C120.338 98.8444 120.476 98.8609 120.624 98.88C120.713 98.8915 120.803 98.9121 120.891 98.9272C120.948 98.9368 121.02 98.9674 121.061 99.009C121.083 99.0305 121.066 99.0739 121.08 99.1005C121.095 99.1268 121.187 99.137 121.216 99.1391C121.289 99.1443 121.163 99.1782 121.141 99.1872C121.092 99.2081 121.05 99.241 121.002 99.2633C120.924 99.2991 120.842 99.3265 120.764 99.3606C120.604 99.4301 120.481 99.5498 120.333 99.6418" stroke="black" stroke-width="3" stroke-linecap="round"/>
<path d="M123.527 105.618C123.236 105.634 122.936 105.617 122.649 105.668C122.574 105.681 122.496 105.691 122.421 105.694C122.36 105.697 122.272 105.711 122.219 105.672C122.177 105.64 122.078 105.566 122.066 105.513C122.047 105.426 123.229 105.5 123.375 105.503C123.656 105.509 123.926 105.445 124.2 105.388" stroke="black" stroke-width="3" stroke-linecap="round"/>
<path d="M124.008 111.869C124.089 111.804 124.174 111.732 124.27 111.691C124.329 111.666 124.33 111.77 124.336 111.806C124.355 111.935 124.365 112.079 124.393 112.205C124.412 112.291 124.372 112.458 124.414 112.531C124.427 112.555 124.93 111.968 124.996 111.902C125.075 111.823 125.19 111.71 125.285 111.658C125.489 111.547 125.513 111.322 125.585 111.128C125.642 110.974 125.606 110.825 125.777 110.73C125.853 110.688 125.94 110.558 125.988 110.488C126.033 110.424 126.082 110.369 126.138 110.315C126.314 110.146 126.57 110.094 126.747 109.926C126.861 109.818 126.918 109.65 127.027 109.531C127.25 109.289 127.383 108.974 127.625 108.75C127.987 108.416 128.219 107.984 128.555 107.628C129.345 106.79 129.825 105.726 130.315 104.698C130.421 104.474 130.566 104.274 130.677 104.052C130.75 103.905 130.802 103.751 130.878 103.605C131.151 103.081 131.341 102.515 131.576 101.973C131.618 101.876 131.663 101.771 131.7 101.672C131.749 101.543 131.754 101.399 131.811 101.272C131.836 101.218 131.929 100.914 131.869 101.092C131.807 101.276 131.79 101.466 131.758 101.657" stroke="black" stroke-width="3" stroke-linecap="round"/>
<path d="M133.431 95.2139C133.306 95.4917 133.268 95.8171 133.224 96.1178C133.169 96.4949 133.038 96.8568 132.94 97.2258C132.829 97.6404 132.7 98.0506 132.585 98.4641C132.545 98.6088 132.498 98.7546 132.47 98.9022C132.44 99.0556 132.375 99.2016 132.354 99.3552C132.344 99.4266 132.285 99.4572 132.252 99.5187C132.21 99.5946 132.119 99.3842 132.084 99.3402C131.968 99.1933 131.845 99.0847 131.671 99.0133C131.548 98.9625 131.397 98.9665 131.286 98.8915C130.975 98.6818 130.685 98.4491 130.411 98.1927C130.24 98.0332 129.998 97.9061 129.784 97.8059C129.52 97.6827 129.316 97.5239 129.093 97.338C129.028 97.2837 128.918 97.2149 128.878 97.1371C128.846 97.0758 128.89 96.9716 128.959 96.9651C129.057 96.9558 129.116 97.0205 129.162 97.0997C129.252 97.2565 129.37 97.3458 129.512 97.4534C129.632 97.5441 129.758 97.6285 129.884 97.7098C129.931 97.7402 130.126 97.8722 129.959 97.7483C129.494 97.4049 128.993 97.1266 128.513 96.8059C128.352 96.6979 128.231 96.573 128.105 96.4287C127.928 96.2259 127.731 96.0399 127.551 95.8379C127.406 95.6755 127.277 95.4917 127.085 95.3956C127.039 95.3726 126.991 95.2849 126.932 95.3144C126.828 95.3662 126.734 95.4357 126.623 95.4832" stroke="black" stroke-width="3" stroke-linecap="round"/>
<path d="M134.508 101.233C134.291 100.965 134.07 100.686 133.777 100.495C133.634 100.402 133.534 100.295 133.42 100.163C133.339 100.069 133.275 99.9643 133.188 99.8745C133.032 99.7152 132.871 99.5613 132.717 99.4001C132.559 99.2333 132.389 99.0649 132.262 98.8723C132.171 98.7338 132.072 98.5943 131.959 98.4727C131.818 98.3212 131.453 97.8175 131.574 97.9855C131.906 98.4465 132.178 98.9631 132.564 99.384C132.631 99.4573 132.637 99.4707 132.591 99.3595C132.452 99.022 132.277 98.6879 132.17 98.338C132.119 98.1674 132.079 98.0049 132.046 97.8295" stroke="black" stroke-width="3" stroke-linecap="round"/>
<path d="M134.277 101.772C134.476 101.745 134.678 101.908 134.816 102.041C134.861 102.085 134.969 102.246 135.009 102.146C135.052 102.039 135.066 101.919 135.066 101.805C135.066 101.702 135.159 101.873 135.177 101.898C135.26 102.014 135.359 102.123 135.46 102.224C135.651 102.415 135.879 102.573 136.1 102.729C136.299 102.87 136.486 103.057 136.658 103.229C136.979 103.55 137.364 103.796 137.732 104.051C137.8 104.098 137.835 104.106 137.814 104.205C137.801 104.265 137.768 104.318 137.754 104.379C137.721 104.522 137.739 104.683 137.739 104.83" stroke="black" stroke-width="3" stroke-linecap="round"/>
<path d="M133.181 96.2909C133.181 95.9867 133.262 95.6959 133.275 95.3956C133.293 94.9898 133.277 94.5807 133.277 94.1744C133.277 93.7504 133.393 93.3415 133.393 92.9168C133.393 92.4788 133.393 92.0407 133.393 91.6026C133.393 90.3789 133.393 89.1552 133.393 87.9315C133.393 87.2733 133.393 86.6152 133.393 85.957C133.393 85.7499 133.385 85.5292 133.335 85.3288" stroke="black" stroke-width="3" stroke-linecap="round"/>
<path d="M134.643 87.1173C134.235 86.983 133.833 86.8923 133.404 86.9068C132.9 86.9239 132.397 86.9418 131.893 86.9741C131.737 86.9841 131.581 86.9827 131.425 86.9827C131.273 86.9827 131.127 87.0162 130.976 87.0212C130.617 87.0329 130.261 87.1507 129.9 87.1739C129.784 87.1814 129.676 87.2173 129.561 87.2284C129.405 87.2436 129.244 87.2327 129.087 87.2327C128.911 87.2327 128.734 87.2327 128.558 87.2327C128.393 87.2327 128.229 87.2091 128.065 87.19C127.847 87.1644 127.625 87.101 127.405 87.0981C127.302 87.0967 127.207 87.105 127.106 87.1162C126.972 87.1311 126.963 87.0731 126.862 86.9998C126.835 86.9797 126.809 86.9444 126.789 86.9164C126.777 86.8997 126.827 86.9003 126.847 86.8972C126.971 86.8787 127.095 86.8602 127.219 86.8523C127.327 86.8455 127.444 86.8417 127.553 86.8523C127.949 86.8911 128.342 86.9635 128.741 86.9635C128.881 86.9635 129.021 86.9635 129.162 86.9635" stroke="black" stroke-width="3" stroke-linecap="round"/>
<path d="M133.066 84.5787C133.137 84.3652 133.084 84.1381 133.114 83.9185C133.141 83.72 133.167 83.5244 133.222 83.3308C133.255 83.213 133.326 83.1251 133.41 83.0381C133.505 82.9389 133.534 83.1192 133.553 83.1962C133.615 83.4406 133.657 83.6862 133.7 83.9334C133.726 84.0766 133.748 84.2155 133.769 84.3586C133.788 84.4885 133.798 84.8686 133.844 84.7454C133.903 84.5849 133.854 84.3287 133.854 84.1621C133.854 83.6637 133.906 83.1703 133.929 82.6727C133.962 81.9711 133.904 81.307 133.743 80.6277C133.716 80.5144 133.7 80.3788 133.7 80.2623C133.7 80.2074 133.675 80.1666 133.663 80.1148C133.639 80.0103 133.643 79.8986 133.643 79.7922C133.643 79.6135 133.679 79.3959 133.638 79.2216C133.613 79.1116 133.492 79.0048 133.431 78.9096C133.373 78.819 133.331 78.7324 133.286 78.634C133.23 78.5113 133.076 78.3522 133.273 78.3188C133.389 78.2991 133.497 78.2602 133.614 78.2803C133.649 78.2863 133.821 78.2856 133.785 78.3049C133.605 78.4013 133.49 78.4889 133.455 78.6938C133.431 78.8351 133.418 78.9775 133.397 79.119C133.318 79.6426 133.249 80.1706 133.162 80.6939C133.133 80.8688 133.104 81.0545 133.104 81.2324C133.104 81.2791 133.095 81.3092 133.126 81.241C133.224 81.0233 133.306 80.801 133.352 80.5657C133.417 80.2351 133.452 79.9163 133.584 79.6063C133.641 79.4731 133.698 79.3644 133.769 79.2408C133.909 78.9978 133.919 78.7283 134.019 78.4758C134.031 78.4462 134.04 78.4238 134.075 78.4182C134.167 78.4037 134.017 78.5661 134.004 78.5773C133.925 78.6457 133.822 78.6769 133.742 78.7419C133.69 78.7839 133.702 78.9239 133.689 78.9834C133.643 79.1921 133.589 79.4181 133.523 79.6212C133.45 79.8464 133.336 80.0602 133.252 80.2815C133.211 80.3869 133.217 80.5048 133.196 80.6149C133.168 80.7627 133.155 80.9127 133.132 81.0615C133.11 81.2039 133.119 81.35 133.066 81.4824" stroke="black" stroke-width="3" stroke-linecap="round"/>
<path d="M133.835 87.0404C134.036 86.9644 134.26 86.9635 134.474 86.9635C134.821 86.9635 135.169 86.9687 135.517 86.9635C135.855 86.9584 136.192 86.8865 136.527 86.8865C136.875 86.8865 137.207 86.8423 137.551 86.8139C137.801 86.7932 138.057 86.8131 138.307 86.8053C138.655 86.7947 138.999 86.7712 139.347 86.7712C139.627 86.7712 139.9 86.7491 140.178 86.7348C140.44 86.7214 140.703 86.7466 140.964 86.7284C141.386 86.699 141.818 86.7526 142.238 86.7006C142.435 86.6763 142.606 86.6365 142.806 86.6365C142.931 86.6365 143.056 86.6365 143.182 86.6365" stroke="black" stroke-width="3" stroke-linecap="round"/>
<path d="M140.201 87.425C140.369 87.4033 140.538 87.4058 140.707 87.4058C141.029 87.4058 141.351 87.408 141.673 87.4058C141.768 87.4052 141.858 87.374 141.953 87.3684C142.347 87.3452 142.713 87.2327 143.105 87.2327" stroke="black" stroke-width="3" stroke-linecap="round"/>
<path d="M142.778 87.675C142.875 87.9077 142.961 88.1778 142.931 88.4347C142.914 88.5782 142.797 88.7203 142.754 88.8567C142.73 88.9334 142.689 89.0079 142.667 89.0832C142.628 89.2136 142.643 89.3822 142.643 89.5181C142.643 89.7706 142.643 90.0231 142.643 90.2756C142.643 90.5549 142.662 90.8254 142.662 91.1047C142.662 91.535 142.624 91.9613 142.624 92.3911C142.624 92.5767 142.671 92.7707 142.691 92.9563C142.717 93.1851 142.701 93.4219 142.701 93.6519C142.701 94.3905 142.701 95.1292 142.701 95.8678" stroke="black" stroke-width="3" stroke-linecap="round"/>
<path d="M142.528 95.7332C142.601 96.3818 142.547 97.0725 142.547 97.7237C142.547 98.192 142.547 98.6604 142.547 99.1287C142.547 99.4168 142.547 99.7049 142.547 99.9931C142.547 100.105 142.515 100.265 142.566 100.368" stroke="black" stroke-width="3" stroke-linecap="round"/>
<path d="M143.201 100.387C143.201 100.692 143.201 100.997 143.201 101.302C143.201 101.436 143.227 101.598 143.189 101.728C143.164 101.816 143.156 101.966 143.053 101.848C142.973 101.755 142.887 101.613 142.874 101.488C142.868 101.436 142.799 101.63 142.797 101.637C142.676 102.067 142.72 102.542 142.72 102.981C142.72 103.151 142.72 103.32 142.72 103.489C142.72 103.627 142.743 103.743 142.758 103.877C142.804 104.292 142.848 104.713 142.931 105.123C143.077 105.845 143.154 106.582 143.259 107.311" stroke="black" stroke-width="3" stroke-linecap="round"/>
<path d="M143.72 108.849C143.754 109.152 143.788 109.459 143.844 109.759C143.852 109.8 143.893 110.032 143.87 109.958C143.809 109.768 143.79 109.492 143.639 109.348C143.463 109.181 143.215 109.052 143.009 108.926" stroke="black" stroke-width="3" stroke-linecap="round"/>
<path d="M143.432 110.446C143.532 110.681 143.66 110.914 143.731 111.157C143.759 111.253 143.816 111.364 143.863 111.45C144.025 111.745 144.252 112.016 144.489 112.253" stroke="black" stroke-width="3" stroke-linecap="round"/>
<path d="M144.701 111.157C144.806 111.319 144.869 111.499 144.979 111.657C145.029 111.73 145.066 111.74 145.066 111.83" stroke="black" stroke-width="3" stroke-linecap="round"/>
<path d="M145.259 112.023C145.35 112.126 145.472 112.217 145.547 112.33" stroke="black" stroke-width="3" stroke-linecap="round"/>
<path d="M145.759 112.426C145.915 112.454 146.067 112.486 146.22 112.523" stroke="black" stroke-width="3" stroke-linecap="round"/>
<path d="M148.028 112.023C148.131 111.855 148.291 111.681 148.355 111.494C148.395 111.377 148.374 111.237 148.374 111.117C148.374 110.9 148.334 110.654 148.405 110.447C148.483 110.221 148.581 110.009 148.667 109.787C148.707 109.685 148.74 109.582 148.777 109.479C148.787 109.45 148.818 109.351 148.818 109.353C148.849 109.684 148.855 110.03 148.793 110.358C148.742 110.626 148.668 110.885 148.645 111.159C148.641 111.206 148.611 111.238 148.586 111.277C148.527 111.367 148.478 111.462 148.436 111.561C148.371 111.715 148.345 111.864 148.295 112.018C148.242 112.18 148.224 112.362 148.158 112.518C148.098 112.661 148.031 112.812 147.952 112.945C147.908 113.02 147.867 113.086 147.81 113.153C147.725 113.253 147.626 113.415 147.509 113.48C147.473 113.5 147.393 113.49 147.354 113.494C147.242 113.505 147.131 113.503 147.018 113.503C146.839 113.503 146.66 113.503 146.481 113.503C146.112 113.503 145.743 113.503 145.374 113.503" stroke="black" stroke-width="2" stroke-linecap="round"/>
<path d="M148.624 109.215C148.624 108.859 148.637 108.523 148.678 108.172C148.693 108.045 148.682 107.911 148.682 107.783C148.682 107.424 148.682 107.066 148.682 106.707C148.682 106.571 148.698 106.431 148.663 106.3C148.627 106.164 148.536 105.753 148.552 105.893C148.601 106.328 148.826 106.684 148.936 107.089C148.95 107.138 148.96 107.265 148.994 107.307C149.017 107.335 149.221 107.021 149.232 107.003C149.246 106.981 149.323 106.796 149.348 106.897C149.396 107.092 149.412 107.295 149.432 107.495C149.452 107.69 149.451 107.883 149.451 108.08" stroke="black" stroke-width="2" stroke-linecap="round"/>
<path d="M128.853 118.511C128.965 118.448 129.078 118.393 129.2 118.353C129.289 118.324 129.381 118.306 129.468 118.272C129.498 118.26 129.564 118.244 129.59 118.223C129.607 118.209 129.549 118.208 129.528 118.205C129.406 118.19 129.284 118.186 129.162 118.178C128.964 118.163 128.783 118.127 128.59 118.096C128.535 118.087 128.48 118.08 128.425 118.071C128.413 118.069 128.367 118.063 128.408 118.061C128.542 118.054 128.68 118.064 128.812 118.084C128.963 118.107 129.113 118.149 129.259 118.193C129.394 118.234 129.542 118.276 129.659 118.359C129.771 118.436 129.822 118.588 129.88 118.705C129.95 118.847 129.983 118.993 130.036 119.141C130.08 119.264 130.135 119.379 130.206 119.488C130.26 119.571 130.314 119.654 130.383 119.725C130.397 119.74 130.465 119.818 130.493 119.818C130.528 119.817 130.564 119.659 130.568 119.646C130.603 119.521 130.62 119.394 130.622 119.264C130.623 119.134 130.592 119.042 130.536 118.929C130.458 118.773 130.286 118.724 130.127 118.678C129.874 118.605 129.618 118.579 129.359 118.54C129.132 118.506 128.91 118.427 128.692 118.355C128.596 118.324 128.504 118.289 128.411 118.251" stroke="black" stroke-width="2" stroke-linecap="round"/>
<path d="M129.2 119.256C129.414 120.157 129.705 121.04 129.973 121.926C130.066 122.233 130.162 122.542 130.24 122.853" stroke="black" stroke-width="2" stroke-linecap="round"/>
<path d="M130.561 123.278C130.613 123.557 130.661 123.839 130.735 124.114C130.763 124.216 130.802 124.313 130.832 124.414C130.88 124.575 130.926 124.738 130.971 124.9C131.009 125.033 131.043 125.165 131.081 125.297" stroke="black" stroke-width="2" stroke-linecap="round"/>
<path d="M131.289 123.607C131.332 123.823 131.386 124.043 131.393 124.264C131.397 124.38 131.393 124.497 131.393 124.614C131.393 124.744 131.389 124.857 131.348 124.98C131.324 125.052 131.309 125.116 131.276 125.185C131.23 125.277 131.193 125.374 131.155 125.47C131.127 125.54 131.085 125.605 131.028 125.656C131.007 125.675 130.964 125.694 130.951 125.72C130.947 125.729 130.969 125.728 130.979 125.727C131.028 125.724 131.132 125.71 131.168 125.706C131.402 125.675 131.636 125.642 131.863 125.575C131.98 125.541 132.095 125.486 132.217 125.469C132.417 125.442 132.63 125.462 132.832 125.462" stroke="black" stroke-width="2" stroke-linecap="round"/>
<path d="M130.43 117.669C130.436 117.689 130.548 118.108 130.591 118.084C130.633 118.059 130.656 118.011 130.672 118.078C130.787 118.544 130.843 119.022 130.941 119.491C130.976 119.656 131.034 119.815 131.079 119.978C131.108 120.087 131.121 120.195 131.138 120.307C131.191 120.675 131.304 121.043 131.419 121.396C131.492 121.619 131.604 121.823 131.687 122.042C131.8 122.342 131.94 122.63 132.056 122.928C132.221 123.346 132.447 123.735 132.6 124.158" stroke="black" stroke-width="2" stroke-linecap="round"/>
<path d="M141.239 117.927C141.521 118.329 141.804 118.733 142.086 119.134C142.103 119.159 142.229 119.297 142.125 119.226C141.891 119.066 141.685 118.871 141.479 118.679C141.324 118.534 141.163 118.422 140.983 118.311C140.906 118.264 140.777 118.2 140.722 118.123C140.66 118.036 140.625 117.84 140.536 117.784C140.451 117.729 140.24 117.778 140.145 117.791C139.975 117.814 140.48 117.715 140.645 117.668C140.829 117.616 141.006 117.544 141.19 117.493C141.458 117.418 141.713 117.329 141.99 117.284C142.03 117.277 142.153 117.239 142.036 117.262C141.893 117.291 141.763 117.354 141.619 117.382C141.422 117.419 141.239 117.51 141.038 117.534C140.718 117.571 140.388 117.561 140.066 117.561" stroke="black" stroke-width="2" stroke-linecap="round"/>
<path d="M142.198 118.189C142.373 118.365 142.531 118.523 142.729 118.669C142.776 118.704 142.824 118.74 142.869 118.778C142.968 118.862 143.035 118.974 143.121 119.07C143.301 119.269 143.466 119.474 143.618 119.694C144.05 120.316 144.51 120.914 144.918 121.554C145.095 121.833 145.266 122.117 145.452 122.391C145.637 122.664 145.839 122.925 146.037 123.189C146.101 123.275 146.16 123.353 146.211 123.445" stroke="black" stroke-width="2" stroke-linecap="round"/>
<path d="M140.966 118.969C141.866 120.056 142.744 121.174 143.709 122.206C143.958 122.472 144.212 122.731 144.448 123.01C144.688 123.293 144.917 123.585 145.149 123.875" stroke="black" stroke-width="2" stroke-linecap="round"/>
<path d="M144.143 123.683C144.28 123.995 144.412 124.309 144.587 124.603C144.673 124.748 144.78 124.876 144.867 125.018C144.941 125.136 144.988 125.269 145.065 125.387C145.205 125.605 145.342 125.822 145.49 126.034C145.511 126.064 145.54 126.131 145.585 126.117C145.741 126.067 145.891 125.987 146.044 125.927C146.238 125.852 146.419 125.797 146.626 125.777C146.683 125.771 146.738 125.768 146.794 125.758C146.873 125.744 146.987 125.751 147.058 125.713C147.227 125.621 147.405 125.607 147.589 125.566C147.708 125.54 147.781 125.594 147.89 125.629C147.952 125.649 147.883 125.551 147.875 125.538C147.817 125.45 147.755 125.364 147.694 125.279C147.626 125.186 147.553 125.103 147.5 125C147.459 124.92 147.407 124.846 147.36 124.769C147.281 124.639 147.202 124.507 147.111 124.385C147.085 124.349 147.023 124.186 146.972 124.192C146.858 124.206 146.742 124.176 146.629 124.205C146.558 124.223 146.499 124.262 146.434 124.294C146.365 124.329 146.294 124.357 146.234 124.406" stroke="black" stroke-width="2" stroke-linecap="round"/>
<path d="M103.679 53.059C104.56 54.9972 105.278 57.0337 106.256 58.9204C106.696 59.7693 107.296 60.5323 107.742 61.3813C108.346 62.5337 108.688 63.8171 109.245 64.9966C110.158 66.9275 110.877 68.9702 111.661 70.9565C113.868 76.5477 116.524 81.9496 118.74 87.5295C122.122 96.0481 124.532 105.007 126.946 113.857C127.986 117.67 129.329 121.419 129.899 125.347C130.459 129.211 130.778 133.133 131.742 136.927C132.589 140.256 133.711 143.179 135.465 146.126C135.722 146.558 136.498 147.071 135.698 147.128C133.307 147.299 132.052 149.381 132.897 151.54C133.176 152.254 132.74 153.289 132.154 153.732C130.977 154.621 128.842 154.775 127.447 154.914C125.558 155.101 123.654 154.925 121.773 155.218C120.192 155.464 118.622 155.826 117.013 155.826C116.339 155.826 111.378 155.532 111.438 156.184C111.545 157.371 112.279 158.661 113.218 159.37C114.139 160.065 115.218 160.665 116.297 161.07C118.305 161.825 120.792 161.464 122.892 161.464C126.495 161.464 130.08 161.706 133.657 162.18C137.446 162.682 141.205 162.592 145.022 162.592C147.482 162.592 149.911 162.914 152.369 162.914C153.827 162.914 155.08 163.057 156.432 162.511C157.648 162.019 160.518 161.16 160.539 159.621C160.562 158.028 160.73 156.239 160.468 154.663C159.977 151.721 160.217 148.66 160.217 145.678C160.217 144.074 160.541 142.105 160.181 140.533C160.012 139.793 156.873 140.459 156.333 140.488C154.233 140.602 151.485 140.351 149.604 141.544C146.866 143.281 143.875 144.566 141.434 146.743C140.742 147.361 140.059 147.845 139.948 148.828C139.834 149.838 139.822 151.309 140.422 152.175C141.13 153.197 142.457 153.325 143.581 153.41C145.687 153.57 148.34 153.64 150.293 152.685C151.08 152.301 151.095 151.707 151 150.958C150.871 149.937 150.561 148.997 150.552 147.951C150.538 146.17 151.138 144.592 151.403 142.86C151.858 139.88 149.961 137.349 148.136 135.208C145.612 132.248 144.307 128.739 143.116 125.061C142.247 122.375 141.568 119.623 140.897 116.881C140.216 114.1 139.858 111.292 139.295 108.487C138.974 106.889 138.586 105.302 138.132 103.736C138.07 103.523 138.056 102.915 137.935 103.1C137.761 103.365 137.913 103.733 137.926 104.049C137.972 105.177 138.035 106.305 138.114 107.432C139.154 122.348 140.583 137.377 143.402 152.077C143.427 152.204 143.515 152.542 143.572 152.426C143.974 151.623 143.902 150.267 143.921 149.482C144.166 139.491 144.338 129.794 146.973 120.067C148.156 115.698 149.547 111.399 151.412 107.279C152.009 105.958 152.473 104.664 152.485 103.208C152.493 102.313 152.106 99.7128 152.485 100.523C153.053 101.733 153.426 103.583 153.774 104.774C154.881 108.56 155.934 112.37 156.682 116.246C157.443 120.183 157.64 124.092 157.64 128.085C157.64 129.44 157.578 130.814 157.676 132.166C157.794 133.807 158.22 130.753 158.23 130.662C158.77 125.99 158.914 121.327 159.322 116.649C159.521 114.369 160.167 112.149 160.36 109.875C160.799 104.714 160.861 99.5934 160.861 94.4111C160.861 84.827 160.861 75.2429 160.861 65.6588C160.861 63.5361 160.902 61.4093 160.852 59.2873C160.841 58.8153 161.028 57.4339 160.468 57.1754C159.579 56.7652 158.556 56.6939 157.604 56.5132C149.549 54.9856 141.392 55.153 133.228 55.153C129.597 55.153 125.967 55.153 122.337 55.153C120.94 55.153 119.037 54.7946 117.657 55.1888C116.641 55.479 114.417 54.7956 113.657 55.5557C113.6 55.6125 118.676 63.4099 118.91 63.7975C120.899 67.1008 122.851 70.4171 124.968 73.6411C128.292 78.7049 130.417 84.411 132.583 90.0352C133.672 92.8619 134.346 95.5564 134.955 98.5007C135.463 100.958 136.36 104.1 138.042 106.036C140.136 108.444 142.708 102.801 143.161 101.615C144.951 96.9216 144.372 91.8709 144.78 86.9747C145.194 82.0111 146.848 77.1401 146.848 72.1467C146.848 71.0544 146.954 69.9721 147.286 68.9251C147.511 68.2186 147.823 67.5379 148.154 66.8759C148.517 66.1502 148.604 66.4524 148.906 67.1801C150.644 71.3725 150.701 75.8089 151.143 80.2632C151.59 84.7679 152.454 89.2048 152.709 93.731C152.87 96.5988 152.808 99.4777 152.808 102.349C152.808 102.351 152.877 104.128 152.772 102.724C152.49 98.979 151.892 95.2566 151.376 91.5386C150.486 85.1234 149.682 77.7765 146.212 72.1198C145.472 70.913 144.468 70.0471 143.322 69.2383C141.171 67.7203 138.839 66.403 136.485 65.2293C134.916 64.4471 132.37 63.0002 130.686 64.2986C129.217 65.4316 128.322 67.1502 128.136 68.9878C127.786 72.4389 129.84 74.8138 132.727 76.3436C132.789 76.3766 139.033 79.4463 139.17 78.1155C139.254 77.2956 136.454 75.6014 136.324 75.5382C135.547 75.1599 134.452 74.7471 133.926 75.753C133.312 76.9254 133.623 79.3378 133.729 80.5495C133.933 82.8745 134.386 85.3144 135.572 87.3595C137.351 90.4243 136.909 81.4019 135.715 83.0552C135.003 84.0429 134.757 88.2507 136.798 87.9591C137.771 87.8201 136.683 84.9433 136.539 84.4691" stroke="black" stroke-opacity="0.2" stroke-width="14" stroke-linecap="round"/>
</svg>
