<svg width="192" height="192" viewBox="0 0 192 192" fill="none" xmlns="http://www.w3.org/2000/svg">
<path fill-rule="evenodd" clip-rule="evenodd" d="M121.291 73.2465L127.119 76.6114C131.785 79.3052 133.384 85.2713 130.69 89.9371L99.5683 143.841C94.302 152.963 82.6385 156.088 73.5171 150.822C64.3957 145.555 61.2705 133.892 66.5367 124.77L67.2331 123.564L56.8408 117.564L56.1444 118.77C47.5645 133.631 52.6562 152.634 67.5171 161.214C82.378 169.794 101.381 164.702 109.961 149.841L141.082 95.9371C147.09 85.5318 143.524 72.2266 133.119 66.2191L127.678 63.0778L121.291 73.2465Z" fill="black"/>
<path d="M83.4088 83.5473C87.7594 76.0117 85.1775 66.3761 77.642 62.0254L63.5433 53.8855C56.8815 50.0393 48.3631 52.3218 44.517 58.9836L26.4103 90.3453C16.7949 107 22.5011 128.296 39.1555 137.911L70.5172 156.018C58.526 149.095 54.4175 133.762 61.3406 121.77L83.4088 83.5473Z" stroke="black" stroke-width="12"/>
<path fill-rule="evenodd" clip-rule="evenodd" d="M129.143 34.9746C109.619 23.7023 84.6538 30.3918 73.3815 49.916L68.6807 58.058L79.073 64.058L83.7738 55.916C91.7324 42.1313 109.359 37.4083 123.143 45.3669L133.26 51.2079C127.079 53.7178 121.656 58.2287 118.062 64.454L87.6366 117.152C84.9428 121.818 78.9767 123.416 74.3109 120.722L64.7355 115.194L61.7355 120.39L58.7355 125.586L68.3109 131.115C78.7162 137.122 92.0214 133.557 98.0289 123.152L128.454 70.454C133.72 61.3326 145.384 58.2074 154.505 63.4736L160.505 53.0813L129.143 34.9746Z" fill="black"/>
<path fill-rule="evenodd" clip-rule="evenodd" d="M91.0086 123.311L85.8124 120.311L88.8124 115.115L118.062 64.4541C126.642 49.5932 145.644 44.5015 160.505 53.0814C175.366 61.6614 180.458 80.664 171.878 95.5249L149.593 134.124C144.09 143.655 131.902 146.921 122.37 141.418L110.308 134.454L116.308 124.062L128.37 131.026C132.162 133.215 137.011 131.916 139.2 128.124L161.486 89.5249C166.752 80.4035 163.627 68.74 154.505 63.4737C145.384 58.2075 133.72 61.3327 128.454 70.4541L104.428 112.069L99.2317 109.069L91.0086 123.311Z" fill="black"/>
<path d="M52.8957 62.0163C56.8109 61.4205 60.1935 62.3663 63.3086 64.4977C65.1071 65.7283 66.8588 67.4142 68.4237 68.9278C69.918 70.373 72.1989 71.6743 73.0212 73.6927C74.992 78.5302 73.6226 82.7708 71.5902 87.2873C70.1211 90.552 69.1692 94.0104 67.1297 96.9847C64.4323 100.918 61.6328 104.261 59.8376 108.722C58.1662 112.875 56.3373 116.758 55.0879 121.053C54.428 123.322 53.8068 125.595 52.4999 127.614C51.7178 128.823 51.2003 130.153 50.4295 131.344C50.1446 131.784 49.8695 132.879 49.5465 133.201C48.7853 133.963 42.5835 129.825 41.6608 129.38C39.386 128.283 37.0348 127.419 35.2669 125.483C34.3082 124.433 33.9958 122.687 33.4553 121.403C32.5175 119.176 31.5532 116.991 30.8825 114.659C29.5414 109.997 29.5009 103.826 31.5828 99.4966C33.1723 96.1914 35.0699 93.0976 36.4543 89.6926C37.925 86.0756 39.8997 82.4899 41.95 79.1732C42.6686 78.0108 43.4555 77.251 44.5684 76.5091C46.1885 75.429 47.4034 73.8399 48.7549 72.4596C50.2817 70.9003 50.763 68.7811 52.9718 70.3588C55.0118 71.8159 58.911 72.5149 60.2334 74.8954C60.6698 75.6809 60.8424 76.3229 60.8424 77.2246C60.8424 78.216 61.3904 78.8193 61.3904 79.8278C61.3904 81.7759 61.4148 83.7257 61.3904 85.6736C61.3471 89.1404 59.5659 92.1887 58.2544 95.2949C55.569 101.655 52.4206 107.806 49.7444 114.187C49.2513 115.363 45.8218 119.756 44.7511 118.13C41.8414 113.712 41.0034 107.658 41.5085 102.48C42.0745 96.6794 45.92 91.9291 49.8358 87.8354C51.3493 86.2531 52.2148 85.1589 52.8957 83.1161" stroke="black" stroke-opacity="0.35" stroke-width="14" stroke-linecap="round"/>
<path d="M66.8709 132.714C69.7414 136.455 70.5483 141.186 74.3913 144.33C76.4629 146.025 79.6045 145.987 82.1858 145.867C83.7604 145.795 85.6843 144.054 87.0268 143.249C88.3753 142.44 89.3939 141.538 90.5739 140.539C91.8514 139.458 93.3333 138.608 94.6995 137.647C95.8967 136.804 97.678 135.15 95.004 135.744C91.1964 136.59 87.189 136.277 83.3123 136.277C81.5258 136.277 79.739 136.261 77.9536 136.337C77.3364 136.364 73.9262 136.103 73.5084 136.825C73.2864 137.208 74.3098 138.665 74.4522 138.925C75.6436 141.103 77.4435 143.14 79.2324 144.847C82.5351 148 87.1952 148.961 91.4417 147.192C94.4683 145.931 94.9206 143.823 96.3741 141.239C98.3015 137.813 99.6711 134.276 101.124 130.644C102.06 128.304 103.056 125.923 104.153 123.656C104.847 122.224 105.448 120.81 105.995 119.318C106.346 118.363 107.03 117.664 107.365 116.669C108.394 113.617 110.081 110.802 111.263 107.793C112.728 104.064 114.385 100.359 116.043 96.7107C117.343 93.8494 119.675 91.4498 121.402 88.8097C122.553 87.0487 123.06 84.6166 124.401 83.0247C124.928 82.3989 125.487 81.4458 126.182 82.7355C127.259 84.736 127.43 87.2146 127.43 89.4491C127.43 91.2151 127.65 93.0436 127.004 94.7164C126.421 96.2253 125.318 97.4194 124.416 98.7354C123.349 100.293 122.226 101.797 121.265 103.424C120.199 105.228 118.743 107.36 118.266 109.407C117.267 113.688 114.322 117.425 112.633 121.479" stroke="black" stroke-opacity="0.35" stroke-width="14" stroke-linecap="round"/>
<path d="M90.6447 53.8344C92.4593 52.8203 94.1575 51.6476 95.9155 50.5415C97.1811 49.7451 98.5545 49.1189 99.8081 48.3111C101.523 47.2057 95.7747 49.1587 93.9376 50.047C92.7684 50.6123 91.7986 51.5102 90.7394 52.2458C89.9636 52.7845 89.1864 53.318 88.4248 53.8765C87.8393 54.3058 87.4254 54.4647 87.4254 55.2231C87.4254 55.4172 87.2748 56.607 87.6674 56.5487C88.7712 56.3848 90.0294 55.3036 90.9392 54.7497C92.5483 53.7701 94.1345 52.7724 95.6788 51.6935C98.3408 49.8334 100.922 48.2972 104.064 47.359C106.626 46.5938 109.247 46.0748 111.88 45.6231C114.064 45.2485 116.278 44.8172 118.493 44.671C119.108 44.6304 119.765 44.6146 120.376 44.692C121.287 44.8077 121.692 45.2499 122.364 45.8283C122.984 46.3617 123.534 46.9777 123.963 47.6799C124.389 48.3768 124.458 49.2287 124.805 49.9628C125.2 50.7997 124.724 51.561 124.405 52.3142C124.146 52.9274 123.493 53.0509 122.922 53.2821C122.467 53.4662 122.024 53.8021 121.554 53.9343C120.914 54.1145 122.738 53.3159 123.369 53.1032C125.085 52.5243 127.039 51.7513 128.887 51.7513C129.448 51.7513 130.009 51.7513 130.57 51.7513C132.2 51.7513 130.048 52.1596 129.686 52.2353C126.79 52.8406 123.852 53.3049 120.902 53.5398C117.358 53.8221 113.804 53.7698 110.255 53.8975C107.748 53.9877 105.26 54.225 102.843 54.9233C102.175 55.1162 101.947 56.0099 101.686 56.575C101.061 57.9268 100.759 59.4064 99.9028 60.6517C99.1651 61.7246 98.0315 62.2071 96.7571 62.335C95.8248 62.4286 94.716 62.2439 93.8114 62.4718C93.1753 62.632 93.4307 64.4309 93.4957 64.8862C93.5591 65.3294 93.8337 65.2796 94.2322 65.286C96.3361 65.3197 98.4461 65.3097 100.55 65.2755C102.901 65.2373 105.213 65.129 107.488 64.5548C109.128 64.1409 110.893 64.478 112.559 64.3234C113.055 64.2774 113.542 63.4953 113.869 63.1924C115.672 61.5223 117.805 60.7059 119.913 59.5365C123.043 57.7995 126.511 56.238 128.913 53.4925C129.169 53.2003 129.356 52.8688 129.623 52.5824C129.779 52.4151 129.166 52.6303 128.945 52.6877C126.275 53.379 123.646 54.2114 120.986 54.9391C117.8 55.8106 114.569 56.5168 111.412 57.4955C109.993 57.9356 108.521 58.42 107.204 59.1262C106.645 59.4261 106.252 60.0146 105.826 60.4623C104.511 61.842 103.237 63.1998 102.165 64.781C101.621 65.583 101.533 65.8588 101.533 66.7799C101.533 67.7154 101.602 68.6367 101.323 69.5416C100.751 71.3934 99.2377 73.0051 97.5672 73.9392C97.213 74.1372 96.8499 74.2887 96.4625 74.4021C96.1563 74.4917 96.9968 74.0524 97.2726 73.8918C99.1617 72.7918 101.051 71.6934 102.996 70.6936C103.833 70.2633 104.934 69.5489 105.926 69.4679C106.532 69.4184 107.1 69.4159 107.236 70.0886C107.447 71.1367 107.587 72.2069 107.593 73.2764C107.597 73.7962 107.65 74.3643 107.53 74.8755C107.367 75.5724 106.883 76.235 106.504 76.827C105.746 78.0136 104.665 78.9482 103.706 79.9674C102.77 80.9616 101.554 81.622 100.634 82.6291C99.0839 84.3253 97.8882 86.2883 96.7203 88.2576C96.0071 89.4602 95.6985 90.0117 95.0528 91.1665C94.7737 91.6657 94.5709 91.9206 94.4742 92.4711C94.342 93.2235 94.3549 94.4892 94.3479 95.1486C94.326 97.2037 94.3751 99.2589 94.3584 101.314C94.3481 102.592 94.09 102.755 93.1065 103.481C92.0487 104.262 90.9902 105.04 89.9608 105.858C89.2104 106.455 88.698 107.079 88.1723 107.868C87.2006 109.325 86.3485 110.772 85.5738 112.344C85.0836 113.339 84.562 114.313 83.8484 115.169C82.7579 116.478 81.3697 117.98 79.8085 118.736C79.0999 119.079 77.7662 119.821 77.1258 119.072C76.3769 118.197 76.7282 116.505 76.968 115.501C77.3302 113.983 77.9274 112.481 78.6828 111.119C79.8522 109.01 81.4527 107.194 82.5123 105.017C83.3316 103.333 84.0338 101.618 84.911 99.9565C86.1582 97.5944 87.4557 95.2618 88.7825 92.9445C89.7733 91.2141 90.3834 89.2976 90.9656 87.4002C91.1267 86.8748 91.3246 86.3806 91.4022 85.8379" stroke="black" stroke-opacity="0.2" stroke-width="14" stroke-linecap="round"/>
<path d="M135.733 66.2373C136.562 64.6435 137.796 64.1813 139.42 63.7317C141.028 63.2864 142.989 63.3769 144.637 63.3469C146.638 63.3105 148.641 63.3379 150.642 63.3379C152.592 63.3379 153.98 63.6844 155.385 65.1098C157.065 66.8153 158.135 68.8948 158.946 71.0965C161.012 76.7038 161.168 83.1747 159.734 88.9134C158.87 92.3681 156.611 95.4945 154.633 98.3991C151.999 102.266 150.452 106.668 148.047 110.677C146.033 114.033 145.279 117.801 143.465 121.218C141.937 124.096 139.61 126.316 136.709 127.787C135.695 128.301 134.63 128.704 133.568 129.102C133.04 129.3 132.598 129.547 132.046 129.38C131.167 129.113 129.789 128.771 129.093 128.145C128.585 127.687 127.724 127.106 127.447 126.471C127.247 126.014 127.38 125.353 127.5 124.905C128.076 122.772 129.512 121.041 130.767 119.276C134.543 113.965 136.644 107.632 139.707 101.916C142.25 97.1683 144.338 92.3574 146.078 87.249C147.234 83.8568 147.17 80.72 147.17 77.1637C147.17 75.2379 144.77 75.3226 143.465 74.4523" stroke="black" stroke-opacity="0.2" stroke-width="14" stroke-linecap="round"/>
</svg>
