<svg width="192" height="192" viewBox="0 0 192 192" fill="none" xmlns="http://www.w3.org/2000/svg">
<path d="M63.15 39.7353V45.1176C64.8733 45.1176 66.4961 44.32 67.53 42.9647L63.15 39.7353ZM74.1 25.3824V20C72.3767 20 70.754 20.7977 69.72 22.1529L74.1 25.3824ZM128.85 39.7353L124.47 42.9647C125.504 44.32 127.126 45.1176 128.85 45.1176V39.7353ZM117.9 25.3824L122.28 22.1529C121.246 20.7977 119.624 20 117.9 20V25.3824ZM158.05 54.0882V122.265H169V54.0882H158.05ZM148.925 131.235H43.075V142H148.925V131.235ZM33.95 122.265V54.0882H23V122.265H33.95ZM43.075 45.1176H63.15V34.3529H43.075V45.1176ZM67.53 42.9647L78.48 28.6118L69.72 22.1529L58.77 36.5059L67.53 42.9647ZM128.85 45.1176H148.925V34.3529H128.85V45.1176ZM133.23 36.5059L122.28 22.1529L113.52 28.6118L124.47 42.9647L133.23 36.5059ZM117.9 20H74.1V30.7647H117.9V20ZM43.075 131.235C38.0354 131.235 33.95 127.219 33.95 122.265H23C23 133.164 31.9879 142 43.075 142V131.235ZM158.05 122.265C158.05 127.219 153.965 131.235 148.925 131.235V142C160.012 142 169 133.164 169 122.265H158.05ZM169 54.0882C169 43.1887 160.012 34.3529 148.925 34.3529V45.1176C153.965 45.1176 158.05 49.134 158.05 54.0882H169ZM33.95 54.0882C33.95 49.134 38.0354 45.1176 43.075 45.1176V34.3529C31.9879 34.3529 23 43.1887 23 54.0882H33.95Z" fill="black"/>
<path d="M96 112C110.359 112 122 100.583 122 86.5C122 72.4167 110.359 61 96 61C81.6406 61 70 72.4167 70 86.5C70 100.583 81.6406 112 96 112Z" stroke="black" stroke-width="12"/>
<path d="M28.1712 158.947C28.0634 158.508 27.8936 158.123 27.6616 157.792C27.4296 157.452 27.1396 157.166 26.7915 156.934C26.4518 156.694 26.0541 156.516 25.5984 156.4C25.1509 156.275 24.6579 156.213 24.1193 156.213C22.9593 156.213 21.9691 156.491 21.1488 157.046C20.3368 157.601 19.7153 158.401 19.2844 159.445C18.8619 160.489 18.6506 161.748 18.6506 163.223C18.6506 164.714 18.8536 165.991 19.2596 167.051C19.6656 168.112 20.2705 168.924 21.0742 169.487C21.878 170.051 22.8764 170.332 24.0696 170.332C25.1219 170.332 25.9961 170.179 26.6921 169.873C27.3964 169.566 27.9226 169.131 28.2706 168.567C28.6186 168.004 28.7926 167.341 28.7926 166.579L29.9858 166.703H24.169V161.781H35.4545V165.311C35.4545 167.631 34.9615 169.616 33.9755 171.265C32.9978 172.905 31.6471 174.165 29.9237 175.043C28.2085 175.913 26.2405 176.348 24.0199 176.348C21.5424 176.348 19.3673 175.822 17.4947 174.77C15.622 173.717 14.1596 172.217 13.1072 170.27C12.0632 168.323 11.5412 166.007 11.5412 163.322C11.5412 161.218 11.8602 159.353 12.4982 157.729C13.1445 156.105 14.0394 154.734 15.1829 153.615C16.3263 152.489 17.648 151.639 19.1477 151.067C20.6475 150.487 22.255 150.197 23.9702 150.197C25.4782 150.197 26.8786 150.413 28.1712 150.844C29.4721 151.266 30.6197 151.871 31.614 152.658C32.6166 153.437 33.4245 154.361 34.0376 155.43C34.6508 156.499 35.0237 157.671 35.1562 158.947H28.1712ZM38.7762 176V156.909H45.4381V160.538H45.637C45.985 159.196 46.536 158.214 47.29 157.593C48.0523 156.971 48.9431 156.661 49.9623 156.661C50.2606 156.661 50.5547 156.685 50.8447 156.735C51.143 156.777 51.4289 156.839 51.7023 156.922V162.776C51.3626 162.66 50.9442 162.573 50.447 162.515C49.9498 162.457 49.5231 162.428 49.1668 162.428C48.4957 162.428 47.8908 162.581 47.3522 162.887C46.8219 163.186 46.4034 163.608 46.0969 164.155C45.7903 164.694 45.637 165.328 45.637 166.057V176H38.7762ZM58.3829 176.298C57.1649 176.298 56.0877 176.099 55.1514 175.702C54.2233 175.296 53.4942 174.683 52.9639 173.862C52.4336 173.042 52.1684 171.998 52.1684 170.73C52.1684 169.686 52.3466 168.795 52.7029 168.058C53.0592 167.312 53.5563 166.703 54.1943 166.231C54.8324 165.759 55.574 165.398 56.4191 165.15C57.2726 164.901 58.1923 164.739 59.1784 164.665C60.2472 164.582 61.1048 164.482 61.7512 164.366C62.4057 164.242 62.878 164.072 63.1681 163.857C63.4581 163.633 63.6031 163.339 63.6031 162.974V162.925C63.6031 162.428 63.4125 162.046 63.0313 161.781C62.6502 161.516 62.1613 161.384 61.5647 161.384C60.9101 161.384 60.3757 161.529 59.9614 161.819C59.5554 162.1 59.3109 162.535 59.2281 163.124H52.9142C52.997 161.964 53.3657 160.895 54.0203 159.917C54.6832 158.931 55.6485 158.144 56.9163 157.555C58.184 156.959 59.7667 156.661 61.6642 156.661C63.0313 156.661 64.2577 156.822 65.3431 157.145C66.4286 157.46 67.3525 157.903 68.1148 158.475C68.8771 159.039 69.4571 159.701 69.8548 160.464C70.2609 161.218 70.4639 162.038 70.4639 162.925V176H64.0505V173.315H63.9014C63.5202 174.028 63.0562 174.604 62.5093 175.043C61.9707 175.482 61.3534 175.801 60.6574 176C59.9697 176.199 59.2115 176.298 58.3829 176.298ZM60.6201 171.973C61.1421 171.973 61.631 171.865 62.0867 171.65C62.5508 171.434 62.9278 171.124 63.2178 170.718C63.5078 170.312 63.6528 169.819 63.6528 169.239V167.648C63.4705 167.722 63.2758 167.793 63.0686 167.859C62.8698 167.925 62.6543 167.987 62.4223 168.045C62.1986 168.103 61.9583 168.157 61.7014 168.207C61.4529 168.257 61.1919 168.302 60.9184 168.344C60.3881 168.427 59.9531 168.563 59.6134 168.754C59.2819 168.936 59.0334 169.164 58.8676 169.438C58.7102 169.703 58.6315 170.001 58.6315 170.332C58.6315 170.863 58.8179 171.269 59.1908 171.55C59.5637 171.832 60.0401 171.973 60.6201 171.973ZM73.742 183.159V156.909H80.5531V160.24H80.7022C80.9508 159.594 81.3154 159.001 81.796 158.463C82.2766 157.916 82.8732 157.481 83.5858 157.158C84.2984 156.826 85.127 156.661 86.0716 156.661C87.331 156.661 88.5284 156.996 89.6635 157.667C90.807 158.338 91.735 159.395 92.4476 160.837C93.1685 162.278 93.5289 164.151 93.5289 166.455C93.5289 168.659 93.1851 170.486 92.4973 171.936C91.8179 173.386 90.9064 174.467 89.763 175.18C88.6278 175.892 87.3807 176.249 86.0218 176.249C85.127 176.249 84.3274 176.104 83.623 175.814C82.927 175.515 82.3304 175.113 81.8333 174.608C81.3444 174.094 80.9674 173.514 80.7022 172.868H80.6028V183.159H73.742ZM80.4537 166.455C80.4537 167.383 80.5738 168.186 80.8141 168.866C81.0627 169.537 81.4107 170.059 81.8581 170.432C82.3139 170.796 82.8566 170.979 83.4863 170.979C84.1161 170.979 84.6505 170.801 85.0897 170.444C85.5371 170.08 85.8768 169.562 86.1088 168.891C86.3491 168.211 86.4693 167.399 86.4693 166.455C86.4693 165.51 86.3491 164.702 86.1088 164.031C85.8768 163.351 85.5371 162.834 85.0897 162.477C84.6505 162.113 84.1161 161.93 83.4863 161.93C82.8566 161.93 82.3139 162.113 81.8581 162.477C81.4107 162.834 81.0627 163.351 80.8141 164.031C80.5738 164.702 80.4537 165.51 80.4537 166.455ZM103.264 165.261V176H96.4031V150.545H103.015V160.538H103.214C103.645 159.32 104.362 158.372 105.364 157.692C106.367 157.004 107.573 156.661 108.981 156.661C110.332 156.661 111.504 156.967 112.499 157.58C113.501 158.193 114.276 159.039 114.823 160.116C115.378 161.193 115.651 162.428 115.643 163.82V176H108.782V165.261C108.791 164.317 108.555 163.575 108.074 163.037C107.602 162.498 106.926 162.229 106.048 162.229C105.493 162.229 105.004 162.353 104.581 162.602C104.167 162.842 103.844 163.19 103.612 163.646C103.388 164.093 103.272 164.632 103.264 165.261ZM128.178 176.348C126.139 176.348 124.383 175.959 122.908 175.18C121.441 174.393 120.31 173.266 119.515 171.799C118.728 170.324 118.334 168.559 118.334 166.504C118.334 164.532 118.732 162.809 119.527 161.334C120.323 159.859 121.445 158.711 122.896 157.891C124.346 157.071 126.057 156.661 128.029 156.661C129.47 156.661 130.775 156.884 131.944 157.332C133.112 157.779 134.111 158.43 134.939 159.283C135.768 160.128 136.406 161.156 136.853 162.365C137.301 163.575 137.524 164.938 137.524 166.455V168.045H120.472V164.267H131.21C131.202 163.72 131.061 163.24 130.788 162.825C130.523 162.403 130.162 162.075 129.707 161.843C129.259 161.603 128.75 161.483 128.178 161.483C127.623 161.483 127.113 161.603 126.649 161.843C126.185 162.075 125.812 162.399 125.53 162.813C125.257 163.227 125.112 163.712 125.095 164.267V168.344C125.095 168.957 125.224 169.504 125.481 169.984C125.738 170.465 126.106 170.842 126.587 171.115C127.068 171.389 127.648 171.526 128.327 171.526C128.799 171.526 129.23 171.459 129.62 171.327C130.017 171.194 130.357 171.004 130.639 170.755C130.92 170.498 131.128 170.192 131.26 169.835H137.524C137.309 171.161 136.799 172.313 135.996 173.29C135.192 174.26 134.127 175.014 132.801 175.553C131.484 176.083 129.943 176.348 128.178 176.348ZM147.185 165.261V176H140.324V156.909H146.837V160.538H147.036C147.45 159.329 148.179 158.38 149.223 157.692C150.276 157.004 151.502 156.661 152.902 156.661C154.253 156.661 155.425 156.971 156.42 157.593C157.422 158.206 158.197 159.051 158.744 160.128C159.299 161.205 159.572 162.436 159.564 163.82V176H152.703V165.261C152.712 164.317 152.471 163.575 151.982 163.037C151.502 162.498 150.831 162.229 149.969 162.229C149.405 162.229 148.912 162.353 148.49 162.602C148.076 162.842 147.757 163.19 147.533 163.646C147.309 164.093 147.193 164.632 147.185 165.261ZM172.099 176.348C170.06 176.348 168.304 175.959 166.829 175.18C165.362 174.393 164.231 173.266 163.436 171.799C162.649 170.324 162.255 168.559 162.255 166.504C162.255 164.532 162.653 162.809 163.448 161.334C164.244 159.859 165.366 158.711 166.816 157.891C168.266 157.071 169.978 156.661 171.95 156.661C173.391 156.661 174.696 156.884 175.865 157.332C177.033 157.779 178.031 158.43 178.86 159.283C179.689 160.128 180.327 161.156 180.774 162.365C181.222 163.575 181.445 164.938 181.445 166.455V168.045H164.393V164.267H175.131C175.123 163.72 174.982 163.24 174.709 162.825C174.444 162.403 174.083 162.075 173.627 161.843C173.18 161.603 172.67 161.483 172.099 161.483C171.544 161.483 171.034 161.603 170.57 161.843C170.106 162.075 169.733 162.399 169.451 162.813C169.178 163.227 169.033 163.712 169.016 164.267V168.344C169.016 168.957 169.145 169.504 169.402 169.984C169.658 170.465 170.027 170.842 170.508 171.115C170.988 171.389 171.568 171.526 172.248 171.526C172.72 171.526 173.151 171.459 173.54 171.327C173.938 171.194 174.278 171.004 174.56 170.755C174.841 170.498 175.049 170.192 175.181 169.835H181.445C181.23 171.161 180.72 172.313 179.917 173.29C179.113 174.26 178.048 175.014 176.722 175.553C175.405 176.083 173.864 176.348 172.099 176.348Z" fill="black"/>
<path d="M116.925 64.4874C119.655 62.0002 123.709 61.2317 126.749 58.9519C128.872 57.3596 130.832 55.7554 132.44 53.6112C133.595 52.0723 133.667 51.857 131.583 51.857C129.431 51.857 127.516 52.2182 125.423 52.6367C124.228 52.8757 122.859 52.7052 121.72 53.085C120.845 53.3765 119.841 54.1551 119.011 54.2934C118.29 54.4136 117.531 54.1221 116.925 54.6638C115.36 56.0639 119.376 54.7534 119.79 54.6053C122.572 53.612 125.337 52.3675 127.373 50.1808C128.284 49.2024 124.605 48.1706 123.942 47.9977C121.837 47.4486 119.768 47.137 118.173 45.5418C116.42 43.7893 116.183 40.3889 114.976 38.1936C114.174 36.7354 111.632 36.9386 110.181 36.5758C108.832 36.2385 107.369 36.4815 105.991 36.4004C102.454 36.1924 98.9124 36.0344 95.3873 35.6987C92.4973 35.4235 89.6508 35.3674 86.7137 35.3674C82.9143 35.3674 78.8003 34.9854 75.0189 35.4453C72.7364 35.7229 72.0002 40.8161 71.0427 42.5012C69.7533 44.7705 68.8326 48.004 68.5283 50.5901C68.3407 52.185 68.5088 53.9229 68.5088 55.5214C68.5088 56.3834 68.3614 60.3247 68.9376 60.901C69.2499 61.2132 74.4025 59.8058 75.1749 59.4196C77.1092 58.4525 79.1229 58.4566 81.2172 57.6654C88.4627 54.9282 96.9685 58.0058 104.295 55.7163C104.876 55.5347 109.753 55.1633 109.499 53.7672C109.075 51.433 106.131 50.0025 104.295 49.1282C100.397 47.2719 94.361 48.3486 90.0857 48.3486C88.3561 48.3486 86.2928 48.908 84.5307 49.1282C82.9588 49.3247 81.4351 49.3115 79.8528 49.4206C77.7552 49.5653 75.3835 49.6282 73.7715 51.1553C71.8933 52.9347 71.0148 57.5923 70.5359 60.0823C69.9705 63.0225 68.839 65.478 67.3004 67.9958C64.0277 73.3511 61.0112 78.7616 57.7106 84.1346C56.3163 86.4044 55.8785 89.4736 55.8785 92.1261C55.8785 94.4602 54.5421 95.6093 56.2293 97.7785C57.6051 99.5474 59.8549 100.391 61.492 102.028C62.4936 103.029 62.2931 101.717 62.4665 100.741C62.6988 99.4345 62.5445 97.9693 62.5445 96.648C62.5445 95.0314 63.0532 92.5008 62.3691 90.9956C61.9009 89.9657 60.409 90.7525 59.7377 91.2295C57.8417 92.5766 57.205 93.7462 56.3852 95.9074C54.7311 100.268 55.5276 105.58 55.5276 110.175C55.5276 111.621 54.9036 112.851 54.6505 114.268C54.3977 115.684 54.2918 117.664 53.4031 118.849C52.312 120.303 51.4222 121.902 50.4404 123.429C49.6936 124.591 45.3245 127.047 43.8718 126.509C42.4239 125.972 41.1812 124.169 40.1295 123.117C38.8827 121.87 39.1491 120.939 38.6871 119.297C37.7081 115.816 36.5821 112.546 36.5821 108.85C36.5821 102.825 36.7351 96.8709 35.9194 90.9566C34.8224 83.0037 34.956 74.7659 35.1787 66.7484C35.229 64.9373 36.5155 62.8814 36.8549 61.0569C37.2204 59.0924 37.8845 57.1352 38.3168 55.19C38.5409 54.1817 39.3203 53.7315 39.6617 52.8316C40.1062 51.6598 40.2331 51.0127 41.143 50.1028C42.5441 48.7017 44.9744 48.0674 46.9125 47.6664C49.4162 47.1484 51.835 46.2927 54.2997 45.6978C55.0971 45.5053 56.3032 44.713 56.931 45.6198C57.7431 46.7928 57.6327 48.1231 57.6327 49.4791C57.6327 51.0203 58.015 53.2585 57.5547 54.7417C56.7551 57.3183 54.4261 59.9754 52.5455 61.8561C51.8304 62.5711 51.2854 63.5123 50.6938 64.3315C50.5003 64.5993 48.9043 67.3183 48.9006 67.3136C48.2361 66.483 49.2672 62.7165 49.4853 61.6806C49.7241 60.5462 49.6935 59.7617 50.265 58.679C50.9833 57.3179 52.3568 56.2484 53.598 55.3849C55.1109 54.3325 55.1768 55.551 55.1768 56.8468C55.1768 60.4397 55.1768 64.0326 55.1768 67.6255C55.1768 74.1199 51.6646 80.6441 49.0175 86.4346C47.5924 89.552 47.8091 94.0321 47.8091 97.3497C47.8091 101.196 47.8091 105.042 47.8091 108.889C47.8091 110.805 47.305 109.163 47.1074 108.109C46.3826 104.244 45.8169 100.374 45.5286 96.4531C45.1297 91.0278 45.6641 85.6565 44.1057 80.4313C43.4982 78.3942 43.9498 75.7463 43.9498 73.6288C43.9498 69.4849 43.9498 73.7989 43.9498 75.5974C43.9498 83.7998 46.0579 91.836 47.0294 99.9616C47.2767 102.03 47.8284 104.023 48.3158 106.043C48.828 108.165 48.6124 110.47 49.0175 112.631C49.2182 113.701 49.6756 114.713 49.8362 115.789C49.9813 116.761 49.6755 117.996 50.0895 118.907C50.6493 120.139 50.265 116.206 50.265 114.853C50.265 109.265 50.265 103.678 50.265 98.0904C50.265 89.2803 50.265 80.4703 50.265 71.6602C50.265 71.2968 50.5088 69.7668 50.187 69.4772C49.07 68.4718 45.1039 70.0552 44.1447 70.6466C42.5325 71.6408 43.5989 78.6246 43.5989 80.0999C43.5989 84.9045 44.3825 89.4504 45.0023 94.1921C45.7977 100.277 48.1468 106.932 51.1226 112.358C52.8737 115.551 53.7968 119.928 57.5937 121.149C59.9806 121.916 62.2603 122.727 64.8055 122.727C69.3402 122.727 71.2927 116.033 72.4851 112.455C72.595 112.126 73.3375 109.781 72.9918 109.473C72.3199 108.876 72.3681 111.893 72.3681 112.046C72.3681 113.864 71.5807 116.061 73.7715 116.061C75.5082 116.061 79.5742 116.184 80.9833 117.465C81.8814 118.281 84.135 118.049 85.2714 118.244C87.2211 118.58 88.8554 119.717 90.8848 119.901C92.8912 120.084 96.0893 119.434 97.6288 120.973C99.0955 122.44 96.3408 124.75 95.4458 125.612C93.6569 127.335 91.8539 127.949 89.6374 128.77C87.4419 129.583 84.6907 130.041 82.2697 130.095C80.0375 130.145 77.8329 130.355 75.6427 130.816C72.9301 131.387 70.3426 131.26 67.6317 131.518C65.7324 131.699 63.8332 132.158 61.9208 132.2C61.6082 132.207 59.6278 132.369 60.7513 131.83C62.7924 130.85 65.306 130.578 67.4563 129.822C69.2079 129.207 71.121 129.006 72.9528 128.77C76.7627 128.278 80.8812 128.692 84.7061 128.692C91.2877 128.692 97.8692 128.692 104.451 128.692C111.143 128.692 117.835 128.692 124.527 128.692C128.975 128.692 133.682 129.101 138.093 128.341C139.718 128.061 141.158 127.639 142.829 127.639C144.902 127.639 146.974 127.639 149.047 127.639C149.939 127.639 151.643 128.038 152.01 126.977C152.915 124.355 153.556 121.346 153.842 118.595C154.31 114.089 155.377 109.686 155.791 105.185C156.063 102.229 155.869 99.1895 155.869 96.2192C155.869 88.678 154.115 81.3982 154.115 73.8432C154.115 68.6276 153.561 63.3398 153.043 58.1527C152.876 56.4826 152.648 54.9007 151.834 53.4358C151.213 52.3176 149.131 52.0918 147.975 52.7341C146.792 53.391 145.223 53.467 144.408 52.5782C143.639 51.7389 141.791 52.2397 140.783 51.5062C140.159 51.0526 138.614 51.8614 137.976 52.2079C135.429 53.5903 136.222 57.6909 136.222 60.0044C136.222 63.4154 136.222 66.8263 136.222 70.2373C136.222 73.8209 137.979 77.2741 138.327 80.8406C138.623 83.8802 139.007 86.8808 139.028 89.943C139.051 93.1741 138.758 96.4946 139.301 99.6887C139.902 103.217 139.379 107.13 139.379 110.721C139.379 111.732 140.769 116.62 140.939 116.412C142.461 114.552 142.182 110.979 142.361 108.752C142.581 106.03 142.537 103.315 142.537 100.585C142.537 91.4005 142.186 82.2174 142.186 73.0246C142.186 70.6603 142.034 68.1925 142.439 65.8518C142.558 65.1694 144.219 62.5267 142.966 62.6162C140.861 62.7665 137.823 63.29 136.397 65.0331C134.826 66.9536 133.602 68.3289 131.583 69.75C127.717 72.4705 128.854 80.1659 128.854 84.2711C128.854 95.7255 128.854 130.089 128.854 118.634C128.854 115.789 129.105 112.81 128.815 109.98C128.592 107.807 126.954 109.19 126.047 110.097C123.783 112.361 121.607 114.762 119.245 116.919C117.446 118.561 115.167 119.488 113.066 120.7C111.769 121.448 111.002 122.026 109.558 122.026C108.799 122.026 108.182 122.331 107.452 122.377C106.034 122.465 110.205 121.665 111.585 121.324C114.564 120.589 117.539 120.412 120.512 119.843C122.892 119.387 125.057 118.11 127.451 117.679C129.849 117.247 137.197 117.465 134.76 117.465C133.125 117.465 131.625 117.671 130.023 117.991C127.342 118.527 124.562 118.526 121.915 119.219C119.694 119.801 117.77 120.782 115.463 121.012C113.622 121.196 112.098 121.675 110.22 121.675C107.232 121.675 104.487 121.69 101.566 122.299C98.5545 122.926 95.6036 123.741 92.5806 124.345C91.4908 124.563 90.3156 125.664 89.2086 125.534C88.3067 125.428 89.7289 122.597 90.1247 122.201C91.1413 121.185 92.5211 120.792 93.7501 120.116C95.6357 119.078 98.106 119.17 99.9288 118.011C101.785 116.829 105.243 116.827 107.374 116.763C108.955 116.716 110.435 116.061 112.013 116.061" stroke="black" stroke-opacity="0.2" stroke-width="17" stroke-linecap="round"/>
</svg>
