<svg width="192" height="192" viewBox="0 0 192 192" fill="none" xmlns="http://www.w3.org/2000/svg">
<path d="M96 173C79.4893 173 67.608 172.992 58.3441 172.094C49.188 171.206 43.3294 169.5 38.6546 166.562C33.3121 163.206 28.7945 158.687 25.4375 153.345C22.5002 148.67 20.7941 142.812 19.9061 133.655C19.0077 124.392 19 112.511 19 96C19 79.4893 19.0077 67.608 19.9061 58.3441C20.7941 49.188 22.5002 43.3294 25.4375 38.6546C28.7945 33.3121 33.3121 28.7945 38.6546 25.4375C43.3294 22.5002 49.188 20.7941 58.3441 19.9061C67.608 19.0077 79.4893 19 96 19C112.511 19 124.392 19.0077 133.655 19.9061C142.812 20.7941 148.67 22.5002 153.345 25.4375C158.687 28.7945 163.206 33.3121 166.562 38.6546C169.5 43.3294 171.206 49.188 172.094 58.3441C172.992 67.608 173 79.4893 173 96C173 112.511 172.992 124.392 172.094 133.655C171.206 142.812 169.5 148.67 166.562 153.345C163.206 158.687 158.687 163.206 153.345 166.562C148.67 169.5 142.812 171.206 133.655 172.094C124.392 172.992 112.511 173 96 173Z" stroke="black" stroke-width="12"/>
<path d="M96 131C115.33 131 131 115.33 131 96C131 76.67 115.33 61 96 61C76.67 61 61 76.67 61 96C61 115.33 76.67 131 96 131Z" stroke="black" stroke-width="12"/>
<path d="M141.5 61C147.299 61 152 56.299 152 50.5C152 44.701 147.299 40 141.5 40C135.701 40 131 44.701 131 50.5C131 56.299 135.701 61 141.5 61Z" fill="black"/>
<path d="M125.034 67.9226C125.32 61.1512 131.362 57.1783 136.183 53.3971C141.33 49.3601 146.391 45.3694 151.425 41.2029C154.73 38.4682 157.043 45.74 157.283 47.6288C158.055 53.7068 157.609 59.901 158.27 66.0098C158.522 68.3399 159.196 70.6939 159.196 73.0484C159.196 77.3665 159.465 81.7468 159.465 86.0944C159.465 90.0097 159.465 93.925 159.465 97.8403C159.465 101.655 158.848 106.148 159.734 109.87C161.297 116.433 160.81 123.429 160.81 130.119C160.81 134.588 159.682 138.819 159.48 143.255C159.297 147.275 158.56 150.684 156.835 154.388C155.708 156.808 154.821 159.182 152.89 161.113C152.073 161.929 150.207 163.734 148.81 163.369C146.713 162.822 144.267 160.62 142.653 159.245C141.332 158.12 140.912 156.883 139.948 155.464C136.703 150.686 133.067 145.659 130.937 140.251C129.457 136.494 126.993 131.049 130.041 127.34C131.402 125.682 132.97 124.276 134.479 122.767C135.943 121.303 137.736 120.396 139.171 118.881C140.583 117.391 141.803 114.161 141.981 112.157C142.214 109.532 142.564 106.91 142.848 104.296C143.164 101.376 143.795 98.5275 144.192 95.6286C144.67 92.1454 144.402 88.5298 144.402 85.0184C144.402 81.7958 144.327 78.4946 143.475 75.3647C142.362 71.2735 142.378 67.1148 141.323 62.9911C140.554 59.9845 138.522 62.7364 137.811 64.4556C137.168 66.0141 136.87 67.2874 136.87 68.9388C136.87 71.4062 136.194 75.138 137.154 77.4568C137.944 79.3671 138.755 81.5445 139.171 83.5689C139.466 85.0004 139.94 86.3628 140.382 87.7532C141.965 92.7394 142.905 97.9434 143.894 103.071C145.137 109.514 145.563 115.957 146.569 122.408C146.823 124.039 147.249 125.674 147.346 127.325C147.442 128.963 148.12 130.475 148.168 132.122C148.319 137.366 148.756 143.13 147.226 148.201C146.887 149.325 146.634 150.9 145.762 151.773C145.348 152.186 144.827 151.553 144.461 151.31C142.265 149.845 140.005 148.107 138.364 146.049C136.793 144.078 135.512 141.932 134.3 139.728C133.238 137.798 130.961 137.271 129.039 136.515C126.65 135.576 124.076 135.865 121.687 136.575C120.541 136.916 119.501 137.371 118.31 137.591C117.644 137.714 116.24 137.722 115.679 138.189C114.472 139.195 111.014 138.792 110.763 140.804C110.037 146.614 110.24 152.461 110.24 158.303C110.24 160.314 110.645 160.356 112.661 160.127C114.887 159.874 117.385 159.022 119.52 158.333C122.014 157.529 124.714 159.875 126.708 161.053C127.35 161.432 127.814 161.491 128.531 161.531C128.832 161.548 129.05 161.638 129.308 161.785C130.062 162.216 129.21 160.044 129.009 159.2C128.451 156.847 128.032 153.92 126.798 151.788C126.428 151.149 125.405 151.496 124.825 151.579C123.761 151.731 122.72 152.51 121.717 152.894C120.224 153.466 118.794 154.209 117.293 154.747C111.246 156.912 105.379 159.262 98.9423 159.977C94.8687 160.43 90.8887 161.244 86.778 161.471C82.3035 161.719 77.7991 161.282 73.3285 161.561C71.534 161.673 73.5794 162.607 71.4455 162.607C66.5791 162.607 61.8962 162.23 57.1293 161.173C54.9247 160.683 52.6538 159.769 50.3746 159.663C46.92 159.503 43.5599 158.563 40.2576 157.541C38.9213 157.128 37.7285 156.652 37.0745 155.344C36.0567 153.309 35.3603 150.757 34.7732 148.515C33.7672 144.674 32.5072 140.901 31.5453 137.053C30.2092 131.709 29.7871 126.098 29.3336 120.615C28.4634 110.094 28.8371 99.3219 29.0048 88.7544C29.0783 84.1238 30.0901 79.5943 30.7682 75.0359C31.4453 70.4841 32.2714 66.0072 33.5926 61.5864C35.3269 55.783 36.8295 49.8316 38.823 44.1169C39.3207 42.6901 39.7641 42.0998 40.8404 41.0236C42.6561 39.2079 45.3772 37.674 47.7445 36.7197C53.3022 34.4794 58.5567 32.889 64.5564 32.1618C75.2131 30.8701 86.2296 31.6089 96.9398 31.6089C109.533 31.6089 122.125 31.6089 134.718 31.6089C135.973 31.6089 137.229 31.6089 138.484 31.6089C139.446 31.6089 141.073 31.3192 141.951 31.7583C143.363 32.4643 140.11 36.4352 139.381 36.9887C137.209 38.6362 134.994 40.1783 132.566 41.442C130.402 42.5686 127.938 43.9844 126.095 45.5964C124.785 46.7433 123.165 47.2314 121.926 48.4357C120.436 49.884 118.698 51.3781 117.024 52.5901C115.373 53.7862 115.63 50.0786 115.5 49.153C115.1 46.2953 114.254 46.5445 111.854 47.6885C110.431 48.3667 108.895 49.0136 107.401 49.5117C103.51 50.8084 99.6594 50.7072 95.5052 50.7072C91.9486 50.7072 88.3919 50.7072 84.8353 50.7072C82.1429 50.7072 79.9374 51.3034 77.3334 51.7234C74.302 52.2123 71.1734 52.7915 68.0981 52.8591C67.0098 52.883 66.5973 52.9253 67.5601 51.9625C68.9702 50.5524 70.5187 49.2212 72.1329 48.0472C72.3987 47.8539 71.5048 47.8237 71.1765 47.8081C69.1377 47.711 67.0897 47.7483 65.0495 47.7483C62.2799 47.7483 59.5103 47.7483 56.7407 47.7483C54.4548 47.7483 52.1438 47.6595 50.9126 49.8405C49.4708 52.3946 49.0272 55.2704 48.5216 58.0895C48.4305 58.5971 47.1059 62.7009 47.8939 63.021C49.4998 63.6734 52.4949 62.1239 53.991 61.6163C55.6026 61.0695 57.1915 60.621 58.8478 60.2414C59.4771 60.0972 60.6755 59.908 61.2239 59.5241C61.6266 59.2422 63.8113 59.5839 64.3173 59.5839C65.2003 59.5839 64.6921 59.7153 64.2276 60.0173C63.3647 60.5782 62.5839 61.2151 61.6871 61.7358C60.4371 62.4616 59.25 63.2366 58.534 64.5453C56.9122 67.5092 54.8883 70.0456 52.9748 72.8391C50.2958 76.7505 47.8939 80.8839 45.6224 85.0483C45.0763 86.0496 44.1228 89.0559 43.0521 89.5913C42.0074 90.1136 42.7669 87.2608 42.8279 86.0944C43.0157 82.5072 43.4894 78.9418 44.2177 75.4244C44.5423 73.8571 44.912 72.1327 45.6224 70.6723C45.683 70.5478 45.6933 70.3136 45.8317 70.3136C46.3829 70.3136 45.9892 71.4067 46.011 71.9574C46.2386 77.716 46.1233 83.4737 46.2351 89.2326C46.2758 91.3265 46.5632 93.1146 47.1467 95.1056C47.8328 97.4464 47.7361 99.9568 48.1629 102.353C48.7425 105.608 49.2117 108.908 48.8952 112.231C48.7913 113.322 48.3732 114.475 48.9101 115.414C49.5378 116.513 50.4724 117.464 51.062 118.612C51.6024 119.665 52.2204 120.603 52.7955 121.631C54.1414 124.037 54.7236 126.823 56.1728 129.178C57.4556 131.262 59.3109 133.484 61.3434 134.812C61.6105 134.986 62.9757 135.989 62.6734 135.036C61.8051 132.297 61.2181 129.511 60.4767 126.742C60.3799 126.38 59.7031 124.354 59.7893 124.56C60.3712 125.95 61.0364 127.231 61.9561 128.43C62.8809 129.637 63.8753 130.88 64.9897 131.883C66.2453 133.013 67.8391 133.997 69.2039 135.021C72.4475 137.453 75.8866 140.073 79.6049 141.731C82.4244 142.987 85.4452 143.686 88.3919 144.57C91.3701 145.463 94.2154 145.572 97.2686 145.99C99.2621 146.262 101.453 146.698 103.186 145.362C103.888 144.821 105.74 143.157 103.784 143.823C100.635 144.895 97.4116 145.256 94.1603 145.87C88.4241 146.953 82.9178 148.407 77.0943 149.128C72.8949 149.647 67.9023 150.311 63.6448 149.576C56.0812 148.27 52.0061 141.195 47.9089 135.439C45.6492 132.265 44.2504 128.512 42.7233 124.949" stroke="black" stroke-opacity="0.25" stroke-width="20" stroke-linecap="round"/>
</svg>
