<svg width="192" height="192" viewBox="0 0 192 192" fill="none" xmlns="http://www.w3.org/2000/svg">
<path d="M63.15 39.7353V45.1176C64.8733 45.1176 66.4961 44.32 67.53 42.9647L63.15 39.7353ZM74.1 25.3824V20C72.3767 20 70.754 20.7977 69.72 22.1529L74.1 25.3824ZM128.85 39.7353L124.47 42.9647C125.504 44.32 127.126 45.1176 128.85 45.1176V39.7353ZM117.9 25.3824L122.28 22.1529C121.246 20.7977 119.624 20 117.9 20V25.3824ZM158.05 54.0882V122.265H169V54.0882H158.05ZM148.925 131.235H43.075V142H148.925V131.235ZM33.95 122.265V54.0882H23V122.265H33.95ZM43.075 45.1176H63.15V34.3529H43.075V45.1176ZM67.53 42.9647L78.48 28.6118L69.72 22.1529L58.77 36.5059L67.53 42.9647ZM128.85 45.1176H148.925V34.3529H128.85V45.1176ZM133.23 36.5059L122.28 22.1529L113.52 28.6118L124.47 42.9647L133.23 36.5059ZM117.9 20H74.1V30.7647H117.9V20ZM43.075 131.235C38.0354 131.235 33.95 127.219 33.95 122.265H23C23 133.164 31.9879 142 43.075 142V131.235ZM158.05 122.265C158.05 127.219 153.965 131.235 148.925 131.235V142C160.012 142 169 133.164 169 122.265H158.05ZM169 54.0882C169 43.1887 160.012 34.3529 148.925 34.3529V45.1176C153.965 45.1176 158.05 49.134 158.05 54.0882H169ZM33.95 54.0882C33.95 49.134 38.0354 45.1176 43.075 45.1176V34.3529C31.9879 34.3529 23 43.1887 23 54.0882H33.95Z" fill="black"/>
<path d="M96 112C110.359 112 122 100.583 122 86.5C122 72.4167 110.359 61 96 61C81.6406 61 70 72.4167 70 86.5C70 100.583 81.6406 112 96 112Z" stroke="black" stroke-width="12"/>
<path d="M27.6406 176V150.545H34.5511V170.432H44.8423V176H27.6406ZM47.7352 176V156.909H54.596V176H47.7352ZM51.1656 154.92C50.2375 154.92 49.4421 154.614 48.7792 154.001C48.1163 153.388 47.7849 152.65 47.7849 151.788C47.7849 150.927 48.1163 150.189 48.7792 149.576C49.4421 148.963 50.2375 148.656 51.1656 148.656C52.1019 148.656 52.8973 148.963 53.5519 149.576C54.2148 150.189 54.5463 150.927 54.5463 151.788C54.5463 152.65 54.2148 153.388 53.5519 154.001C52.8973 154.614 52.1019 154.92 51.1656 154.92ZM64.9524 165.261V176H58.0916V156.909H64.6044V160.538H64.8033C65.2176 159.329 65.9467 158.38 66.9908 157.692C68.0431 157.004 69.2694 156.661 70.6697 156.661C72.0204 156.661 73.1928 156.971 74.1871 157.593C75.1897 158.206 75.9645 159.051 76.5114 160.128C77.0665 161.205 77.34 162.436 77.3317 163.82V176H70.4709V165.261C70.4792 164.317 70.2389 163.575 69.75 163.037C69.2694 162.498 68.5982 162.229 67.7365 162.229C67.1731 162.229 66.68 162.353 66.2575 162.602C65.8432 162.842 65.5241 163.19 65.3004 163.646C65.0767 164.093 64.9607 164.632 64.9524 165.261ZM89.8663 176.348C87.8279 176.348 86.0713 175.959 84.5964 175.18C83.1298 174.393 81.9988 173.266 81.2033 171.799C80.4161 170.324 80.0225 168.559 80.0225 166.504C80.0225 164.532 80.4203 162.809 81.2157 161.334C82.0112 159.859 83.1339 158.711 84.584 157.891C86.034 157.071 87.7451 156.661 89.7172 156.661C91.1589 156.661 92.464 156.884 93.6323 157.332C94.8006 157.779 95.7991 158.43 96.6277 159.283C97.4563 160.128 98.0943 161.156 98.5417 162.365C98.9892 163.575 99.2129 164.938 99.2129 166.455V168.045H82.1603V164.267H92.899C92.8907 163.72 92.7498 163.24 92.4764 162.825C92.2112 162.403 91.8508 162.075 91.3951 161.843C90.9476 161.603 90.438 161.483 89.8663 161.483C89.3111 161.483 88.8016 161.603 88.3375 161.843C87.8735 162.075 87.5007 162.399 87.2189 162.813C86.9455 163.227 86.8005 163.712 86.7839 164.267V168.344C86.7839 168.957 86.9123 169.504 87.1692 169.984C87.4261 170.465 87.7948 170.842 88.2754 171.115C88.756 171.389 89.336 171.526 90.0154 171.526C90.4877 171.526 90.9186 171.459 91.3081 171.327C91.7058 171.194 92.0455 171.004 92.3272 170.755C92.609 170.498 92.8161 170.192 92.9487 169.835H99.2129C98.9975 171.161 98.4879 172.313 97.6841 173.29C96.8804 174.26 95.8156 175.014 94.4899 175.553C93.1724 176.083 91.6312 176.348 89.8663 176.348ZM107.332 176.298C106.114 176.298 105.037 176.099 104.101 175.702C103.173 175.296 102.443 174.683 101.913 173.862C101.383 173.042 101.118 171.998 101.118 170.73C101.118 169.686 101.296 168.795 101.652 168.058C102.008 167.312 102.506 166.703 103.144 166.231C103.782 165.759 104.523 165.398 105.368 165.15C106.222 164.901 107.142 164.739 108.128 164.665C109.196 164.582 110.054 164.482 110.7 164.366C111.355 164.242 111.827 164.072 112.117 163.857C112.407 163.633 112.552 163.339 112.552 162.974V162.925C112.552 162.428 112.362 162.046 111.981 161.781C111.599 161.516 111.111 161.384 110.514 161.384C109.859 161.384 109.325 161.529 108.911 161.819C108.505 162.1 108.26 162.535 108.177 163.124H101.863C101.946 161.964 102.315 160.895 102.97 159.917C103.632 158.931 104.598 158.144 105.866 157.555C107.133 156.959 108.716 156.661 110.613 156.661C111.981 156.661 113.207 156.822 114.292 157.145C115.378 157.46 116.302 157.903 117.064 158.475C117.826 159.039 118.406 159.701 118.804 160.464C119.21 161.218 119.413 162.038 119.413 162.925V176H113V173.315H112.851C112.469 174.028 112.005 174.604 111.459 175.043C110.92 175.482 110.303 175.801 109.607 176C108.919 176.199 108.161 176.298 107.332 176.298ZM109.569 171.973C110.091 171.973 110.58 171.865 111.036 171.65C111.5 171.434 111.877 171.124 112.167 170.718C112.457 170.312 112.602 169.819 112.602 169.239V167.648C112.42 167.722 112.225 167.793 112.018 167.859C111.819 167.925 111.604 167.987 111.372 168.045C111.148 168.103 110.908 168.157 110.651 168.207C110.402 168.257 110.141 168.302 109.868 168.344C109.337 168.427 108.902 168.563 108.563 168.754C108.231 168.936 107.983 169.164 107.817 169.438C107.659 169.703 107.581 170.001 107.581 170.332C107.581 170.863 107.767 171.269 108.14 171.55C108.513 171.832 108.989 171.973 109.569 171.973ZM131.889 183.557C129.975 183.557 128.334 183.283 126.967 182.737C125.608 182.198 124.551 181.452 123.797 180.499C123.052 179.555 122.633 178.469 122.542 177.243H129.154C129.221 177.649 129.386 177.976 129.651 178.225C129.917 178.473 130.256 178.652 130.671 178.759C131.093 178.875 131.566 178.933 132.088 178.933C132.974 178.933 133.707 178.718 134.287 178.287C134.876 177.856 135.17 177.077 135.17 175.95V172.719H134.971C134.722 173.365 134.341 173.916 133.828 174.372C133.314 174.819 132.697 175.163 131.976 175.403C131.255 175.635 130.463 175.751 129.602 175.751C128.243 175.751 126.992 175.437 125.848 174.807C124.713 174.177 123.802 173.179 123.114 171.811C122.434 170.444 122.095 168.659 122.095 166.455C122.095 164.151 122.451 162.278 123.164 160.837C123.884 159.395 124.812 158.338 125.948 157.667C127.091 156.996 128.293 156.661 129.552 156.661C130.497 156.661 131.325 156.826 132.038 157.158C132.75 157.481 133.347 157.916 133.828 158.463C134.308 159.001 134.673 159.594 134.921 160.24H135.07V156.909H141.931V175.95C141.931 177.566 141.513 178.937 140.676 180.064C139.847 181.199 138.679 182.065 137.171 182.662C135.663 183.259 133.902 183.557 131.889 183.557ZM132.137 170.879C132.767 170.879 133.306 170.705 133.753 170.357C134.209 170.001 134.557 169.496 134.797 168.841C135.046 168.178 135.17 167.383 135.17 166.455C135.17 165.51 135.046 164.702 134.797 164.031C134.557 163.351 134.209 162.834 133.753 162.477C133.306 162.113 132.767 161.93 132.137 161.93C131.508 161.93 130.969 162.113 130.521 162.477C130.082 162.834 129.743 163.351 129.502 164.031C129.27 164.702 129.154 165.51 129.154 166.455C129.154 167.399 129.27 168.203 129.502 168.866C129.743 169.52 130.082 170.022 130.521 170.37C130.969 170.709 131.508 170.879 132.137 170.879ZM154.568 176.348C152.53 176.348 150.773 175.959 149.299 175.18C147.832 174.393 146.701 173.266 145.905 171.799C145.118 170.324 144.725 168.559 144.725 166.504C144.725 164.532 145.122 162.809 145.918 161.334C146.713 159.859 147.836 158.711 149.286 157.891C150.736 157.071 152.447 156.661 154.419 156.661C155.861 156.661 157.166 156.884 158.334 157.332C159.503 157.779 160.501 158.43 161.33 159.283C162.158 160.128 162.796 161.156 163.244 162.365C163.691 163.575 163.915 164.938 163.915 166.455V168.045H146.862V164.267H157.601C157.593 163.72 157.452 163.24 157.179 162.825C156.913 162.403 156.553 162.075 156.097 161.843C155.65 161.603 155.14 161.483 154.568 161.483C154.013 161.483 153.504 161.603 153.04 161.843C152.576 162.075 152.203 162.399 151.921 162.813C151.648 163.227 151.503 163.712 151.486 164.267V168.344C151.486 168.957 151.614 169.504 151.871 169.984C152.128 170.465 152.497 170.842 152.978 171.115C153.458 171.389 154.038 171.526 154.718 171.526C155.19 171.526 155.621 171.459 156.01 171.327C156.408 171.194 156.748 171.004 157.029 170.755C157.311 170.498 157.518 170.192 157.651 169.835H163.915C163.7 171.161 163.19 172.313 162.386 173.29C161.583 174.26 160.518 175.014 159.192 175.553C157.875 176.083 156.333 176.348 154.568 176.348Z" fill="black"/>
<path d="M116.925 64.4874C119.655 62.0002 123.709 61.2317 126.749 58.9519C128.872 57.3596 130.832 55.7555 132.44 53.6113C133.595 52.0723 133.667 51.857 131.583 51.857C129.431 51.857 127.516 52.2182 125.423 52.6367C124.228 52.8758 122.859 52.7052 121.72 53.085C120.845 53.3766 119.841 54.1552 119.011 54.2935C118.29 54.4136 117.531 54.1221 116.925 54.6638C115.36 56.0639 119.376 54.7534 119.79 54.6053C122.572 53.6121 125.337 52.3675 127.373 50.1808C128.284 49.2024 124.605 48.1706 123.942 47.9978C121.837 47.4487 119.768 47.1371 118.173 45.5419C116.42 43.7893 116.184 40.3889 114.976 38.1936C114.174 36.7355 111.632 36.9386 110.181 36.5759C108.832 36.2385 107.369 36.4815 105.991 36.4004C102.454 36.1924 98.9124 36.0345 95.3873 35.6988C92.4973 35.4235 89.6508 35.3674 86.7137 35.3674C82.9143 35.3674 78.8003 34.9855 75.0189 35.4454C72.7364 35.723 72.0002 40.8161 71.0427 42.5012C69.7533 44.7706 68.8326 48.0041 68.5283 50.5901C68.3407 52.1851 68.5088 53.923 68.5088 55.5214C68.5088 56.3834 68.3614 60.3248 68.9376 60.901C69.2499 61.2132 74.4026 59.8058 75.1749 59.4197C77.1092 58.4525 79.1229 58.4566 81.2172 57.6655C88.4627 54.9282 96.9685 58.0058 104.295 55.7163C104.876 55.5347 109.753 55.1633 109.499 53.7672C109.075 51.433 106.131 50.0025 104.295 49.1283C100.397 47.2719 94.361 48.3486 90.0857 48.3486C88.3561 48.3486 86.2928 48.908 84.5307 49.1283C82.9588 49.3247 81.4351 49.3115 79.8528 49.4206C77.7552 49.5653 75.3835 49.6282 73.7715 51.1554C71.8933 52.9347 71.0148 57.5924 70.5359 60.0824C69.9705 63.0225 68.8391 65.478 67.3004 67.9959C64.0277 73.3511 61.0112 78.7617 57.7106 84.1347C56.3163 86.4045 55.8785 89.4737 55.8785 92.1261C55.8785 94.4602 54.5421 95.6093 56.2293 97.7786C57.6051 99.5474 59.855 100.391 61.492 102.028C62.4936 103.029 62.2931 101.717 62.4665 100.741C62.6988 99.4345 62.5445 97.9694 62.5445 96.6481C62.5445 95.0314 63.0533 92.5008 62.3691 90.9956C61.9009 89.9657 60.409 90.7525 59.7377 91.2295C57.8417 92.5767 57.205 93.7462 56.3852 95.9074C54.7311 100.268 55.5276 105.58 55.5276 110.175C55.5276 111.621 54.9036 112.851 54.6505 114.268C54.3977 115.684 54.2918 117.664 53.4031 118.849C52.3121 120.303 51.4222 121.902 50.4404 123.429C49.6936 124.591 45.3245 127.047 43.8718 126.509C42.4239 125.973 41.1812 124.169 40.1295 123.117C38.8827 121.87 39.1491 120.94 38.6871 119.297C37.7081 115.816 36.5821 112.546 36.5821 108.85C36.5821 102.825 36.7351 96.8709 35.9194 90.9566C34.8224 83.0037 34.956 74.7659 35.1787 66.7484C35.229 64.9373 36.5155 62.8814 36.855 61.0569C37.2204 59.0924 37.8845 57.1352 38.3168 55.1901C38.5409 54.1817 39.3203 53.7316 39.6617 52.8316C40.1062 51.6599 40.2332 51.0127 41.143 50.1028C42.5441 48.7018 44.9744 48.0674 46.9125 47.6664C49.4162 47.1484 51.835 46.2927 54.2997 45.6978C55.0971 45.5053 56.3032 44.713 56.931 45.6198C57.7431 46.7928 57.6327 48.1231 57.6327 49.4791C57.6327 51.0203 58.015 53.2586 57.5547 54.7418C56.7551 57.3184 54.4261 59.9754 52.5455 61.8561C51.8304 62.5712 51.2854 63.5123 50.6938 64.3315C50.5003 64.5993 48.9043 67.3183 48.9006 67.3137C48.2361 66.483 49.2672 62.7165 49.4853 61.6807C49.7241 60.5462 49.6935 59.7617 50.265 58.679C50.9833 57.3179 52.3568 56.2484 53.598 55.385C55.1109 54.3325 55.1768 55.5511 55.1768 56.8468C55.1768 60.4397 55.1768 64.0326 55.1768 67.6255C55.1768 74.12 51.6646 80.6441 49.0175 86.4346C47.5924 89.5521 47.8091 94.0322 47.8091 97.3498C47.8091 101.196 47.8091 105.042 47.8091 108.889C47.8091 110.805 47.305 109.163 47.1074 108.109C46.3826 104.244 45.8169 100.374 45.5286 96.4532C45.1297 91.0278 45.6641 85.6565 44.1057 80.4313C43.4982 78.3943 43.9498 75.7463 43.9498 73.6288C43.9498 69.4849 43.9498 73.7989 43.9498 75.5975C43.9498 83.7998 46.0579 91.836 47.0294 99.9616C47.2767 102.03 47.8284 104.023 48.3158 106.043C48.828 108.165 48.6124 110.47 49.0175 112.631C49.2183 113.701 49.6756 114.713 49.8362 115.789C49.9813 116.761 49.6755 117.996 50.0895 118.907C50.6493 120.139 50.265 116.206 50.265 114.853C50.265 109.265 50.265 103.678 50.265 98.0904C50.265 89.2804 50.265 80.4703 50.265 71.6602C50.265 71.2968 50.5088 69.7668 50.187 69.4772C49.07 68.4719 45.1039 70.0552 44.1447 70.6467C42.5325 71.6409 43.5989 78.6246 43.5989 80.1C43.5989 84.9045 44.3825 89.4504 45.0023 94.1922C45.7977 100.277 48.1468 106.932 51.1226 112.358C52.8737 115.551 53.7968 119.928 57.5937 121.149C59.9806 121.916 62.2603 122.727 64.8055 122.727C69.3402 122.727 71.2927 116.033 72.4851 112.456C72.595 112.126 73.3375 109.781 72.9918 109.473C72.3199 108.876 72.3681 111.893 72.3681 112.046C72.3681 113.864 71.5807 116.061 73.7715 116.061C75.5082 116.061 79.5742 116.184 80.9833 117.465C81.8814 118.281 84.135 118.049 85.2714 118.244C87.2211 118.58 88.8554 119.717 90.8849 119.901C92.8912 120.084 96.0893 119.434 97.6288 120.973C99.0955 122.44 96.3409 124.75 95.4458 125.612C93.6569 127.335 91.8539 127.949 89.6374 128.77C87.4419 129.583 84.6907 130.041 82.2697 130.095C80.0375 130.145 77.8329 130.355 75.6427 130.816C72.9301 131.387 70.3426 131.26 67.6317 131.518C65.7324 131.699 63.8332 132.158 61.9208 132.2C61.6082 132.207 59.6278 132.369 60.7513 131.83C62.7924 130.85 65.306 130.578 67.4563 129.822C69.2079 129.207 71.121 129.006 72.9529 128.77C76.7627 128.278 80.8812 128.692 84.7061 128.692C91.2877 128.692 97.8692 128.692 104.451 128.692C111.143 128.692 117.835 128.692 124.527 128.692C128.975 128.692 133.682 129.101 138.093 128.341C139.718 128.061 141.158 127.639 142.829 127.639C144.902 127.639 146.974 127.639 149.047 127.639C149.939 127.639 151.643 128.038 152.01 126.977C152.915 124.355 153.556 121.346 153.842 118.595C154.31 114.089 155.377 109.686 155.791 105.185C156.063 102.229 155.869 99.1896 155.869 96.2193C155.869 88.678 154.115 81.3982 154.115 73.8432C154.115 68.6276 153.561 63.3399 153.043 58.1527C152.876 56.4827 152.648 54.9008 151.834 53.4358C151.213 52.3176 149.131 52.0919 147.975 52.7342C146.792 53.391 145.223 53.467 144.408 52.5782C143.639 51.7389 141.791 52.2398 140.783 51.5062C140.159 51.0527 138.614 51.8615 137.976 52.2079C135.429 53.5903 136.222 57.691 136.222 60.0044C136.222 63.4154 136.222 66.8264 136.222 70.2374C136.222 73.821 137.979 77.2741 138.327 80.8406C138.623 83.8803 139.007 86.8808 139.028 89.9431C139.051 93.1742 138.758 96.4947 139.301 99.6887C139.902 103.217 139.379 107.13 139.379 110.721C139.379 111.732 140.769 116.62 140.939 116.412C142.461 114.552 142.182 110.979 142.361 108.752C142.581 106.03 142.537 103.315 142.537 100.585C142.537 91.4005 142.186 82.2174 142.186 73.0246C142.186 70.6604 142.034 68.1926 142.439 65.8518C142.558 65.1695 144.219 62.5267 142.966 62.6163C140.861 62.7666 137.823 63.29 136.397 65.0332C134.826 66.9536 133.602 68.3289 131.583 69.7501C127.717 72.4706 128.854 80.1659 128.854 84.2711C128.854 95.7255 128.854 130.089 128.854 118.634C128.854 115.789 129.105 112.811 128.815 109.98C128.592 107.807 126.954 109.19 126.047 110.097C123.783 112.361 121.607 114.762 119.245 116.919C117.446 118.561 115.167 119.488 113.066 120.7C111.769 121.448 111.002 122.026 109.558 122.026C108.799 122.026 108.182 122.331 107.452 122.377C106.034 122.465 110.205 121.665 111.585 121.324C114.564 120.589 117.539 120.412 120.512 119.843C122.892 119.387 125.057 118.11 127.451 117.679C129.849 117.247 137.197 117.465 134.76 117.465C133.125 117.465 131.625 117.671 130.023 117.991C127.342 118.527 124.562 118.526 121.915 119.219C119.694 119.801 117.77 120.782 115.463 121.012C113.622 121.196 112.098 121.675 110.22 121.675C107.232 121.675 104.487 121.69 101.566 122.299C98.5545 122.926 95.6036 123.741 92.5806 124.345C91.4908 124.563 90.3156 125.664 89.2086 125.534C88.3067 125.428 89.7289 122.597 90.1247 122.201C91.1413 121.185 92.5211 120.792 93.7501 120.116C95.6357 119.079 98.106 119.171 99.9288 118.011C101.785 116.829 105.243 116.827 107.375 116.763C108.955 116.716 110.435 116.061 112.013 116.061" stroke="black" stroke-opacity="0.2" stroke-width="17" stroke-linecap="round"/>
</svg>
