<svg width="192" height="192" viewBox="0 0 192 192" fill="none" xmlns="http://www.w3.org/2000/svg">
<path d="M164.25 14C167.618 14.0004 170.868 15.2369 173.385 17.4748C175.902 19.7128 177.51 22.7965 177.904 26.1413L178 27.75V165.25C178 168.618 176.763 171.868 174.525 174.385C172.287 176.902 169.203 178.51 165.859 178.904L164.25 179H26.75C23.3822 179 20.1316 177.763 17.6149 175.525C15.0982 173.287 13.4903 170.203 13.0963 166.859L13 165.25V27.75C13.0004 24.3822 14.2369 21.1316 16.4748 18.6149C18.7128 16.0982 21.7965 14.4903 25.1413 14.0963L26.75 14H164.25ZM164.25 27.75H26.75V165.25H164.25V27.75ZM119.452 77.6625C140.105 77.6625 143.928 91.2475 143.928 108.916L143.9 144.9H123.55L123.509 110.25C123.371 103.238 122.161 95.6062 112.935 95.6062C102.994 95.6062 100.945 102.894 100.725 110.855L100.697 144.9H80.3337V79.3125H99.8862V88.25H100.161C102.119 84.9049 104.947 82.1528 108.343 80.2861C111.74 78.4194 115.579 77.508 119.452 77.6488V77.6625ZM67.5325 79.2988V144.9H47.1275V79.2988H67.5325ZM57.3438 46.6838C60.4799 46.6838 63.4877 47.9296 65.7053 50.1472C67.9229 52.3648 69.1688 55.3726 69.1688 58.5088C69.1688 61.6449 67.9229 64.6527 65.7053 66.8703C63.4877 69.0879 60.4799 70.3338 57.3438 70.3338C54.2076 70.3338 51.1998 69.0879 48.9822 66.8703C46.7646 64.6527 45.5187 61.6449 45.5187 58.5088C45.5187 55.3726 46.7646 52.3648 48.9822 50.1472C51.1998 47.9296 54.2076 46.6838 57.3438 46.6838Z" fill="black"/>
<path d="M167 23H25.5H22.5V169.5L169 168L167 23Z" fill="black" fill-opacity="0.25"/>
</svg>
