<svg width="192" height="192" viewBox="0 0 192 192" fill="none" xmlns="http://www.w3.org/2000/svg">
<path d="M96 94C107.046 94 116 85.0457 116 74C116 62.9543 107.046 54 96 54C84.9543 54 76 62.9543 76 74C76 85.0457 84.9543 94 96 94Z" stroke="black" stroke-width="12"/>
<path d="M96 22C82.2083 22.0006 68.9816 27.5054 59.2298 37.3033C49.4779 47.1013 43.9996 60.3898 44 74.2457C44 90.8415 48.296 102.915 64.8112 123.144C72.4799 131.861 79.2021 141.375 84.864 151.524C90.8523 163.721 90.1463 172 96 172C101.854 172 101.148 163.721 107.136 151.524C112.798 141.375 119.52 131.861 127.189 123.144C143.704 102.915 148 90.8415 148 74.2457C148 60.3898 142.522 47.1013 132.77 37.3033C123.018 27.5054 109.792 22.0006 96 22Z" stroke="black" stroke-width="12"/>
<path d="M98.9317 38.5838C101.747 39.1331 104.957 40.3773 107.365 41.872C108.775 42.7469 109.224 40.8797 109.558 39.8016C109.999 38.3764 109.891 37.3269 108.842 36.1784C107.226 34.4082 104.403 31.9293 101.87 31.7484C99.2129 31.5586 97.096 32.1823 94.6234 32.9663C92.4953 33.641 90.2024 34.1958 88.1382 35.0215C86.8762 35.5262 86.0526 35.3313 86.0526 36.7874C86.0526 39.7426 85.6245 42.5072 88.9146 43.8511C90.8219 44.6302 93.0192 44.3383 95.0344 44.3383C97.8219 44.3383 100.562 44.2536 103.316 44.7493C105.909 45.216 108.129 46.5501 110.669 47.1851C113.068 47.7848 113.283 47.0173 113.592 44.7341C113.962 41.9941 113.177 39.184 116.347 37.8835C117.947 37.2274 121.02 41.2193 121.554 42.5114C121.909 43.3713 121.676 44.6907 121.676 45.5866C121.676 47.0381 121.426 48.3188 120.975 49.6969C120.69 50.5684 120.391 51.441 120.168 52.3306C119.66 54.3643 118.265 56.9382 118.448 59.029C118.634 61.1513 124.734 55.762 125.238 55.3296C126.886 53.9164 128.882 52.2744 130.079 50.4124C130.71 49.4315 129.711 48.0647 129.074 47.3373C126.341 44.214 123.462 42.8555 119.24 42.2983C114.566 41.6816 110.033 40.8035 105.295 40.776C101.845 40.7559 98.3936 40.776 94.9431 40.776C93.3067 40.776 91.7061 40.605 90.2847 41.598C89.0352 42.471 87.6761 43.3203 86.4636 44.2165C85.0595 45.2543 83.3031 45.7454 81.7595 46.5609C80.5767 47.1858 77.9179 48.0197 77.2229 49.2707C77.0033 49.6659 76.8092 50.0835 76.5835 50.4733C75.912 51.6333 75.7068 48.1264 75.7006 48.0223C75.5446 45.4175 75.4371 42.5828 75.6549 39.9691C75.8483 37.6482 77.6403 35.8298 79.5521 34.7627C83.0085 32.8335 85.9597 33.0892 89.691 32.6923C89.6927 32.6921 91.1786 32.3741 91.0763 32.3421C90.2671 32.0892 88.6872 32.9558 87.9251 33.2099C84.9388 34.2053 82.8964 35.7602 80.3285 37.4877C73.4064 42.1444 64.9013 44.1008 59.4875 50.7778C55.3454 55.8864 55.636 63.6819 55.636 69.9138C55.636 72.9373 55.4129 76.13 56.184 79.0783C56.904 81.831 57.3847 84.6308 58.3153 87.3295C59.3538 90.3411 60.8215 93.2107 62.1821 96.083C63.8255 99.5524 65.9675 103.131 67.9823 106.405C69.656 109.124 71.3234 111.788 73.2344 114.336C76.7298 118.997 81.2185 122.978 84.3475 127.915C85.7657 130.153 87.6026 132.228 88.4579 134.766C89.1495 136.819 89.9338 138.848 90.8328 140.81C92.2576 143.919 93.0611 147.864 93.5882 151.238C93.8124 152.673 93.8352 154.041 94.121 155.47C94.3326 156.528 94.632 157.504 94.9127 158.545C95.3978 160.344 95.0295 158.88 95.1562 157.845C95.6049 154.181 97.9339 149.701 99.7994 146.519C103.029 141.009 104.973 134.902 108.188 129.407C112.269 122.429 116.456 115.598 122.178 109.876C123.844 108.21 126.085 106.551 127.43 104.608C128.273 103.391 128.99 102.141 129.775 100.909C132.682 96.3397 134.619 91.4888 136.199 86.3552C137.62 81.7365 138.117 77.9487 138.117 73.1716C138.117 69.2267 137.465 65.3176 136.762 61.4495C136.622 60.6773 136.69 58.7345 135.636 58.6027C134.564 58.4687 134.892 59.2006 134.22 59.4248C132.238 60.0854 130.748 61.8463 129.105 63.0784C128.164 63.7841 125.947 64.6734 125.573 65.8643C125.078 67.4374 125.512 69.6689 125.512 71.2839C125.512 72.5013 125.565 73.6138 125.725 74.8157C126.218 78.5165 126.542 82.126 126.319 85.9137C126.135 89.0378 123.951 92.5373 122.193 95.0478C119.506 98.886 115.099 100.606 111.08 102.523C109.29 103.376 106.908 103.832 104.96 104.075C101.749 104.477 98.5306 104.803 95.3389 105.324C92.7649 105.744 96.016 104.97 96.7395 104.837C98.0351 104.597 99.1796 104.03 100.439 103.664C103.556 102.759 105.823 100.875 108.644 99.3561C110.861 98.1623 112.802 96.5069 114.734 94.9108C115.608 94.1889 116.402 93.4455 117.139 92.5816C117.384 92.2938 118.678 90.6442 118.555 91.0745C117.241 95.6722 114.847 101.304 111.339 104.715C108.161 107.805 103.765 109.543 100.85 112.875C99.1337 114.836 98.62 118.449 98.1553 120.928C97.8642 122.48 97.8768 124.308 97.8356 125.875C97.7998 127.236 97.5119 128.567 97.3027 129.91C96.6836 133.882 98.2374 128.65 98.5967 127.824C99.6089 125.497 100.847 122.817 101.976 120.547C102.585 119.323 104.311 115.731 104.184 117.091C103.774 121.466 101.903 126.034 100.271 130.077C99.5032 131.98 99.0248 134.153 98.1096 135.984C97.6835 136.836 97.3678 136.548 96.9374 135.649C95.4175 132.475 94.5344 128.707 93.8927 125.251C93.3189 122.162 92.4577 118.894 91.533 115.889C91.0107 114.191 90.1629 112.304 90.1629 110.5C90.1629 109.604 90.7297 105.53 89.828 105.445C87.5786 105.235 86.0821 104.108 84.1953 102.979C82.7627 102.122 81.2785 101.733 79.7196 101.168C78.7284 100.808 76.9397 100.466 76.1877 99.6301C75.5177 98.8856 71.4027 95.3211 71.9251 98.1077C72.6077 101.748 75.8196 104.622 77.6492 107.714C78.9244 109.868 80.3057 111.906 81.79 113.925C81.8829 114.051 82.931 115.717 82.9165 114.732C82.8857 112.634 82.1335 110.285 81.1201 108.475C79.7557 106.038 78.4692 103.761 76.6444 101.64C75.7273 100.573 74.8998 99.4426 73.8433 98.5035C73.02 97.7717 71.9801 97.2544 71.1944 96.494C69.132 94.4982 68.0532 91.1374 66.9014 88.5778C65.8327 86.2029 64.446 83.951 64.4047 81.2705C64.3722 79.1555 64.4047 77.0375 64.4047 74.9223C64.4047 72.177 64.4047 69.4317 64.4047 66.6864C64.4047 65.4458 65.14 64.3674 65.6378 63.2611C66.3185 61.7485 66.9333 60.0563 67.9061 58.7093C68.3972 58.0293 68.7742 57.4113 69.3371 56.8215C70.0323 56.0933 71.9135 54.4217 72.0622 53.381C72.2481 52.0791 74.3044 50.9996 75.0916 49.8187" stroke="black" stroke-opacity="0.2" stroke-width="14" stroke-linecap="round"/>
</svg>
