<svg width="192" height="192" viewBox="0 0 192 192" fill="none" xmlns="http://www.w3.org/2000/svg">
<g clip-path="url(#clip0_20_3)">
<path fill-rule="evenodd" clip-rule="evenodd" d="M135.017 168.625C132.382 165.135 133.338 160.349 137.151 157.937C140.963 155.525 146.189 156.398 148.824 159.891C151.459 163.381 150.505 168.167 146.693 170.579C142.878 172.991 137.651 172.116 135.017 168.625ZM86.8479 177.953C85.2228 175.8 85.8127 172.847 88.1653 171.359C90.5178 169.871 93.7427 170.409 95.3678 172.563C96.9931 174.717 96.4029 177.669 94.0504 179.16C91.6979 180.648 88.4732 180.107 86.8479 177.953ZM33.0839 151.943C31.0745 152.342 29.0909 151.17 28.6584 149.328C28.2232 147.487 29.503 145.672 31.5121 145.274C33.5238 144.878 35.505 146.047 35.9399 147.889C36.3748 149.731 35.0956 151.545 33.0839 151.943ZM12.2491 86.3608C15.8989 88.6521 16.8269 93.2185 14.3244 96.5598C11.8219 99.9014 6.83494 100.752 3.18517 98.4601C-0.464597 96.1688 -1.39264 91.6024 1.10986 88.2608C3.61236 84.9193 8.59962 84.0692 12.2491 86.3608ZM43.2569 41.4984C45.1668 44.0295 44.4749 47.499 41.7105 49.2478C38.9459 50.9967 35.1562 50.361 33.2466 47.832C31.3366 45.3009 32.031 41.8314 34.7929 40.0826C37.5572 38.3337 41.3466 38.967 43.2569 41.4984ZM54.7828 12.0882C57.0817 11.6341 59.3479 12.9729 59.8437 15.0781C60.3422 17.183 58.8796 19.2602 56.5782 19.7144C54.2793 20.1683 52.0131 18.8294 51.5173 16.7242C51.0188 14.6169 52.4811 12.5424 54.7828 12.0882ZM103.231 17.7374C106.993 15.6672 111.876 16.7849 114.137 20.2314C116.395 23.6754 115.177 28.1461 111.413 30.2163C107.652 32.2841 102.769 31.1685 100.508 27.7223C98.2492 24.2761 99.4675 19.8052 103.231 17.7374ZM146.929 51.1782C151.777 57.6004 153.745 65.0426 153.142 72.2636C157.257 73.386 161.029 75.6586 163.695 79.1216C169.674 86.8802 167.998 97.3914 160.215 103.402C169.91 117.548 165.844 136.298 150.689 145.887C144.371 149.885 137.115 151.543 129.989 151.303C128.633 156.163 125.526 160.636 120.666 163.71C111.558 169.473 99.6835 168.407 91.7739 161.942C91.5555 162.1 91.3538 162.269 91.1522 162.439C90.8819 162.666 90.6117 162.893 90.3015 163.09C76.1101 172.069 56.6516 168.814 46.8451 155.818C43.2589 151.068 41.499 145.672 41.354 140.3C33.5285 139.122 26.242 135.157 21.6032 128.574C13.7827 117.471 16.1556 103.099 26.4482 94.4669C18.8644 83.2872 22.018 68.5427 33.9714 60.9792C37.5877 58.6903 41.6061 57.4422 45.6804 56.9368C48.4932 50.1607 53.4858 44.0645 60.4925 39.6309C74.3351 30.8729 91.9727 31.2013 105.307 39.0231C120.23 34.0676 137.481 38.6597 146.929 51.1782ZM171.99 59.1794C174.117 61.9969 173.346 65.8577 170.269 67.8043C167.192 69.7512 162.975 69.0456 160.849 66.2281C158.722 63.4103 159.493 59.5495 162.57 57.6029C165.648 55.6562 169.864 56.3618 171.99 59.1794ZM177.39 100.542C180.109 100.007 182.789 101.588 183.377 104.079C183.965 106.569 182.235 109.023 179.516 109.56C176.795 110.096 174.115 108.515 173.529 106.023C172.942 103.534 174.672 101.08 177.39 100.542ZM187.464 79.2145C189.486 78.814 191.477 79.9922 191.915 81.8435C192.352 83.6947 191.065 85.5203 189.043 85.9208C187.021 86.3191 185.027 85.1431 184.59 83.2918C184.155 81.4384 185.439 79.615 187.464 79.2145ZM127.297 123.435C130.878 123.889 134.421 124.339 134.985 127.639C136.486 136.423 117.885 133.153 113.632 131.246C106.966 128.254 102.92 121.417 104.649 114.666C105.317 112.057 108.928 105.293 112.327 98.9251C115.508 92.9669 118.503 87.3566 118.726 85.8246C119.197 82.5924 117.312 82.3155 116.135 82.2619C114.616 82.1898 113.418 82.8672 111.928 84.9258C110.995 86.2178 103.44 99.941 98.3892 109.115C96.1037 113.267 94.331 116.487 93.9166 117.202C91.5387 121.308 88.5454 122.298 85.5393 122.151C81.1547 121.941 79.148 119.789 79.7814 115.922C79.9527 114.879 82.0872 110.09 84.3977 104.906C87.1278 98.7809 90.1037 92.1041 90.3766 90.4053C90.6867 88.4654 90.2672 86.4072 88.1664 85.4197C86.063 84.4323 83.5836 85.946 82.8407 87.0916C82.353 87.8441 78.9761 95.7037 75.4126 103.998C71.4886 113.131 67.3382 122.791 66.5693 124.07C64.031 128.296 61.358 129.64 57.3397 129.814C47.8355 130.227 40.7883 123.071 43.8961 114.292C44.1533 113.566 44.678 111.955 45.3917 109.763C48.5237 100.142 55.2958 79.3392 59.0718 73.1947C62.187 68.123 70.8394 64.2714 76.8387 66.6489C78.81 67.4303 81.2634 68.5087 83.1187 69.3243C84.1882 69.7944 85.059 70.1772 85.524 70.3652C88.0912 71.4072 90.8222 69.0649 92.2936 67.8029C92.5029 67.6234 92.6867 67.4658 92.841 67.3429C92.9865 67.2271 93.1312 67.1106 93.2758 66.9943C94.3645 66.1185 95.4445 65.2496 96.778 64.7256C98.2859 64.134 100.659 63.8872 102.492 64.134C104.324 64.3809 105.417 65.0142 106.104 65.5173C107.23 66.3405 108.003 67.0188 108.97 67.8678C109.161 68.0347 109.358 68.2082 109.568 68.3907C111.326 69.9223 112.634 69.1986 113.58 68.6748C113.666 68.6275 113.748 68.5819 113.827 68.5397L113.875 68.5143C115.519 67.6389 116.842 66.9337 121.724 67.0144C126.798 67.096 132.63 68.7562 133.84 76.6804C134.495 80.9553 130.802 88.5019 126.968 96.3391C122.906 104.639 118.686 113.265 119.301 118.677C119.733 122.475 123.536 122.958 127.297 123.435Z" fill="black"/>
<path d="M76.9275 76.4089C74.2412 77.4061 71.438 78.7189 69.3508 80.5397C68.1556 81.5822 67.6974 83.2232 66.983 84.5175C64.1176 89.7089 61.7859 94.9649 61.0725 100.704C60.3945 106.159 60.8269 111.816 60.8269 117.304C60.8269 117.547 60.5688 120.016 61.5109 119.4C63.2311 118.275 64.4346 115.819 65.2467 114.137C67.1878 110.116 68.7194 107.007 68.7194 102.601C68.7194 101.475 68.9736 100.084 68.5791 98.9906C68.2968 98.2086 67.8454 97.7404 67.7547 96.9099C67.4833 94.4237 65.4719 93.3903 62.8439 93.9113C58.2384 94.8243 53.6677 97.8092 49.7249 99.9851C47.9853 100.945 46.2389 102.024 45.1823 103.611C43.1399 106.679 42.5165 110.048 42.5165 113.525C42.5165 115.477 42.3452 117.499 42.7269 119.431C42.8466 120.036 43.2235 122.577 44.3054 122.766C44.8711 122.864 45.6338 122.323 46.0242 122.093C47.91 120.981 49.7671 119.788 51.5665 118.574C56.9887 114.914 62.19 110.683 66.5972 106.105C73.175 99.2719 78.0805 91.2506 83.908 83.9361C86.8582 80.233 89.572 76.4919 92.2038 72.6147C93.855 70.1821 95.5695 67.3909 98.395 65.8065C99.4691 65.2041 99.3039 66.7323 99.3245 67.3364C99.4744 71.7162 99.4948 76.2123 98.9562 80.5703C97.9944 88.353 93.4441 95.8994 89.8361 102.968C87.397 107.747 85.4903 112.595 86.1003 117.916C86.2062 118.839 89.4938 116.219 89.6256 116.126C95.3809 112.07 100.806 107.695 105.358 102.586C110.144 97.2138 113.999 91.4778 117.407 85.3743C119.568 81.5031 120.965 77.1389 123.721 73.5632C123.946 73.2709 126.269 69.1635 126.615 69.2641C127.19 69.4312 126.808 73.4587 126.808 73.9916C126.808 82.1102 127.065 90.1977 126.036 98.2716C125.766 100.388 125.292 102.351 124.843 104.407C124.513 105.922 123.651 107.32 123.651 108.843C123.651 111.352 124.971 113.524 125.685 115.927C126.027 117.078 126.176 118.449 126.176 119.645C126.176 121.342 125.756 122.022 123.896 122.949C121.526 124.131 114.928 125.504 112.286 123.776" stroke="black" stroke-opacity="0.2" stroke-width="30" stroke-linecap="round"/>
</g>
<defs>
<clipPath id="clip0_20_3">
<rect width="192" height="192" fill="white"/>
</clipPath>
</defs>
</svg>
