<svg width="192" height="192" viewBox="0 0 192 192" fill="none" xmlns="http://www.w3.org/2000/svg">
<path d="M63.15 39.7353V45.1176C64.8733 45.1176 66.4961 44.32 67.53 42.9647L63.15 39.7353ZM74.1 25.3824V20C72.3767 20 70.754 20.7977 69.72 22.1529L74.1 25.3824ZM128.85 39.7353L124.47 42.9647C125.504 44.32 127.126 45.1176 128.85 45.1176V39.7353ZM117.9 25.3824L122.28 22.1529C121.246 20.7977 119.624 20 117.9 20V25.3824ZM158.05 54.0882V122.265H169V54.0882H158.05ZM148.925 131.235H43.075V142H148.925V131.235ZM33.95 122.265V54.0882H23V122.265H33.95ZM43.075 45.1176H63.15V34.3529H43.075V45.1176ZM67.53 42.9647L78.48 28.6118L69.72 22.1529L58.77 36.5059L67.53 42.9647ZM128.85 45.1176H148.925V34.3529H128.85V45.1176ZM133.23 36.5059L122.28 22.1529L113.52 28.6118L124.47 42.9647L133.23 36.5059ZM117.9 20H74.1V30.7647H117.9V20ZM43.075 131.235C38.0354 131.235 33.95 127.219 33.95 122.265H23C23 133.164 31.9879 142 43.075 142V131.235ZM158.05 122.265C158.05 127.219 153.965 131.235 148.925 131.235V142C160.012 142 169 133.164 169 122.265H158.05ZM169 54.0882C169 43.1887 160.012 34.3529 148.925 34.3529V45.1176C153.965 45.1176 158.05 49.134 158.05 54.0882H169ZM33.95 54.0882C33.95 49.134 38.0354 45.1176 43.075 45.1176V34.3529C31.9879 34.3529 23 43.1887 23 54.0882H33.95Z" fill="black"/>
<path d="M96 112C110.359 112 122 100.583 122 86.5C122 72.4167 110.359 61 96 61C81.6406 61 70 72.4167 70 86.5C70 100.583 81.6406 112 96 112Z" stroke="black" stroke-width="12"/>
<path d="M53.6406 150.545H62.2415L68.1577 164.963H68.456L74.3722 150.545H82.973V176H76.2116V161.284H76.0128L70.3452 175.801H66.2685L60.6009 161.185H60.402V176H53.6406V150.545ZM102.779 158.947C102.671 158.508 102.501 158.123 102.269 157.792C102.037 157.452 101.747 157.166 101.399 156.934C101.059 156.694 100.662 156.516 100.206 156.4C99.7583 156.275 99.2653 156.213 98.7267 156.213C97.5667 156.213 96.5765 156.491 95.7562 157.046C94.9442 157.601 94.3227 158.401 93.8919 159.445C93.4693 160.489 93.258 161.748 93.258 163.223C93.258 164.714 93.461 165.991 93.867 167.051C94.273 168.112 94.8779 168.924 95.6816 169.487C96.4854 170.051 97.4838 170.332 98.677 170.332C99.7293 170.332 100.604 170.179 101.3 169.873C102.004 169.566 102.53 169.131 102.878 168.567C103.226 168.004 103.4 167.341 103.4 166.579L104.593 166.703H98.7765V161.781H110.062V165.311C110.062 167.631 109.569 169.616 108.583 171.265C107.605 172.905 106.255 174.165 104.531 175.043C102.816 175.913 100.848 176.348 98.6273 176.348C96.1498 176.348 93.9747 175.822 92.1021 174.77C90.2295 173.717 88.767 172.217 87.7147 170.27C86.6706 168.323 86.1486 166.007 86.1486 163.322C86.1486 161.218 86.4676 159.353 87.1056 157.729C87.752 156.105 88.6468 154.734 89.7903 153.615C90.9338 152.489 92.2554 151.639 93.7551 151.067C95.2549 150.487 96.8624 150.197 98.5776 150.197C100.086 150.197 101.486 150.413 102.779 150.844C104.079 151.266 105.227 151.871 106.221 152.658C107.224 153.437 108.032 154.361 108.645 155.43C109.258 156.499 109.631 157.671 109.764 158.947H102.779ZM137.048 160.091H130.038C129.989 159.511 129.856 158.985 129.641 158.512C129.434 158.04 129.144 157.634 128.771 157.294C128.406 156.946 127.963 156.681 127.441 156.499C126.919 156.308 126.326 156.213 125.663 156.213C124.503 156.213 123.522 156.495 122.718 157.058C121.922 157.622 121.317 158.43 120.903 159.482C120.497 160.534 120.294 161.798 120.294 163.273C120.294 164.83 120.501 166.136 120.916 167.188C121.338 168.232 121.947 169.019 122.743 169.549C123.538 170.071 124.495 170.332 125.614 170.332C126.252 170.332 126.823 170.254 127.329 170.096C127.834 169.931 128.274 169.694 128.646 169.388C129.019 169.081 129.322 168.712 129.554 168.282C129.794 167.842 129.956 167.349 130.038 166.803L137.048 166.852C136.966 167.929 136.663 169.027 136.141 170.146C135.619 171.256 134.877 172.284 133.916 173.228C132.963 174.165 131.783 174.919 130.374 175.49C128.965 176.062 127.329 176.348 125.465 176.348C123.128 176.348 121.032 175.847 119.176 174.844C117.328 173.842 115.865 172.367 114.788 170.419C113.719 168.472 113.185 166.09 113.185 163.273C113.185 160.439 113.732 158.053 114.825 156.114C115.919 154.166 117.394 152.696 119.25 151.701C121.106 150.699 123.178 150.197 125.465 150.197C127.072 150.197 128.551 150.417 129.902 150.856C131.252 151.295 132.437 151.937 133.456 152.783C134.476 153.62 135.296 154.651 135.917 155.877C136.539 157.104 136.916 158.508 137.048 160.091Z" fill="black"/>
<path d="M116.925 64.4874C119.655 62.0002 123.709 61.2317 126.749 58.9519C128.872 57.3596 130.832 55.7555 132.44 53.6113C133.595 52.0723 133.667 51.857 131.583 51.857C129.431 51.857 127.516 52.2182 125.423 52.6367C124.228 52.8758 122.859 52.7052 121.72 53.085C120.845 53.3765 119.841 54.1551 119.011 54.2934C118.29 54.4136 117.531 54.1221 116.925 54.6638C115.36 56.0639 119.376 54.7534 119.79 54.6053C122.572 53.612 125.337 52.3675 127.373 50.1808C128.284 49.2024 124.605 48.1706 123.942 47.9978C121.837 47.4486 119.768 47.1371 118.173 45.5419C116.42 43.7893 116.183 40.3889 114.976 38.1936C114.174 36.7354 111.632 36.9386 110.181 36.5758C108.832 36.2385 107.369 36.4815 105.991 36.4004C102.454 36.1924 98.9124 36.0345 95.3873 35.6987C92.4973 35.4235 89.6508 35.3674 86.7137 35.3674C82.9143 35.3674 78.8003 34.9855 75.0189 35.4454C72.7364 35.723 72.0002 40.8161 71.0427 42.5012C69.7533 44.7706 68.8326 48.0041 68.5283 50.5901C68.3407 52.1851 68.5088 53.923 68.5088 55.5214C68.5088 56.3834 68.3614 60.3248 68.9376 60.901C69.2499 61.2132 74.4025 59.8058 75.1749 59.4197C77.1092 58.4525 79.1229 58.4566 81.2172 57.6654C88.4627 54.9282 96.9685 58.0058 104.295 55.7163C104.876 55.5347 109.753 55.1633 109.499 53.7672C109.075 51.433 106.131 50.0025 104.295 49.1283C100.397 47.2719 94.361 48.3486 90.0857 48.3486C88.3561 48.3486 86.2928 48.908 84.5307 49.1283C82.9588 49.3247 81.4351 49.3115 79.8528 49.4206C77.7552 49.5653 75.3835 49.6282 73.7715 51.1553C71.8933 52.9347 71.0148 57.5923 70.5359 60.0824C69.9705 63.0225 68.839 65.478 67.3004 67.9958C64.0277 73.3511 61.0112 78.7617 57.7106 84.1346C56.3163 86.4045 55.8785 89.4736 55.8785 92.1261C55.8785 94.4602 54.5421 95.6093 56.2293 97.7786C57.6051 99.5474 59.8549 100.391 61.492 102.028C62.4936 103.029 62.2931 101.717 62.4665 100.741C62.6988 99.4345 62.5445 97.9694 62.5445 96.6481C62.5445 95.0314 63.0532 92.5008 62.3691 90.9956C61.9009 89.9657 60.409 90.7525 59.7377 91.2295C57.8417 92.5766 57.205 93.7462 56.3852 95.9074C54.7311 100.268 55.5276 105.58 55.5276 110.175C55.5276 111.621 54.9036 112.851 54.6505 114.268C54.3977 115.684 54.2918 117.664 53.4031 118.849C52.312 120.303 51.4222 121.902 50.4404 123.429C49.6936 124.591 45.3245 127.047 43.8718 126.509C42.4239 125.972 41.1812 124.169 40.1295 123.117C38.8827 121.87 39.1491 120.94 38.6871 119.297C37.7081 115.816 36.5821 112.546 36.5821 108.85C36.5821 102.825 36.7351 96.8709 35.9194 90.9566C34.8224 83.0037 34.956 74.7659 35.1787 66.7484C35.229 64.9373 36.5155 62.8814 36.8549 61.0569C37.2204 59.0924 37.8845 57.1352 38.3168 55.19C38.5409 54.1817 39.3203 53.7315 39.6617 52.8316C40.1062 51.6598 40.2331 51.0127 41.143 50.1028C42.5441 48.7018 44.9744 48.0674 46.9125 47.6664C49.4162 47.1484 51.835 46.2927 54.2997 45.6978C55.0971 45.5053 56.3032 44.713 56.931 45.6198C57.7431 46.7928 57.6327 48.1231 57.6327 49.4791C57.6327 51.0203 58.015 53.2585 57.5547 54.7417C56.7551 57.3184 54.4261 59.9754 52.5455 61.8561C51.8304 62.5712 51.2854 63.5123 50.6938 64.3315C50.5003 64.5993 48.9043 67.3183 48.9006 67.3136C48.2361 66.483 49.2672 62.7165 49.4853 61.6807C49.7241 60.5462 49.6935 59.7617 50.265 58.679C50.9833 57.3179 52.3568 56.2484 53.598 55.385C55.1109 54.3325 55.1768 55.551 55.1768 56.8468C55.1768 60.4397 55.1768 64.0326 55.1768 67.6255C55.1768 74.1199 51.6646 80.6441 49.0175 86.4346C47.5924 89.552 47.8091 94.0321 47.8091 97.3497C47.8091 101.196 47.8091 105.042 47.8091 108.889C47.8091 110.805 47.305 109.163 47.1074 108.109C46.3826 104.244 45.8169 100.374 45.5286 96.4531C45.1297 91.0278 45.6641 85.6565 44.1057 80.4313C43.4982 78.3943 43.9498 75.7463 43.9498 73.6288C43.9498 69.4849 43.9498 73.7989 43.9498 75.5974C43.9498 83.7998 46.0579 91.836 47.0294 99.9616C47.2767 102.03 47.8284 104.023 48.3158 106.043C48.828 108.165 48.6124 110.47 49.0175 112.631C49.2182 113.701 49.6756 114.713 49.8362 115.789C49.9813 116.761 49.6755 117.996 50.0895 118.907C50.6493 120.139 50.265 116.206 50.265 114.853C50.265 109.265 50.265 103.678 50.265 98.0904C50.265 89.2803 50.265 80.4703 50.265 71.6602C50.265 71.2968 50.5088 69.7668 50.187 69.4772C49.07 68.4718 45.1039 70.0552 44.1447 70.6467C42.5325 71.6409 43.5989 78.6246 43.5989 80.0999C43.5989 84.9045 44.3825 89.4504 45.0023 94.1922C45.7977 100.277 48.1468 106.932 51.1226 112.358C52.8737 115.551 53.7968 119.928 57.5937 121.149C59.9806 121.916 62.2603 122.727 64.8055 122.727C69.3402 122.727 71.2927 116.033 72.4851 112.456C72.595 112.126 73.3375 109.781 72.9918 109.473C72.3199 108.876 72.3681 111.893 72.3681 112.046C72.3681 113.864 71.5807 116.061 73.7715 116.061C75.5082 116.061 79.5742 116.184 80.9833 117.465C81.8814 118.281 84.135 118.049 85.2714 118.244C87.2211 118.58 88.8554 119.717 90.8848 119.901C92.8912 120.084 96.0893 119.434 97.6288 120.973C99.0955 122.44 96.3408 124.75 95.4458 125.612C93.6569 127.335 91.8539 127.949 89.6374 128.77C87.4419 129.583 84.6907 130.041 82.2697 130.095C80.0375 130.145 77.8329 130.355 75.6427 130.816C72.9301 131.387 70.3426 131.26 67.6317 131.518C65.7324 131.699 63.8332 132.158 61.9208 132.2C61.6082 132.207 59.6278 132.369 60.7513 131.83C62.7924 130.85 65.306 130.578 67.4563 129.822C69.2079 129.207 71.121 129.006 72.9528 128.77C76.7627 128.278 80.8812 128.692 84.7061 128.692C91.2877 128.692 97.8692 128.692 104.451 128.692C111.143 128.692 117.835 128.692 124.527 128.692C128.975 128.692 133.682 129.101 138.093 128.341C139.718 128.061 141.158 127.639 142.829 127.639C144.902 127.639 146.974 127.639 149.047 127.639C149.939 127.639 151.643 128.038 152.01 126.977C152.915 124.355 153.556 121.346 153.842 118.595C154.31 114.089 155.377 109.686 155.791 105.185C156.063 102.229 155.869 99.1895 155.869 96.2192C155.869 88.678 154.115 81.3982 154.115 73.8432C154.115 68.6276 153.561 63.3398 153.043 58.1527C152.876 56.4826 152.648 54.9007 151.834 53.4358C151.213 52.3176 149.131 52.0918 147.975 52.7341C146.792 53.391 145.223 53.467 144.408 52.5782C143.639 51.7389 141.791 52.2398 140.783 51.5062C140.159 51.0526 138.614 51.8615 137.976 52.2079C135.429 53.5903 136.222 57.6909 136.222 60.0044C136.222 63.4154 136.222 66.8264 136.222 70.2373C136.222 73.8209 137.979 77.2741 138.327 80.8406C138.623 83.8802 139.007 86.8808 139.028 89.943C139.051 93.1742 138.758 96.4946 139.301 99.6887C139.902 103.217 139.379 107.13 139.379 110.721C139.379 111.732 140.769 116.62 140.939 116.412C142.461 114.552 142.182 110.979 142.361 108.752C142.581 106.03 142.537 103.315 142.537 100.585C142.537 91.4005 142.186 82.2174 142.186 73.0246C142.186 70.6603 142.034 68.1926 142.439 65.8518C142.558 65.1694 144.219 62.5267 142.966 62.6162C140.861 62.7666 137.823 63.29 136.397 65.0332C134.826 66.9536 133.602 68.3289 131.583 69.7501C127.717 72.4705 128.854 80.1659 128.854 84.2711C128.854 95.7255 128.854 130.089 128.854 118.634C128.854 115.789 129.105 112.811 128.815 109.98C128.592 107.807 126.954 109.19 126.047 110.097C123.783 112.361 121.607 114.762 119.245 116.919C117.446 118.561 115.167 119.488 113.066 120.7C111.769 121.448 111.002 122.026 109.558 122.026C108.799 122.026 108.182 122.331 107.452 122.377C106.034 122.465 110.205 121.665 111.585 121.324C114.564 120.589 117.539 120.412 120.512 119.843C122.892 119.387 125.057 118.11 127.451 117.679C129.849 117.247 137.197 117.465 134.76 117.465C133.125 117.465 131.625 117.671 130.023 117.991C127.342 118.527 124.562 118.526 121.915 119.219C119.694 119.801 117.77 120.782 115.463 121.012C113.622 121.196 112.098 121.675 110.22 121.675C107.232 121.675 104.487 121.69 101.566 122.299C98.5545 122.926 95.6036 123.741 92.5806 124.345C91.4908 124.563 90.3156 125.664 89.2086 125.534C88.3067 125.428 89.7289 122.597 90.1247 122.201C91.1413 121.185 92.5211 120.792 93.7501 120.116C95.6357 119.079 98.106 119.17 99.9288 118.011C101.785 116.829 105.243 116.827 107.374 116.763C108.955 116.716 110.435 116.061 112.013 116.061" stroke="black" stroke-opacity="0.2" stroke-width="17" stroke-linecap="round"/>
</svg>
