<svg width="192" height="192" viewBox="0 0 192 192" fill="none" xmlns="http://www.w3.org/2000/svg">
<path d="M170 96C170 115.626 162.203 134.448 148.326 148.326C134.448 162.203 115.626 170 96 170C76.374 170 57.5519 162.203 43.6743 148.326C29.7966 134.448 22.0002 115.626 22.0002 96C22.0002 76.374 29.7966 57.5519 43.6743 43.6743C57.5519 29.7966 76.374 22.0002 96 22.0002C115.626 22.0002 134.448 29.7966 148.326 43.6743C162.203 57.5519 170 76.374 170 96Z" stroke="black" stroke-width="12"/>
<path d="M122 96C122 102.896 119.261 109.509 114.385 114.385C109.509 119.261 102.896 122 96 122C92.5856 122 89.2047 121.327 86.0502 120.021C82.8958 118.714 80.0295 116.799 77.6152 114.385C75.2009 111.97 73.2858 109.104 71.9791 105.95C70.6725 102.795 70 99.4144 70 96C70 92.5856 70.6725 89.2047 71.9791 86.0502C73.2857 82.8958 75.2009 80.0295 77.6152 77.6152C80.0295 75.2009 82.8958 73.2857 86.0502 71.9791C89.2047 70.6725 92.5856 70 96 70C99.4144 70 102.795 70.6725 105.95 71.9791C109.104 73.2858 111.97 75.2009 114.385 77.6152C116.799 80.0295 118.714 82.8958 120.021 86.0502C121.327 89.2047 122 92.5856 122 96Z" stroke="black" stroke-width="12"/>
<path d="M104 46C104 48.1217 103.157 50.1566 101.657 51.6568C100.157 53.1571 98.1217 54 96 54C94.9494 54 93.9091 53.7931 92.9385 53.391C91.9679 52.989 91.086 52.3997 90.3431 51.6568C89.6003 50.914 89.011 50.0321 88.609 49.0615C88.2069 48.0909 88 47.0506 88 46C88 44.9494 88.2069 43.9091 88.609 42.9385C89.011 41.9679 89.6003 41.086 90.3431 40.3431C91.086 39.6003 91.9679 39.011 92.9385 38.609C93.9091 38.2069 94.9494 38 96 38C98.1217 38 100.157 38.8429 101.657 40.3431C103.157 41.8434 104 43.8783 104 46Z" fill="black"/>
<path d="M146 104C143.878 104 141.843 103.157 140.343 101.657C138.843 100.157 138 98.1217 138 96C138 94.9494 138.207 93.9091 138.609 92.9385C139.011 91.9679 139.6 91.086 140.343 90.3431C141.086 89.6003 141.968 89.011 142.939 88.609C143.909 88.2069 144.949 88 146 88C147.051 88 148.091 88.2069 149.061 88.609C150.032 89.011 150.914 89.6003 151.657 90.3431C152.4 91.086 152.989 91.9679 153.391 92.9385C153.793 93.9091 154 94.9494 154 96C154 98.1217 153.157 100.157 151.657 101.657C150.157 103.157 148.122 104 146 104Z" fill="black"/>
<path d="M104 146C104 148.122 103.157 150.157 101.657 151.657C100.157 153.157 98.1217 154 96 154C94.9494 154 93.9091 153.793 92.9385 153.391C91.9679 152.989 91.086 152.4 90.3431 151.657C89.6003 150.914 89.011 150.032 88.609 149.061C88.2069 148.091 88 147.051 88 146C88 144.949 88.2069 143.909 88.609 142.939C89.011 141.968 89.6003 141.086 90.3431 140.343C91.086 139.6 91.9679 139.011 92.9385 138.609C93.9091 138.207 94.9494 138 96 138C98.1217 138 100.157 138.843 101.657 140.343C103.157 141.843 104 143.878 104 146Z" fill="black"/>
<path d="M46 104C43.8783 104 41.8434 103.157 40.3432 101.657C38.8429 100.157 38 98.1217 38 96C38 94.9494 38.2069 93.9091 38.609 92.9385C39.011 91.9679 39.6003 91.086 40.3432 90.3431C41.086 89.6003 41.9679 89.011 42.9385 88.609C43.9091 88.2069 44.9494 88 46 88C47.0506 88 48.0909 88.2069 49.0615 88.609C50.0321 89.011 50.914 89.6003 51.6569 90.3431C52.3997 91.086 52.989 91.9679 53.391 92.9385C53.7931 93.9091 54 94.9494 54 96C54 98.1217 53.1571 100.157 51.6569 101.657C50.1566 103.157 48.1217 104 46 104Z" fill="black"/>
<path d="M52.3473 62.6863C54.4135 60.3483 55.9419 57.5403 58.0625 55.2353C58.6339 54.6142 59.1434 53.8698 59.7709 53.3005C62.3673 50.945 65.9394 50.1142 68.9852 48.5596C69.8932 48.0961 70.7781 47.7551 71.3659 46.9061C72.2268 45.6626 73.2109 44.486 74.1926 43.3384C74.5789 42.8869 74.9721 42.4469 75.407 42.0417C75.5538 41.9049 75.8918 41.701 75.9833 41.4996C76.0746 41.2989 75.8651 40.8487 75.8118 40.6489C75.5833 39.792 72.7398 40.2098 72.0795 40.2098C67.7578 40.2098 63.3299 39.9201 59.0574 40.6969C57.1429 41.045 55.4655 41.6041 53.9459 42.8924C51.1552 45.2585 49.5152 48.9166 48.2582 52.2439C47.7308 53.6399 47.4337 55.0988 46.9821 56.5183C46.6528 57.5532 46.2526 58.6494 46.1176 59.7292C45.8146 62.153 45.555 64.5057 45.555 66.9538C45.555 68.7835 45.1386 71.5713 46.7419 72.916C47.3341 73.4126 48.6117 73.3724 49.3285 73.4031C52.5573 73.5415 55.8858 73.57 59.1122 73.4031C61.7421 73.2671 63.3038 71.8581 64.9235 69.904C66.354 68.178 67.7507 66.3025 68.8411 64.3398C69.8994 62.4348 71.0801 60.5861 72.3951 58.8442C74.0384 56.6673 76.592 55.3588 78.9953 54.1787C80.5961 53.3927 82.6954 52.683 84.5115 52.683C84.8922 52.683 85.2482 52.4484 85.2937 52.9574C85.4283 54.4654 85.4839 56.3562 84.8134 57.7601C83.878 59.7187 82.19 61.5512 80.7586 63.1871C80.1519 63.8805 79.6701 64.7096 79.2286 65.513C79.0558 65.8274 78.903 66.1756 78.6797 66.4598C78.5884 66.576 79.0072 65.7056 79.0227 65.6777C80.7959 62.486 83.2923 59.7115 84.8889 56.4154C85.4759 55.2034 86.4669 54.0647 86.8031 52.7379C87.4028 50.3706 87.2971 47.7424 87.2971 45.3212C87.2971 43.4163 87.0225 41.7203 86.4943 39.901C86.2754 39.1469 85.9834 38.3459 85.9386 37.5615C85.924 37.3064 85.8281 37.1076 85.7533 36.8685C85.6638 36.582 85.3112 36.2239 85.2868 35.956C85.219 35.2097 91.7471 34.6705 92.4291 34.5701C94.8791 34.2094 97.2418 33.4613 99.7428 33.4174C104.768 33.3293 109.811 33.1249 114.837 33.3694C116.797 33.4647 118.989 33.5897 120.847 34.2682C122.63 34.9189 124.41 35.4922 126.226 36.0383C128.559 36.7397 130.525 38.0634 132.332 39.6609C133.806 40.9637 135.322 42.1925 136.751 43.5511C138.682 45.3865 140.408 47.4326 142.157 49.4378C143.216 50.6516 144.17 51.8822 144.915 53.3142C145.541 54.515 146.349 55.5984 146.919 56.827C147.387 57.8358 148.096 58.6964 148.538 59.7155C149.003 60.7876 149.422 61.8853 149.787 62.995C150.951 66.5396 151.942 70.114 152.902 73.7187C153.421 75.6694 154.087 77.5407 154.589 79.4956C155.571 83.3146 156.745 87.1064 157.814 90.9123C158.124 92.0151 158.498 93.0986 158.678 94.233C158.939 95.868 158.91 97.5256 159.179 99.1591C159.582 101.602 159.666 103.951 159.666 106.418C159.666 107.52 159.684 108.564 159.419 109.643C159.044 111.177 158.221 112.467 157.361 113.773C156.492 115.092 155.639 116.413 154.473 117.498C152.945 118.921 150.935 119.098 148.929 119.227C144.283 119.527 139.58 119.397 134.926 119.372C133.764 119.365 130.86 119.807 130.068 118.493C128.208 115.407 124.717 111.79 127.598 108.216C128.431 107.182 129.08 106.328 129.588 105.094C129.901 104.333 130.097 103.501 130.274 102.699C130.465 101.834 130.825 101.029 130.919 100.147C131.073 98.7045 131.312 97.1838 131.591 95.763C131.791 94.7476 132.03 93.7867 132.127 92.751C132.221 91.7334 132.596 90.8709 132.792 89.89C133.301 87.3448 133.129 84.6379 133.115 82.0616C133.099 79.4263 132.107 76.7348 130.953 74.3774C130.364 73.174 129.959 71.8501 129.259 70.7136C128.209 69.0102 127.117 67.3453 125.911 65.7463C124.903 64.4103 123.808 62.886 122.549 61.7806C121.849 61.1661 120.883 60.8241 120.038 60.4565C118.511 59.7926 116.799 59.3936 115.187 58.9951C113.779 58.6471 112.444 58.1536 110.995 57.9934C109.682 57.8482 108.389 57.656 107.084 57.4582C105.639 57.2393 104.118 56.961 102.679 56.8545C95.8182 56.3462 88.8748 57.4689 83.1599 61.4445C82.0293 62.2309 80.8644 62.9722 79.7226 63.7429C79.0658 64.1862 78.8294 64.4651 79.8323 64.3398C84.0135 63.8171 88.0943 63.6743 92.3193 63.6743C98.0596 63.6743 103.8 63.6636 109.54 63.6743C114.121 63.6828 118.544 63.8264 122.974 65.0876C125.527 65.8144 128.387 66.5697 130.521 68.2162C131.706 69.1302 132.525 70.2918 133.368 71.5163C134.101 72.5796 134.821 73.5687 135.241 74.8027C135.799 76.4386 136.209 78.1232 136.627 79.7975C137.574 83.585 138.22 87.5103 138.562 91.3994C138.702 92.9897 139.265 94.5205 139.509 96.0992C139.836 98.2191 140.207 100.27 140.716 102.356C140.941 103.276 140.996 104.219 141.327 105.108C141.503 105.581 141.866 107.482 142.329 107.66C142.936 107.894 143.931 104.405 144.023 104.099C145.465 99.348 145.169 94.362 144.257 89.5264C143.751 86.8471 143.044 84.1962 142.048 81.6568C141.36 79.9045 140.487 78.2199 139.742 76.4905C138.157 72.8107 136.677 69.0225 134.466 65.6639C132.467 62.6261 130.432 59.6666 128.14 56.8407C126.598 54.9393 125.038 53.0491 123.612 51.057C122.409 49.3753 121.385 47.5754 120.168 45.9044C119.172 44.5373 118.202 43.3033 116.593 42.6797C113.717 41.5647 110.845 41.54 107.811 41.3899C105.24 41.2627 102.475 40.4956 99.9487 41.2595C97.9737 41.8566 96.1567 42.7556 94.0757 42.9953C91.4814 43.2942 88.8925 43.6079 86.3022 43.949C81.6915 44.5562 77.1152 45.5512 72.4637 45.8083C70.3169 45.927 68.2759 46.0593 66.179 46.563C63.4103 47.2282 60.611 48.0777 57.891 48.9232C55.6505 49.6196 53.228 50.1825 51.1604 51.3177C49.5176 52.2196 48.1538 53.3831 46.9135 54.7825C45.4459 56.4382 43.9766 58.1137 42.6871 59.9145C41.3671 61.7579 40.0849 63.5628 38.4882 65.1837C36.9063 66.7896 34.9068 68.6072 34.1383 70.7822C33.6914 72.0473 33.3245 73.4081 32.9857 74.7067C32.6008 76.1823 32.8348 77.911 32.8348 79.4202C32.8348 82.638 32.8348 85.8557 32.8348 89.0735C32.8348 89.7848 32.8348 90.496 32.8348 91.2073C32.8348 91.8889 32.5936 92.6133 33.4797 92.3051C34.9717 91.7861 36.4935 91.4078 37.9942 90.9123C40.1315 90.2065 42.0825 89.108 44.1416 88.2228C44.8197 87.9313 45.4267 87.5921 46.1656 87.4544C47.6356 87.1803 49.0142 87.2054 50.4263 86.6516C52.4042 85.876 54.5181 85.3935 56.4639 84.5453C57.0752 84.2788 57.6406 83.9847 58.2752 83.7426C58.8068 83.5397 60.1029 82.6421 59.4347 83.6602C57.9886 85.8639 56.4579 88.258 54.4536 89.9998C52.9386 91.3164 50.7386 92.185 48.91 92.9774C46.1056 94.1927 43.6993 95.746 41.2326 97.54C39.1184 99.0775 36.8168 100.637 35.4282 102.905C34.3461 104.673 33.3893 106.897 32.8073 108.902C32.7442 109.119 32.5383 110.07 32.7387 110.233C33.0192 110.46 34.1822 110.065 34.4402 110.013C35.6316 109.775 36.7907 109.475 37.9119 108.998C42.2854 107.136 46.2212 104.4 50.1587 101.794C52.2202 100.429 54.6624 99.1908 57.15 98.8573C59.1263 98.5923 58.7655 102.094 58.9201 103.296C59.2299 105.704 59.5239 108.32 60.258 110.644C60.8041 112.374 61.7012 113.906 62.9818 115.186C64.412 116.617 65.7285 118.151 67.1396 119.591C69.205 121.7 71.0314 124.074 73.4311 125.814C75.7585 127.502 77.9322 129.043 80.6419 130.02C83.6673 131.11 86.8135 131.937 89.8768 132.908C92.5054 133.742 95.1585 134.526 97.8081 135.289C99.9461 135.905 102.12 136.265 104.353 136.14C107.364 135.971 110.065 132.96 112.566 131.557C114.519 130.461 116.741 129.587 118.844 128.812C119.959 128.401 121.282 128.434 122.453 128.291C123.803 128.125 125.17 128.14 126.528 128.14C128.155 128.14 129.828 128.083 131.44 128.346C132.364 128.496 133.211 128.883 134.116 129.1C135.414 129.412 136.752 129.601 138.068 129.814C140.415 130.193 142.716 131.049 145.08 131.275C145.252 131.292 146.699 131.186 146.699 131.502C146.699 132.687 146.591 133.904 146.384 135.069C146.323 135.413 146.329 135.751 146.329 136.099C146.329 136.83 145.004 137.695 144.586 138.061C142.044 140.283 139.237 142.008 135.845 142.191C133.065 142.341 130.252 142.219 127.468 142.219C123.989 142.219 120.511 142.219 117.032 142.219C110.059 142.219 103.086 142.219 96.1134 142.219C89.3393 142.219 82.5653 142.219 75.7912 142.219C72.1757 142.219 68.3211 142.263 64.7794 141.354C62.8894 140.869 61.0064 139.436 59.4004 138.404C57.7761 137.36 55.9691 136.649 54.2821 135.714C52.3577 134.648 50.5949 133.232 48.7659 132.009C47.9092 131.437 46.994 130.887 46.2411 130.178C45.7577 129.722 45.3713 129.054 44.814 128.696C44.0316 128.193 42.9087 127.637 42.8106 126.644C42.685 125.374 42.7145 124.105 42.7145 122.829C42.7145 122.48 42.7145 122.13 42.7145 121.78C42.7145 121.156 43.4614 121.347 43.9358 121.347C44.6696 121.347 44.901 121.431 45.4589 121.896C46.6414 122.882 48.1948 123.593 49.5343 124.353C49.9837 124.607 50.4465 124.804 50.934 124.97C51.8212 125.273 51.4651 128.43 51.4691 128.805C51.5134 132.935 51.4829 137.066 51.4829 141.196C51.4829 142.734 51.0357 144.709 52.3405 145.807C55.2586 148.261 57.9942 151.015 61.5479 152.51C63.8177 153.465 66.1312 154.483 68.498 155.172C69.8992 155.58 71.1867 155.77 72.6421 155.803C74.5723 155.847 76.4525 156.363 78.3641 156.585C79.9222 156.767 81.5249 156.668 83.0913 156.668C86.2061 156.668 89.2513 157.356 92.3605 157.518C96.0793 157.713 99.8076 157.656 103.53 157.656C108.194 157.656 112.878 157.787 117.54 157.628C119.396 157.565 121.064 157.087 122.851 156.64C124.529 156.221 126.506 156.452 128.051 155.68" stroke="black" stroke-opacity="0.2" stroke-width="21" stroke-linecap="round"/>
</svg>
