<svg width="192" height="192" viewBox="0 0 192 192" fill="none" xmlns="http://www.w3.org/2000/svg">
<path d="M63.15 39.7353V45.1176C64.8733 45.1176 66.4961 44.32 67.53 42.9647L63.15 39.7353ZM74.1 25.3824V20C72.3767 20 70.754 20.7977 69.72 22.1529L74.1 25.3824ZM128.85 39.7353L124.47 42.9647C125.504 44.32 127.126 45.1176 128.85 45.1176V39.7353ZM117.9 25.3824L122.28 22.1529C121.246 20.7977 119.624 20 117.9 20V25.3824ZM158.05 54.0882V122.265H169V54.0882H158.05ZM148.925 131.235H43.075V142H148.925V131.235ZM33.95 122.265V54.0882H23V122.265H33.95ZM43.075 45.1176H63.15V34.3529H43.075V45.1176ZM67.53 42.9647L78.48 28.6118L69.72 22.1529L58.77 36.5059L67.53 42.9647ZM128.85 45.1176H148.925V34.3529H128.85V45.1176ZM133.23 36.5059L122.28 22.1529L113.52 28.6118L124.47 42.9647L133.23 36.5059ZM117.9 20H74.1V30.7647H117.9V20ZM43.075 131.235C38.0354 131.235 33.95 127.219 33.95 122.265H23C23 133.164 31.9879 142 43.075 142V131.235ZM158.05 122.265C158.05 127.219 153.965 131.235 148.925 131.235V142C160.012 142 169 133.164 169 122.265H158.05ZM169 54.0882C169 43.1887 160.012 34.3529 148.925 34.3529V45.1176C153.965 45.1176 158.05 49.134 158.05 54.0882H169ZM33.95 54.0882C33.95 49.134 38.0354 45.1176 43.075 45.1176V34.3529C31.9879 34.3529 23 43.1887 23 54.0882H33.95Z" fill="black"/>
<path d="M96 112C110.359 112 122 100.583 122 86.5C122 72.4167 110.359 61 96 61C81.6406 61 70 72.4167 70 86.5C70 100.583 81.6406 112 96 112Z" stroke="black" stroke-width="12"/>
<path d="M50.6406 150.545H59.2415L65.1577 164.963H65.456L71.3722 150.545H79.973V176H73.2116V161.284H73.0128L67.3452 175.801H63.2685L57.6009 161.185H57.402V176H50.6406V150.545ZM92.5449 176.348C90.4734 176.348 88.7002 175.938 87.2253 175.118C85.7504 174.289 84.6194 173.137 83.8322 171.662C83.045 170.179 82.6515 168.46 82.6515 166.504C82.6515 164.549 83.045 162.834 83.8322 161.359C84.6194 159.875 85.7504 158.724 87.2253 157.903C88.7002 157.075 90.4734 156.661 92.5449 156.661C94.6164 156.661 96.3896 157.075 97.8645 157.903C99.3394 158.724 100.47 159.875 101.258 161.359C102.045 162.834 102.438 164.549 102.438 166.504C102.438 168.46 102.045 170.179 101.258 171.662C100.47 173.137 99.3394 174.289 97.8645 175.118C96.3896 175.938 94.6164 176.348 92.5449 176.348ZM92.5946 171.277C93.1747 171.277 93.676 171.082 94.0985 170.693C94.5211 170.303 94.8484 169.748 95.0804 169.027C95.3124 168.306 95.4284 167.449 95.4284 166.455C95.4284 165.452 95.3124 164.594 95.0804 163.882C94.8484 163.161 94.5211 162.606 94.0985 162.216C93.676 161.827 93.1747 161.632 92.5946 161.632C91.9815 161.632 91.4553 161.827 91.0162 162.216C90.577 162.606 90.2414 163.161 90.0094 163.882C89.7774 164.594 89.6614 165.452 89.6614 166.455C89.6614 167.449 89.7774 168.306 90.0094 169.027C90.2414 169.748 90.577 170.303 91.0162 170.693C91.4553 171.082 91.9815 171.277 92.5946 171.277ZM116.607 156.909V161.881H104.029V156.909H116.607ZM106.465 152.335H113.326V169.86C113.326 170.125 113.372 170.349 113.463 170.531C113.554 170.705 113.695 170.838 113.885 170.929C114.076 171.012 114.32 171.053 114.619 171.053C114.826 171.053 115.066 171.028 115.34 170.979C115.621 170.929 115.829 170.888 115.961 170.854L116.955 175.677C116.649 175.768 116.21 175.88 115.638 176.012C115.075 176.145 114.403 176.232 113.624 176.273C112.05 176.356 110.729 176.195 109.66 175.789C108.591 175.374 107.787 174.724 107.248 173.837C106.71 172.951 106.449 171.84 106.465 170.506V152.335ZM128.399 176.348C126.328 176.348 124.555 175.938 123.08 175.118C121.605 174.289 120.474 173.137 119.687 171.662C118.9 170.179 118.506 168.46 118.506 166.504C118.506 164.549 118.9 162.834 119.687 161.359C120.474 159.875 121.605 158.724 123.08 157.903C124.555 157.075 126.328 156.661 128.399 156.661C130.471 156.661 132.244 157.075 133.719 157.903C135.194 158.724 136.325 159.875 137.112 161.359C137.899 162.834 138.293 164.549 138.293 166.504C138.293 168.46 137.899 170.179 137.112 171.662C136.325 173.137 135.194 174.289 133.719 175.118C132.244 175.938 130.471 176.348 128.399 176.348ZM128.449 171.277C129.029 171.277 129.53 171.082 129.953 170.693C130.376 170.303 130.703 169.748 130.935 169.027C131.167 168.306 131.283 167.449 131.283 166.455C131.283 165.452 131.167 164.594 130.935 163.882C130.703 163.161 130.376 162.606 129.953 162.216C129.53 161.827 129.029 161.632 128.449 161.632C127.836 161.632 127.31 161.827 126.871 162.216C126.431 162.606 126.096 163.161 125.864 163.882C125.632 164.594 125.516 165.452 125.516 166.455C125.516 167.449 125.632 168.306 125.864 169.027C126.096 169.748 126.431 170.303 126.871 170.693C127.31 171.082 127.836 171.277 128.449 171.277Z" fill="black"/>
<path d="M116.925 64.4874C119.655 62.0002 123.709 61.2317 126.749 58.9519C128.872 57.3596 130.832 55.7555 132.44 53.6113C133.595 52.0723 133.667 51.857 131.583 51.857C129.431 51.857 127.516 52.2182 125.423 52.6367C124.228 52.8758 122.859 52.7052 121.72 53.085C120.845 53.3765 119.841 54.1551 119.011 54.2934C118.29 54.4136 117.531 54.1221 116.925 54.6638C115.36 56.0639 119.376 54.7534 119.79 54.6053C122.572 53.612 125.337 52.3675 127.373 50.1808C128.284 49.2024 124.605 48.1706 123.942 47.9978C121.837 47.4486 119.768 47.1371 118.173 45.5419C116.42 43.7893 116.184 40.3889 114.976 38.1936C114.174 36.7354 111.632 36.9386 110.181 36.5758C108.832 36.2385 107.369 36.4815 105.991 36.4004C102.454 36.1924 98.9124 36.0345 95.3873 35.6987C92.4973 35.4235 89.6508 35.3674 86.7137 35.3674C82.9143 35.3674 78.8003 34.9855 75.0189 35.4454C72.7364 35.723 72.0002 40.8161 71.0427 42.5012C69.7533 44.7706 68.8326 48.0041 68.5283 50.5901C68.3407 52.1851 68.5088 53.923 68.5088 55.5214C68.5088 56.3834 68.3614 60.3248 68.9376 60.901C69.2499 61.2132 74.4026 59.8058 75.1749 59.4197C77.1092 58.4525 79.1229 58.4566 81.2172 57.6654C88.4627 54.9282 96.9685 58.0058 104.295 55.7163C104.876 55.5347 109.753 55.1633 109.499 53.7672C109.075 51.433 106.131 50.0025 104.295 49.1283C100.397 47.2719 94.361 48.3486 90.0857 48.3486C88.3561 48.3486 86.2928 48.908 84.5307 49.1283C82.9588 49.3247 81.4351 49.3115 79.8528 49.4206C77.7552 49.5653 75.3835 49.6282 73.7715 51.1553C71.8933 52.9347 71.0148 57.5923 70.5359 60.0824C69.9705 63.0225 68.8391 65.478 67.3004 67.9958C64.0277 73.3511 61.0112 78.7617 57.7106 84.1346C56.3163 86.4045 55.8785 89.4736 55.8785 92.1261C55.8785 94.4602 54.5421 95.6093 56.2293 97.7786C57.6051 99.5474 59.855 100.391 61.492 102.028C62.4936 103.029 62.2931 101.717 62.4665 100.741C62.6988 99.4345 62.5445 97.9694 62.5445 96.6481C62.5445 95.0314 63.0533 92.5008 62.3691 90.9956C61.9009 89.9657 60.409 90.7525 59.7377 91.2295C57.8417 92.5766 57.205 93.7462 56.3852 95.9074C54.7311 100.268 55.5276 105.58 55.5276 110.175C55.5276 111.621 54.9036 112.851 54.6505 114.268C54.3977 115.684 54.2918 117.664 53.4031 118.849C52.3121 120.303 51.4222 121.902 50.4404 123.429C49.6936 124.591 45.3245 127.047 43.8718 126.509C42.4239 125.972 41.1812 124.169 40.1295 123.117C38.8827 121.87 39.1491 120.94 38.6871 119.297C37.7081 115.816 36.5821 112.546 36.5821 108.85C36.5821 102.825 36.7351 96.8709 35.9194 90.9566C34.8224 83.0037 34.956 74.7659 35.1787 66.7484C35.229 64.9373 36.5155 62.8814 36.855 61.0569C37.2204 59.0924 37.8845 57.1352 38.3168 55.19C38.5409 54.1817 39.3203 53.7315 39.6617 52.8316C40.1062 51.6598 40.2332 51.0127 41.143 50.1028C42.5441 48.7018 44.9744 48.0674 46.9125 47.6664C49.4162 47.1484 51.835 46.2927 54.2997 45.6978C55.0971 45.5053 56.3032 44.713 56.931 45.6198C57.7431 46.7928 57.6327 48.1231 57.6327 49.4791C57.6327 51.0203 58.015 53.2585 57.5547 54.7417C56.7551 57.3184 54.4261 59.9754 52.5455 61.8561C51.8304 62.5712 51.2854 63.5123 50.6938 64.3315C50.5003 64.5993 48.9043 67.3183 48.9006 67.3136C48.2361 66.483 49.2672 62.7165 49.4853 61.6807C49.7241 60.5462 49.6935 59.7617 50.265 58.679C50.9833 57.3179 52.3568 56.2484 53.598 55.385C55.1109 54.3325 55.1768 55.551 55.1768 56.8468C55.1768 60.4397 55.1768 64.0326 55.1768 67.6255C55.1768 74.1199 51.6646 80.6441 49.0175 86.4346C47.5924 89.552 47.8091 94.0321 47.8091 97.3497C47.8091 101.196 47.8091 105.042 47.8091 108.889C47.8091 110.805 47.305 109.163 47.1074 108.109C46.3826 104.244 45.8169 100.374 45.5286 96.4531C45.1297 91.0278 45.6641 85.6565 44.1057 80.4313C43.4982 78.3943 43.9498 75.7463 43.9498 73.6288C43.9498 69.4849 43.9498 73.7989 43.9498 75.5974C43.9498 83.7998 46.0579 91.836 47.0294 99.9616C47.2767 102.03 47.8284 104.023 48.3158 106.043C48.828 108.165 48.6124 110.47 49.0175 112.631C49.2183 113.701 49.6756 114.713 49.8362 115.789C49.9813 116.761 49.6755 117.996 50.0895 118.907C50.6493 120.139 50.265 116.206 50.265 114.853C50.265 109.265 50.265 103.678 50.265 98.0904C50.265 89.2803 50.265 80.4703 50.265 71.6602C50.265 71.2968 50.5088 69.7668 50.187 69.4772C49.07 68.4718 45.1039 70.0552 44.1447 70.6467C42.5325 71.6409 43.5989 78.6246 43.5989 80.0999C43.5989 84.9045 44.3825 89.4504 45.0023 94.1922C45.7977 100.277 48.1468 106.932 51.1226 112.358C52.8737 115.551 53.7968 119.928 57.5937 121.149C59.9806 121.916 62.2603 122.727 64.8055 122.727C69.3402 122.727 71.2927 116.033 72.4851 112.456C72.595 112.126 73.3375 109.781 72.9918 109.473C72.3199 108.876 72.3681 111.893 72.3681 112.046C72.3681 113.864 71.5807 116.061 73.7715 116.061C75.5082 116.061 79.5742 116.184 80.9833 117.465C81.8814 118.281 84.135 118.049 85.2714 118.244C87.2211 118.58 88.8554 119.717 90.8849 119.901C92.8912 120.084 96.0893 119.434 97.6288 120.973C99.0955 122.44 96.3409 124.75 95.4458 125.612C93.6569 127.335 91.8539 127.949 89.6374 128.77C87.4419 129.583 84.6907 130.041 82.2697 130.095C80.0375 130.145 77.8329 130.355 75.6427 130.816C72.9301 131.387 70.3426 131.26 67.6317 131.518C65.7324 131.699 63.8332 132.158 61.9208 132.2C61.6082 132.207 59.6278 132.369 60.7513 131.83C62.7924 130.85 65.306 130.578 67.4563 129.822C69.2079 129.207 71.121 129.006 72.9529 128.77C76.7627 128.278 80.8812 128.692 84.7061 128.692C91.2877 128.692 97.8692 128.692 104.451 128.692C111.143 128.692 117.835 128.692 124.527 128.692C128.975 128.692 133.682 129.101 138.093 128.341C139.718 128.061 141.158 127.639 142.829 127.639C144.902 127.639 146.974 127.639 149.047 127.639C149.939 127.639 151.643 128.038 152.01 126.977C152.915 124.355 153.556 121.346 153.842 118.595C154.31 114.089 155.377 109.686 155.791 105.185C156.063 102.229 155.869 99.1895 155.869 96.2192C155.869 88.678 154.115 81.3982 154.115 73.8432C154.115 68.6276 153.561 63.3398 153.043 58.1527C152.876 56.4826 152.648 54.9007 151.834 53.4358C151.213 52.3176 149.131 52.0918 147.975 52.7341C146.792 53.391 145.223 53.467 144.408 52.5782C143.639 51.7389 141.791 52.2398 140.783 51.5062C140.159 51.0526 138.614 51.8615 137.976 52.2079C135.429 53.5903 136.222 57.6909 136.222 60.0044C136.222 63.4154 136.222 66.8264 136.222 70.2373C136.222 73.8209 137.979 77.2741 138.327 80.8406C138.623 83.8802 139.007 86.8808 139.028 89.943C139.051 93.1742 138.758 96.4946 139.301 99.6887C139.902 103.217 139.379 107.13 139.379 110.721C139.379 111.732 140.769 116.62 140.939 116.412C142.461 114.552 142.182 110.979 142.361 108.752C142.581 106.03 142.537 103.315 142.537 100.585C142.537 91.4005 142.186 82.2174 142.186 73.0246C142.186 70.6603 142.034 68.1926 142.439 65.8518C142.558 65.1694 144.219 62.5267 142.966 62.6162C140.861 62.7666 137.823 63.29 136.397 65.0332C134.826 66.9536 133.602 68.3289 131.583 69.7501C127.717 72.4705 128.854 80.1659 128.854 84.2711C128.854 95.7255 128.854 130.089 128.854 118.634C128.854 115.789 129.105 112.811 128.815 109.98C128.592 107.807 126.954 109.19 126.047 110.097C123.783 112.361 121.607 114.762 119.245 116.919C117.446 118.561 115.167 119.488 113.066 120.7C111.769 121.448 111.002 122.026 109.558 122.026C108.799 122.026 108.182 122.331 107.452 122.377C106.034 122.465 110.205 121.665 111.585 121.324C114.564 120.589 117.539 120.412 120.512 119.843C122.892 119.387 125.057 118.11 127.451 117.679C129.849 117.247 137.197 117.465 134.76 117.465C133.125 117.465 131.625 117.671 130.023 117.991C127.342 118.527 124.562 118.526 121.915 119.219C119.694 119.801 117.77 120.782 115.463 121.012C113.622 121.196 112.098 121.675 110.22 121.675C107.232 121.675 104.487 121.69 101.566 122.299C98.5545 122.926 95.6036 123.741 92.5806 124.345C91.4908 124.563 90.3156 125.664 89.2086 125.534C88.3067 125.428 89.7289 122.597 90.1247 122.201C91.1413 121.185 92.5211 120.792 93.7501 120.116C95.6357 119.079 98.106 119.17 99.9288 118.011C101.785 116.829 105.243 116.827 107.375 116.763C108.955 116.716 110.435 116.061 112.013 116.061" stroke="black" stroke-opacity="0.2" stroke-width="17" stroke-linecap="round"/>
</svg>
