<svg width="192" height="192" viewBox="0 0 192 192" fill="none" xmlns="http://www.w3.org/2000/svg">
<path d="M118.703 23C65.7297 23 26 61.878 26 82.6102C26 88.2644 31.6757 99.5729 46.8108 99.5729C69.5135 99.5729 103.351 63.7627 122.27 63.7627C129.838 63.7627 137.405 69.4169 137.405 80.7254C137.405 107.112 76 163.847 76 145C76 137.461 92 130.424 92 121C92 115.346 85.6757 111 80 111C63.0811 111 52 124 52 147C52 161.009 62 169 72.6216 169C101 169 166 114.881 166 65.878C166 47.0305 148.973 23 118.703 23Z" stroke="black" stroke-width="12" stroke-linecap="round" stroke-linejoin="round"/>
<path d="M46.2495 86.9524C48.5877 87.768 50.7384 86.5577 53.1154 86.4044C56.1294 86.2099 58.7752 85.5131 61.6557 84.745C65.548 83.707 69.4055 83.0525 73.2256 81.7612C73.5849 81.6397 76.5585 80.4326 76.1638 80.3911C74.8925 80.2572 73.758 80.983 72.571 81.3045C69.4598 82.1471 66.4733 82.6021 63.2694 82.9638C60.5387 83.2721 57.905 84.0195 55.1553 84.1969C51.5406 84.4302 47.9719 84.4862 44.3314 84.4862C43.1276 84.4862 42.4827 84.6554 41.652 83.725C40.8042 82.7754 41.3171 80.1811 41.3171 79.0057C41.3171 73.5437 44.1755 68.927 48.868 65.9744C54.3214 62.543 59.468 58.4925 64.4873 54.4654C67.772 51.83 70.9865 49.4246 74.748 47.493C75.9484 46.8766 77.127 46.1913 78.3407 45.6053C79.866 44.869 81.5114 44.8814 83.0752 44.3265C84.4605 43.835 86.2095 43.195 87.4444 42.4541C88.4276 41.8641 90.2442 41.4184 91.3568 41.0687C92.4226 40.7338 93.5466 40.7663 94.6147 40.475C95.3064 40.2863 95.8501 39.8496 96.5481 39.6834C97.9927 39.3394 99.4845 38.7536 100.917 38.4807C102.425 38.1936 104.007 38.3504 105.499 38.024C110.118 37.0136 114.361 36.3322 119.094 36.5473C121.866 36.6733 121.955 38.4605 122.58 40.886C122.938 42.2749 123.692 45.1648 122.641 46.3969C121.566 47.6573 119.681 47.6638 118.257 48.102C116.986 48.493 115.824 49.2205 114.634 49.807C112.254 50.9792 110.054 52.6953 107.57 53.5824C104.001 54.857 100.508 56.4726 97.0048 57.9059C95.3657 58.5765 93.672 59.5419 92.0723 60.3417C89.7385 61.5086 87.2126 62.2388 84.8868 63.4016C80.7167 65.4867 76.178 67.9699 71.6728 69.1713C68.7234 69.9578 65.8593 71.5901 64.7461 74.4843C63.4995 77.7256 67.6268 74.8876 68.7651 74.4691C70.9898 73.6512 73.7881 73.0898 75.7832 71.8202C77.1526 70.9488 78.168 70.387 79.8326 70.0238C84.0486 69.104 87.5479 66.898 90.8849 64.1171C92.9387 62.4056 94.8498 61.0645 97.0961 59.611C98.4415 58.7404 99.8417 57.7649 101.115 56.8098C102.676 55.6392 104.746 54.6694 106.535 53.9174C108.692 53.0101 110.515 51.5672 112.715 50.7813C119.032 48.5254 124.026 44.5779 129.294 40.6272C130.686 39.583 132.675 39.2845 134.333 38.9831C136.203 38.6431 137.027 39.1946 138.748 39.8204C140.16 40.334 143.022 43.2825 142.097 44.9355C140.889 47.0919 139.165 48.7263 137.225 50.218C135.963 51.1892 135.321 51.4258 135.033 53.0801C134.846 54.158 134.202 55.0276 133.8 56.0182C133.162 57.5892 132.576 57.8427 130.847 57.8907C130.363 57.9041 127.041 57.9574 127.634 57.8755C130.444 57.488 133.096 56.8768 135.718 55.8507C138.01 54.9538 140.375 54.5673 142.691 53.7956C143.866 53.4039 145.339 52.7521 146.603 52.6995C150.334 52.544 138.988 52.6333 135.459 53.8565C133.831 54.421 132.169 55.0276 130.496 55.4397C129.592 55.6625 128.732 55.9062 127.848 56.2009C126.373 56.6924 126.319 56.9572 128.061 56.5663C131.592 55.7735 135.283 55.377 138.748 54.3436C141.267 53.5923 144.056 53.3587 146.481 52.3646C147.682 51.8724 148.941 51.6621 150.165 51.2685C150.766 51.0753 151.376 51.0157 151.962 50.7813C152.388 50.6106 150.829 52.9515 150.652 53.1562C148.569 55.5668 145.841 57.0982 143.954 59.6719C142.412 61.7742 145.321 60.9686 146.755 60.6614C149.144 60.1496 150.471 58.998 150.637 56.4292C150.717 55.1939 150.652 53.9379 150.652 52.6995C150.652 51.3387 150.356 50.9528 150.942 52.5625C151.629 54.4535 151.726 56.1579 152.038 58.1343C152.263 59.5627 152.845 60.9731 153.119 62.4121C153.24 63.048 153.246 64.0348 153.514 64.6043C153.706 65.0108 153.941 66.3324 153.941 65.883C153.941 64.3407 153.964 62.7958 153.88 61.2551C153.754 58.9698 153.606 56.4488 152.632 54.3436C151.951 52.8736 152.029 51.1267 151.2 49.7461C150.773 49.0344 150.629 48.3059 150.652 49.7766C150.704 53.013 151.301 56.2588 151.749 59.4587C151.958 60.9546 152.466 62.5682 152.906 63.9953C153.801 66.9062 153.393 70.2344 153.393 73.2512C153.393 73.9409 153.594 74.971 153.256 75.5804C152.92 76.1848 150.811 71.6275 150.485 70.8764C149.899 69.526 149.146 68.2898 148.491 66.9791C148.343 66.6835 148.186 65.7047 148.186 66.0353C148.186 68.3574 147.364 70.6024 147.364 72.8554C147.364 77.3381 147.364 81.7838 147.364 86.2673C147.364 89.9872 146.77 93.6883 144.746 96.8172C144.054 97.8866 143.892 99.2309 143.376 100.38C143.021 101.169 142.996 102.139 142.706 102.968C142.152 104.55 141.316 106.035 140.574 107.535C139.142 110.432 138.207 113.307 136.403 116.06C135.155 117.966 133.787 119.711 132.156 121.342C131.408 122.09 130.937 122.968 130.04 123.58C128.465 124.654 126.843 125.74 125.305 126.838C122.348 128.95 119.792 131.413 116.658 133.293C115.328 134.091 114.215 135.173 113.126 136.261C112.146 137.241 110.908 137.932 109.93 138.91C108.607 140.233 107.075 141.506 105.499 142.518C104.443 143.197 103.704 144.31 102.637 145.045C100.427 146.57 98.3936 148.229 95.9696 149.43C94.6774 150.07 92.5163 150.126 91.4634 151.074C90.7834 151.686 89.2446 152.452 88.3882 152.657C85.7576 153.288 83.3416 154.41 80.746 155.184C77.8241 156.056 74.7999 156.638 71.886 157.498C70.6151 157.873 67.8717 158.868 66.5273 158.077C65.4379 157.436 65.5736 155.16 65.3703 154.119C65.1028 152.749 64.9754 151.478 64.8222 150.1C64.5606 147.745 64.3351 145.51 64.3351 143.127C64.3351 139.215 65.5745 135.465 67.3493 132.014C68.9384 128.924 72.0316 126.662 74.4131 124.28C75.4243 123.269 76.4246 123.397 77.7622 123.397" stroke="black" stroke-opacity="0.25" stroke-width="20" stroke-linecap="round"/>
</svg>
