<svg width="192" height="192" viewBox="0 0 192 192" fill="none" xmlns="http://www.w3.org/2000/svg">
<path d="M5.71387 123V80.0909H24.2352C27.4198 80.0909 30.2064 80.7195 32.5949 81.9766C34.9834 83.2337 36.8411 85.0006 38.1681 87.2773C39.495 89.5541 40.1585 92.215 40.1585 95.2599C40.1585 98.3329 39.474 100.994 38.1052 103.243C36.7503 105.491 34.8437 107.223 32.3854 108.439C29.941 109.654 27.0846 110.261 23.8161 110.261H12.7536V101.21H21.4695C22.8384 101.21 24.0047 100.973 24.9685 100.498C25.9462 100.009 26.6935 99.3176 27.2103 98.4236C27.7411 97.5297 28.0065 96.4751 28.0065 95.2599C28.0065 94.0308 27.7411 92.9832 27.2103 92.1172C26.6935 91.2372 25.9462 90.5668 24.9685 90.1058C24.0047 89.6309 22.8384 89.3935 21.4695 89.3935H17.363V123H5.71387ZM52.1271 123.503C50.0739 123.503 48.258 123.168 46.6797 122.497C45.1153 121.813 43.8861 120.779 42.9922 119.396C42.0982 118.013 41.6513 116.254 41.6513 114.116C41.6513 112.357 41.9516 110.855 42.5522 109.612C43.1528 108.355 43.9909 107.328 45.0664 106.532C46.1419 105.736 47.392 105.128 48.8168 104.709C50.2554 104.29 51.8059 104.018 53.468 103.892C55.2699 103.752 56.7156 103.585 57.805 103.389C58.9085 103.18 59.7047 102.893 60.1935 102.53C60.6824 102.153 60.9268 101.657 60.9268 101.043V100.959C60.9268 100.121 60.6056 99.4782 59.9631 99.0312C59.3205 98.5843 58.4964 98.3608 57.4908 98.3608C56.3873 98.3608 55.4864 98.6052 54.788 99.0941C54.1036 99.569 53.6915 100.302 53.5518 101.294H42.9084C43.0481 99.3385 43.6696 97.5367 44.7731 95.8885C45.8905 94.2263 47.5178 92.8994 49.6548 91.9077C51.7919 90.902 54.4598 90.3991 57.6584 90.3991C59.9631 90.3991 62.0303 90.6715 63.8601 91.2163C65.6899 91.747 67.2473 92.4943 68.5323 93.4581C69.8174 94.4079 70.7951 95.5253 71.4656 96.8104C72.15 98.0814 72.4922 99.4643 72.4922 100.959V123H61.6811V118.474H61.4297C60.7872 119.676 60.005 120.646 59.0831 121.387C58.1752 122.127 57.1346 122.665 55.9613 123C54.802 123.335 53.5239 123.503 52.1271 123.503ZM55.8984 116.212C56.7784 116.212 57.6025 116.03 58.3707 115.667C59.1529 115.304 59.7885 114.78 60.2773 114.096C60.7662 113.411 61.0107 112.58 61.0107 111.602V108.92C60.7034 109.046 60.3751 109.165 60.0259 109.277C59.6907 109.388 59.3275 109.493 58.9364 109.591C58.5593 109.689 58.1542 109.779 57.7212 109.863C57.3022 109.947 56.8622 110.024 56.4013 110.094C55.5073 110.233 54.774 110.464 54.2013 110.785C53.6426 111.092 53.2236 111.477 52.9442 111.938C52.6789 112.384 52.5462 112.887 52.5462 113.446C52.5462 114.34 52.8604 115.024 53.489 115.499C54.1175 115.974 54.9207 116.212 55.8984 116.212ZM83.9056 135.068C82.5787 135.068 81.3146 134.963 80.1134 134.754C78.9121 134.558 77.8576 134.286 76.9497 133.937L79.4639 125.724C80.4137 126.059 81.2797 126.275 82.0619 126.373C82.858 126.471 83.5355 126.415 84.0942 126.206C84.6669 125.996 85.0789 125.598 85.3303 125.011L85.5818 124.425L74.2678 90.8182H86.336L91.532 113.111H91.8673L97.1471 90.8182H109.299L97.5661 125.682C96.9795 127.456 96.1275 129.048 95.01 130.459C93.9066 131.884 92.4539 133.008 90.6521 133.832C88.8502 134.656 86.6014 135.068 83.9056 135.068Z" fill="black"/>
<path d="M131.78 90.8182V99.1989H110.577V90.8182H131.78ZM114.684 83.108H126.249V112.65C126.249 113.097 126.326 113.474 126.479 113.781C126.633 114.075 126.871 114.298 127.192 114.452C127.513 114.591 127.925 114.661 128.428 114.661C128.777 114.661 129.182 114.619 129.643 114.536C130.118 114.452 130.467 114.382 130.691 114.326L132.367 122.455C131.85 122.609 131.11 122.797 130.146 123.021C129.196 123.244 128.065 123.391 126.752 123.461C124.098 123.601 121.87 123.328 120.068 122.644C118.266 121.945 116.912 120.849 116.004 119.354C115.096 117.86 114.656 115.988 114.684 113.739V83.108ZM136.5 123V90.8182H147.478V96.9361H147.814C148.484 94.9247 149.629 93.3324 151.25 92.1591C152.87 90.9858 154.797 90.3991 157.032 90.3991C159.295 90.3991 161.244 90.9998 162.878 92.201C164.512 93.3883 165.497 94.9666 165.832 96.9361H166.167C166.712 94.9666 167.871 93.3883 169.645 92.201C171.419 90.9998 173.5 90.3991 175.889 90.3991C178.976 90.3991 181.476 91.3909 183.39 93.3743C185.317 95.3577 186.281 97.9976 186.281 101.294V123H174.716V104.227C174.716 102.817 174.359 101.713 173.647 100.917C172.935 100.107 171.978 99.7017 170.777 99.7017C169.589 99.7017 168.647 100.107 167.948 100.917C167.264 101.713 166.922 102.817 166.922 104.227V123H155.859V104.227C155.859 102.817 155.503 101.713 154.79 100.917C154.078 100.107 153.121 99.7017 151.92 99.7017C151.124 99.7017 150.44 99.8833 149.867 100.246C149.294 100.61 148.847 101.133 148.526 101.818C148.219 102.488 148.065 103.291 148.065 104.227V123H136.5Z" fill="black" fill-opacity="0.7"/>
</svg>
