<svg width="192" height="192" viewBox="0 0 192 192" fill="none" xmlns="http://www.w3.org/2000/svg">
<path d="M136.933 103.646C140.72 83.0479 126.381 63.406 104.907 59.7741C83.4335 56.1421 62.9561 69.8955 59.1696 90.4932C55.3832 111.091 69.7217 130.733 91.1955 134.365C112.669 137.997 133.147 124.243 136.933 103.646Z" stroke="black" stroke-width="20" stroke-linecap="round" stroke-linejoin="round"/>
<path d="M120.507 182.115L137.817 97.2292" stroke="black" stroke-width="20"/>
<path d="M58.6775 96.9269L74.74 9" stroke="black" stroke-width="20"/>
<path d="M91.5332 120.572C91.5332 121.362 91.7439 120.127 91.7818 120.024C92.2854 118.661 92.9622 117.338 93.7207 116.09C94.7608 114.378 95.4488 112.643 96.3556 110.904C99.6547 104.575 100.465 97.4064 102.818 90.7565C103.47 88.9166 104.302 85.6935 105.975 84.4261C107.033 83.6252 109.256 83.6989 110.499 84.0208C114.15 84.9663 116.094 86.232 117.037 89.6001C117.742 92.1175 118.477 94.5953 118.653 97.2061C118.849 100.12 118.827 103.026 118.827 105.945C118.827 106.33 118.537 110.606 119.1 110.606C120.704 110.606 122.682 107.028 123.388 106.004C124.901 103.811 125.065 101.835 125.414 99.3043C125.791 96.5681 125.986 93.9591 125.986 91.1976C125.986 86.0857 122.514 83.2622 119.125 79.6814C117.197 77.6439 114.671 75.9676 112.351 74.3524C111.064 73.4562 109.819 72.8553 108.337 72.3615C106.199 71.6494 103.861 71.5941 101.663 71.0263C99.9789 70.5915 98.1078 70.7879 96.3804 70.7879C94.262 70.7879 92.2204 70.7154 90.1412 71.1217C88.015 71.5371 86.0727 72.3436 84.1009 73.196C81.5823 74.2849 79.3006 76.3427 77.2402 78.072C75.5035 79.5296 73.8325 80.9967 72.6913 82.9479C70.8961 86.0174 69.609 89.5624 69.609 93.105C69.609 96.0888 69.5137 99.3638 70.6157 102.201C71.5859 104.699 72.392 107.377 73.9715 109.616C76.1906 112.763 77.6335 116.349 80.9937 118.605C83.3801 120.208 86.4616 120.68 89.2464 121.276C93.1788 122.117 97.2368 122.012 101.252 121.979C105.002 121.948 108.729 119.559 110.872 116.614C111.37 115.931 112.424 115.266 112.737 114.516C113.245 113.298 112.751 111.021 112.662 109.807C112.292 104.736 111.286 99.771 110.785 94.7264C110.718 94.0467 110.412 93.3311 110.077 92.7236C109.433 91.5576 108.599 93.6361 108.424 94.0111C107.256 96.513 106.791 99.2521 105.851 101.832C104.996 104.177 103.717 106.447 103.166 108.889C102.782 110.593 102.148 112.268 101.327 113.825C100.116 116.122 97.2159 115.66 94.8641 115.375C91.6589 114.986 88.8822 113.108 86.3878 111.297C83.9181 109.505 82.4878 105.988 81.3541 103.298C79.8982 99.8434 78.6192 95.6695 78.8932 91.9367C79.1829 87.9917 81.813 84.3459 85.4432 82.4114C88.445 80.8118 91.5887 80.4443 95.0008 80.4443C96.2086 80.4443 97.9418 80.1353 99.0899 80.5636C100.143 80.9564 99.8161 82.548 99.8107 83.3294C99.7771 88.2398 97.0184 92.121 94.715 96.3477C93.9797 97.6969 93.1728 99.016 92.4281 100.365C91.1862 102.615 89.9996 99.355 89.4949 98.1836C88.3951 95.6309 87.3988 92.9173 86.9843 90.1723C86.7998 88.9502 86.8195 84.2626 89.4452 84.9984C91.9498 85.7002 92.5326 90.2131 93.062 92.1632C93.6099 94.1821 94.3315 95.9858 95.3364 97.826" stroke="black" stroke-opacity="0.25" stroke-width="14" stroke-linecap="round"/>
</svg>
