<svg width="192" height="192" viewBox="0 0 192 192" fill="none" xmlns="http://www.w3.org/2000/svg">
<path d="M33.067 111.226L38.8929 112.661C39.6455 109.605 37.9093 106.487 34.9152 105.518L33.067 111.226ZM50.6149 86.1578L45.8871 89.8521C47.9028 92.4318 51.6144 92.9194 54.2281 90.9479L50.6149 86.1578ZM141.385 86.1578L137.772 90.9479C140.386 92.9194 144.097 92.4318 146.113 89.8521L141.385 86.1578ZM158.933 111.226L157.085 105.518C154.091 106.487 152.354 109.605 153.107 112.661L158.933 111.226ZM96 174.001C114.846 174.001 132.138 168.279 144.855 158.742C157.573 149.203 166 135.568 166 120.001H154C154 130.944 148.1 141.308 137.655 149.142C127.208 156.977 112.5 162.001 96 162.001V174.001ZM26 120.001C26 135.568 34.4269 149.203 47.1452 158.742C59.8616 168.279 77.1542 174.001 96 174.001V162.001C79.4996 162.001 64.7922 156.977 54.3452 149.142C43.9 141.308 38 130.944 38 120.001H26ZM27.2411 109.791C26.4268 113.097 26 116.512 26 120.001H38C38 117.496 38.3057 115.045 38.8929 112.661L27.2411 109.791ZM16 96.001C16 105.794 22.3939 114.077 31.2188 116.934L34.9152 105.518C30.8949 104.216 28 100.439 28 96.001H16ZM38 74.001C25.8497 74.001 16 83.8507 16 96.001H28C28 90.4781 32.4772 86.001 38 86.001V74.001ZM55.3427 82.4636C51.3262 77.3234 45.0495 74.001 38 74.001V86.001C41.1997 86.001 44.0469 87.4971 45.8871 89.8521L55.3427 82.4636ZM96 66.001C77.0839 66.001 59.7317 71.7654 47.0017 81.3678L54.2281 90.9479C64.6818 83.0626 79.4371 78.001 96 78.001V66.001ZM144.998 81.3678C132.268 71.7654 114.916 66.001 96 66.001V78.001C112.563 78.001 127.318 83.0626 137.772 90.9479L144.998 81.3678ZM146.113 89.8521C147.953 87.4971 150.8 86.001 154 86.001V74.001C146.95 74.001 140.674 77.3234 136.657 82.4636L146.113 89.8521ZM154 86.001C159.523 86.001 164 90.4781 164 96.001H176C176 83.8507 166.15 74.001 154 74.001V86.001ZM164 96.001C164 100.439 161.105 104.216 157.085 105.518L160.781 116.934C169.606 114.077 176 105.794 176 96.001H164ZM166 120.001C166 116.512 165.573 113.097 164.759 109.791L153.107 112.661C153.694 115.045 154 117.496 154 120.001H166Z" fill="black"/>
<path d="M68 122.001C74.6274 122.001 80 116.628 80 110.001C80 103.374 74.6274 98.001 68 98.001C61.3726 98.001 56 103.374 56 110.001C56 116.628 61.3726 122.001 68 122.001Z" fill="black"/>
<path d="M124 122.001C130.627 122.001 136 116.628 136 110.001C136 103.374 130.627 98.001 124 98.001C117.373 98.001 112 103.374 112 110.001C112 116.628 117.373 122.001 124 122.001Z" fill="black"/>
<path d="M120 138.001C120 138.001 112 144.001 96 144.001C80 144.001 72 138.001 72 138.001" stroke="black" stroke-width="12" stroke-linecap="round"/>
<path d="M146 48.001C152.627 48.001 158 42.6284 158 36.001C158 29.3736 152.627 24.001 146 24.001C139.373 24.001 134 29.3736 134 36.001C134 42.6284 139.373 48.001 146 48.001Z" stroke="black" stroke-width="12"/>
<path fill-rule="evenodd" clip-rule="evenodd" d="M107.177 22.1176C103.987 21.4797 100.87 23.4995 100.149 26.6713L90.1492 70.6713C89.4148 73.9026 91.4389 77.1175 94.6702 77.8519C97.9015 78.5863 101.116 76.5621 101.851 73.3308L110.555 35.031L134.629 39.8457C134.221 38.6387 134 37.3457 134 36.001C134 32.9653 135.127 30.1928 136.986 28.0794L107.177 22.1176Z" fill="black"/>
<path d="M38.6224 109.076C37.2337 107.07 35.5735 104.945 34.6261 102.655C34.1688 101.55 33.9982 100.217 33.8514 99.0427C33.6869 97.7272 33.2919 96.1569 33.6826 94.8546C34.6174 91.7385 39.253 91.5025 41.8977 91.564C44.2157 91.6179 45.2631 94.4614 46.615 95.9745C47.3005 96.7418 48.4989 98.4103 49.6985 98.383C50.5602 98.3635 51.4134 97.4427 51.969 96.9103C53.8245 95.1321 55.6594 93.1663 58.044 92.0933C61.4529 90.5593 65.3419 90.3369 68.9974 89.8075C73.1849 89.201 77.2897 88.2781 81.4542 87.5524C82.5624 87.3592 83.7202 87.3297 84.8138 87.0615C85.986 86.7739 87.1086 86.3013 88.2809 86.0029C90.385 85.4673 92.7098 84.8915 94.8928 84.9598C96.7455 85.0176 98.5901 85.372 100.439 85.512C102.29 85.6523 104.148 85.6775 105.984 85.9799C109.119 86.4959 112.277 87.2675 115.373 87.9819C115.467 88.0036 118.558 88.7327 118.533 88.8563C118.511 88.9695 118.307 88.8105 118.196 88.7796C117.79 88.6672 117.388 88.5444 116.984 88.4268C115.454 87.9817 113.333 87.3492 111.829 86.9847C107.859 86.0226 103.814 85.435 99.7712 84.8754C95.3151 84.2585 90.8104 83.6053 86.3019 83.5714C82.4441 83.5424 78.5892 83.8502 74.7962 84.5455C74.6887 84.5653 74.3652 84.6166 74.4741 84.6069C75.4321 84.5217 76.3765 84.3217 77.3275 84.1774C84.2562 83.1261 91.2078 82.0631 98.2218 81.7995C103.052 81.618 108.033 81.804 112.796 82.7046C114.927 83.1076 116.598 83.8261 118.15 85.3433C121.175 88.3005 123.812 91.873 127.377 94.2257C129.997 95.9541 132.96 94.9473 135.868 94.6168C137.149 94.4713 136.442 94.2949 135.331 93.9342C132.229 92.9265 129.021 92.1736 125.958 91.0501C124.498 90.5144 124.513 89.9635 125.344 88.795C125.598 88.4392 126.16 87.6597 126.694 87.6597C127.085 87.6597 127.438 88.2019 127.6 88.3961C128.031 88.9135 129.788 91.2134 130.008 91.4873C132.83 95.0004 136.044 98.5954 140.754 96.2813C142.217 95.5628 143.574 94.6648 145.058 93.9802C146.891 93.1342 148.812 92.4967 150.688 91.7558C152.528 91.0288 154.82 89.3823 156.732 90.6205C158.648 91.8619 161.202 94.7333 160.912 97.1941C160.57 100.102 157.539 102.46 155.259 103.998C154.183 104.724 152.69 105.523 151.424 105.731C149.797 105.999 148.355 106.439 146.799 106.928C146.26 107.097 145.121 107.018 144.72 107.419C143.944 108.195 146.271 110.924 146.668 111.407C147.825 112.816 149.945 114.259 150.319 116.132C151.024 119.657 149.053 122.557 147.742 125.69C146.789 127.967 145.87 130.26 144.942 132.547C144.423 133.829 143.754 135.086 143.362 136.413C143.035 137.524 142.843 138.62 142.219 139.619C141.433 140.88 140.57 142.121 139.688 143.317C137.958 145.662 135.202 146.078 132.432 146.078C131.475 146.078 130.523 146.092 129.701 145.495C127.545 143.928 126.29 140.944 125.252 138.607C121.971 131.216 120.401 123.216 117.536 115.672C116.049 111.758 113.971 108.391 111.285 105.187C109.637 103.221 107.857 101.219 105.908 99.5489C102.904 96.9765 99.3065 96.195 95.4297 96.4654C90.1258 96.8355 84.8099 98.7098 79.8664 100.569C75.9112 102.057 71.9875 103.843 68.4221 106.123C67.2336 106.882 66.0956 107.744 64.9627 108.585C64.0918 109.231 63.3597 109.984 62.3854 110.487C60.2194 111.605 58.2115 112.875 56.2107 114.253C54.1729 115.657 51.7951 116.512 49.4991 117.39C48.7264 117.686 48.3737 117.912 47.7272 117.352C46.7072 116.468 46.5549 114.758 46.4616 113.478C46.2944 111.186 47.2894 109.427 49.1923 108.201C53.2901 105.562 58.3527 105.029 62.9224 103.584C64.1935 103.182 66.7042 102.494 67.3636 101.137C68.2214 99.3705 65.4799 100.326 64.8246 100.523C57.0021 102.874 50.7619 108.6 44.1758 113.187C41.9413 114.743 40.1496 116.374 39.5428 119.132C39.1042 121.125 39.4286 123.673 39.7883 125.644C39.9344 126.445 40.1506 127.434 40.6167 128.129C41.325 129.186 42.852 128.948 43.915 128.773C51.4316 127.536 58.0418 123.573 64.8553 120.436C72.4447 116.941 80.2794 113.826 88.2655 111.384C92.4657 110.1 96.6294 108.794 100.738 107.235C105.062 105.593 109.324 103.878 113.747 102.51C116.424 101.682 119.108 100.867 121.816 100.147C122.529 99.9578 124.193 99.2034 124.961 99.7484C126.123 100.573 127.028 102.247 127.776 103.377C129.107 105.386 130.382 107.439 131.558 109.544C131.91 110.175 132.454 111.796 133.207 112.082C134.343 112.515 136.538 110.518 137.356 109.996C138.127 109.504 139.194 108.487 139.504 109.95C140.064 112.588 139.989 115.587 139.903 118.265C139.838 120.306 139.714 122.473 138.921 124.386C138.341 125.786 137.331 126.999 136.421 128.19C135.627 129.228 134.827 130.262 134.02 131.289C133.98 131.34 133.209 132.376 132.954 132.54C132.688 132.71 132.597 132.006 132.509 131.703C131.503 128.264 130.512 124.817 129.609 121.348C129.407 120.573 129.239 119.789 129.026 119.017C129.007 118.946 128.986 118.662 128.827 118.641C128.483 118.595 128.171 119.518 128.137 119.615C127.4 121.67 127.245 123.881 127.155 126.043C126.932 131.343 126.404 136.632 125.575 141.874C125.009 145.452 124.17 148.533 122.261 151.616C121.846 152.286 121.505 153.122 121.003 153.733C120.342 154.539 119.112 155.024 118.203 155.444C116.886 156.051 115.453 156.423 114.238 157.215C113.101 157.957 111.65 158.577 110.341 158.949C109.589 159.163 108.811 159.293 108.048 159.463C106.909 159.716 110.379 159.471 111.545 159.471C115.495 159.471 119.525 159.621 123.442 159.018C127.041 158.464 130.068 156.101 133.092 154.224C133.36 154.057 135.17 153.442 135.17 153.135C135.17 152.356 118.819 154.182 117.636 154.339C113.256 154.92 108.828 155.529 104.496 156.402C102.101 156.885 99.7438 157.492 97.3167 157.768C95.4344 157.981 93.6367 158.357 91.7326 158.366C89.182 158.378 86.6481 158.309 84.1081 158.059C79.3239 157.589 74.17 156.838 69.7644 154.807C67.0751 153.567 64.6345 151.748 62.094 150.235C60.143 149.074 58.5014 147.571 56.6633 146.247C54.8004 144.905 52.69 143.775 51.0102 142.204C49.5344 140.824 48.3694 139.169 47.1903 137.541C46.9831 137.255 47.7872 137.224 47.919 137.196C51.2791 136.461 54.6789 135.923 58.0746 135.385C63.7932 134.479 69.314 133.223 74.8729 131.596C80.6191 129.914 86.3849 128.34 91.932 126.066C96.1044 124.355 100.004 122.333 104.021 120.305C106.362 119.123 108.723 117.927 111.123 116.869C112.001 116.482 111.923 116.492 110.694 116.731C104.955 117.845 99.1881 118.778 93.4354 119.814C88.5195 120.7 83.8687 122.121 79.1914 123.857C75.4676 125.238 71.4898 126.994 70.7232 131.32C70.2434 134.027 70.5046 136.956 70.5161 139.696C70.5218 141.057 70.3378 143.589 71.4519 144.636C71.9385 145.093 73.0541 145.165 73.6073 145.234C76.8008 145.635 80.0541 145.526 83.2644 145.526C87.7941 145.526 92.3269 145.569 96.8564 145.518C100.814 145.473 104.834 144.996 108.423 143.194C112.709 141.042 114.157 136.495 114.391 131.964C114.497 129.911 114.422 127.838 114.422 125.782C114.422 125.003 113.375 125.05 112.796 125.107C111.078 125.274 109.387 126.193 107.871 126.948C105.28 128.239 102.825 129.71 100.339 131.182C98.1518 132.477 95.7783 133.867 93.305 134.534C91.0224 135.149 88.6452 135.289 86.3096 135.585C84.6119 135.8 82.8582 135.898 81.1474 135.999" stroke="black" stroke-opacity="0.25" stroke-width="15" stroke-linecap="round"/>
<path d="M149.481 33.4551C148.446 33.3907 146.41 33.2215 145.282 33.2908C144.962 33.3105 144.636 33.3595 144.336 33.4763C143.903 33.6455 143.959 33.8837 143.931 34.2556C143.881 34.8967 143.875 35.5424 143.862 36.1851C143.855 36.547 143.814 36.9474 143.875 37.3088C143.949 37.7478 144.169 38.2811 144.44 38.6394C144.613 38.868 145.224 38.7507 145.473 38.7507" stroke="black" stroke-opacity="0.45" stroke-width="15" stroke-linecap="round"/>
</svg>
