<svg width="192" height="192" viewBox="0 0 192 192" fill="none" xmlns="http://www.w3.org/2000/svg">
<path d="M80.1602 29.0543L74.2023 28.345L80.1602 29.0543ZM111.84 29.0543L105.882 29.7636L111.84 29.0543ZM146.057 48.8095L143.692 43.2951L146.057 48.8095ZM156.138 52.1619L161.334 49.1619L156.138 52.1619ZM164.034 65.838L169.23 62.838L164.034 65.838ZM161.897 76.2448L158.303 71.4397L161.897 76.2448ZM161.897 115.755L165.49 110.95L161.897 115.755ZM164.034 126.162L169.23 129.162L164.034 126.162ZM156.138 139.838L150.942 136.838L156.138 139.838ZM146.057 143.191L148.421 137.676L146.057 143.191ZM111.84 162.946L117.798 163.655L111.84 162.946ZM80.1602 162.946L74.2023 163.655L80.1602 162.946ZM45.9433 143.191L43.5785 137.676L45.9433 143.191ZM35.8621 139.838L30.666 142.838L35.8621 139.838ZM27.9662 126.162L33.1624 123.162L27.9662 126.162ZM30.1035 115.755L33.6967 120.56L30.1035 115.755ZM30.1034 76.2448L26.5102 81.0499L30.1034 76.2448ZM27.9662 65.838L33.1623 68.838L27.9662 65.838ZM35.8621 52.162L30.6659 49.162L35.8621 52.162ZM45.9432 48.8095L43.5785 54.3238L45.9432 48.8095ZM53.7922 52.1753L51.4275 57.6897L53.7922 52.1753ZM53.7922 139.825L56.1569 145.339L53.7922 139.825ZM36.2356 111.17L32.6424 106.365L36.2356 111.17ZM113.059 152.705L119.017 153.415L113.059 152.705ZM152.913 82.9626L149.32 78.1576L152.913 82.9626ZM136.544 52.8889L138.908 58.4033L136.544 52.8889ZM113.059 39.2946L107.101 40.0039L113.059 39.2946ZM88.1041 16C81.0123 16 75.0406 21.3029 74.2023 28.345L86.1181 29.7636C86.2379 28.7576 87.091 28 88.1041 28V16ZM103.896 16H88.1041V28H103.896V16ZM117.798 28.345C116.959 21.3029 110.988 16 103.896 16V28C104.909 28 105.762 28.7576 105.882 29.7636L117.798 28.345ZM119.017 38.5854L117.798 28.345L105.882 29.7636L107.101 40.0039L119.017 38.5854ZM143.692 43.2951L134.179 47.3745L138.908 58.4033L148.421 54.3238L143.692 43.2951ZM161.334 49.1619C157.788 43.0202 150.21 40.5001 143.692 43.2951L148.421 54.3238C149.353 53.9245 150.435 54.2845 150.942 55.1619L161.334 49.1619ZM169.23 62.838L161.334 49.1619L150.942 55.1619L158.838 68.838L169.23 62.838ZM165.49 81.0499C171.169 76.8028 172.776 68.9797 169.23 62.838L158.838 68.838C159.344 69.7154 159.115 70.833 158.303 71.4397L165.49 81.0499ZM156.506 87.7677L165.49 81.0499L158.303 71.4397L149.32 78.1576L156.506 87.7677ZM165.49 110.95L156.506 104.232L149.32 113.842L158.303 120.56L165.49 110.95ZM169.23 129.162C172.776 123.02 171.169 115.197 165.49 110.95L158.303 120.56C159.115 121.167 159.344 122.285 158.838 123.162L169.23 129.162ZM161.334 142.838L169.23 129.162L158.838 123.162L150.942 136.838L161.334 142.838ZM143.692 148.705C150.21 151.5 157.788 148.98 161.334 142.838L150.942 136.838C150.435 137.715 149.353 138.075 148.421 137.676L143.692 148.705ZM134.179 144.625L143.692 148.705L148.421 137.676L138.909 133.597L134.179 144.625ZM117.798 163.655L119.017 153.415L107.101 151.996L105.882 162.236L117.798 163.655ZM103.896 176C110.988 176 116.959 170.697 117.798 163.655L105.882 162.236C105.762 163.242 104.909 164 103.896 164V176ZM88.1041 176H103.896V164H88.1041V176ZM74.2023 163.655C75.0406 170.697 81.0123 176 88.1041 176V164C87.091 164 86.2379 163.242 86.1181 162.236L74.2023 163.655ZM73.1899 155.151L74.2023 163.655L86.1181 162.236L85.1057 153.732L73.1899 155.151ZM51.4275 134.31L43.5785 137.676L48.308 148.705L56.1569 145.339L51.4275 134.31ZM43.5785 137.676C42.6474 138.075 41.5648 137.715 41.0583 136.838L30.666 142.838C34.2119 148.98 41.7901 151.5 48.308 148.705L43.5785 137.676ZM41.0583 136.838L33.1624 123.162L22.7701 129.162L30.666 142.838L41.0583 136.838ZM33.1624 123.162C32.6558 122.285 32.8853 121.167 33.6967 120.56L26.5102 110.95C20.8308 115.197 19.2242 123.02 22.7701 129.162L33.1624 123.162ZM33.6967 120.56L39.8289 115.975L32.6424 106.365L26.5102 110.95L33.6967 120.56ZM26.5102 81.0499L32.6424 85.6356L39.8289 76.0254L33.6966 71.4397L26.5102 81.0499ZM22.77 62.838C19.2241 68.9797 20.8307 76.8028 26.5102 81.0499L33.6966 71.4397C32.8853 70.833 32.6558 69.7154 33.1623 68.838L22.77 62.838ZM30.6659 49.162L22.77 62.838L33.1623 68.838L41.0582 55.162L30.6659 49.162ZM48.3079 43.2951C41.7901 40.5001 34.2118 43.0203 30.6659 49.162L41.0582 55.162C41.5648 54.2846 42.6474 53.9245 43.5785 54.3238L48.3079 43.2951ZM56.1569 46.661L48.3079 43.2951L43.5785 54.3238L51.4275 57.6897L56.1569 46.661ZM74.2023 28.345L73.1899 36.849L85.1057 38.2676L86.1181 29.7636L74.2023 28.345ZM72.448 55.8969C78.5264 52.4705 84.1382 46.3948 85.1057 38.2676L73.1899 36.849C72.8079 40.0576 70.4215 43.264 66.5553 45.4435L72.448 55.8969ZM51.4275 57.6897C58.7122 60.8136 66.483 59.2596 72.448 55.8969L66.5553 45.4435C62.8507 47.5318 59.0739 47.9119 56.1569 46.661L51.4275 57.6897ZM49 96C49 88.9004 46.4515 80.9777 39.8289 76.0254L32.6424 85.6356C35.3597 87.6675 37 91.4371 37 96H49ZM72.4481 136.103C66.483 132.74 58.7122 131.186 51.4275 134.31L56.1569 145.339C59.074 144.088 62.8507 144.468 66.5553 146.557L72.4481 136.103ZM39.8289 115.975C46.4515 111.022 49 103.1 49 96H37C37 100.563 35.3597 104.333 32.6424 106.365L39.8289 115.975ZM118.507 135.55C112.971 138.848 107.99 144.532 107.101 151.996L119.017 153.415C119.346 150.65 121.335 147.833 124.649 145.858L118.507 135.55ZM138.909 133.597C131.815 130.555 124.24 132.134 118.507 135.55L124.649 145.858C128.031 143.843 131.521 143.486 134.179 144.625L138.909 133.597ZM85.1057 153.732C84.1382 145.605 78.5264 139.53 72.4481 136.103L66.5553 146.557C70.4215 148.736 72.8079 151.942 73.1899 155.151L85.1057 153.732ZM141 96C141 102.389 143.398 109.414 149.32 113.842L156.506 104.232C154.374 102.638 153 99.6678 153 96H141ZM149.32 78.1576C143.398 82.5859 141 89.6107 141 96H153C153 92.3322 154.374 89.3623 156.506 87.7677L149.32 78.1576ZM118.507 56.4504C124.24 59.8664 131.815 61.4451 138.908 58.4033L134.179 47.3745C131.521 48.5144 128.031 48.1565 124.649 46.1415L118.507 56.4504ZM107.101 40.0039C107.99 47.4684 112.971 53.1522 118.507 56.4504L124.649 46.1415C121.335 44.1669 119.346 41.3502 119.017 38.5854L107.101 40.0039Z" fill="black"/>
<path d="M96 120C109.255 120 120 109.255 120 96C120 82.7452 109.255 72 96 72C82.7452 72 72 82.7452 72 96C72 109.255 82.7452 120 96 120Z" stroke="black" stroke-width="12" stroke-linecap="round" stroke-linejoin="round"/>
<path d="M96.7572 31.4731C96.7572 34.2144 96.7572 36.9557 96.7572 39.697C96.7572 41.7029 96.3035 43.6251 96.1039 45.6211C96.0307 46.3531 95.8226 47.0325 95.6475 47.733C95.5019 48.3153 95.6774 48.9988 95.6207 49.5943C95.4707 51.1687 95.501 53.2661 94.8332 54.713C94.6815 55.0416 94.5575 54.2631 94.5558 54.2566C94.2307 53.0647 93.9362 51.8903 93.8757 50.6503C93.7738 48.5614 93.8578 46.4507 93.8578 44.3593C93.8578 42.483 93.8578 40.6068 93.8578 38.7305C93.8578 37.4871 93.6461 36.0113 93.9383 34.7841C94.1594 33.8558 94.4377 32.5937 94.8869 34.3904C95.3101 36.0832 95.142 37.9441 95.4685 39.6702C95.74 41.1052 95.8883 42.4268 95.9607 43.8761C95.9986 44.6334 96.3267 45.277 96.4887 46.0059C96.7316 47.0988 96.7389 48.2553 96.9272 49.3616C97.2007 50.9684 97.3694 52.8427 98.2784 54.2476C99.0849 55.494 99.6347 56.8631 100.39 58.1224C100.729 58.6871 101.044 59.521 101.822 59.241C102.482 59.0036 103.043 57.6943 103.263 57.0844C103.898 55.3245 103.853 53.6601 104.167 51.8583C104.204 51.6463 104.414 50.337 104.739 50.337C105.35 50.337 105.583 51.7127 105.777 52.0731C106.183 52.8255 106.358 53.6983 106.816 54.4177C106.851 54.4741 107.004 54.9455 107.03 54.9367C107.105 54.9119 106.69 53.7558 106.672 53.6839C106.349 52.3322 105.939 51.1769 105.294 49.9344C104.938 49.2471 104.907 48.6433 104.337 48.073C103.687 47.4237 103.29 46.5466 102.878 45.7374C102.557 45.1075 102.234 44.4958 101.849 43.9029C101.575 43.4818 101.708 43.6937 101.858 44.0729C103.202 47.4808 104.182 51.0567 105.223 54.5608C105.66 56.0352 106.45 57.4008 107.227 58.731C108.318 60.5962 110.06 62.0794 111.093 63.9391C111.36 64.4203 111.804 64.666 112.256 64.9235C113.88 65.8466 115.786 66.3239 117.59 66.8027C119.188 67.227 121.009 67.9158 122.655 68.0376C123.283 68.0842 123.814 68.5026 124.445 68.5209C125.117 68.5404 125.804 68.7009 126.467 68.6819C129.057 68.608 131.818 67.6738 134.324 67.0712C135.322 66.8311 136.318 66.145 137.295 65.9794C138.313 65.8068 139.345 65.7149 140.373 65.6215C141.022 65.5626 141.924 64.9739 142.593 64.7803C142.907 64.6893 143.316 64.4293 143.631 64.2971C144.038 64.1255 144.49 64.0794 144.919 63.9391C145.997 63.5868 146.948 63.193 147.658 64.2971C148.646 65.8352 149.168 67.5174 149.948 69.1652C150.348 70.0085 151.04 71.2636 151.04 72.1899C151.04 73.6479 149.593 75.2704 148.356 75.9662C145.839 77.3818 143.233 78.4545 140.355 78.8656C138.615 79.1143 136.945 79.5363 135.192 79.6263C134.33 79.6704 133.46 79.6352 132.597 79.6352C131.93 79.6352 131.337 79.8713 130.682 79.9484C130.214 80.0035 129.712 79.9574 129.241 79.9574C128.842 79.9574 130.371 79.5966 130.1 79.9037C129.485 80.6004 127.484 80.8229 127.219 81.8187C127.027 82.5359 127.439 83.8218 127.612 84.5391C128.146 86.7484 129.537 88.6996 129.939 90.9106C130.164 92.1495 130.559 93.4186 130.995 94.6064C131.226 95.2363 131.68 95.717 131.872 96.3872C132.096 97.17 133.814 93.8853 133.957 93.3626C134.116 92.7815 134.127 90.9616 134.127 91.5639C134.127 92.3901 134.127 93.2164 134.127 94.0427C134.127 95.3515 134.427 97.5189 133.581 98.5528C133.547 98.5949 133.365 98.8723 133.393 98.9287C133.694 99.5304 134.137 97.7918 134.36 97.1568C134.971 95.4102 135.038 93.3952 135.738 91.716C136.042 90.9864 136.197 90.1882 136.552 89.4788C136.695 89.1927 137.093 88.4167 137.402 88.2976C137.505 88.2583 137.51 90.2043 137.51 90.3468C137.51 92.9009 137.435 95.3807 137.823 97.8996C138.002 99.0639 138.393 100.151 138.637 101.309C138.902 102.564 139.551 103.896 140.167 105.005C140.955 106.423 141.558 107.976 142.163 109.488C143.454 112.715 145.285 115.76 147.738 118.213C148.254 118.729 148.838 119.203 149.412 119.654C149.714 119.892 150.413 120.434 150.539 120.781C150.88 121.72 150.388 122.949 150.226 123.842C149.899 125.637 149.752 127.292 149.752 129.158C149.752 130.702 146.848 130.423 145.787 130.366C144.154 130.277 142.709 129.247 141.125 129.247C140.128 129.247 138.986 128.065 138.369 127.35C136.974 125.732 135.987 123.757 134.682 122.079C133.936 121.12 133.179 120.012 132.507 118.938C131.873 117.924 130.93 116.387 129.697 116.119C128.927 115.952 127.267 115.758 126.789 116.54C126.368 117.229 125.724 117.757 125.241 118.41C124.661 119.193 124.105 119.94 123.415 120.629C122.667 121.377 122.164 122.254 121.474 123.054C120.561 124.113 120.049 125.446 119.066 126.428C118.806 126.688 118.803 126.95 118.503 127.189C117.907 127.662 117.356 128.123 116.731 128.567C115.911 129.149 115.172 129.321 114.243 129.677C113.163 130.09 110.689 131.103 110.198 132.343C109.857 133.206 110.133 134.254 109.769 135.171C109.529 135.774 109.388 136.396 109.196 137.014C108.612 138.895 108.45 140.814 108.229 142.777C108.045 144.415 107.337 145.37 108.176 147.073C108.483 147.696 110.078 149.218 109.169 149.847C108.873 150.052 108.723 150.104 108.641 150.455C108.451 151.273 107.882 151.943 107.514 152.693C107.188 153.356 107.053 153.951 106.619 154.536C106.194 155.108 105.916 155.88 105.616 156.523C105.193 157.429 104.315 157.45 103.522 157.829C102.239 158.443 100.81 158.544 99.4955 159.082C98.5293 159.477 97.144 159.691 96.1129 159.691C94.5917 159.691 92.9035 159.905 91.4237 159.529C90.8818 159.392 90.7872 158.614 90.6362 158.169C89.9978 156.287 89.7421 154.253 89.3118 152.371C89.0799 151.356 89.1709 150.293 89.0255 149.256C88.8704 148.152 88.5422 147.04 88.5422 145.927C88.5422 143.571 88.3943 141.208 89.2402 138.983C89.4989 138.303 89.5375 137.212 89.9919 136.657C90.3608 136.206 90.5515 135.723 90.7078 135.171C91.0582 133.934 91.5043 132.456 92.4081 131.502C92.7014 131.192 92.7903 130.73 93.1329 130.464C93.4006 130.256 93.9647 130.391 94.2873 130.366C94.5247 130.347 95.9735 129.909 95.0658 129.909C93.6038 129.909 91.9272 130.056 90.493 130.375C89.8326 130.521 89.5948 130.697 88.7928 130.697C86.5526 130.697 84.3125 130.697 82.0723 130.697C79.1997 130.697 76.3272 130.697 73.4547 130.697C67.5637 130.697 61.6634 130.536 55.763 130.536C53.6272 130.536 51.4915 130.536 49.3557 130.536C48.226 130.536 46.1532 130.837 45.3377 129.927C44.156 128.609 42.2951 127.533 41.9909 125.632C41.7568 124.169 40.5395 123.002 41.445 121.506C42.0984 120.427 43.0513 119.657 43.7896 118.661C44.4796 117.729 45.2458 116.656 46.1073 115.878C47.6481 114.486 48.8788 113.461 51.0649 113.461C53.1316 113.461 54.5934 113.37 56.291 114.741C57.6411 115.832 58.9938 116.903 60.4969 117.784C61.4263 118.328 62.399 118.761 63.3068 119.35C63.8286 119.688 64.3156 120.092 64.9265 120.245C66.4397 120.623 68.1847 121.375 69.553 122.142C70.0996 122.448 69.1039 121.996 69.034 121.945C68.1004 121.264 67.2514 120.454 66.4031 119.672C65.4564 118.799 64.4768 117.926 63.4947 117.095C62.3988 116.167 61.133 115.76 60.0226 114.822C59.0994 114.042 58.2337 113.193 57.1859 112.584C55.9755 111.882 55.525 111.302 54.8413 110.079C54.39 109.271 53.9639 108.455 53.5348 107.636C53.186 106.97 53.4176 105.722 53.4274 105.014C53.456 102.953 53.8446 100.883 54.197 98.8571C54.5208 96.9953 54.0219 95.1397 53.5885 93.3626C53.093 91.331 52.3816 89.24 51.3692 87.4027C50.8462 86.4536 50.5947 85.4309 49.9016 84.557C49.1784 83.6452 48.3223 82.8226 47.557 81.944C46.5273 80.7617 45.2995 79.5999 44.4071 78.3108C43.1693 76.5229 42.0821 74.5341 41.1497 72.5657C40.3578 70.8939 39.7358 69.4022 39.7358 67.5902C39.7358 67.0293 39.6135 66.4261 40.0938 66.0331C40.9966 65.2944 41.9428 65.4177 43.0111 65.2277C43.6661 65.1113 44.4504 64.9713 45.0872 64.7803C45.8602 64.5484 44.0587 64.1288 43.727 64.0107C42.7329 63.6569 43.7117 62.568 44.246 62.1673C44.7672 61.7763 45.615 61.8872 46.2237 61.8272C46.8004 61.7704 47.3713 61.6055 47.9508 61.5946C49.2479 61.5701 50.6594 61.4471 51.9419 61.6303C53.5532 61.8605 55.4433 62.0127 56.8458 62.8832C57.6042 63.3539 58.6991 63.2053 59.5483 63.2053C62.8953 63.2053 66.0973 61.7049 69.3024 60.7892C71.5636 60.1431 73.8015 58.8659 75.8529 57.7287C77.8694 56.6109 79.7458 55.0013 80.9358 53.0038C81.586 51.9123 82.3366 51.1465 83.3162 50.3191C83.5531 50.119 86.1235 48.2103 86.1261 48.2251C86.3666 49.5881 86.2256 50.9649 86.5377 52.3595C86.8315 53.6726 86.9125 54.7504 87.4147 55.9926C87.6494 56.5732 87.9191 57.2182 88.0053 57.8361C88.3339 60.1908 86.2487 61.309 84.4437 62.2389C79.7454 64.6592 76.3796 68.9321 71.7007 71.3487C70.3147 72.0645 69.0755 72.7007 67.8349 73.6395C67.1644 74.1469 66.5683 74.7815 65.9198 75.3219C64.4449 76.551 62.0904 77.9086 60.1389 77.3443C59.7125 77.221 59.0812 77.2162 58.6982 76.9864C58.4504 76.8377 59.1332 77.3708 59.3157 77.5949C60.1902 78.6693 60.7535 80.3139 61.2665 81.586C62.1793 83.8499 63.092 86.0323 63.092 88.4944C63.092 92.2529 63.092 96.0114 63.092 99.7699C63.092 102.168 63.2181 104.604 63.092 107C63.0402 107.984 62.7982 105.049 62.564 104.092C61.9442 101.558 61.4301 99.0236 60.8727 96.4767C59.7725 91.4486 57.8941 86.6203 56.6489 81.6397C56.3672 80.5128 55.8711 79.4762 55.8435 78.2929C55.8298 77.7019 55.7807 77.7994 55.8793 78.3287C56.4178 81.2167 57.337 84.0556 57.9912 86.9195C58.809 90.499 59.3392 94.1819 59.96 97.8011C60.6656 101.915 62.0517 105.865 63.6289 109.721C63.9596 110.529 64.9007 113.282 64.0674 110.634C62.7419 106.421 61.8759 102.051 60.9085 97.7474C59.2432 90.339 56.8552 83.142 55.0382 75.7872C54.7423 74.5898 53.8289 73.589 53.5885 72.3867" stroke="black" stroke-opacity="0.25" stroke-width="20" stroke-linecap="round"/>
</svg>
