<svg width="192" height="192" viewBox="0 0 192 192" fill="none" xmlns="http://www.w3.org/2000/svg">
<mask id="path-1-inside-1_20_30" fill="white">
<path fill-rule="evenodd" clip-rule="evenodd" d="M53.1504 43.1881C48.5731 36.475 40.3648 32 31 32C16.6406 32 5 42.5213 5 55.5C5 65.4913 11.8985 74.0263 21.6253 77.426C17.9954 85.648 16 94.6143 16 104C16 143.765 51.8172 176 96 176C140.183 176 176 143.765 176 104C176 94.2206 173.834 84.8965 169.909 76.3953C178.278 72.4907 184 64.5993 184 55.5C184 42.5213 172.359 32 158 32C149.196 32 141.414 35.955 136.71 42.0066C124.784 35.6492 110.866 32 96 32C80.2363 32 65.5375 36.1034 53.1504 43.1881Z"/>
</mask>
<path fill-rule="evenodd" clip-rule="evenodd" d="M53.1504 43.1881C48.5731 36.475 40.3648 32 31 32C16.6406 32 5 42.5213 5 55.5C5 65.4913 11.8985 74.0263 21.6253 77.426C17.9954 85.648 16 94.6143 16 104C16 143.765 51.8172 176 96 176C140.183 176 176 143.765 176 104C176 94.2206 173.834 84.8965 169.909 76.3953C178.278 72.4907 184 64.5993 184 55.5C184 42.5213 172.359 32 158 32C149.196 32 141.414 35.955 136.71 42.0066C124.784 35.6492 110.866 32 96 32C80.2363 32 65.5375 36.1034 53.1504 43.1881Z" fill="black" fill-opacity="0.25"/>
<path d="M53.1504 43.1881L43.2357 49.9483L49.4825 59.11L59.1081 53.6047L53.1504 43.1881ZM21.6253 77.426L32.6031 82.2726L37.8511 70.3855L25.5847 66.0981L21.6253 77.426ZM169.909 76.3953L164.836 65.5207L154.005 70.5738L159.014 81.4248L169.909 76.3953ZM136.71 42.0066L131.066 52.596L139.983 57.3498L146.185 49.3709L136.71 42.0066ZM63.065 36.428C56.1528 26.2902 44.1524 20 31 20V44C36.5771 44 40.9935 46.6597 43.2357 49.9483L63.065 36.428ZM31 20C11.1833 20 -7 34.7814 -7 55.5H17C17 50.2613 22.0979 44 31 44V20ZM-7 55.5C-7 71.361 3.8915 83.9395 17.6659 88.754L25.5847 66.0981C19.9056 64.113 17 59.6216 17 55.5H-7ZM28 104C28 96.3377 29.625 89.0182 32.6031 82.2726L10.6476 72.5795C6.36591 82.2778 4 92.8909 4 104H28ZM96 164C57.2241 164 28 135.979 28 104H4C4 151.55 46.4103 188 96 188V164ZM164 104C164 135.979 134.776 164 96 164V188C145.59 188 188 151.55 188 104H164ZM159.014 81.4248C162.236 88.4052 164 96.0179 164 104H188C188 92.4232 185.431 81.3878 180.804 71.3658L159.014 81.4248ZM174.983 87.27C186.947 81.688 196 69.9195 196 55.5H172C172 59.2791 169.609 63.2934 164.836 65.5207L174.983 87.27ZM196 55.5C196 34.7814 177.817 20 158 20V44C166.902 44 172 50.2613 172 55.5H196ZM158 20C145.623 20 134.292 25.5639 127.236 34.6424L146.185 49.3709C148.536 46.3462 152.769 44 158 44V20ZM96 44C108.896 44 120.876 47.1642 131.066 52.596L142.355 31.4172C128.693 24.1343 112.836 20 96 20V44ZM59.1081 53.6047C69.6803 47.558 82.3254 44 96 44V20C78.1473 20 61.3947 24.6488 47.1927 32.7715L59.1081 53.6047Z" fill="black" mask="url(#path-1-inside-1_20_30)"/>
<circle cx="116" cy="89" r="7" fill="black"/>
<line x1="109.5" y1="76.5" x2="122.5" y2="76.5" stroke="black" stroke-width="7" stroke-linecap="round"/>
<circle cx="76" cy="89" r="7" fill="black"/>
<line x1="69.5" y1="76.5" x2="82.5" y2="76.5" stroke="black" stroke-width="7" stroke-linecap="round"/>
<ellipse cx="96" cy="108.5" rx="13" ry="4.5" fill="black"/>
</svg>
