<svg width="192" height="192" viewBox="0 0 192 192" fill="none" xmlns="http://www.w3.org/2000/svg">
<path d="M121.58 144.72H121.579V145.72C121.579 145.71 121.579 145.711 121.576 145.722C121.566 145.754 121.529 145.876 121.391 146.092C121.228 146.349 120.986 146.64 120.701 146.918C120.416 147.195 120.115 147.431 119.849 147.592C119.596 147.744 119.459 147.776 119.433 147.782C119.429 147.783 119.428 147.783 119.43 147.783H113.737V129.016C113.737 126.656 111.817 124.721 109.456 124.721C107.096 124.721 105.175 126.656 105.175 129.016V147.783H97.3333V129.016C97.3333 126.656 95.4133 124.721 93.0525 124.721C90.6918 124.721 88.7717 126.656 88.7717 129.016V147.783H84.2107V129.016C84.2107 126.656 82.2906 124.721 79.9299 124.721C77.5691 124.721 75.6491 126.656 75.6491 129.016V147.783H68.4282C68.3688 147.701 68.2977 147.589 68.2244 147.447C68.0028 147.018 67.8069 146.409 67.8069 145.72V88.2288C67.8069 88.1983 67.8091 87.8185 67.919 87.4761C67.9733 87.3071 68.0309 87.2222 68.0612 87.1911C68.0632 87.1892 68.0625 87.188 68.0628 87.1873C68.0633 87.1862 68.0664 87.1863 68.0864 87.1863H75.6491V102.659C75.6491 105.02 77.5691 106.954 79.9299 106.954C82.2906 106.954 84.2107 105.02 84.2107 102.659V87.1863H88.772V102.659C88.772 105.02 90.6921 106.954 93.0528 106.954C95.4136 106.954 97.3337 105.02 97.3337 102.659V87.1863H105.176V102.659C105.176 105.02 107.096 106.954 109.457 106.954C111.817 106.954 113.737 105.02 113.737 102.659V87.1863H119.43C119.85 87.1863 120.436 87.4125 120.96 87.7794C121.21 87.9545 121.401 88.1314 121.517 88.2714C121.545 88.3054 121.566 88.3325 121.58 88.3528V144.72ZM121.608 88.3992C121.608 88.3992 121.607 88.3979 121.606 88.3953C121.607 88.3979 121.608 88.3992 121.608 88.3992ZM119.43 78.5972H68.0867C62.9841 78.5972 59.2459 82.8606 59.2459 88.2291V145.72C59.2459 148.24 60.0517 150.865 61.5412 152.882C63.0408 154.913 65.2769 156.373 68.0867 156.373H119.43C122.128 156.373 124.796 154.966 126.762 153.009C128.728 151.052 130.141 148.399 130.141 145.72V88.2288C130.141 85.4169 128.638 82.9985 126.609 81.3151C124.585 79.635 121.936 78.5972 119.43 78.5972Z" fill="black" stroke="black" stroke-width="2"/>
<path d="M41.5613 161.41V161.402V30.7384H41.5614L41.5613 30.73C41.533 27.3867 44.213 24.6196 47.5536 24.5891H125.466C127.035 24.5891 128.58 25.2387 129.67 26.3612L129.674 26.3656L149.322 46.3598C149.322 46.3605 149.323 46.3612 149.324 46.362C150.455 47.5275 151.106 49.1224 151.106 50.7366V161.402H152.106L151.106 161.41C151.134 164.783 148.457 167.521 145.113 167.551H47.5542C44.2133 167.521 41.533 164.754 41.5613 161.41ZM155.406 40.345L135.731 20.356C135.73 20.3551 135.729 20.3541 135.728 20.3532C133.049 17.5937 129.348 16 125.466 16H47.5492C39.5036 16 33 22.6221 33 30.7384V161.369C33 169.485 39.5036 176.107 47.5492 176.107H145.118C153.163 176.107 159.667 169.485 159.667 161.369V50.7366C159.667 46.8547 158.157 43.1081 155.408 40.347C155.407 40.3463 155.407 40.3456 155.406 40.345Z" fill="black" stroke="black" stroke-width="2"/>
<path d="M54.9579 34.7519C52.3329 34.2822 49.9928 32.9759 47.6513 31.7406C46.3656 31.0623 46.9564 30.7121 48.0248 30.445C49.4516 30.0883 50.4829 29.7097 51.9465 29.7097C55.1085 29.7097 58.2131 30.2439 61.3774 30.3283C65.8458 30.4475 70.3299 30.34 74.8 30.34C84.0596 30.34 93.3192 30.34 102.579 30.34C105.676 30.34 108.773 30.34 111.87 30.34C113.06 30.34 114.429 30.1364 115.546 30.5501C117.575 31.3015 120.454 30.7004 122.608 30.7602C123.477 30.7843 124.915 30.816 125.549 31.4838C126.671 32.665 127.292 34.5512 128.187 35.9191C129.195 37.4606 130.003 38.9601 131.222 40.3778C133.212 42.6939 135.169 44.9724 137.314 47.1474C139.625 49.4904 139.92 53.0251 140.839 56.0647C142.122 60.3069 142.59 64.7354 142.963 69.1254C143.042 70.0452 142.579 71.8225 142.987 72.6386C143.188 73.0403 143.064 71.7437 143.103 71.2964C143.238 69.7769 143.331 68.2446 143.535 66.7327C143.846 64.439 144.457 62.2843 144.457 59.9631C144.457 59.5958 144.106 52.3641 143.629 52.3414C141.501 52.2401 138.568 54.7841 137.034 55.9713C135.704 57.0008 133.959 58.274 133.042 59.7413C132.026 61.368 131.946 63.9304 132.074 65.7756C132.281 68.7788 134.315 71.308 134.886 74.2494C134.942 74.5356 135.648 77.5896 136.427 77.0973C137.704 76.2911 138.706 74.4061 139.275 73.0588C139.486 72.5595 139.649 72.4578 140.057 72.9421C141.757 74.9609 141.34 78.2029 141.714 80.6338C142.261 84.1853 140.466 87.497 140.466 90.9751C140.466 92.2345 139.768 93.7309 139.462 94.9552C139.167 96.1343 139.415 97.6671 139.415 98.8769C139.415 100.472 139.415 102.067 139.415 103.662C139.415 104.331 139.426 106.738 139.999 104.783C140.719 102.325 141.24 99.8321 141.294 97.2662C141.301 96.9638 141.211 93.2968 141.609 93.5545C142.586 94.1865 142.896 96.3346 143.08 97.3712C143.38 99.0591 143.447 100.788 143.57 102.495C143.918 107.314 143.617 112.28 143.617 117.108C143.617 118.622 143.617 120.135 143.617 121.649C143.617 122.92 143.643 124.194 143.617 125.465C143.604 126.077 143.172 126.695 142.893 125.757C141.974 122.663 142.067 119.238 141.399 116.081C141.253 115.388 140.177 112.361 139.298 112.521C138.28 112.706 139.23 120.114 139.427 121.392C139.71 123.234 139.625 125.118 139.625 126.994C139.625 128.499 140.007 129.918 140.349 131.383C141 134.171 141.033 137.168 142.053 139.868C142.957 142.262 142.777 144.811 142.777 147.315C142.777 148.482 142.777 149.649 142.777 150.816C142.777 152.173 143.197 153.347 143.197 154.738C143.197 155.711 143.197 156.683 143.197 157.656C143.197 159.196 142.889 158.991 141.283 158.753C140.965 158.706 140.326 158.798 140.267 158.356C140.091 157.032 140.18 155.609 140.092 154.271C139.975 152.49 139.625 150.683 139.625 148.902C139.625 147.157 138.871 145.391 139.205 143.627C139.329 142.972 140.676 142.139 140.676 141.724C140.676 140.374 140.676 139.024 140.676 137.674C140.676 126.913 140.676 116.151 140.676 105.39C140.676 98.9608 141.326 92.1883 139.94 85.8978C139.613 84.4126 139.01 83.0518 138.621 81.6026C138.133 79.7828 137.765 77.9098 137.232 76.0818C136.7 74.2542 136.304 72.4062 135.68 70.6077C135.304 69.5222 135.083 69.6095 133.929 69.7557C131.296 70.0895 128.852 71.0413 126.249 71.4131C123.801 71.7629 121.193 71.5182 118.721 71.5182C112.021 71.5182 105.322 71.5182 98.6221 71.5182C96.5493 71.5182 94.5441 71.5106 92.5061 71.1096C91.7067 70.9524 90.968 70.8879 90.1601 70.8879C85.787 70.8879 81.414 70.8879 77.0409 70.8879C72.8085 70.8879 68.5863 70.6363 64.4354 71.3547C63.8182 71.4616 63.1424 71.4366 62.6379 71.845C62.1202 72.2641 61.8501 72.549 61.1439 72.5686C58.6609 72.6376 57.4099 68.6936 56.6853 66.7561C56.0034 64.9326 55.7853 62.9694 55.0512 61.1536C54.6656 60.1995 54.1449 59.5225 53.9541 58.4924C53.5411 56.2623 52.6425 53.8486 51.7598 51.7694C51.0473 50.0912 50.5861 48.5718 48.6201 48.408C48.286 48.3801 45.9239 48.3469 45.9239 47.7777C45.9239 45.9781 53.4677 46.3402 54.2692 46.3187C58.3166 46.2103 62.3525 45.6768 66.3962 45.6768C70.8533 45.6768 75.4589 45.9085 79.8889 46.3771C82.708 46.6752 85.4956 47.2071 88.3159 47.4976C94.007 48.0837 99.763 48.2804 105.473 48.5947C108.997 48.7886 112.562 49.0382 116.095 49.0382C117.798 49.0382 119.506 49.0021 121.207 49.0849C122.32 49.1391 124.332 49.0085 125.187 49.9953C125.706 50.5937 125.352 52.6375 125.339 53.3101C125.303 55.117 125.293 57.9929 123.425 58.9126C120.123 60.538 115.811 59.9631 112.266 59.9631C106.497 59.9631 100.727 59.9631 94.9572 59.9631C86.3395 59.9631 77.7218 59.9631 69.1041 59.9631C66.688 59.9631 64.272 59.9631 61.8559 59.9631C60.7844 59.9631 59.9312 60.1377 58.9496 60.5466C58.0708 60.9128 56.5187 60.5933 55.5998 60.5933C52.9386 60.5933 50.2775 60.5933 47.6163 60.5933C46.3338 60.5933 46.7643 62.4343 46.7643 63.3245C46.7643 66.7794 46.7643 70.2343 46.7643 73.6891C46.7643 77.0838 48.2172 80.3334 49.6005 83.3767C49.9048 84.046 49.7277 84.7514 50.009 85.3843C50.3946 86.2518 50.756 87.0704 50.756 88.0454C50.756 91.5839 50.9661 95.1732 50.9661 98.7368C50.9661 105.382 50.9661 112.027 50.9661 118.672C50.9661 126.302 50.9661 133.931 50.9661 141.561C50.9661 145.222 50.9661 148.883 50.9661 152.544C50.9661 155.107 51.8065 157.549 51.8065 160.084C51.8065 161.279 51.8598 161.767 52.9737 162.021C53.9155 162.237 54.8956 162.353 55.7749 162.745C57.1191 163.345 58.6443 163.374 60.0818 163.55C61.174 163.684 62.0844 163.94 63.1982 163.959C65.6238 164.001 67.9834 164.589 70.4114 164.589C74.4654 164.589 78.5194 164.589 82.5734 164.589C84.8599 164.589 87.1503 164.629 89.4364 164.589C90.3569 164.573 91.2928 164.349 92.191 164.169C93.6369 163.88 95.1128 163.959 96.5796 163.959C106.54 163.959 116.499 163.959 126.459 163.959C127.508 163.959 128 163.243 128.7 162.582C129.539 161.789 130.82 161.434 131.688 160.644C131.828 160.518 132.235 160.463 132.424 160.352C133.115 159.945 133.656 159.329 134.373 158.963C135.626 158.324 136.463 158.066 137.524 159.127" stroke="black" stroke-opacity="0.25" stroke-width="20" stroke-linecap="round"/>
</svg>
