<svg width="192" height="192" viewBox="0 0 192 192" fill="none" xmlns="http://www.w3.org/2000/svg">
<path d="M28.5036 72.4639C45.1055 67.9283 62.618 65.5 80.7264 65.5C112.831 65.5 143.079 73.1331 169.705 86.6288L171.279 83.5226L169.705 86.6288C174.385 89.0007 180.102 87.1303 182.474 82.4499C184.846 77.7699 182.974 72.0536 178.296 69.6816L178.295 69.6814C149.057 54.8617 115.871 46.5 80.7264 46.5C60.9129 46.5 41.7168 49.1578 23.4965 54.1355C18.4353 55.5182 15.4531 60.742 16.8359 65.8033C18.2186 70.8645 23.4424 73.8466 28.5036 72.4639ZM28.5036 72.4639L27.5843 69.0986L28.5037 72.4639C28.5037 72.4639 28.5036 72.4639 28.5036 72.4639ZM34.5442 106.681C49.1428 102.338 64.6461 99.9982 80.7264 99.9982C107.558 99.9982 132.8 106.513 154.916 117.997L154.916 117.997C159.573 120.415 165.307 118.601 167.725 113.944C170.143 109.288 168.329 103.553 163.672 101.135C138.903 88.2737 110.664 80.9982 80.7264 80.9982C62.7948 80.9982 45.4673 83.6084 29.1266 88.4696L29.1265 88.4696C24.0977 89.9657 21.2338 95.2552 22.7299 100.284L22.7299 100.284C24.2259 105.313 29.5151 108.177 34.5442 106.681ZM34.5442 106.681L33.5463 103.326L34.5442 106.681ZM28.6865 135.003L28.6866 135.003C30.3553 139.976 35.7402 142.657 40.7148 140.988L40.715 140.988C53.2462 136.783 66.7024 134.496 80.7264 134.496C102.269 134.496 122.486 139.894 140.073 149.365L140.073 149.365C144.693 151.852 150.453 150.123 152.941 145.505L152.942 145.504C155.429 140.884 153.7 135.123 149.082 132.635L149.082 132.635C128.783 121.704 105.477 115.496 80.7264 115.496C64.6252 115.496 49.129 118.124 34.6713 122.975C29.697 124.644 27.0176 130.029 28.6865 135.003Z" fill="black" stroke="black" stroke-width="7"/>
</svg>
