<svg width="192" height="192" viewBox="0 0 192 192" fill="none" xmlns="http://www.w3.org/2000/svg">
<path d="M75 85.5H23.5L28.5 53.5L34 52L62 50L76.5 35.5L122.5 36L130.5 52H149L166 53.5L168.5 69.5V78.5H151.5L153.5 69.5L144.5 64L136 68.5V80.5L121 81.5L115 84.5L107 76.5L90 75L75 85.5Z" fill="black"/>
<path d="M75 85.5H23.5L28.5 53.5L34 52L62 50L76.5 35.5M75 85.5L76.5 35.5M75 85.5L90 75L107 76.5L115 84.5M76.5 35.5L122.5 36L130.5 52M115 84.5L130.5 52M115 84.5L121 81.5L136 80.5V68.5L144.5 64M130.5 52H149M144.5 64L149 52M144.5 64L153.5 69.5M149 52L166 53.5L168.5 69.5M168.5 69.5H153.5M168.5 69.5V78.5H151.5L153.5 69.5" stroke="black"/>
<path d="M122 80.4545L124.5 85.5H142.5L140.525 84.0909L137.2 80L122 80.4545Z" fill="black" stroke="black"/>
<path d="M166 85.5H144L152.5 78L166 77.5V85.5Z" fill="black" stroke="black"/>
<path d="M60 50V56C61.8885 56 63.6669 55.1108 64.8 53.6L60 50ZM72 34V28C70.1115 28 68.3331 28.8892 67.2 30.4L72 34ZM132 50L127.2 53.6C128.333 55.1108 130.111 56 132 56V50ZM120 34L124.8 30.4C123.667 28.8892 121.889 28 120 28V34ZM164 66V142H176V66H164ZM154 152H38V164H154V152ZM28 142V66H16V142H28ZM38 56H60V44H38V56ZM64.8 53.6L76.8 37.6L67.2 30.4L55.2 46.4L64.8 53.6ZM132 56H154V44H132V56ZM136.8 46.4L124.8 30.4L115.2 37.6L127.2 53.6L136.8 46.4ZM120 28H72V40H120V28ZM38 152C32.4772 152 28 147.523 28 142H16C16 154.15 25.8497 164 38 164V152ZM164 142C164 147.523 159.523 152 154 152V164C166.15 164 176 154.15 176 142H164ZM176 66C176 53.8497 166.15 44 154 44V56C159.523 56 164 60.4772 164 66H176ZM28 66C28 60.4772 32.4772 56 38 56V44C25.8497 44 16 53.8497 16 66H28Z" fill="black"/>
<path d="M96 130C111.464 130 124 117.464 124 102C124 86.536 111.464 74 96 74C80.536 74 68 86.536 68 102C68 117.464 80.536 130 96 130Z" stroke="black" stroke-width="12"/>
<path d="M144 83C148.971 83 153 78.9706 153 74C153 69.0294 148.971 65 144 65C139.029 65 135 69.0294 135 74C135 78.9706 139.029 83 144 83Z" stroke="black" stroke-width="6"/>
<path d="M29.7374 87.971C31.2691 87.706 32.5917 87.601 34.1364 87.601C35.4725 87.601 36.8087 87.601 38.1448 87.601C39.0416 87.601 39.941 87.5818 40.8377 87.601C42.4736 87.6362 44.0567 88.2044 45.6683 88.4438C48.9981 88.9386 52.1106 89.4511 55.453 89.4511C56.0099 89.4511 56.935 89.1862 56.7274 90.0164C56.6031 90.5138 56.2469 90.8372 56.2033 91.3833C56.165 91.8619 56.1993 92.3169 56.1005 92.7914C55.3207 96.5345 55.1772 100.735 55.936 104.529C56.1806 105.752 56.563 106.795 56.563 108.054C56.563 109.196 56.6243 110.342 56.8405 111.467C57.1754 113.208 57.479 114.87 57.7141 116.647C58.1325 119.808 58.8663 123.05 60.2219 125.897C60.4587 126.394 60.4783 127.047 60.7358 127.562C60.9719 128.034 61.3114 128.459 61.5581 128.939C62.2544 130.293 63.7055 130.856 65.1451 131.169C67.4478 131.67 69.7165 132.482 72.0622 132.896C73.1139 133.082 74.2274 132.833 75.2895 132.968C76.8783 133.17 78.4801 133.769 80.0585 133.852C81.5115 133.928 82.8575 134.881 84.3136 134.962C85.2928 135.016 86.0959 135.941 87.0886 136.082C87.7 136.17 88.3266 136.524 88.9387 136.668C90.0063 136.919 91.0529 137.306 92.1248 137.532C92.8298 137.68 93.677 137.737 94.3963 137.737C95.0708 137.737 95.8504 137.826 96.421 138.189C97.8896 139.124 99.9422 139.459 101.601 139.813C104.668 140.469 107.645 140.697 110.769 140.697C111.698 140.697 112.558 140.752 113.421 140.337C114.164 139.981 115.048 140.017 115.764 139.659C118.578 138.252 121.355 136.941 123.791 134.88C125.326 133.581 127.685 133.216 129.084 131.817C130.302 130.6 131.975 129.817 132.785 128.199C133.274 127.221 133.746 126.247 134.172 125.239C134.736 123.903 134.656 122.753 134.861 121.375C135.126 119.585 135.005 117.736 135.005 115.927C135.005 114.338 135.375 112.922 135.375 111.364C135.375 109.291 135.56 107.217 135.56 105.135C135.56 103.701 135.726 102.134 135.087 100.819C134.637 99.8915 134.797 98.698 134.408 97.7762C134.219 97.3256 134.37 96.8344 134.172 96.399C133.993 96.0054 133.141 94.5627 133.36 94.179C133.896 93.2404 136.952 93.3362 137.78 93.3362C139.107 93.3362 140.558 93.1549 141.87 93.3567C144.333 93.7357 146.898 94.0762 149.404 94.0762C151.134 94.0762 152.89 93.9804 154.615 94.0762C155.517 94.1263 155.519 97.1724 155.54 97.9613C155.568 99.0407 155.676 100.165 155.91 101.219C156.295 102.952 156.071 104.811 156.095 106.574C156.167 111.861 156.28 117.178 156.28 122.485C156.28 126.113 156.28 129.741 156.28 133.369C156.28 135.975 156.005 138.699 154.471 140.882C153.635 142.071 153.455 142.202 152.025 142.588C149.656 143.229 147.172 143.491 144.8 144.13C142.926 144.634 140.924 144.924 138.992 145.096C137.553 145.225 136.247 145.784 134.799 145.877C131.282 146.104 127.832 146.139 124.315 146.247C122.62 146.299 120.669 147.011 119.033 147.46C117.199 147.963 115.18 148.236 113.297 148.457C111.395 148.681 109.049 148.504 107.295 149.31C106.724 149.572 105.874 149.559 105.26 149.588C104.196 149.637 103.126 149.947 102.074 149.947C101.623 149.947 101.222 150.052 100.779 150.132C98.7457 150.502 96.5862 150.317 94.5299 150.317C87.6231 150.317 80.7163 150.317 73.8094 150.317C64.5091 150.317 55.2007 150.502 45.8944 150.502C43.5755 150.502 42.0938 150.454 40.2004 148.981C39.2405 148.235 39.16 147.087 38.7409 145.97C38.307 144.813 37.8747 143.571 37.6104 142.362C37.5101 141.904 37.5458 141.443 37.4665 140.985C37.3225 140.153 36.8007 139.4 36.5415 138.6C35.6263 135.779 35.2968 132.686 35.38 129.731C35.3944 129.221 36.142 122.632 36.9526 123.296C39.668 125.523 41.2944 128.846 43.9827 131.139C45.2142 132.189 47.2366 132.955 48.2378 134.243C48.667 134.794 48.7276 135.555 49.1628 136.072C49.3657 136.313 48.6606 135.675 48.4845 135.414C46.997 133.209 45.6883 130.598 44.8152 128.076C44.2346 126.398 44.1666 124.528 43.3866 122.937C42.7225 121.582 42.9982 119.922 42.6877 118.456C41.9271 114.864 40.7431 111.321 37.9701 108.856C37.2091 108.179 36.48 107.367 35.5548 106.841C35.0662 106.564 35.1025 106.473 35.1025 105.916C35.1025 103.794 36.7676 102.351 36.7676 100.181" stroke="black" stroke-opacity="0.2" stroke-width="25" stroke-linecap="round"/>
</svg>
