<svg width="192" height="192" viewBox="0 0 192 192" fill="none" xmlns="http://www.w3.org/2000/svg">
<path d="M20.2071 83.098L21.6077 74.8182H57.2604L55.8598 83.098H43.0693L37.4671 117H27.4159L33.0182 83.098H20.2071ZM59.768 117.536C57.7633 117.536 56.0332 117.199 54.5777 116.526C53.1359 115.84 52.0786 114.803 51.4058 113.416C50.7467 112.029 50.5888 110.299 50.9321 108.226C51.2342 106.468 51.7903 104.992 52.6004 103.798C53.4243 102.589 54.4335 101.607 55.6281 100.852C56.8364 100.097 58.1821 99.5204 59.665 99.1222C61.148 98.724 62.6996 98.4562 64.3199 98.3189C66.1324 98.1541 67.6016 97.9756 68.7275 97.7834C69.8672 97.5911 70.7185 97.3234 71.2815 96.9801C71.8445 96.6231 72.1878 96.1288 72.3113 95.4972V95.3942C72.4761 94.3369 72.2496 93.5199 71.6317 92.9432C71.0138 92.3665 70.0869 92.0781 68.8511 92.0781C67.5329 92.0781 66.407 92.3665 65.4733 92.9432C64.5396 93.5199 63.8873 94.3163 63.5166 95.3324L54.2893 95.0028C54.866 93.0805 55.8547 91.3641 57.2552 89.8537C58.6558 88.3295 60.434 87.1349 62.5898 86.2699C64.7593 85.3911 67.2652 84.9517 70.1075 84.9517C72.1122 84.9517 73.9247 85.192 75.545 85.6726C77.1653 86.1394 78.5315 86.826 79.6437 87.7322C80.7697 88.6248 81.5729 89.7232 82.0535 91.0277C82.5341 92.3321 82.6371 93.822 82.3625 95.4972L78.7581 117H69.2836L70.0251 112.592H69.778C69.0365 113.663 68.1646 114.57 67.1622 115.311C66.1736 116.053 65.0613 116.609 63.8256 116.979C62.5898 117.35 61.2372 117.536 59.768 117.536ZM64.0109 110.945C65.0682 110.945 66.0706 110.725 67.018 110.286C67.9655 109.846 68.7619 109.242 69.4072 108.473C70.0663 107.69 70.4851 106.784 70.6636 105.754L71.1373 102.747C70.849 102.898 70.4851 103.036 70.0457 103.159C69.6063 103.283 69.1395 103.399 68.6452 103.509C68.1508 103.605 67.6428 103.701 67.121 103.798C66.613 103.88 66.1255 103.955 65.6586 104.024C64.67 104.175 63.8118 104.409 63.0841 104.724C62.3563 105.04 61.7728 105.452 61.3334 105.96C60.9077 106.455 60.6468 107.045 60.5507 107.732C60.3859 108.761 60.6262 109.558 61.2716 110.121C61.9169 110.67 62.83 110.945 64.0109 110.945ZM116.12 95.0234L107.037 95.2706C107.051 94.5978 106.9 94.0073 106.584 93.4993C106.268 92.9775 105.822 92.5724 105.245 92.2841C104.669 91.9957 103.982 91.8516 103.186 91.8516C101.895 91.8516 100.735 92.1399 99.7048 92.7166C98.6887 93.2933 98.1189 94.0417 97.9953 94.9616C97.8992 95.456 98.0365 95.8885 98.4072 96.2592C98.778 96.6162 99.6018 96.9321 100.879 97.2067L106.811 98.3601C109.859 98.9643 112.07 100.015 113.443 101.511C114.83 102.994 115.324 104.958 114.926 107.402C114.569 109.489 113.649 111.295 112.166 112.819C110.697 114.343 108.822 115.524 106.543 116.362C104.277 117.185 101.771 117.597 99.0251 117.597C94.384 117.597 90.8826 116.664 88.5209 114.796C86.1729 112.915 85.0744 110.423 85.2254 107.32L95.0294 107.072C95.0706 108.24 95.4619 109.118 96.2034 109.709C96.9586 110.286 97.9816 110.588 99.2723 110.615C100.687 110.643 101.909 110.347 102.938 109.729C103.968 109.112 104.545 108.349 104.669 107.443C104.751 106.853 104.552 106.393 104.071 106.063C103.604 105.734 102.733 105.438 101.456 105.178L96.1004 104.127C93.0247 103.537 90.8002 102.424 89.4271 100.79C88.0677 99.1428 87.6009 97.0419 88.0265 94.4879C88.3836 92.4557 89.2211 90.7325 90.5393 89.3182C91.8712 87.8902 93.6082 86.8054 95.7503 86.0639C97.906 85.3224 100.364 84.9517 103.124 84.9517C107.545 84.9517 110.882 85.8511 113.134 87.6499C115.399 89.4349 116.395 91.8928 116.12 95.0234ZM128.72 108.7L130.759 96.6918H132.139L142.973 85.3636H154.384L138.483 101.594H135.826L128.72 108.7ZM118.278 117L125.281 74.8182H135.352L128.35 117H118.278ZM137.927 117L131.83 103.859L139.678 96.7124L149.564 117H137.927ZM152.715 117L157.988 85.3636H167.771L166.803 91.1307H167.133C168.053 89.0436 169.254 87.492 170.737 86.4759C172.22 85.446 173.827 84.9311 175.557 84.9311C176.024 84.9311 176.491 84.9654 176.957 85.0341C177.438 85.089 177.891 85.1714 178.317 85.2812L176.834 94.0554C176.367 93.8769 175.756 93.7464 175.001 93.6641C174.246 93.5679 173.559 93.5199 172.941 93.5199C171.747 93.5199 170.634 93.7876 169.604 94.3232C168.588 94.8449 167.723 95.5795 167.009 96.527C166.309 97.4607 165.849 98.5592 165.629 99.8224L162.787 117H152.715Z" fill="black"/>
</svg>
