<svg width="192" height="192" viewBox="0 0 192 192" fill="none" xmlns="http://www.w3.org/2000/svg">
<path d="M126 38C111.641 38 100 49.6406 100 64C100 68.3285 101.058 72.41 102.929 76C72 76 56 70 30 46C30 85.5 40 112 64 127C56 138.2 34.6667 141.333 22 141.5C22 141.5 36 155 68 155C124 155 152 108.217 152 64L170 44H142.614C138.109 40.2533 132.318 38 126 38Z" stroke="black" stroke-width="12" stroke-linejoin="round"/>
<path d="M37.7521 61.105C38.3235 61.1685 38.639 62.0525 38.9226 62.4556C39.3635 63.0821 39.8904 63.7725 40.2732 64.4265C42.3077 67.9021 46.5671 69.7882 50.0777 71.3796C55.7824 73.9658 61.4416 76.7176 67.5256 78.3128C73.5124 79.8825 79.3834 80.852 85.5738 81.054C88.9714 81.1649 92.3282 81.608 95.7184 81.7744C98.0992 81.8912 100.448 81.664 102.822 81.5343C104.407 81.4476 106.098 81.5747 107.664 81.2741C108.316 81.1489 107.862 80.8057 107.834 80.4037C107.678 78.1378 108.881 75.8503 109.245 73.6507C109.915 69.5911 109.66 65.4301 110.815 61.4351C112.02 57.2718 116.035 55.1258 120.04 54.2018C123.226 53.4665 126.433 53.0304 129.694 53.0013C130.591 52.9933 130.194 52.6639 129.804 52.0108C128.871 50.4467 127.81 49.1827 126.032 48.5593C122.785 47.4205 118.345 48.6392 116.448 51.5706C115.895 52.4247 115.363 53.2653 115.007 54.2218C114.855 54.6321 114.925 54.7104 115.327 54.3219C116.858 52.8423 118.31 51.4385 120.06 50.2C122.008 48.8205 123.356 48.6793 125.672 48.6793C129.786 48.6793 133.464 49.2251 137.397 50.4001C139.275 50.9608 141.093 51.6581 143.01 52.0208C143.917 52.1925 144.781 52.6004 145.661 52.8612C146.706 53.1709 147.82 53.1814 148.903 53.1814C149.807 53.1814 150.929 52.9947 151.814 53.1914C152.266 53.2918 151.364 55.0118 151.284 55.2223C150.335 57.7189 150.067 60.3555 148.663 62.7257C146.786 65.8921 145.241 68.6381 144.681 72.3101C144.246 75.16 143.279 77.97 142.57 80.7639C141.8 83.7966 140.7 86.7459 139.849 89.758C138.617 94.1166 136.908 97.9622 134.536 101.823C133.671 103.232 132.827 104.578 132.205 106.115C130.821 109.535 129.081 112.464 126.853 115.39C125.719 116.878 124.612 118.47 123.121 119.622C121.543 120.841 120.296 122.159 118.949 123.613C116.73 126.01 114.559 128.311 112.086 130.437C108.783 133.275 104.715 135.226 100.721 136.879C98.298 137.882 95.9167 138.796 93.3474 139.351C90.0652 140.059 86.7019 139.703 83.3728 139.811C81.4114 139.874 79.7038 140.489 77.8103 140.881C75.7724 141.304 73.6626 141.997 71.7275 142.762C71.2666 142.944 69.8931 143.217 70.3669 143.362C70.7693 143.486 71.2084 143.323 71.6275 143.282C73.4844 143.104 75.3363 142.902 77.2 142.802C80.5584 142.623 83.9438 142.856 87.2946 142.562C90.473 142.284 93.5886 141.189 96.5988 140.201C99.8188 139.144 102.875 137.928 105.663 135.969C108.182 134.199 110.229 131.946 112.446 129.836C112.605 129.685 113.06 129.268 112.846 129.316C89.5831 134.592 159.41 119.166 106.483 130.877C97.7311 132.813 88.9316 134.469 80.0713 135.819C78.4709 136.063 76.4576 136.093 74.929 136.699C74.0411 137.051 73.2461 137.97 72.5879 138.64C72.0912 139.146 71.9937 139.453 72.828 139.681C76.2191 140.606 79.9063 141.056 83.4128 141.241C83.653 141.254 84.3311 141.145 84.1332 141.281C83.333 141.834 82.3012 141.936 81.3719 142.222C77.3641 143.456 73.1546 144.276 69.2064 145.673C66.1493 146.755 63.4422 147.45 60.1223 147.344C58.0477 147.278 55.9336 147.103 53.8594 146.964C52.1324 146.848 50.4545 146.345 48.7171 146.284C48.0109 146.259 47.2028 146.201 46.5061 146.094C45.9113 146.002 47.3761 144.787 47.4765 144.703C48.3029 144.014 49.6001 143.27 50.668 143.032C52.1436 142.704 53.6773 141.692 55.0499 141.041C56.1837 140.504 57.2617 140.119 58.4615 139.761C59.6939 139.392 60.771 138.786 61.9631 138.36C64.8955 137.313 67.7428 135.316 69.7866 132.958C71.2217 131.302 72.023 129.208 72.748 127.165C73.2339 125.796 73.2046 124.443 72.5079 123.193C71.6304 121.619 71.0189 120.46 69.6666 119.271C66.8023 116.754 64.6302 113.471 61.4629 111.278C59.484 109.908 57.8519 107.931 56.0804 106.306C54.5307 104.884 52.8855 103.544 51.6084 101.854C48.6062 97.8801 46.8424 93.1122 45.3555 88.3974C44.7668 86.5304 44.3601 84.6271 43.7748 82.7648C43.1149 80.665 41.9625 79.0295 40.9135 77.1223C40.0037 75.468 39.2991 73.8091 39.0527 71.9299C38.9753 71.34 39.9024 72.77 40.2532 73.2505C41.5831 75.0723 43.0154 76.8195 44.7152 78.3128C47.6123 80.8578 51.2907 82.2073 54.5297 84.2355C57.5761 86.143 60.4752 87.8674 63.964 88.8176C66.0198 89.3775 68.0895 89.8131 70.2268 89.8781C73.4141 89.9749 76.4319 89.1927 79.5811 88.9176C87.1049 88.2605 94.4948 90.7196 102.001 90.8085C106.1 90.857 110.274 91.0146 114.367 90.7384C117.831 90.5047 121.03 90.2511 124.031 88.4574C126.236 87.14 128.419 86.0208 130.254 84.1454C131.562 82.8088 132.466 81.2664 133.276 79.5934C134.766 76.5114 136.037 73.2964 136.827 69.959C137.605 66.6705 137.501 62.8367 137.327 59.4442C137.23 57.5432 129.934 59.5789 128.673 59.9444C127.262 60.3538 126.012 60.958 125.052 62.1254C122.76 64.9106 121.352 68.1671 121.13 71.7698C121.04 73.24 120.866 74.6965 120.99 76.1718C120.995 76.2375 121.393 78.5818 121.53 78.4929C122.401 77.9267 123.173 76.6303 123.831 75.8717C125.654 73.7709 127.748 71.8682 129.484 69.6989C130.264 68.7237 130.774 67.6022 131.355 66.5074C131.69 65.8748 131.922 65.234 131.935 66.4274C131.994 71.7511 132.188 77.2039 131.745 82.5247C131.6 84.2649 130.688 86.2859 130.054 87.8771C129.065 90.3603 127.862 92.8184 126.532 95.1404C123.08 101.169 117.957 106.27 113.176 111.268C110.203 114.376 106.82 116.83 103.282 119.251C98.6983 122.388 93.8766 124.992 88.3551 126.004C85.6992 126.492 83.0083 126.723 80.3114 126.805C78.2122 126.869 76.1875 126.911 74.1686 126.275C72.5438 125.762 65.2716 123.502 66.5052 120.792C68.2042 117.06 71.9114 114.935 75.1691 112.768C80.402 109.289 85.4617 105.522 91.1864 102.864C93.9997 101.558 96.9355 100.721 99.9104 99.8726C104.241 98.6376 108.503 97.1452 112.846 95.9608C113.241 95.8531 117.027 94.9344 117.178 95.7407C117.28 96.2858 116.268 97.7694 116.208 97.8617C114.917 99.8482 113.346 101.535 111.506 103.024C108.195 105.702 104.26 107.795 100.551 109.867C95.5024 112.687 89.7368 114.809 84.2132 116.51C83.0179 116.878 81.2437 117.651 79.9513 117.651C78.1738 117.651 76.9009 115.997 75.6493 114.949C71.4445 111.429 66.0726 109.471 62.3633 105.305C61.0149 103.791 59.5107 102.34 58.3915 100.643C57.8102 99.7616 56.8263 98.5833 56.7707 97.4715C56.7109 96.2753 62.5278 96.7612 63.2637 96.7612C68.2888 96.7612 73.3273 96.8742 78.3505 96.7412C80.4484 96.6856 82.524 96.2209 84.6134 96.2209C84.6867 96.2209 85.2442 96.1993 84.8335 96.2309C83.3508 96.345 82.0179 96.9567 80.6516 97.5015C77.7944 98.6408 74.3543 99.5959 71.8876 101.543C71.6955 101.695 71.0656 102.258 71.6675 102.344C72.1418 102.411 72.9277 102.292 73.3283 102.204C75.6861 101.683 77.9504 100.736 80.2214 99.9426C85.109 98.2358 90.0766 96.8544 95.0481 95.4206C96.0868 95.121 98.0627 94.5603 99.2501 94.12C99.3731 94.0744 99.7309 93.9275 99.6002 93.9399C98.7645 94.0195 98.0009 94.4545 97.2191 94.7603C93.5073 96.2119 89.8609 97.7974 86.0641 99.0222C85.3731 99.2451 84.6193 99.383 84.0331 99.8226" stroke="black" stroke-opacity="0.25" stroke-width="15" stroke-linecap="round"/>
</svg>
