<svg width="192" height="192" viewBox="0 0 192 192" fill="none" xmlns="http://www.w3.org/2000/svg">
<path d="M63.15 39.7353V45.1176C64.8733 45.1176 66.4961 44.32 67.53 42.9647L63.15 39.7353ZM74.1 25.3824V20C72.3767 20 70.754 20.7977 69.72 22.1529L74.1 25.3824ZM128.85 39.7353L124.47 42.9647C125.504 44.32 127.126 45.1176 128.85 45.1176V39.7353ZM117.9 25.3824L122.28 22.1529C121.246 20.7977 119.624 20 117.9 20V25.3824ZM158.05 54.0882V122.265H169V54.0882H158.05ZM148.925 131.235H43.075V142H148.925V131.235ZM33.95 122.265V54.0882H23V122.265H33.95ZM43.075 45.1176H63.15V34.3529H43.075V45.1176ZM67.53 42.9647L78.48 28.6118L69.72 22.1529L58.77 36.5059L67.53 42.9647ZM128.85 45.1176H148.925V34.3529H128.85V45.1176ZM133.23 36.5059L122.28 22.1529L113.52 28.6118L124.47 42.9647L133.23 36.5059ZM117.9 20H74.1V30.7647H117.9V20ZM43.075 131.235C38.0354 131.235 33.95 127.219 33.95 122.265H23C23 133.164 31.9879 142 43.075 142V131.235ZM158.05 122.265C158.05 127.219 153.965 131.235 148.925 131.235V142C160.012 142 169 133.164 169 122.265H158.05ZM169 54.0882C169 43.1887 160.012 34.3529 148.925 34.3529V45.1176C153.965 45.1176 158.05 49.134 158.05 54.0882H169ZM33.95 54.0882C33.95 49.134 38.0354 45.1176 43.075 45.1176V34.3529C31.9879 34.3529 23 43.1887 23 54.0882H33.95Z" fill="black"/>
<path d="M96 112C110.359 112 122 100.583 122 86.5C122 72.4167 110.359 61 96 61C81.6406 61 70 72.4167 70 86.5C70 100.583 81.6406 112 96 112Z" stroke="black" stroke-width="12"/>
<path d="M58.7045 150.545H65.6151V166.852C65.6151 168.791 65.151 170.469 64.223 171.886C63.3033 173.295 62.0189 174.384 60.37 175.155C58.7211 175.917 56.8071 176.298 54.6278 176.298C52.4321 176.298 50.5097 175.917 48.8608 175.155C47.2119 174.384 45.9276 173.295 45.0078 171.886C44.0964 170.469 43.6406 168.791 43.6406 166.852V150.545H50.5511V166.256C50.5511 167.043 50.7251 167.747 51.0732 168.369C51.4212 168.982 51.9018 169.462 52.5149 169.81C53.1364 170.158 53.8407 170.332 54.6278 170.332C55.4233 170.332 56.1276 170.158 56.7408 169.81C57.3539 169.462 57.8345 168.982 58.1825 168.369C58.5305 167.747 58.7045 167.043 58.7045 166.256V150.545ZM68.9988 176V156.909H75.6608V160.538H75.8596C76.2077 159.196 76.7587 158.214 77.5127 157.593C78.275 156.971 79.1657 156.661 80.1849 156.661C80.4832 156.661 80.7774 156.685 81.0674 156.735C81.3657 156.777 81.6515 156.839 81.925 156.922V162.776C81.5853 162.66 81.1668 162.573 80.6697 162.515C80.1725 162.457 79.7458 162.428 79.3895 162.428C78.7183 162.428 78.1134 162.581 77.5748 162.887C77.0445 163.186 76.6261 163.608 76.3195 164.155C76.0129 164.694 75.8596 165.328 75.8596 166.057V176H68.9988ZM88.9318 183.159C88.1446 183.159 87.3948 183.097 86.6822 182.973C85.9696 182.857 85.344 182.695 84.8054 182.488L86.2969 177.616C86.8603 177.815 87.3741 177.943 87.8381 178.001C88.3104 178.059 88.7122 178.026 89.0437 177.902C89.3834 177.777 89.6278 177.541 89.777 177.193L89.9261 176.845L83.2145 156.909H90.3736L93.456 170.134H93.6548L96.7869 156.909H103.996L97.0355 177.591C96.6875 178.643 96.1821 179.588 95.5192 180.425C94.8646 181.27 94.0028 181.937 92.9339 182.426C91.8651 182.915 90.531 183.159 88.9318 183.159ZM112.808 165.261V176H105.947V156.909H112.46V160.538H112.659C113.073 159.329 113.802 158.38 114.846 157.692C115.899 157.004 117.125 156.661 118.525 156.661C119.876 156.661 121.048 156.971 122.043 157.593C123.045 158.206 123.82 159.051 124.367 160.128C124.922 161.205 125.195 162.436 125.187 163.82V176H118.326V165.261C118.335 164.317 118.094 163.575 117.605 163.037C117.125 162.498 116.454 162.229 115.592 162.229C115.029 162.229 114.536 162.353 114.113 162.602C113.699 162.842 113.38 163.19 113.156 163.646C112.932 164.093 112.816 164.632 112.808 165.261ZM134.49 156.909L137.274 162.825L140.208 156.909H147.019L141.898 166.455L147.267 176H140.506L137.274 169.935L134.142 176H127.281L132.7 166.455L127.629 156.909H134.49Z" fill="black"/>
<path d="M116.925 64.4874C119.655 62.0002 123.709 61.2317 126.749 58.9519C128.872 57.3596 130.832 55.7554 132.44 53.6112C133.595 52.0723 133.667 51.857 131.583 51.857C129.431 51.857 127.516 52.2182 125.423 52.6367C124.228 52.8757 122.859 52.7052 121.72 53.085C120.845 53.3765 119.841 54.1551 119.011 54.2934C118.29 54.4136 117.531 54.1221 116.925 54.6638C115.36 56.0639 119.376 54.7534 119.79 54.6053C122.572 53.612 125.337 52.3675 127.373 50.1808C128.284 49.2024 124.605 48.1706 123.942 47.9977C121.837 47.4486 119.768 47.137 118.173 45.5418C116.42 43.7893 116.184 40.3889 114.976 38.1936C114.174 36.7354 111.632 36.9386 110.181 36.5758C108.832 36.2385 107.369 36.4815 105.991 36.4004C102.454 36.1924 98.9124 36.0344 95.3873 35.6987C92.4973 35.4235 89.6508 35.3674 86.7137 35.3674C82.9143 35.3674 78.8003 34.9854 75.0189 35.4453C72.7364 35.7229 72.0002 40.8161 71.0427 42.5012C69.7533 44.7705 68.8326 48.004 68.5283 50.5901C68.3407 52.185 68.5088 53.9229 68.5088 55.5214C68.5088 56.3834 68.3614 60.3247 68.9376 60.901C69.2499 61.2132 74.4026 59.8058 75.1749 59.4196C77.1092 58.4525 79.1229 58.4566 81.2172 57.6654C88.4627 54.9282 96.9685 58.0058 104.295 55.7163C104.876 55.5347 109.753 55.1633 109.499 53.7672C109.075 51.433 106.131 50.0025 104.295 49.1282C100.397 47.2719 94.361 48.3486 90.0857 48.3486C88.3561 48.3486 86.2928 48.908 84.5307 49.1282C82.9588 49.3247 81.4351 49.3115 79.8528 49.4206C77.7552 49.5653 75.3835 49.6282 73.7715 51.1553C71.8933 52.9347 71.0148 57.5923 70.5359 60.0823C69.9705 63.0225 68.8391 65.478 67.3004 67.9958C64.0277 73.3511 61.0112 78.7616 57.7106 84.1346C56.3163 86.4044 55.8785 89.4736 55.8785 92.1261C55.8785 94.4602 54.5421 95.6093 56.2293 97.7785C57.6051 99.5474 59.855 100.391 61.492 102.028C62.4936 103.029 62.2931 101.717 62.4665 100.741C62.6988 99.4345 62.5445 97.9693 62.5445 96.648C62.5445 95.0314 63.0533 92.5008 62.3691 90.9956C61.9009 89.9657 60.409 90.7525 59.7377 91.2295C57.8417 92.5766 57.205 93.7462 56.3852 95.9074C54.7311 100.268 55.5276 105.58 55.5276 110.175C55.5276 111.621 54.9036 112.851 54.6505 114.268C54.3977 115.684 54.2918 117.664 53.4031 118.849C52.3121 120.303 51.4222 121.902 50.4404 123.429C49.6936 124.591 45.3245 127.047 43.8718 126.509C42.4239 125.972 41.1812 124.169 40.1295 123.117C38.8827 121.87 39.1491 120.939 38.6871 119.297C37.7081 115.816 36.5821 112.546 36.5821 108.85C36.5821 102.825 36.7351 96.8709 35.9194 90.9566C34.8224 83.0037 34.956 74.7659 35.1787 66.7484C35.229 64.9373 36.5155 62.8814 36.855 61.0569C37.2204 59.0924 37.8845 57.1352 38.3168 55.19C38.5409 54.1817 39.3203 53.7315 39.6617 52.8316C40.1062 51.6598 40.2332 51.0127 41.143 50.1028C42.5441 48.7017 44.9744 48.0674 46.9125 47.6664C49.4162 47.1484 51.835 46.2927 54.2997 45.6978C55.0971 45.5053 56.3032 44.713 56.931 45.6198C57.7431 46.7928 57.6327 48.1231 57.6327 49.4791C57.6327 51.0203 58.015 53.2585 57.5547 54.7417C56.7551 57.3183 54.4261 59.9754 52.5455 61.8561C51.8304 62.5711 51.2854 63.5123 50.6938 64.3315C50.5003 64.5993 48.9043 67.3183 48.9006 67.3136C48.2361 66.483 49.2672 62.7165 49.4853 61.6806C49.7241 60.5462 49.6935 59.7617 50.265 58.679C50.9833 57.3179 52.3568 56.2484 53.598 55.3849C55.1109 54.3325 55.1768 55.551 55.1768 56.8468C55.1768 60.4397 55.1768 64.0326 55.1768 67.6255C55.1768 74.1199 51.6646 80.6441 49.0175 86.4346C47.5924 89.552 47.8091 94.0321 47.8091 97.3497C47.8091 101.196 47.8091 105.042 47.8091 108.889C47.8091 110.805 47.305 109.163 47.1074 108.109C46.3826 104.244 45.8169 100.374 45.5286 96.4531C45.1297 91.0278 45.6641 85.6565 44.1057 80.4313C43.4982 78.3942 43.9498 75.7463 43.9498 73.6288C43.9498 69.4849 43.9498 73.7989 43.9498 75.5974C43.9498 83.7998 46.0579 91.836 47.0294 99.9616C47.2767 102.03 47.8284 104.023 48.3158 106.043C48.828 108.165 48.6124 110.47 49.0175 112.631C49.2183 113.701 49.6756 114.713 49.8362 115.789C49.9813 116.761 49.6755 117.996 50.0895 118.907C50.6493 120.139 50.265 116.206 50.265 114.853C50.265 109.265 50.265 103.678 50.265 98.0904C50.265 89.2803 50.265 80.4703 50.265 71.6602C50.265 71.2968 50.5088 69.7668 50.187 69.4772C49.07 68.4718 45.1039 70.0552 44.1447 70.6466C42.5325 71.6408 43.5989 78.6246 43.5989 80.0999C43.5989 84.9045 44.3825 89.4504 45.0023 94.1921C45.7977 100.277 48.1468 106.932 51.1226 112.358C52.8737 115.551 53.7968 119.928 57.5937 121.149C59.9806 121.916 62.2603 122.727 64.8055 122.727C69.3402 122.727 71.2927 116.033 72.4851 112.455C72.595 112.126 73.3375 109.781 72.9918 109.473C72.3199 108.876 72.3681 111.893 72.3681 112.046C72.3681 113.864 71.5807 116.061 73.7715 116.061C75.5082 116.061 79.5742 116.184 80.9833 117.465C81.8814 118.281 84.135 118.049 85.2714 118.244C87.2211 118.58 88.8554 119.717 90.8849 119.901C92.8912 120.084 96.0893 119.434 97.6288 120.973C99.0955 122.44 96.3409 124.75 95.4458 125.612C93.6569 127.335 91.8539 127.949 89.6374 128.77C87.4419 129.583 84.6907 130.041 82.2697 130.095C80.0375 130.145 77.8329 130.355 75.6427 130.816C72.9301 131.387 70.3426 131.26 67.6317 131.518C65.7324 131.699 63.8332 132.158 61.9208 132.2C61.6082 132.207 59.6278 132.369 60.7513 131.83C62.7924 130.85 65.306 130.578 67.4563 129.822C69.2079 129.207 71.121 129.006 72.9529 128.77C76.7627 128.278 80.8812 128.692 84.7061 128.692C91.2877 128.692 97.8692 128.692 104.451 128.692C111.143 128.692 117.835 128.692 124.527 128.692C128.975 128.692 133.682 129.101 138.093 128.341C139.718 128.061 141.158 127.639 142.829 127.639C144.902 127.639 146.974 127.639 149.047 127.639C149.939 127.639 151.643 128.038 152.01 126.977C152.915 124.355 153.556 121.346 153.842 118.595C154.31 114.089 155.377 109.686 155.791 105.185C156.063 102.229 155.869 99.1895 155.869 96.2192C155.869 88.678 154.115 81.3982 154.115 73.8432C154.115 68.6276 153.561 63.3398 153.043 58.1527C152.876 56.4826 152.648 54.9007 151.834 53.4358C151.213 52.3176 149.131 52.0918 147.975 52.7341C146.792 53.391 145.223 53.467 144.408 52.5782C143.639 51.7389 141.791 52.2397 140.783 51.5062C140.159 51.0526 138.614 51.8614 137.976 52.2079C135.429 53.5903 136.222 57.6909 136.222 60.0044C136.222 63.4154 136.222 66.8263 136.222 70.2373C136.222 73.8209 137.979 77.2741 138.327 80.8406C138.623 83.8802 139.007 86.8808 139.028 89.943C139.051 93.1741 138.758 96.4946 139.301 99.6887C139.902 103.217 139.379 107.13 139.379 110.721C139.379 111.732 140.769 116.62 140.939 116.412C142.461 114.552 142.182 110.979 142.361 108.752C142.581 106.03 142.537 103.315 142.537 100.585C142.537 91.4005 142.186 82.2174 142.186 73.0246C142.186 70.6603 142.034 68.1925 142.439 65.8518C142.558 65.1694 144.219 62.5267 142.966 62.6162C140.861 62.7665 137.823 63.29 136.397 65.0331C134.826 66.9536 133.602 68.3289 131.583 69.75C127.717 72.4705 128.854 80.1659 128.854 84.2711C128.854 95.7255 128.854 130.089 128.854 118.634C128.854 115.789 129.105 112.81 128.815 109.98C128.592 107.807 126.954 109.19 126.047 110.097C123.783 112.361 121.607 114.762 119.245 116.919C117.446 118.561 115.167 119.488 113.066 120.7C111.769 121.448 111.002 122.026 109.558 122.026C108.799 122.026 108.182 122.331 107.452 122.377C106.034 122.465 110.205 121.665 111.585 121.324C114.564 120.589 117.539 120.412 120.512 119.843C122.892 119.387 125.057 118.11 127.451 117.679C129.849 117.247 137.197 117.465 134.76 117.465C133.125 117.465 131.625 117.671 130.023 117.991C127.342 118.527 124.562 118.526 121.915 119.219C119.694 119.801 117.77 120.782 115.463 121.012C113.622 121.196 112.098 121.675 110.22 121.675C107.232 121.675 104.487 121.69 101.566 122.299C98.5545 122.926 95.6036 123.741 92.5806 124.345C91.4908 124.563 90.3156 125.664 89.2086 125.534C88.3067 125.428 89.7289 122.597 90.1247 122.201C91.1413 121.185 92.5211 120.792 93.7501 120.116C95.6357 119.078 98.106 119.17 99.9288 118.011C101.785 116.829 105.243 116.827 107.375 116.763C108.955 116.716 110.435 116.061 112.013 116.061" stroke="black" stroke-opacity="0.2" stroke-width="17" stroke-linecap="round"/>
</svg>
