<svg width="192" height="192" viewBox="0 0 192 192" fill="none" xmlns="http://www.w3.org/2000/svg">
<path d="M96 170C136.869 170 170 136.869 170 96C170 55.1309 136.869 22 96 22C55.1309 22 22 55.1309 22 96C22 136.869 55.1309 170 96 170Z" stroke="black" stroke-width="12" stroke-linecap="round" stroke-linejoin="round"/>
<path d="M78 68L126 96L78 124" stroke="black" stroke-width="12" stroke-linecap="round" stroke-linejoin="round"/>
<path d="M75.8433 160.122C76.0559 157.783 77.2465 155.136 78.0376 152.943C78.8283 150.752 79.9071 148.647 80.9322 146.559C82.7644 142.827 84.3402 138.725 85.8811 134.84C86.9418 132.166 88.1089 128.86 90.9466 127.604C93.2949 126.565 95.7802 125.833 98.1015 124.721C99.1228 124.232 100.165 123.885 101.218 123.472C101.971 123.177 103.503 122.194 104.358 122.445C105.354 122.738 104.994 125.523 104.941 126.11C104.657 129.233 103.903 132.504 102.805 135.447C101.566 138.769 99.172 141.602 96.8759 144.248C95.3602 145.994 94.4096 148.275 92.6624 149.804C91.9013 150.47 90.7044 150.841 89.8495 151.414C88.3837 152.397 86.6722 153.371 85.5893 154.788C84.7058 155.943 82.6876 158.123 85.2041 158.231C86.7125 158.295 88.2681 158.797 89.7911 158.966C90.6544 159.062 91.504 159.071 92.3706 159.071C94.8217 159.071 97.2728 159.071 99.7238 159.071C102.258 159.071 104.264 158.05 106.587 157.227C108.14 156.677 109.693 156.089 111.232 155.5C112.613 154.971 114.205 154.332 115.644 154.029C116.502 153.848 117.118 153.216 117.955 152.978C118.863 152.721 119.647 152.275 120.57 152.045C122.51 151.559 124.678 151.062 126.522 150.341C128.235 149.67 129.615 148.856 131.214 147.936C132.214 147.361 133.108 146.435 134.027 145.73C134.933 145.036 135.979 144.315 136.782 143.513C138.81 141.485 141.109 139.761 143.073 137.618C144.73 135.811 146.111 133.792 147.835 132.039C148.803 131.056 149.426 129.973 150.134 128.806C151.915 125.874 153.568 122.877 154.231 119.48C154.382 118.707 154.753 118 154.92 117.228C155.183 116.014 155.259 114.768 155.515 113.551C155.943 111.515 156.136 109.41 156.355 107.342C156.743 103.683 157.188 100.018 158.06 96.4635C159.05 92.4249 159.126 88.1065 159.764 84.0097C160.294 80.5997 159.88 76.8476 159.88 73.4C159.88 71.0586 158.523 69.31 157.99 67.1205C157.548 65.3082 156.527 64.0369 155.842 62.3818C155.32 61.1213 153.934 59.8439 152.994 58.9036C152.396 58.3054 151.808 57.7092 151.162 57.1645C150.641 56.7264 149.638 56.1079 149.271 55.5771C146.834 52.0575 144.411 48.7076 140.132 47.5119C135.003 46.0789 129.631 44.8094 124.69 42.7965C123.452 42.2922 122.431 41.4907 121.27 40.8356C120.431 40.3625 119.532 39.9369 118.889 39.2132C117.708 37.8851 115.375 37.7847 113.753 37.5208C110.712 37.0258 107.785 36.3537 104.708 36.1552C102.69 36.025 100.638 35.4504 98.6267 35.1631C97.3536 34.9812 96.0378 35.1009 94.7516 34.953C93.0562 34.7581 91.6482 34.4861 89.9195 34.4861C88.1999 34.4861 86.4802 34.4861 84.7606 34.4861C82.0571 34.4861 79.3123 35.2851 76.6837 35.8401C73.3772 36.5381 69.8512 38.1242 66.856 39.6217C59.1279 43.4858 52.9671 49.3462 48.3679 56.6159C47.071 58.6658 45.4943 60.6776 44.0726 62.6386C43.5796 63.3187 42.8733 63.8936 42.532 64.6695C42.1017 65.6473 41.6311 66.6652 41.073 67.5757C39.6062 69.9689 39.0815 72.9495 37.7232 75.4192C36.8304 77.0424 36.6967 78.7953 36.0891 80.4964C35.3049 82.6921 34.9186 84.9647 34.245 87.1961C33.9928 88.0314 34.1244 88.8731 33.8248 89.6822C33.5417 90.4465 33.4183 91.6022 33.4046 92.425C33.3503 95.6821 33.013 99.2057 34.1516 102.311C34.7898 104.052 35.5882 105.705 36.0424 107.563C36.4329 109.161 37.0427 110.707 37.5364 112.267C37.9963 113.721 38.2546 115.265 38.8203 116.679C39.8301 119.203 40.3867 121.883 41.3414 124.429C41.8437 125.769 42.6758 127.022 43.0689 128.398C44.0069 131.681 45.9404 134.923 47.6909 137.84C49.7208 141.223 52.2527 144.597 54.694 147.691C58.0363 151.927 61.9794 155.051 67.4629 155.99C68.9049 156.236 71.085 156.175 72.3418 155.243C73.733 154.211 74.3837 151.495 75.073 149.979C76.1141 147.688 77.4904 145.69 79.3448 143.944C85.0029 138.619 92.4465 134.976 99.9923 133.346C100.612 133.213 105.481 131.795 105.84 132.483C106.733 134.195 106.517 136.858 106.517 138.715C106.517 140.9 106.635 143.135 106.517 145.322C106.468 146.217 105.528 146.637 104.976 147.189C103.917 148.248 107.586 145.72 108.921 145.042C110.697 144.139 112.649 143.622 114.465 142.801C115.888 142.157 117.28 141.399 118.679 140.7C120.789 139.644 122.987 138.817 125.168 137.922C126.821 137.243 128.44 136.487 130.082 135.786C131.563 135.153 132.794 134.634 133.595 133.16C134.749 131.038 134.989 128.162 135.72 125.865C136.697 122.793 136.904 119.625 137.634 116.504C138.144 114.322 138.754 112.143 139.408 110.003C139.966 108.177 140.005 106.299 140.657 104.459C141.462 102.186 141.849 99.8641 142.443 97.5373C142.781 96.211 143.209 94.9314 143.657 93.6389C143.966 92.7466 144.33 90.3818 145.139 89.7755C145.464 89.5319 145.366 90.5612 145.396 90.966C145.675 94.7376 145.344 91.3148 145.746 95.9966C146.358 103.125 146.814 110.17 146.855 117.333C146.87 120.025 146.855 122.717 146.855 125.41C146.855 127.22 146.855 124.058 146.855 123.962C146.855 114.189 146.855 104.416 146.855 94.6427C146.855 90.6037 146.044 86.6681 145.361 82.6907C144.593 78.2223 144.319 73.6222 143.657 69.1514C143.534 68.3261 143.241 67.5434 143.061 66.7354C143.044 66.6566 142.95 66.3996 142.875 66.3619C142.77 66.3097 142.869 66.5954 142.875 66.712C142.935 68.0109 143.13 69.2783 143.4 70.552C144.08 73.7709 145.19 76.9198 145.804 80.1463C146.011 81.2326 147.065 77.9884 147.065 77.4267C147.065 74.0613 147.252 70.2201 145.489 67.2373C144.897 66.2349 144.532 65.1387 143.867 64.1792C142.738 62.5515 141.549 61.8098 139.922 60.701C137.896 59.3207 135.772 58.6082 133.525 57.6547C128.954 55.7141 124.461 53.624 119.683 52.2273C115.646 51.0473 111.623 50.3155 107.462 49.8112C103.799 49.3672 100.225 48.9825 96.5374 48.9825C91.5193 48.9825 86.3838 48.6738 81.3991 49.286C77.563 49.7571 73.7838 50.4903 70.1708 51.9355C68.2793 52.6921 66.689 53.7692 64.9418 54.7951C62.7682 56.0714 60.9248 57.6604 58.8258 59.0203C55.5704 61.1294 53.8483 64.608 52.6864 68.241C51.8123 70.9745 51.2642 73.7687 50.7956 76.598C49.3126 85.5528 47.8352 94.5353 46.5821 103.525C45.8189 109 45.5545 114.793 47.8076 119.982C49.284 123.382 51.1695 126.523 53.5035 129.401C54.7544 130.944 56.2058 132.317 57.4485 133.86C58.4957 135.16 59.5354 136.88 60.8567 137.898C62.0011 138.78 63.1536 138.944 64.545 139.229C65.2436 139.372 66.0374 139.349 66.751 139.311C68.8609 139.197 71.3747 138.603 73.3455 137.875C75.5159 137.073 77.7178 136.413 79.9401 135.762C82.4193 135.037 79.882 137.98 79.2515 138.762C77.845 140.507 76.312 141.124 74.326 141.937C73.0997 142.439 71.8441 142.702 70.5793 143.104C69.0461 143.592 67.4364 143.435 65.8989 143.839C64.4995 144.208 66.1706 140.329 66.3891 139.859C67.2858 137.932 67.913 135.914 69.0036 134.082C70.4534 131.646 70.591 130.115 70.591 127.347C70.591 124.725 70.5674 122.102 70.591 119.48C70.6155 116.754 71.4202 114.249 71.7465 111.567C72.1826 107.981 72.7167 104.393 73.2405 100.817C74.1266 94.7683 74.7928 88.9003 74.7928 82.7841C74.7928 77.1349 74.7928 71.4858 74.7928 65.8366C74.7928 64.1162 74.8426 62.386 74.7812 60.666C74.7404 59.5256 74.0084 59.8092 73.1588 60.2108C71.7603 60.8719 70.1988 62.2882 69.2254 63.5139C67.5146 65.6682 67.2321 69.2551 66.6926 71.8359C65.7631 76.283 65.3623 80.8565 64.615 85.3402C64.2184 87.7198 64.0629 90.1171 63.8564 92.5184C63.2832 99.1808 62.6635 105.84 62.0706 112.501C61.8543 114.929 61.4296 119.749 61.1368 122.328C61.0156 123.397 60.8794 124.464 60.7166 125.526C60.5749 126.452 60.2787 128.869 59.6895 128.141C58.6768 126.89 57.3799 120.617 57.3552 120.507C56.0795 114.866 55.0915 109.158 54.5539 103.397C53.9378 96.7941 54.0446 89.9888 54.3205 83.3677C54.4381 80.5444 54.6488 76.4015 56.5615 74.1003C58.9542 71.2216 63.6577 70.2884 67.1361 69.3965C68.6724 69.0026 70.2636 68.5866 71.7582 68.0543C76.0126 66.539 80.375 65.4119 84.7139 64.1559C90.0024 62.625 95.0655 62.2184 100.553 62.2184C104.965 62.2184 109.401 62.1058 113.812 62.23C117.041 62.321 120.305 63.0973 123.324 64.2259C128.115 66.0166 133.606 68.6304 136.887 72.688C141.575 78.486 141.535 85.9712 140.493 93.0436C139.87 97.2801 138.136 101.693 136.327 105.567C135.343 107.674 134.193 109.765 132.93 111.719C131.34 114.178 129.226 116.232 127.363 118.477C124.983 121.343 123.156 124.605 120.593 127.324C118.211 129.851 115.526 132.013 112.399 133.556C110.355 134.565 110.465 131.336 110.404 130.102C110.278 127.566 110.326 125.05 111.116 122.608C111.848 120.344 113.115 118.283 114.279 116.224C116.074 113.047 117.844 109.993 119.893 106.968C122.36 103.326 125.783 100.379 128.11 96.6736C130.599 92.7085 130.944 88.2692 130.888 83.6945C130.857 81.1906 129.249 79.839 126.966 79.0258C125.577 78.5312 124.128 78.2729 122.694 77.952C118.372 76.9848 114.057 75.9786 109.738 74.999C106.017 74.1549 102.392 73.0472 98.7084 72.0694C97.0029 71.6167 95.2052 71.4188 93.5378 70.8322C89.3967 69.3751 85.3834 67.5752 82.5196 64.2259C81.6587 63.2191 81.6089 62.4508 81.7609 61.1329C82.0179 58.9057 82.9373 56.3468 84.0252 54.3749C84.8422 52.8942 84.9125 53.9773 85.811 55.1919C91.4086 62.759 98.8354 68.9128 106.085 74.8356C109.421 77.5611 112.331 80.6779 115.574 83.5078C117.61 85.2843 119.758 86.9342 121.76 88.7484C122.839 89.7256 123.745 90.9433 124.888 91.8414C124.938 91.8805 125.947 92.6499 126.009 92.5884C126.065 92.5321 122.974 90.679 122.822 90.5926C119.966 88.9604 117.595 86.4829 114.664 85.0251C112.578 83.9879 110.346 83.2772 108.058 82.8541C102.014 81.737 95.8418 81.2814 89.7678 80.333C87.0961 79.9159 84.4329 79.5057 81.7959 78.9091C79.8101 78.4597 81.4031 79.4178 82.2978 79.9362C90.1553 84.4885 97.956 89.0744 106.283 92.7052C106.98 93.0088 108.907 93.671 108.198 93.9424C105.587 94.9403 102.621 95.3975 99.9339 96.16C94.1002 97.8152 89.3514 100.915 84.177 103.957C83.8255 104.163 82.894 104.608 83.2666 104.774C84.7511 105.434 88.735 101.993 89.546 101.389C94.9637 97.3566 99.0455 92.4491 103.482 87.4762C103.98 86.9186 104.448 86.2999 104.976 85.7721C105.311 85.4375 104.411 86.5308 104.136 86.9159C101.861 90.1036 99.5558 93.2621 97.2027 96.3934C93.9799 100.682 91.0257 105.188 87.7719 109.443C87.1945 110.198 86.8374 111.5 86.6047 112.431C86.292 113.681 84.9394 114.357 83.9085 115.068C83.3862 115.429 80.0695 118.399 79.7417 117.239C78.9603 114.474 79.2207 111.217 79.2048 108.392C79.1828 104.479 79.0913 100.538 79.2398 96.6269C79.3693 93.2175 80.0983 90.1721 81.6559 87.126C82.5248 85.4266 84.3553 81.2946 85.3325 85.3986C86.4526 90.1029 85.8119 95.2352 84.9823 99.93C84.6633 101.736 84.5082 102.337 84.0252 103.875C83.6413 105.098 84.1878 104.222 84.7139 103.513C87.7511 99.4217 90.2978 94.9813 92.9308 90.6276C94.0279 88.8136 94.7498 86.4581 97.1093 86.3907C97.8272 86.3702 98.9494 86.1934 99.6305 86.5191C100.717 87.0389 99.8245 89.6125 99.7005 90.1607C98.4677 95.609 96.8037 100.952 95.2535 106.314C94.93 107.434 93.9113 110.186 93.9113 111.38" stroke="black" stroke-opacity="0.25" stroke-width="15" stroke-linecap="round"/>
</svg>
