<svg width="192" height="192" viewBox="0 0 192 192" fill="none" xmlns="http://www.w3.org/2000/svg">
<path d="M60 60.176V44C60 37.352 65.352 32 72 32H120C126.648 32 132 37.352 132 44V60.176H60ZM82 88L116 110L82 132V88ZM170 110C170 65 165.038 60.001 120 60H72C26.962 60.0011 22 65 22 110C22 155 26.9618 159.999 72 160H120C165.038 159.999 170 155 170 110Z" stroke="black" stroke-width="12" stroke-linecap="round" stroke-linejoin="round"/>
<path d="M51.1772 146.124C51.3703 146.414 52.1985 146.482 52.4945 146.557C53.8179 146.892 55.1679 146.838 56.515 147.01C59.4 147.376 62.1569 147.483 65.0638 147.483C66.9379 147.483 68.708 147.486 70.5525 147.805C73.0205 148.233 75.4214 148.224 77.9212 148.224C78.1774 148.224 79.0467 148.375 79.2659 148.155C79.4649 147.956 79.5504 147.131 79.609 146.838C79.7322 146.222 79.6632 145.384 79.9109 144.821C80.1618 144.251 80.768 143.808 81.2831 143.504C81.9284 143.122 82.5601 142.984 83.2179 142.667C84.0553 142.262 84.8897 142.302 85.7839 142.077C88.0641 141.501 90.2215 141.054 92.1783 139.675C96.1841 136.853 100.727 134.721 104.233 131.216C107.289 128.16 110.793 125.69 114.271 123.161C114.81 122.768 115.324 122.382 115.835 121.946C116.359 121.5 116.926 120.772 117.564 120.499C118.948 119.906 120.083 118.912 121.228 117.967C123.873 115.782 123.387 112.176 125.056 109.446C125.819 108.198 126.749 106.849 127.155 105.425C127.555 104.027 127.251 102.184 127.251 100.732C127.251 99.7284 127.054 98.7823 126.908 97.7959C126.853 97.4181 126.86 96.9516 126.572 96.6638C126.264 96.3554 125.963 96.0373 125.646 95.7376C124.843 94.978 123.675 94.8184 122.655 94.5575C122.032 94.3982 121.58 94.0886 120.912 94.1321C119.991 94.1922 120.068 95.4213 119.842 96.0532C119.392 97.305 119.662 98.3457 119.965 99.5592C120.012 99.7472 120.09 99.809 119.883 99.6346C119.275 99.1237 118.761 98.5155 118.154 98.0017C117.016 97.0389 115.88 96.1178 114.771 95.1201C113.106 93.621 111.509 92.1643 109.379 91.3123C108.92 91.1286 108.452 90.9618 107.986 90.7977C107.388 90.5875 107.576 90.8054 107.876 91.3329C109.461 94.1223 112.299 96.1173 114.861 97.94C115.882 98.6664 116.745 99.5364 117.715 100.321C118.871 101.256 120.228 101.938 121.502 102.695C122.44 103.252 123.383 103.793 124.192 104.533C125.087 105.354 126.293 105.888 127.251 106.66C128.183 107.411 129.099 108.158 129.996 108.952C131.792 110.541 133.096 112.574 134.785 114.262C135.301 114.779 134.315 113.121 134.215 112.952C132.922 110.74 131.325 108.696 129.708 106.715C128.587 105.343 127.367 104.289 126.085 103.086C124.591 101.682 123.245 100.401 121.502 99.2847C120.024 98.338 118.417 97.393 116.809 96.6844C115.29 96.0147 113.694 95.5391 112.253 94.6947C111.238 94.0998 110.41 93.5967 109.516 92.8354C106.927 90.6302 104.102 88.7477 101.152 87.0516C99.5739 86.144 97.9659 85.2852 96.4046 84.3484C94.7143 83.3342 92.8298 82.8151 91.0256 82.0569C89.6611 81.4833 88.1708 81.2994 86.8473 80.6229C86.1594 80.2713 85.4109 80.0646 84.6998 79.7378C83.5277 79.1993 82.1369 79.0874 80.8851 78.8665C79.2934 78.5856 77.7738 77.804 76.1648 77.6109C74.9463 77.4647 74.7068 77.5385 74.0996 78.6126C73.8225 79.103 73.5048 79.6324 73.2832 80.1495C73.0966 80.585 72.7828 80.9995 72.5422 81.4119C72.1835 82.0269 72.017 82.6852 71.7326 83.333C71.2166 84.5083 71.1116 85.9386 70.7584 87.1751C70.5015 88.0742 70.1048 88.9943 69.9625 89.9195C69.8261 90.8062 69.9488 91.816 69.9488 92.7119C69.9488 94.4706 69.9488 96.2293 69.9488 97.988C69.9488 99.5647 69.8569 101.359 69.4548 102.887C68.6731 105.857 69.0843 109.237 69.0843 112.286C69.0843 113.242 69.362 114.25 69.5234 115.195C69.6983 116.22 69.8187 117.211 70.0174 118.228C70.1885 119.104 70.2079 120.054 70.3193 120.945C70.4346 121.867 70.6917 122.773 70.7858 123.703C71.0881 126.693 71.8012 129.652 71.8012 132.67C71.8012 133.532 71.8012 134.395 71.8012 135.257C71.8012 135.886 72.0569 137.191 71.6709 137.706C71.4122 138.051 70.6251 138.074 70.2506 138.152C68.442 138.527 66.6965 138.665 64.906 139.202C63.0121 139.77 61.191 139.981 59.2457 140.293C57.3337 140.599 55.4246 141.013 53.503 141.246C51.849 141.448 50.1295 141.574 48.5151 141.994C47.6831 142.211 46.7062 142.409 45.908 142.721C44.4293 143.3 44.3848 144.446 44.3848 145.85C44.3848 146.358 43.9223 146.71 43.589 147.044C43.1125 147.52 41.9967 146.72 41.5444 146.522C40.603 146.111 39.6771 145.695 38.6971 145.384C38.1511 145.21 37.3294 145.075 36.9475 144.588C35.9774 143.35 35.3375 141.854 35.1774 140.3C34.8719 137.332 34.7858 134.36 34.3061 131.408C33.8181 128.405 33.0231 125.417 33.0231 122.358C33.0231 115.945 33.0231 109.533 33.0231 103.12C33.0231 100.152 33.2475 97.1736 33.4896 94.2145C33.5869 93.0259 33.9239 91.893 34.0728 90.7017C34.2103 89.6017 34.3698 88.5162 34.5325 87.4221C34.7567 85.9135 34.955 84.4689 35.493 83.0448C35.7102 82.4698 36.0066 81.9713 36.1723 81.3639C36.3809 80.5988 36.5011 79.6496 36.8515 78.9488C37.2356 78.1806 37.524 77.3667 37.963 76.623C38.3162 76.0244 38.883 75.5911 39.3214 75.0587C39.6087 74.7098 40.1122 74.6814 40.529 74.5921C41.2391 74.4399 41.9452 74.1799 42.6216 73.9198C43.6329 73.5308 44.3904 73.0278 45.4414 72.8357C46.5046 72.6414 47.3592 72.0167 48.3985 71.7791C51.1191 71.1573 53.7267 70.347 56.5562 70.1805C57.637 70.117 58.7025 69.8213 59.7808 69.8032C61.4448 69.7752 63.1113 69.8032 64.7756 69.8032C65.6675 69.8032 66.5594 69.8032 67.4514 69.8032C68.0616 69.8032 68.2441 69.7655 67.4788 70.057C64.722 71.1073 64.2972 73.9758 62.9643 76.3005C61.2736 79.2494 60.5843 82.7789 59.6299 86.0088C58.0411 91.3854 56.8239 96.7245 55.9524 102.269C55.104 107.667 54.4694 113.099 53.7569 118.516C53.4084 121.166 53.326 123.784 53.2012 126.447C53.0872 128.878 52.708 131.285 52.5562 133.713C52.5374 134.014 52.3904 134.934 52.5631 135.216C52.9368 135.825 57.1015 133.297 57.4618 133.089C61.5629 130.715 66.9077 126.767 66.8613 121.384C66.8411 119.034 65.2277 116.861 63.8974 115.058C63.3434 114.307 62.8356 113.389 61.8803 113.11C60.8739 112.815 59.8145 113.357 59.0124 113.919C57.1292 115.239 55.5783 117.197 54.3607 119.12C52.2109 122.514 50.5724 126.21 48.6798 129.747C48.1132 130.806 47.5904 132.358 46.498 132.993C44.9522 133.891 42.8832 134.33 41.1259 134.584C40.0763 134.736 40.6124 131.376 40.6387 130.962C40.9757 125.667 42.5257 120.549 43.9594 115.47C45.1702 111.18 46.6319 106.998 47.1635 102.557C47.5843 99.0426 47.909 95.5227 48.4328 92.019C48.6945 90.2686 49.0069 88.523 49.2492 86.7703C49.316 86.2875 49.2536 85.3623 49.5511 84.9247C49.9533 84.3333 50.9904 84.0764 51.5888 83.7584C52.9257 83.0479 54.2988 82.2789 55.5407 81.4119C56.0979 81.023 56.6347 80.8805 57.1188 80.3965C57.7572 79.7581 58.3383 79.1829 59.0261 78.5989C59.9801 77.789 60.335 76.5994 61.1805 75.731C62.4222 74.4557 64.4697 74.0125 65.5029 72.5201C65.8313 72.0456 65.9982 71.5946 66.484 71.2303C67.2968 70.6206 68.315 70.5878 69.3038 70.5442C70.4399 70.494 71.5607 70.0929 72.7274 70.057C74.1693 70.0127 75.6471 69.9849 77.0842 69.8718C79.4489 69.6857 81.7237 69.4327 84.1166 69.4327C86.6621 69.4327 89.2075 69.4327 91.7529 69.4327C98.7675 69.4327 105.805 69.2786 112.816 69.4327C114.783 69.4759 116.766 69.8754 118.737 69.9816C119.8 70.0388 120.915 69.9436 121.969 70.1051C122.799 70.2323 123.592 70.4108 124.439 70.4207C127.471 70.4559 130.596 70.1761 133.605 70.6059C136.221 70.9796 138.933 70.3619 141.55 70.798C143.818 71.1761 146.326 71.6122 148.129 73.1582C148.993 73.898 149.756 74.7813 150.565 75.5801C151.24 76.2463 152.013 76.7556 152.568 77.5286C153.639 79.0202 154.526 80.6207 155.615 82.1117C156.064 82.7268 156.503 83.1725 156.829 83.875C157.172 84.6134 157.327 85.4446 157.481 86.242C157.835 88.0786 158.214 89.7984 158.4 91.6622C158.511 92.7689 158.726 93.8566 158.867 94.9486C159.039 96.2841 158.988 97.6737 159.265 98.9897C159.776 101.419 159.484 104.1 159.484 106.571C159.484 112.675 159.608 118.77 159.608 124.876C159.608 126.96 159.321 128.94 159.141 131.003C159.039 132.179 158.898 133.603 158.558 134.735C157.929 136.831 156.883 138.988 155.773 140.876C155.17 141.901 154.37 143.21 153.378 143.902C152.718 144.362 151.901 145.015 151.176 145.356C150.444 145.7 149.508 145.877 148.726 146.056C145.954 146.689 143.135 146.86 140.342 147.305C134.725 148.198 129.151 148.1 123.471 148.1C120.315 148.1 117.193 148.392 114.078 148.896C111.533 149.308 108.964 149.487 106.408 149.829C104.413 150.096 102.337 150.325 100.329 150.447C98.5791 150.553 96.859 150.896 95.1148 151.037C92.7751 151.225 90.4639 151.84 88.1166 151.929C87.9667 151.935 87.2255 152.145 87.5334 152.004C88.9506 151.356 90.4018 150.78 91.8284 150.152C92.9637 149.652 94.0305 149.07 95.1148 148.471C96.9889 147.436 99.028 146.736 100.974 145.85C103.804 144.562 106.728 143.462 109.536 142.138C109.722 142.051 110.285 141.808 110.085 141.857C108.994 142.126 107.904 142.42 106.82 142.715C104.116 143.449 101.428 144.23 98.7511 145.054C97.4749 145.447 96.1976 145.929 94.8746 146.152C93.8417 146.326 92.9139 146.401 91.9176 146.646C90.866 146.904 89.809 147.166 88.7615 147.435C87.1409 147.852 85.5914 148.537 83.9863 149.006C83.8827 149.036 81.313 149.625 82.7993 149.411C84.4348 149.175 86.0639 148.703 87.65 148.265C91.2991 147.259 94.9141 146.15 98.4698 144.848C103.055 143.17 107.589 141.267 111.979 139.126C113.745 138.265 115.513 137.131 117.44 136.67C119.324 136.219 121.267 135.99 123.162 135.579C124.562 135.276 125.918 134.869 127.3 134.502C128.711 134.128 130.077 133.591 131.519 133.336C133.158 133.045 134.858 132.932 136.514 132.746C138.608 132.51 140.777 132.681 142.881 132.663C144.355 132.651 146.567 132.837 147.814 131.867C149.483 130.569 149.697 128.121 149.975 126.2C150.52 122.432 150.345 118.64 150.345 114.839C150.345 110.361 150.345 105.883 150.345 101.405C150.345 98.8177 150.455 96.2022 150.325 93.6176C150.225 91.643 149.817 89.849 149.104 88.0122C148.624 86.7766 148.117 85.5744 147.821 84.2798C147.697 83.7382 147.583 82.9634 147.08 82.6194C145.649 81.6427 143.852 81.7824 142.208 81.7824C137.456 81.7824 132.824 82.6469 128.054 82.6469C123.549 82.6469 119.044 82.6469 114.538 82.6469C113.109 82.6469 111.825 82.3203 110.428 82.1255C109.16 81.9484 107.683 81.6957 106.477 81.2335C105.608 80.901 104.739 80.4541 103.814 80.3073C103.143 80.2008 102.035 80.3267 101.441 79.9986C101.014 79.7632 102.417 79.9211 102.902 79.9643C103.81 80.045 104.671 80.2106 105.516 80.5612C107.38 81.3344 109.103 82.4181 110.95 83.2301C114.127 84.6265 117.645 85.2933 120.987 86.1666C123.78 86.8962 126.582 87.6368 129.461 87.9298C130.297 88.015 131.117 88.2965 131.931 88.5062C133.735 88.9713 135.516 89.524 137.317 90.0018C137.423 90.03 138.171 90.0928 138.298 90.2557C138.473 90.4808 138.366 91.06 138.366 91.3054C138.366 92.1559 138.354 93.0073 138.366 93.8577C138.385 95.2365 138.777 96.5946 138.86 97.9743C138.952 99.4824 138.984 100.971 138.984 102.482C138.984 105.775 138.984 109.068 138.984 112.362C138.984 113.96 138.984 115.559 138.984 117.158C138.984 118.434 139.17 119.844 138.977 121.103C138.896 121.629 135.801 122.208 135.265 122.358C133.155 122.95 131.085 123.661 129.152 124.718C128.359 125.152 127.65 125.716 126.881 126.187C125.888 126.793 124.767 127.131 123.739 127.669C122.434 128.35 121.21 129.168 119.965 129.946" stroke="black" stroke-opacity="0.25" stroke-width="15" stroke-linecap="round"/>
</svg>
