<svg width="192" height="192" viewBox="0 0 192 192" fill="none" xmlns="http://www.w3.org/2000/svg">
<path d="M57.5 122H46C42.4444 122 39.3156 124.347 38.32 127.76L28.9867 159.76C27.4933 164.88 31.3333 170 36.6667 170H155.333C160.667 170 164.507 164.88 163.013 159.76L153.68 127.76C152.684 124.347 149.556 122 146 122H136.5" stroke="black" stroke-width="12" stroke-linecap="round" stroke-linejoin="round"/>
<path d="M103.651 25.039C101.344 17.4893 90.656 17.4893 88.3492 25.039L55.6722 131.982C54.786 134.882 55.8511 138.053 58.4504 139.615C69.4215 146.208 82.268 150 96 150C109.732 150 122.579 146.208 133.55 139.615C136.149 138.053 137.214 134.882 136.328 131.982L103.651 25.039Z" stroke="black" stroke-width="12" stroke-linecap="round" stroke-linejoin="round"/>
<path fill-rule="evenodd" clip-rule="evenodd" d="M66.7532 97.0657L63.0231 108.599C73.0244 113.346 84.209 116 96 116C107.564 116 118.545 113.447 128.398 108.871L125.085 97.147C116.339 101.531 106.465 104 96 104C85.47 104 75.5388 101.5 66.7532 97.0657ZM75.557 69.8435C76.3278 70.3553 77.1189 70.839 77.9287 71.293C83.2785 74.2921 89.4488 76 96 76C102.551 76 108.722 74.2921 114.071 71.293C115.155 70.6853 116.206 70.0244 117.219 69.3138L113.655 56.7017C112.041 58.3108 110.208 59.7016 108.203 60.8256C104.599 62.8459 100.444 64 96 64C91.5564 64 87.4005 62.8459 83.7968 60.8256C82.2428 59.9545 80.7921 58.923 79.4668 57.7539L75.557 69.8435Z" fill="black"/>
<path d="M48.5169 131.329C48.2185 132.858 48.0079 134.408 47.6343 135.931C47.101 138.105 47.0702 140.358 46.5941 142.535C46.1407 144.607 45.3164 146.587 44.829 148.665C44.6199 149.557 44.2616 150.471 44.2616 151.4C44.2616 152.115 44.2543 153.165 43.9149 153.795C43.7454 154.11 43.8287 154.559 43.7258 154.906C43.5712 155.428 43.4656 156.168 43.4106 156.719C43.3605 157.22 42.9851 157.51 42.9851 158.058C42.9851 158.595 42.6086 159.468 42.9535 158.295C43.4181 156.715 44.5958 154.998 45.9164 153.992C47.5587 152.741 48.6983 152.605 50.7075 152.605C53.457 152.605 56.1898 153.405 58.7768 154.323C63.0733 155.848 67.4459 156.9 71.9838 157.428C73.5374 157.609 75.1111 157.995 76.6725 157.995C77.925 157.995 79.3572 157.99 80.581 158.208C81.2342 158.325 81.8991 158.26 82.5589 158.287C83.4412 158.322 84.2678 158.638 85.1436 158.736C87.8073 159.035 90.4741 159.192 93.134 159.587C98.0904 160.322 102.959 160.407 107.956 160.407C112.75 160.407 117.544 160.407 122.338 160.407C125.605 160.407 129.326 160.922 132.479 159.902C134.649 159.2 137.062 158.807 138.965 157.475C140.605 156.327 141.649 154.667 142.7 153.015C143.154 152.301 142.96 151.432 143.299 150.698C143.699 149.831 143.615 149.047 143.771 148.129C144.076 146.345 144.446 144.555 144.544 142.739C144.616 141.402 144.686 140.061 144.686 138.705C144.686 138.316 144.686 137.927 144.686 137.539C144.686 136.468 144.443 137.466 144.37 137.996C144.144 139.652 143.378 141.341 142.408 142.684C140.994 144.643 138.357 145.571 136.459 146.995C135.547 147.679 134.586 148.501 133.984 149.485C133.581 150.145 133.412 150.877 132.992 151.526C132.754 151.893 131.171 153.167 131.274 153.535C131.333 153.75 133.351 153.598 133.598 153.598C134.489 153.598 135.19 153.887 136.033 154.134C137.808 154.655 139.715 154.702 141.423 155.434C141.863 155.623 142.402 155.755 142.873 155.836C143.745 155.986 144.448 156.365 145.253 156.719C146.275 157.169 147.168 157.598 148.09 158.2C148.388 158.395 148.927 158.615 149.138 158.909C149.154 158.932 147.903 159.177 147.743 159.209C145.715 159.609 143.316 159.272 141.25 159.272C139.768 159.272 138.287 159.272 136.805 159.272C127.633 159.272 118.461 159.272 109.288 159.272C104.505 159.272 99.7217 159.272 94.9385 159.272C93.0661 159.272 91.1923 159.293 89.32 159.272C87.2063 159.248 85.1199 158.879 83.0081 158.775C77.1932 158.49 71.3294 158.563 65.5064 158.563C60.7074 158.563 55.9084 158.563 51.1094 158.563C49.566 158.563 47.9539 158.415 46.4208 158.594C45.4924 158.703 44.639 158.988 43.6943 158.988" stroke="black" stroke-opacity="0.7" stroke-width="21" stroke-linecap="round"/>
<path d="M96.3176 28.4938C96.3176 36.9098 96.3176 45.3257 96.3176 53.7417C96.3176 54.5078 96.6172 56.2582 95.7187 56.547C95.1562 56.7278 94.4963 57.0652 93.9142 57.138C92.6504 57.296 94.974 57.782 95.3247 57.863C95.9322 58.0031 96.7241 58.2141 97.3105 58.454C97.466 58.5176 98.7832 58.9613 98.7447 58.9898C98.1526 59.4274 97.0323 59.208 96.3413 59.2892C95.8648 59.3453 95.5097 59.568 95.0095 59.5572C93.9093 59.5333 92.6623 59.0907 91.6368 58.7061" stroke="black" stroke-opacity="0.2" stroke-width="20" stroke-linecap="round"/>
<path d="M80.7139 75.1859C81.0255 75.6532 81.9672 77.7975 82.6565 77.9507C83.3544 78.1058 84.0308 78.3918 84.7224 78.5982C86.0172 78.9847 87.2283 79.5752 88.5458 79.8932C89.536 80.1323 90.5991 79.9556 91.6086 80.0782C94.1098 80.382 96.3327 80.736 98.8443 80.736C99.8002 80.736 100.756 80.736 101.712 80.736C102.383 80.736 102.821 80.2989 103.469 80.181C104.293 80.0312 105.311 79.8193 106.152 80.0063C107.432 80.2908 107.897 83.1911 108.362 84.1483C109.38 86.246 109.85 88.4228 110.602 90.5721C110.935 91.5236 110.786 92.5351 111.013 93.5013C111.195 94.2729 110.662 94.6281 109.924 94.7758C107.821 95.1963 105.615 95.1663 103.48 95.1663C100.576 95.1663 97.8902 95.9063 95.0004 95.9063C93.5317 95.9063 80.1589 96.5536 80.1589 94.7963" stroke="black" stroke-opacity="0.3" stroke-width="20" stroke-linecap="round"/>
<path d="M69.4287 115.702C71.3958 117.013 73.3351 117.454 75.5339 118.251C77.8983 119.107 80.1592 119.413 82.5537 119.957C84.7949 120.466 87.049 120.267 89.3269 120.337C92.4806 120.434 95.6006 120.697 98.7621 120.697C99.6854 120.697 100.614 120.723 101.537 120.697C103.135 120.652 104.764 120.055 106.388 119.947C107.193 119.893 107.955 119.599 108.773 119.587C109.46 119.576 110.289 119.725 110.962 119.566C112.05 119.31 113.176 119.244 114.282 118.991C115.262 118.767 116.298 118.697 117.304 118.662C118.718 118.613 118.513 118.004 119.565 119.207C119.921 119.613 120.061 120.036 120.305 120.512C120.539 120.968 121.009 121.258 121.22 121.714C121.72 122.798 121.968 123.825 122.237 124.993C122.625 126.674 123.265 127.913 123.265 129.649C123.265 130.008 121.171 131.897 120.757 131.972C119.859 132.135 118.733 132.692 117.889 133.082C116.922 133.528 115.615 133.722 114.57 133.832C114.26 133.865 114.045 134.155 113.727 134.212C113.054 134.335 112.428 134.618 111.733 134.716C109.871 134.979 108.071 135.54 106.162 135.672C103.375 135.864 100.663 137.072 97.8782 137.162C96.2346 137.215 94.6033 137.532 92.9448 137.532C90.807 137.532 88.6691 137.532 86.5313 137.532C85.5275 137.532 84.5237 137.532 83.5199 137.532C82.7559 137.532 82.1721 137.282 81.454 137.059C80.4647 136.752 79.404 136.867 78.3912 136.751C77.1279 136.607 75.9831 136.131 74.7322 135.908C73.9142 135.763 73.1067 135.633 72.286 135.477C71.6327 135.352 70.3714 134.775 69.881 134.284C69.4903 133.894 68.9926 133.515 68.6887 133.051C68.4177 132.637 68.4986 132.062 68.3187 131.612" stroke="black" stroke-opacity="0.5" stroke-width="20" stroke-linecap="round"/>
</svg>
