<svg width="192" height="192" viewBox="0 0 192 192" fill="none" xmlns="http://www.w3.org/2000/svg">
<path fill-rule="evenodd" clip-rule="evenodd" d="M96 16C51.8172 16 16 51.8172 16 96C16 109.12 19.1628 121.517 24.7715 132.455L16.1632 168.61C15.6806 170.637 16.2841 172.769 17.7574 174.243C19.2307 175.716 21.3628 176.319 23.3897 175.837L59.5446 167.229C70.4828 172.837 82.88 176 96 176C140.183 176 176 140.183 176 96C176 51.8172 140.183 16 96 16ZM28 96C28 58.4446 58.4446 28 96 28C133.555 28 164 58.4446 164 96C164 133.555 133.555 164 96 164C84.1159 164 72.9606 160.957 63.2526 155.611C61.9465 154.892 60.4194 154.685 58.9689 155.03L30.0951 161.905L36.9698 133.031C37.3152 131.581 37.1081 130.054 36.3889 128.747C31.0435 119.039 28 107.884 28 96ZM74.0232 117.977H74.0234C85.9981 129.951 101.965 137.984 119.776 139.896C131.552 141.159 140 131.457 140 121.379V114.383C140 106.014 134.511 98.6318 126.491 96.2263L125.934 96.0592L125.364 95.9468L117.342 94.3661C112.082 93.0037 106.539 93.9762 102.092 96.9351C100.787 95.9071 99.5447 94.8029 98.3709 93.6291C97.1971 92.4553 96.0929 91.2126 95.0648 89.9079C98.0241 85.4609 98.9965 79.9167 97.6337 74.656L96.052 66.6349L95.9396 66.0649L95.7727 65.5083C93.3676 57.4914 85.9889 52 77.6175 52H70.6208C60.5443 52 50.8407 60.4455 52.1044 72.2226C54.0156 90.0337 62.0484 106.002 74.0232 117.977ZM107.675 107.798C109.484 105.989 112.14 105.32 114.591 106.055L123.044 107.72C125.985 108.603 128 111.311 128 114.383V121.379C128 125.22 124.876 128.374 121.057 127.964C114.149 127.223 107.569 125.388 101.493 122.637C98.9599 121.49 96.5148 120.184 94.1699 118.732C89.9297 116.106 86.0175 113 82.5086 109.491C78.9998 105.983 75.8944 102.07 73.268 97.83C71.8155 95.485 70.5095 93.0397 69.3628 90.507C66.6116 84.4302 64.7771 77.8499 64.0359 70.9423C63.6261 67.1231 66.7796 64 70.6208 64H77.6175C80.6889 64 83.3962 66.0146 84.2788 68.9565L85.9454 77.4083C86.6806 79.8591 86.0107 82.516 84.2015 84.3252L83.082 85.4447C82.3236 86.203 81.7976 87.1304 81.5369 88.1135C81.1647 89.5174 81.3335 91.0351 82.1396 92.3371C84.3409 95.8923 86.9438 99.1726 89.8855 102.114H89.8856H89.8857C92.8274 105.056 96.1076 107.659 99.6629 109.86C100.965 110.666 102.482 110.835 103.886 110.463C104.869 110.202 105.797 109.676 106.555 108.918L107.675 107.798Z" fill="black"/>
<path d="M53.6338 45.0465C56.0348 44.915 57.4885 43.7226 59.5047 42.6305C60.4623 42.1118 61.4898 41.7632 62.446 41.2532C64.4074 40.2071 66.5276 39.2503 68.7138 38.7437C71.9087 38.0035 74.9866 36.9057 78.203 36.316C81.8943 35.6393 85.6509 35.4553 89.3145 34.6703C92.1734 34.0577 95.3209 34.3318 98.2201 34.3318C103.368 34.3318 109.044 33.6811 114.059 35.0788C117.045 35.9111 120.506 37.1374 123.011 39.0005C125.107 40.5594 127.388 41.8646 129.571 43.2958C131.355 44.4658 132.928 45.9895 134.519 47.4042C135.563 48.3319 136.684 49.4113 137.227 50.7307C137.773 52.0564 137.461 53.9307 137.461 55.3294C137.461 58.6363 137.711 61.6245 135.78 64.5385C134.92 65.8365 133.353 66.7001 132.115 67.6081C130.508 68.7864 128.997 70.0328 127.248 71.0046C124.452 72.5579 121.662 74.9815 119.475 77.3308C118.551 78.3228 117.594 79.2676 116.662 80.2487C115.774 81.1833 115.244 82.3253 114.467 83.3301C113.872 84.1003 113.463 85.0117 112.775 85.6995C112.077 86.3978 110.664 86.6838 109.74 87.0534C108.909 87.3858 108.084 87.5138 107.207 87.6486C106.761 87.7173 106.278 87.616 105.842 87.7187C105.488 87.8019 105.222 88.0907 104.85 88.1155C103.841 88.1828 102.179 87.8521 101.325 88.5357C99.6942 89.8402 99.6441 82.7742 99.6441 81.8478C99.6441 80.2643 99.6441 78.6808 99.6441 77.0973C99.6441 73.3912 99.8542 69.6444 99.8542 65.9157C99.8542 62.6754 99.1549 57.9216 95.9558 56.2865C94.1069 55.3415 92.1408 54.6675 90.2366 53.8704C89.6302 53.6166 89.1767 53.076 88.5792 52.82C87.7318 52.4568 86.652 52.214 85.8947 51.7228C84.776 50.9972 83.3135 50.54 82.0897 49.9837C80.7529 49.3761 79.2104 49.2073 77.8878 48.5714C74.8165 47.0948 72.0332 45.4667 68.5504 45.4667C67.7602 45.4667 65.5534 45.4667 67.71 45.4667C69.6461 45.4667 71.5017 44.8364 73.4759 44.8364C74.8843 44.8364 76.2927 44.8364 77.7011 44.8364C80.1267 44.8364 82.4818 45.375 84.8909 45.6301C85.7685 45.723 86.6709 45.6768 87.5521 45.6768C90.3433 45.6768 92.9771 46.1457 95.7457 46.3538C100.803 46.7338 105.763 47.9843 110.756 48.8165C112.816 49.1599 115.234 50.5103 117.152 51.3493C117.664 51.5734 118.302 52.2187 118.436 52.7733C118.896 54.6805 118.706 57.3918 117.91 59.1811C117.425 60.2726 116.504 60.8317 115.611 61.5388C114.632 62.3139 113.785 63.2599 112.903 64.1416C111.898 65.1472 110.523 67.9832 112.25 69.1605C113.277 69.8606 114.756 69.5749 115.856 69.2889C119.312 68.3904 122.376 66.6147 125.042 64.2817C130.05 59.8997 136.408 58.0591 142.643 56.1347C143.28 55.9381 145.65 54.8568 146.215 55.271C147.546 56.2477 148.052 58.0744 148.689 59.5312C149.632 61.687 150.702 63.9164 151.42 66.1492C152.199 68.5687 153.667 70.7343 154.805 72.9888C155.956 75.268 155.945 77.3826 156.474 79.8169C156.796 81.2977 156.807 82.8351 157.011 84.3338C157.324 86.6263 157.84 88.8684 157.84 91.1969C157.84 91.7793 158.329 94.8191 157.35 94.6984C154.366 94.3306 151.495 93.3853 148.479 93.111C145.616 92.8508 142.952 92.7376 140.064 92.7376C135.944 92.7376 131.869 92.9383 127.797 92.2707C126.868 92.1185 125.914 92.009 124.972 92.154C124.21 92.2712 123.296 92.7476 122.521 92.6442C121.924 92.5645 122.864 91.4808 122.964 91.3603C124.129 89.9629 125.75 89.0582 127.388 88.3373C129.935 87.2167 131.914 86.0488 133.772 84.0421C134.421 83.3413 135.094 82.5653 135.803 81.9295C136.523 81.2844 137.927 79.6467 138.978 79.5017C141.53 79.1498 142.841 78.03 143.577 81.4626C144.461 85.587 145.08 89.889 142.947 93.7297C142.373 94.7612 141.705 95.7685 141.242 96.8577C140.52 98.5613 141.504 99.3009 142.34 100.721C142.614 101.187 144 100.931 144.405 100.931C146.323 100.931 148.178 100.511 150.101 100.511C153.722 100.511 157.42 105 157.42 108.541C157.42 110.674 156.66 112.153 156.159 114.155C155.798 115.6 155.053 117.061 153.381 117.108C151.872 117.151 150.104 117.312 148.596 117.097C147.942 117.003 147.965 116.443 147.965 115.929C147.965 115.539 147.965 112.993 147.965 113.875C147.965 115.171 147.965 116.466 147.965 117.762C147.965 118.65 148.283 120.236 147.919 121.1C147.462 122.184 147.249 123.483 146.915 124.625C146.801 125.014 146.744 125.842 146.495 126.154C146.408 126.263 146.393 125.894 146.366 125.757C146.188 124.843 146.055 123.917 145.958 122.991C145.593 119.516 146.168 115.981 145.853 112.51C145.723 111.082 145.045 108.607 146.39 107.561C147.233 106.905 149.224 107.038 150.23 107.024C152.437 106.992 154.668 106.929 156.859 107.187C158.726 107.407 160.567 104.492 161.178 103.067C161.924 101.325 161.832 99.1343 161.832 97.2779C161.832 97.1876 161.886 95.2603 161.621 95.3871C161.276 95.5524 160.648 96.6592 160.606 96.7293C159.59 98.4288 158.822 100.246 158.073 102.075C155.798 107.632 153.46 113.076 150.907 118.509C149.466 121.575 149.198 125.065 147.709 128.15C145.612 132.493 142.047 135.633 138.675 139.005C137.66 140.02 136.69 141.673 135.477 142.401C134.082 143.238 132.598 144.388 131.053 144.957C129.156 145.656 127.476 146.56 125.439 146.895C123.001 147.295 120.703 148.258 118.261 148.634C117.268 148.787 116.318 149.344 115.401 149.719C114.036 150.278 113.013 150.904 112.04 152.077C110.492 153.941 109.722 156.496 108.094 158.24C107.714 158.648 106.804 158.833 106.297 159.103C105.492 159.533 104.888 159.757 103.951 159.757C101.656 159.757 99.9103 160.334 97.9633 161.485C97.0557 162.021 92.4384 164.755 91.9874 164.111C91.5965 163.552 91.9903 162.376 92.1975 161.858C92.8424 160.246 93.685 158.673 94.4618 157.119C95.3415 155.36 96.9846 153.878 98.4769 152.649C100.334 151.12 102.794 149.743 104.219 147.735C105 146.636 105.679 145.451 106.449 144.339C107.335 143.059 103.858 146.067 102.62 147.011C100.048 148.975 97.1716 150.763 94.2751 152.194C92.7204 152.961 91.0218 153.489 89.513 154.341C88.8548 154.713 88.0078 154.797 87.412 155.228C87.2335 155.358 85.4692 156.628 85.3695 156.279C85.1556 155.53 80.0788 156.17 79.3001 156.197C77.6093 156.257 76.1625 157.026 74.433 157.026C73.8877 157.026 71.0021 157.168 71.3633 156.734C72.8255 154.979 74.4711 153.419 76.1837 151.914C79.251 149.218 82.8998 147.292 86.4549 145.377C87.2392 144.955 93.3705 141.864 92.8277 140.779C92.6263 140.376 90.1622 141.416 90.0499 141.456C87.0988 142.511 84.1108 143.359 81.1326 144.327C77.7649 145.422 74.7218 147.355 71.3283 148.319C68.5441 149.109 65.9728 150.646 63.158 151.237C61.1238 151.664 58.9407 152.163 56.9486 152.754C55.6143 153.15 54.3714 153.802 53.0269 154.166C52.079 154.423 51.0988 154.49 50.1789 154.855C48.1971 155.64 46.188 156.541 44.0396 156.769C42.7191 156.909 41.3769 157.17 40.0828 157.458C39.8727 157.504 39.2941 158.855 39.044 158.427C38.7359 157.898 39.125 156.876 39.2658 156.372C39.5904 155.21 39.8702 154.02 40.2346 152.871C40.5708 151.81 40.7549 150.683 41.1683 149.649C41.735 148.233 41.9133 146.712 42.6973 145.389C43.5026 144.03 43.9793 142.495 44.5998 141.047C46.1354 137.464 46.4605 134.012 46.8875 130.169C47.1726 127.603 47.1209 124.823 47.1209 122.244C47.1209 119.786 47.2587 117.637 46.6074 115.311C46.2614 114.075 46.4899 112.7 46.1872 111.436C45.9266 110.348 45.6612 109.279 45.4869 108.168C45.334 107.193 45.4075 106.137 45.1834 105.18C44.8549 103.776 43.962 102.399 43.5494 100.978C43.4835 100.751 43.3126 99.7098 43.0475 99.5772C42.3009 99.204 39.8273 99.1781 39.0207 99.6006C37.7941 100.243 37.565 101.943 37.41 103.149C37.2322 104.532 36.9241 105.895 36.7797 107.281C36.4836 110.124 36.4062 112.868 36.4062 115.731C36.4062 117.105 36.4231 124.804 38.8456 123.691C41.2129 122.604 43.7635 121.704 46.0238 120.376C48.5662 118.883 51.7382 115.324 51.9414 112.276C52.3146 106.679 51.6796 100.893 49.642 95.6788C48.8501 93.6525 48.2665 91.594 47.5411 89.5628C47.0527 88.1952 47.0923 86.5414 46.9575 85.1042C46.8097 83.5271 46.7007 81.9965 46.7007 80.4121C46.7007 76.9612 46.7007 73.5102 46.7007 70.0592C46.7007 68.3538 46.6748 66.9807 47.9029 65.6473C48.8087 64.6639 50.0456 63.9715 51.0076 63.0094C53.0341 60.983 54.8217 59.0265 57.042 57.1385C58.0989 56.2398 58.4659 55.9085 58.4659 54.6057C58.4659 53.7334 57.3234 52.0038 56.4701 51.7812C55.4719 51.5208 54.4698 51.5594 53.4471 51.5594C52.3688 51.5594 50.641 51.2535 49.642 51.6995C45.3122 53.6324 43.7835 60.2608 42.6156 64.305C41.2261 69.1169 39.825 73.9428 38.192 78.673C37.5806 80.444 37.0768 82.3505 36.6163 84.1704C36.1557 85.9909 35.5795 87.6012 35.3091 89.4694C35.1461 90.5956 33.1967 97.3281 34.6321 97.6631C36.7515 98.1576 39.0019 97.4976 40.9232 96.6243C42.4774 95.9178 44.2384 96.099 45.9071 96.099C46.7671 96.099 47.0644 97.4619 47.5878 98.1299C49.455 100.513 51.2534 102.907 53.5871 104.876C55.0986 106.152 56.0638 107.75 57.4505 109.136C58.1551 109.841 58.8385 110.48 59.423 111.342C62.5981 116.029 65.8272 120.471 70.2311 124.088C73.3991 126.69 76.9033 128.563 80.3272 130.764C81.4016 131.455 82.5977 131.929 83.7588 132.445C84.0889 132.592 83.4107 133.104 83.3269 133.169C82.0624 134.14 80.4478 134.507 78.9033 134.733C74.6713 135.352 70.2403 135.762 66.2627 137.487C64.7309 138.152 63.5204 139.105 61.8508 139.331C60.2425 139.549 59.7282 136.516 59.5164 135.386" stroke="black" stroke-opacity="0.2" stroke-width="21" stroke-linecap="round"/>
</svg>
