<svg width="192" height="192" viewBox="0 0 192 192" fill="none" xmlns="http://www.w3.org/2000/svg">
<circle cx="96" cy="96" r="90" stroke="black" stroke-width="12"/>
<circle cx="97" cy="97" r="51" stroke="black" stroke-width="12"/>
<path d="M121.638 101.889C123.695 100.882 125 98.7909 125 96.5C125 94.2091 123.695 92.1182 121.638 91.111L87.1379 74.2235C85.2783 73.3132 83.0807 73.426 81.3241 74.522C79.5675 75.6179 78.5 77.542 78.5 79.6125V113.387C78.5 115.458 79.5675 117.382 81.3241 118.478C83.0807 119.574 85.2783 119.687 87.1379 118.777L121.638 101.889Z" stroke="black" stroke-width="12" stroke-linejoin="round"/>
<path d="M102.373 26.868C109.322 28.1787 115.638 32.0373 122.235 34.4787C123.652 35.0033 124.954 35.8943 126.158 36.8353C130.746 40.4212 135.215 44.0419 139.144 48.3221C142.21 51.6616 145.395 54.8225 148.634 58.0448C149.252 58.6586 149.851 59.0789 150.564 59.5514C150.679 59.6281 151.306 60.2858 151.276 60.0279C150.976 57.4948 149.399 54.6851 148.311 52.443C145.981 47.6447 143.36 43.0275 140.154 38.7541C137.64 35.4036 134.447 32.4457 132.204 28.9027C131.025 27.0403 134.311 32.7735 135.337 34.7234C138.747 41.203 143.454 46.8016 147.353 52.971C149.014 55.5999 150.472 58.5475 151.91 61.3028C153.16 63.6967 153.753 66.2647 155.043 68.6431C156.419 71.1777 157.177 73.8403 157.788 76.5757C158.157 78.2268 158.095 79.9193 158.332 81.5722C158.464 82.4924 158.776 83.4574 158.953 84.4053C159.136 85.3798 159.184 86.3862 159.575 87.3156C159.954 88.2154 160.109 89.1514 160.533 90.0328C161.011 91.0277 161.103 90.5968 161.103 89.7624C161.103 88.0196 161.103 86.2768 161.103 84.534C161.103 80.2825 161.536 75.8857 159.847 71.9655C159.274 70.6358 159.246 69.1162 158.591 67.7674C157.77 66.0759 157.05 64.3676 156.209 62.6936C155.971 62.2216 155.909 61.6165 155.639 61.174C154.685 59.6111 156.144 64.8141 156.701 66.5569C158.125 71.0202 159.551 75.4741 160.766 80.0011C161.678 83.4014 162.39 86.7874 163.524 90.1229C164.41 92.7283 164.577 95.5546 164.883 98.2616C164.997 99.2662 165.228 100.265 165.285 101.275C165.329 102.066 165.686 102.691 165.764 103.413C166.045 106.025 165.997 108.647 165.997 111.294C165.997 114.205 165.321 117.137 165.078 120.038C164.969 121.337 164.296 122.654 163.951 123.94C163.616 125.191 162.512 126.943 161.698 127.983C160.895 129.01 159.952 129.915 159.342 131.074C158.764 132.17 157.655 132.925 157.141 134.074C156.646 135.181 155.368 135.926 155.03 137.101C154.503 138.935 152.289 140.336 151.198 141.84C150.519 142.774 149.65 143.727 148.829 144.544C147.655 145.711 146.815 147.638 145.436 148.51C142.819 150.167 140.93 152.633 138.264 154.254C137.134 154.94 136.206 155.943 134.949 156.443C133.833 156.887 132.609 157.554 131.609 158.246C129.523 159.686 127.008 160.216 124.747 161.31C123.808 161.765 122.955 162.035 121.937 162.238C120.95 162.434 120.036 163.046 119.024 163.152C117.056 163.358 115.069 163.971 113.094 164.324C111.805 164.554 110.532 164.424 109.249 164.594C107.853 164.779 106.544 165.289 105.118 165.431C96.935 166.245 88.6135 165.946 80.35 165.946C77.543 165.946 75.3013 164.153 73.0088 162.753C69.9813 160.903 67.0605 159.004 64.1787 156.919C61.8473 155.233 59.5076 153.553 56.9282 152.27C56.0577 151.837 55.606 151.182 55.012 150.416C53.2248 148.112 51.6021 145.643 49.7813 143.359C48.2748 141.47 47.0711 139.355 45.5345 137.487C44.2281 135.899 42.537 134 41.7798 132.117C40.9122 129.96 38.3446 128.605 37.3518 126.489C36.3806 124.419 34.4888 122.437 34.0761 120.179C33.6817 118.022 31.824 115.889 30.6968 114.127C29.3307 111.992 28.4656 109.488 27.3823 107.199C26.8233 106.017 26.8669 104.606 26.5019 103.361C26.0836 101.935 25.4661 100.593 25.4661 99.0729C25.4661 97.5674 25 96.1182 25 94.5528C25 92.2864 25 90.0199 25 87.7535C25 85.4752 25.3439 83.357 25.4661 81.1086C25.6153 78.3635 26.4691 75.7319 26.6443 72.9442C26.8498 69.674 29.0683 66.4599 30.1789 63.4405C31.6485 59.4453 34.1547 55.569 36.6397 52.1468C37.9278 50.3729 39.5638 48.7749 41.1195 47.2275C42.5217 45.8329 43.9966 44.6065 45.5863 43.4286C47.0719 42.328 48.1882 40.8203 49.8072 39.9002C52.2263 38.5252 54.4638 36.972 56.8246 35.496C58.8269 34.2442 60.966 33.4223 63.0394 32.3281C66.3376 30.5875 69.7519 29.365 73.2807 28.13C76.6466 26.9521 79.8044 25.2545 83.1337 23.9705C87.0991 22.4412 90.9764 22.0963 95.2265 22.0003C95.7582 21.9882 93.8656 22.383 93.5693 22.451C92.5445 22.6862 91.6307 23.2432 90.6949 23.7001C89.4395 24.3131 88.4947 25.0484 87.6394 26.1726C86.57 27.5781 84.7815 30.4813 82.9006 30.8214C80.4786 31.2594 78.0547 33.1592 75.9091 34.2855C72.8829 35.8741 69.9319 37.6807 66.7294 39.0374C63.4288 40.4356 59.5488 41.5582 56.734 43.6991C55.2263 44.8458 53.4931 45.6707 52.0859 46.9829C50.7288 48.2483 49.2958 49.6567 47.7874 50.7431C45.3812 52.4762 43.5094 55.5127 41.7927 57.9031C39.8292 60.6372 38.1253 63.5305 36.3419 66.4023C35.3492 68.0009 34.0017 69.9107 33.4417 71.7337C32.7123 74.1078 31.3152 76.3443 31.0723 78.8808C30.9465 80.1944 30.3864 81.1442 30.3602 82.4994C30.3314 83.9912 29.8941 85.4617 29.8941 86.955C29.8941 92.0331 29.8941 97.1112 29.8941 102.189C29.8941 105.092 29.6969 108.09 30.6451 110.882C31.3292 112.896 31.7982 114.997 32.3541 117.05C32.7582 118.543 33.2173 120.557 33.9725 121.892C34.883 123.502 35.0411 125.832 35.3061 127.648C35.4648 128.735 35.32 130.696 35.7722 131.64C36.6334 133.439 37.0638 135.372 37.7143 137.332C38.1917 138.771 38.7391 140.184 39.2162 141.608" stroke="black" stroke-opacity="0.2" stroke-width="35" stroke-linecap="round"/>
<path d="M87.3005 81.6237C87.291 86.8867 87.1668 92.0743 86.8965 97.3125C86.7517 100.118 86.8262 102.938 86.8262 105.746C86.8262 107.259 86.5762 109.024 86.8262 110.524C86.8396 110.604 86.9826 110.462 87.037 110.401C87.6747 109.692 88.2656 108.95 88.9256 108.258C90.0925 107.035 91.3672 105.761 92.8171 104.867C93.8483 104.231 95.04 103.924 96.1728 103.523C97.3417 103.11 98.568 103.101 99.7216 102.689C101.405 102.087 103.083 101.469 104.764 100.861C105.316 100.662 106.232 100.511 106.626 100.018C107.26 99.2265 108.148 98.9946 107.917 97.866C107.62 96.4122 106.623 95.0388 105.537 94.0448C103.602 92.2749 100.834 91.9793 98.6851 90.6364" stroke="black" stroke-opacity="0.25" stroke-width="20" stroke-linecap="round"/>
</svg>
