<svg width="192" height="192" viewBox="0 0 192 192" fill="none" xmlns="http://www.w3.org/2000/svg">
<path d="M80.4683 73.9164L79 73.1382V74.8V117.2V118.862L80.4683 118.084L120.468 96.8836L122.135 96L120.468 95.1164L80.4683 73.9164ZM95.9806 48.9998L96 49.0002L96.0195 48.9998C116.153 48.608 136.289 49.6183 156.282 52.0234C158.111 52.5495 159.777 53.5314 161.123 54.8774C162.475 56.2299 163.46 57.9051 163.984 59.7441C166.111 71.7065 167.12 83.8407 167 95.9901L167 96L167 96.0099C167.12 108.159 166.111 120.294 163.984 132.256C163.46 134.095 162.475 135.77 161.123 137.123C159.777 138.469 158.111 139.45 156.282 139.977C136.289 142.382 116.153 143.392 96.0195 143L96 143L95.9806 143C75.8471 143.392 55.7107 142.382 35.7176 139.977C33.889 139.45 32.2235 138.469 30.8774 137.123C29.5249 135.77 28.5401 134.095 28.0159 132.256C25.8895 120.293 24.8799 108.159 25 96.0099L25.0001 96L25 95.9901C24.8799 83.8407 25.8895 71.7065 28.0159 59.7441C28.5401 57.9051 29.5249 56.2299 30.8774 54.8774C32.2235 53.5314 33.889 52.5495 35.7176 52.0234C55.7107 49.6183 75.8471 48.608 95.9806 48.9998ZM158.74 42.3945L158.74 42.3944C155.516 41.5263 149.96 40.8921 143.526 40.4202C137.063 39.9462 129.627 39.6306 122.59 39.4204C115.552 39.2102 108.905 39.1051 104.018 39.0526C101.575 39.0263 99.5709 39.0131 98.1776 39.0066C97.4809 39.0033 96.9369 39.0016 96.5668 39.0008L96.1449 39.0001L96.0368 39L96.0094 39L96.0024 39L96.0007 39C96.0003 39 96 39 96 40C96 39 95.9998 39 95.9994 39L95.9976 39L95.9907 39L95.9632 39L95.8551 39.0001L95.4332 39.0008C95.0632 39.0016 94.5192 39.0033 93.8225 39.0066C92.4292 39.0131 90.4253 39.0263 87.9818 39.0526C83.0951 39.1051 76.4484 39.2102 69.4102 39.4204C62.3735 39.6306 54.9374 39.9462 48.4744 40.4202C42.0396 40.8921 36.4844 41.5263 33.2601 42.3944L33.2597 42.3945C29.6978 43.3549 26.4504 45.2332 23.8418 47.8418C21.2332 50.4503 19.3549 53.6978 18.3945 57.2597L18.3837 57.2997L18.3763 57.3404C16.0483 70.0936 14.918 83.0364 15 96C14.918 108.964 16.0483 121.906 18.3763 134.66L18.3837 134.7L18.3945 134.74C19.3549 138.302 21.2332 141.55 23.8418 144.158C26.4504 146.767 29.6978 148.645 33.2597 149.606L33.2601 149.606C36.4844 150.474 42.0396 151.108 48.4744 151.58C54.9374 152.054 62.3735 152.369 69.4102 152.58C76.4484 152.79 83.0951 152.895 87.9818 152.947C90.4253 152.974 92.4292 152.987 93.8225 152.993C94.5192 152.997 95.0632 152.998 95.4332 152.999L95.8551 153L95.9632 153L95.9907 153H95.9976H95.9994C95.9996 153 95.9998 153 95.9999 152.835C96 152.7 96 152.452 96 152C96 153 96.0003 153 96.0007 153H96.0024H96.0094L96.0368 153L96.1449 153L96.5668 152.999C96.9369 152.998 97.4809 152.997 98.1776 152.993C99.5709 152.987 101.575 152.974 104.018 152.947C108.905 152.895 115.552 152.79 122.59 152.58C129.627 152.369 137.063 152.054 143.526 151.58C149.96 151.108 155.516 150.474 158.74 149.606L158.74 149.606C162.302 148.645 165.55 146.767 168.158 144.158C170.767 141.55 172.645 138.302 173.606 134.74L173.616 134.7L173.624 134.66C175.952 121.906 177.082 108.964 177 96C177.082 83.0364 175.952 70.0936 173.624 57.3404L173.616 57.2997L173.606 57.2597C172.645 53.6978 170.767 50.4503 168.158 47.8418C165.55 45.2332 162.302 43.3549 158.74 42.3945Z" fill="black" stroke="black" stroke-width="2"/>
<path d="M35.2053 62.5186C36.1967 61.3289 36.73 60.0613 38.0859 59.1662C39.1131 58.4881 40.2937 58.099 41.3018 57.3906C41.7894 57.048 42.0698 56.7077 42.6801 56.7077C44.644 56.7077 46.6302 56.8211 48.5904 56.9436C49.2859 56.9871 49.5741 57.0765 48.5655 56.9312C46.794 56.676 45.0775 56.3981 43.3506 55.913C40.7807 55.1911 38.3388 54.4727 35.6523 54.4727C33.3105 54.4727 32.7037 54.3396 31.8032 56.7077C30.5561 59.987 30.3375 63.6154 29.9531 67.0755C29.8625 67.8911 29.7962 68.7108 29.6675 69.5216C29.5849 70.0417 29.2146 70.508 29.1708 71.0116C29.0394 72.5229 29.1708 74.1148 29.1708 75.6306C29.1708 83.6682 29.1708 91.7059 29.1708 99.7436C29.1708 105.215 29.1708 110.687 29.1708 116.158C29.1708 120.06 29.3537 123.749 30.338 127.507C30.4946 128.105 31.1372 128.536 31.5052 129.009C31.926 129.551 32.2981 130.504 32.5233 131.133C32.991 132.437 33.5844 134.519 34.957 135.205C37.8471 136.65 41.6259 137.057 44.7661 137.614C48.3911 138.257 52.184 138.434 55.8541 138.744C57.0009 138.841 58.0313 139.17 59.1445 139.402C61.1155 139.814 63.1486 139.709 65.1292 140.048C71.2065 141.086 77.4258 142.145 83.5803 142.618C89.8015 143.097 96.1462 142.755 102.379 142.755C107.72 142.755 113.242 143.088 118.545 142.308C121.682 141.846 124.78 141.974 127.932 141.811C131.472 141.628 134.887 140.589 138.399 140.172C141.556 139.797 144.694 139.108 147.799 138.446C149.895 137.999 151.713 137.743 153.709 136.844C156.064 135.785 159.141 133.903 159.917 131.257C160.658 128.732 161.755 126.307 161.929 123.658C162.235 118.997 162.823 114.461 162.823 109.776C162.823 103.253 162.823 96.7305 162.823 90.2076C162.823 83.9993 162.823 77.791 162.823 71.5828C162.823 69.3261 162.976 67.004 162.773 64.7536C162.518 61.9134 161.581 60.0616 159.371 58.1853C155.226 54.6656 149.843 52.8426 144.409 52.4612C136.41 51.8999 128.311 52.2377 120.296 52.2377C104.482 52.2377 88.6669 52.2377 72.8524 52.2377C70.0876 52.2377 67.3228 52.2377 64.5581 52.2377C61.7478 52.2377 58.9375 52.2377 56.1272 52.2377C53.9693 52.2377 51.7248 52.1726 49.683 52.9579C47.0793 53.9593 44.5162 56.6326 43.3382 59.0793C42.739 60.3237 41.9369 61.5118 41.2894 62.7421C40.8052 63.6622 41.3776 63.4289 42.2579 62.8787C44.4075 61.5352 46.6326 60.3322 48.8139 59.042C50.3658 58.124 55.1186 55.616 53.408 56.1862C51.9757 56.6636 50.6039 57.7056 49.2981 58.4336C46.6067 59.9341 43.8106 61.2973 41.2025 62.9408C37.3466 65.3706 33.3798 67.4731 30.1145 70.7384C30.0379 70.815 29.0664 71.7221 29.8165 71.3096C31.8857 70.1715 33.7456 68.5064 35.6399 67.1128C38.6661 64.8863 41.6099 62.4607 44.7909 60.4575C49.8237 57.2881 55.6364 55.2471 61.3546 53.7277C66.1078 52.4647 70.8869 51.3366 75.7827 50.8098C79.1706 50.4453 82.6771 49.7142 86.0884 49.9282C99.5631 50.7737 113.12 52.5916 126.393 55.0935C131.329 56.0241 137.281 56.5895 141.193 60.0602C143.328 61.954 145.196 64.7604 146.334 67.3487C147.67 70.3889 148.276 73.4058 148.295 76.7232C148.307 78.7332 148.356 80.7692 148.134 82.7701C147.794 85.8263 146.491 88.7514 145.167 91.4989C144.341 93.2101 143.418 95.0921 141.963 96.3662C140.227 97.8872 138.128 99.1074 136.214 100.389C134.558 101.498 132.699 102.777 130.639 102.922C128.466 103.075 127.765 101.122 127.436 99.2966C126.836 95.9744 126.54 92.2399 126.864 88.879C127.426 83.056 130.155 77.7055 132.365 72.3774C134.103 68.188 136.059 62.959 139.455 59.7125C140.634 58.5855 142.325 58.3876 143.85 58.0487C146.5 57.4598 149.022 57.2703 151.735 57.5396C153.5 57.7147 155.915 57.8135 155.646 60.1347C155.186 64.0998 153.227 68.0731 151.3 71.5083C146.755 79.6132 139.487 84.6163 132.874 90.8533C132.829 90.896 130.825 92.9147 130.465 93.1255C129.174 93.8822 130.892 90.1371 131.434 88.7425C134.461 80.9533 137.258 73.1503 139.976 65.2503C140.352 64.1588 140.865 62.7403 141.342 61.6495C141.476 61.3434 141.976 60.5724 142.013 60.9045C142.251 63.0458 142.086 65.3928 141.988 67.5349C141.782 72.0493 140.677 76.3511 139.517 80.6965C138.734 83.6285 137.65 86.7109 137.17 89.711C137.109 90.0913 137.017 91.056 137.344 90.8533C138.841 89.9266 140.148 86.7512 140.92 85.3652C143.809 80.1814 145.57 74.7237 147.215 69.0498C147.963 66.4721 148.781 63.9419 149.189 61.2894C149.22 61.0926 150.443 64.7682 150.58 65.2255C151.761 69.1706 152.995 73.097 153.982 77.0957C154.526 79.2959 155.208 81.454 155.572 83.6889C155.931 85.8972 156.341 92.5939 156.341 90.3566C156.341 85.5348 156.341 80.7131 156.341 75.8913C156.341 72.5102 157.329 67.7205 153.51 66.045C150.332 64.6502 146.181 65.2006 142.82 65.2006C137.977 65.2006 132.851 65.7403 128.205 67.1624C124.56 68.2784 122.403 69.7812 121.153 73.4825C120.071 76.6839 119.705 81.5915 121.65 84.5457C123.996 88.1113 127.442 89.6453 131.235 91.2258C132.729 91.8484 134.003 92.8295 135.531 93.4359C137.691 94.2928 140.351 92.9227 141.814 91.4244C142.741 90.4755 143.643 88.7792 144.869 88.1837C145.592 87.8322 147.705 87.7266 148.42 88.1589C149.055 88.5431 149.326 89.1987 149.661 89.8351C150.844 92.0777 151.931 94.3966 153.014 96.6891C154.267 99.3431 155.161 102.194 155.572 105.108C156.131 109.074 156.118 113.054 156.118 117.052C156.118 120.504 156.118 123.956 156.118 127.408C156.118 128.14 156.118 128.873 156.118 129.605C156.118 133.355 156.118 122.106 156.118 118.356C156.118 107.186 156.165 96.014 156.118 84.8437C156.113 83.6518 156.24 82.1391 155.795 80.9945C155.234 79.5513 155.671 84.0898 155.671 85.6383C155.671 89.0623 155.591 92.4985 155.77 95.9192C155.899 98.3806 156.283 100.816 156.329 103.282C156.417 108.019 156.686 112.984 156.118 117.698C155.605 121.948 154.123 125.765 150.828 128.674C147.726 131.414 143.232 132.515 139.306 133.591C138.451 133.825 134.846 134.367 134.352 133.653C133.864 132.949 134.199 131.006 134.215 130.239C134.267 127.808 135.086 125.707 135.78 123.41C138.233 115.276 139.803 107.044 139.803 98.5391C139.803 97.2851 139.803 96.031 139.803 94.7769C139.803 93.7421 139.784 96.8467 139.753 97.8811C139.551 104.529 139.579 111.172 139.579 117.822C139.579 119.983 139.579 122.143 139.579 124.304C139.579 125.439 139.412 126.757 139.803 127.855C140.46 129.703 143.771 122.814 143.999 122.18C144.888 119.712 145.31 116.981 145.688 114.395C146.193 110.94 146.885 107.411 146.955 103.916C147.006 101.342 146.955 93.618 146.955 96.1924C146.955 100.476 147.167 104.853 147.96 109.068C148.486 111.865 148.966 114.625 148.966 117.474C148.966 121.923 149.878 127.55 145.986 130.76C144.957 131.609 143.644 132.023 142.385 132.399C137.818 133.765 133.125 133.77 128.404 133.939C126.265 134.015 124.21 133.763 122.643 135.329C122.451 135.522 122.451 135.728 122.767 135.528C124.253 134.59 125.638 133.063 126.939 131.89C130.988 128.241 133.339 123.142 134.538 117.897C135.333 114.417 135.431 110.724 135.531 107.169C135.547 106.619 136.015 103.009 135.556 102.55C135.342 102.336 135.469 103.148 135.407 103.444C135.058 105.103 134.491 106.637 133.805 108.187C132.002 112.264 130.296 116.4 128.417 120.442C126.284 125.026 123.284 129.964 119.862 133.715C117.616 136.177 115.128 136.005 112.051 136.484C109.913 136.817 107.781 137.15 105.645 137.49C105.368 137.534 104.532 137.614 104.813 137.614C106.213 137.614 107.678 137.736 109.059 137.465C121.384 135.05 124.307 119.533 125.35 109.106C125.794 104.665 125.748 99.8784 125.449 95.4226C125.299 93.1854 124.392 91.3611 122.829 89.7979C122.451 89.4197 120.451 87.9551 119.961 88.7176C119.624 89.2422 119.913 90.9147 119.948 91.4493C120.152 94.5004 120.935 97.4913 121.227 100.538C121.481 103.185 121.476 105.83 121.476 108.485C121.476 111.678 121.662 114.961 121.103 118.12C120.479 121.648 119.458 125.917 117.776 129.121C116.162 132.195 114.958 134.851 111.505 136.261C109.138 137.227 106.909 137.732 104.366 137.85C103.549 137.888 102.454 138.334 101.659 138.136C100.874 137.939 103.922 135.856 104.142 135.752C107.344 134.231 109.82 132.006 111.617 128.86C113.815 125.014 114.21 119.99 114.796 115.711C116.052 106.525 117.708 97.3119 117.18 87.9975C117.067 86.0186 116.53 84.1385 116.248 82.1865C116.005 80.5048 116.098 78.7298 115.665 77.0833C115.293 75.67 115.133 74.202 114.721 72.7996C114.458 71.9048 114.23 70.8944 113.852 70.0431C113.547 69.357 112.969 68.9416 112.759 68.1806C112.285 66.455 111.569 64.8375 110.872 63.1891C109.602 60.1878 107.911 58.5452 104.738 57.403C104.196 57.2078 102.501 56.9948 103.074 56.9312C103.949 56.834 104.94 56.9877 105.781 57.2044C109.248 58.0969 112.486 59.66 115.95 60.4947C119.057 61.2433 122.203 61.9434 125.374 62.3448C125.786 62.3969 127.584 62.5153 127.411 62.5311C124.474 62.798 121.474 63.3931 118.558 63.8596C116.137 64.2469 123.437 63.3762 125.871 63.0898C128.371 62.7957 130.933 62.0717 133.458 62.0717C133.687 62.0717 134.641 61.9307 134.786 62.1213C135.105 62.5377 134.292 63.0461 134.029 63.4996C133.176 64.9692 132.566 66.5124 132.129 68.1558C131.114 71.9759 130.54 75.9692 129.807 79.8522C129.425 81.8761 129.298 83.8145 129.298 85.8618C129.298 87.6756 128.861 89.4402 128.578 91.2258C127.938 95.2635 127.564 99.2623 126.529 103.22C125.527 107.05 124.894 110.944 123.785 114.768C122.231 120.127 119.835 127.528 115.019 130.934C113.174 132.239 110.818 132.943 108.699 133.666C107.493 134.077 105.864 134.292 104.825 135.081C102.834 136.594 100.666 137.391 98.1077 137.391C97.3632 137.391 97.4622 137.192 97.7104 136.546C98.2534 135.134 98.9153 133.594 99.697 132.3C101.532 129.263 103.132 126.531 104.266 123.112C105.502 119.387 106.398 115.501 107.271 111.676C109.508 101.874 108.513 91.2252 108.513 81.2553C108.513 75.7383 108.559 70.5572 106.675 65.3248C106.071 63.6469 105.323 61.7925 104.155 60.4202C103.099 59.1816 101.093 58.5094 99.6225 57.999C96.9365 57.0667 93.8973 56.8761 91.1047 56.36C86.2022 55.4541 80.8166 56.0372 75.8448 56.0372C71.0759 56.0372 66.0624 57.4861 61.4788 58.6695C57.3777 59.7283 53.5996 61.364 49.7327 63.0898C47.0611 64.2822 44.3115 65.4142 41.7116 66.7651C40.9752 67.1477 40.2747 67.6029 39.7125 68.2179C37.6963 70.423 36.5643 72.9753 36.0496 75.9037C34.2001 86.4271 34.3113 96.9277 34.3113 107.566C34.3113 111.192 34.1863 114.843 34.3113 118.468C34.4031 121.129 35.132 125.369 37.0305 127.457C38.412 128.977 40.4712 129.472 42.3076 130.115C44.5675 130.905 47.1349 131.48 49.5216 131.778C55.9983 132.588 62.4113 134.102 68.9163 134.721C72.9819 135.108 76.8932 135.178 80.9976 135.143C84.6951 135.112 87.9212 135.388 90.8812 133.02C96.0362 128.896 96.7544 122.303 98.5547 116.407C99.253 114.119 100.016 111.937 100.33 109.553C100.787 106.089 100.791 102.561 100.864 99.0731C100.993 92.9091 100.914 86.7375 100.914 80.5724C100.914 76.3439 101.317 72.0485 99.8957 67.9944C98.4932 63.9946 96.0314 62.3588 91.6511 62.1213C85.3402 61.7792 78.9458 62.1151 72.6289 62.0592C67.1927 62.0111 62.2769 61.7882 57.0833 63.6858C50.6498 66.0365 47.0823 70.1816 44.2694 76.2762C41.9492 81.3033 40.0833 86.5391 39.4393 92.0453C39.0094 95.7216 38.4864 99.4346 38.6074 103.146C38.7118 106.345 39.7785 109.42 40.6934 112.458C42.0458 116.949 43.2259 122.673 46.5789 126.191C47.1438 126.784 47.8348 126.84 48.6276 127.01C52.2643 127.793 56.0375 127.807 59.7156 128.339C61.8911 128.654 64.0461 129.177 66.2467 129.295C69.5132 129.47 72.811 129.345 76.0807 129.345C77.7221 129.345 79.8131 129.664 81.3453 128.947C85.6268 126.944 88.5994 122.99 89.2671 118.393C90.4387 110.327 91.7743 102.231 92.0236 94.0816C92.1641 89.4853 92.1974 84.8972 92.1974 80.2992C92.1974 77.6171 90.9726 75.1635 90.5087 72.5512C90.4038 71.9602 90.4785 70.995 90.0617 70.5025C89.4627 69.7946 86.3689 70.1477 85.5545 70.13C82.8871 70.072 80.2138 70.1176 77.5458 70.1176C76.1469 70.1176 74.748 70.1176 73.349 70.1176C71.285 70.1176 76.4344 69.881 76.5277 69.8693C81.5209 69.2413 86.2346 68.3716 91.2786 68.6649C93.7106 68.8063 96.146 68.9656 98.5547 69.3478C99.3814 69.4789 100.529 69.9943 99.1507 70.7384C98.411 71.1378 97.2653 71.1662 96.5184 71.1606C92.2201 71.1281 87.8957 70.4836 83.63 70.0431C79.2378 69.5895 74.895 69.1527 70.4808 69.236C68.6464 69.2706 66.918 69.4293 65.1541 69.9438C63.384 70.46 61.5006 70.6794 59.7653 71.2848C56.9108 72.2805 53.8975 73.9616 51.3593 75.5933C47.9557 77.7813 47.6383 81.6925 47.1004 85.4397C46.0343 92.8651 45.9332 100.289 45.9332 107.789C45.9332 112.301 45.2995 119.625 50.8005 121.497C53.5371 122.429 56.5635 122.398 59.4176 122.416C62.5536 122.436 65.8025 122.641 68.9287 122.317C74.336 121.755 77.4565 117.902 78.9737 112.88C80.0689 109.256 80.7085 105.494 81.4198 101.78C81.517 101.272 81.4695 101.086 81.4695 101.904C81.4695 105.339 81.4695 108.775 81.4695 112.21C81.4695 116.014 81.4518 120.137 80.6251 123.857C80.5242 124.311 80.675 124.872 80.352 125.26C80.15 125.502 80.0978 124.668 80.0788 124.353C79.9416 122.083 79.888 119.807 79.756 117.537C79.4766 112.731 78.9817 107.936 78.5143 103.146C78.1881 99.8016 77.3984 96.5437 76.9995 93.2124C76.4069 88.2639 76.329 83.3418 76.329 78.3622C76.329 76.1438 76.329 73.9253 76.329 71.7069C76.329 69.5116 76.2334 70.9832 76.0558 72.3029C75.3329 77.6769 74.33 83.0266 73.349 88.3575C71.2335 99.8536 69.3483 111.309 67.6622 122.876C67.0601 127.006 66.2818 131.117 65.9239 135.28C65.8061 136.65 65.8246 138.662 65.8246 135.801C65.8246 112.39 66.1066 88.8344 69.8724 65.6725C70.1994 63.6611 70.5589 61.6524 70.9402 59.6504C72.27 52.6693 68.8388 73.7223 67.2401 80.6469C64.8003 91.2144 61.5135 101.507 58.772 111.986C58.3076 113.761 57.7786 119.235 57.7786 117.4C57.7786 115.385 58.0422 113.376 58.2753 111.378C59.2555 102.976 60.4001 94.5807 61.7768 86.2343C62.4758 81.9963 63.5722 77.9574 64.8561 73.8674C64.9978 73.4158 65.7106 70.8751 65.1789 72.9486C64.2635 76.5188 63.1974 80.0507 62.0499 83.5523C59.6475 90.884 57.7434 98.376 55.7547 105.828C54.6489 109.971 53.5307 114.103 52.514 118.269C52.4539 118.516 52.1461 119.15 52.0918 118.902C51.6669 116.96 51.9694 113.485 51.9677 111.837C51.9557 100.489 51.9677 89.1398 51.9677 77.791C51.9677 75.3412 51.9526 72.8903 51.9677 70.4404C51.9702 70.0377 51.9427 69.607 52.0918 69.2236C52.5245 68.1112 52.4009 69.5273 52.4147 70.0679C52.5827 76.6693 53.308 83.2562 53.9667 89.8227C54.236 92.5064 54.3693 93.8815 54.749 96.4656C54.86 97.2209 54.9728 97.9766 55.1215 98.7254C55.2323 99.2833 55.1813 100.221 55.7423 100.315C56.9018 100.508 57.1671 98.4026 57.5676 97.2975C59.0722 93.1448 60.1939 88.767 61.0814 84.4463C62.3858 78.0966 62.7919 71.6344 62.6832 65.1634C62.6736 64.595 62.7311 63.539 62.1244 64.555C60.9244 66.5647 60.1528 68.9131 59.4176 71.1109C57.5221 76.7771 55.8116 82.6379 54.8483 88.5438C54.5409 90.4286 53.8868 92.8372 53.9792 94.7769C53.9849 94.898 54.0278 95.0332 54.1778 94.9011C55.9761 93.3175 57.6531 91.1442 59.1817 89.3757C62.97 84.9932 66.5624 80.4151 70.5429 76.2017C71.1836 75.5235 75.7754 69.9378 77.7197 70.726C78.5153 71.0486 78.3137 73.6653 78.3157 73.7557C78.4041 77.9135 78.4937 82.0323 78.8372 86.1846C79.4273 93.3186 80.1611 100.506 81.6557 107.516C81.9322 108.813 82.2502 110.105 82.6615 111.365C82.8855 112.052 83.1765 112.725 83.5555 113.34C83.7566 113.666 83.9976 114.215 84.3749 114.147C84.8631 114.059 85.1086 113.454 85.3434 113.017C85.8861 112.007 86.2813 110.924 86.6844 109.851C88.8345 104.128 90.7079 98.2645 92.6071 92.455C93.5127 89.685 94.8636 86.4136 94.9539 83.4033C94.9683 82.9224 94.7934 81.8666 94.0971 82.4721C90.0597 85.9829 91.3034 103.629 91.3034 98.2784" stroke="black" stroke-opacity="0.25" stroke-width="10" stroke-linecap="round"/>
</svg>
